<?xml version="1.0" encoding="UTF-8" standalone="no"?><!DOCTYPE svg PUBLIC "-//W3C//DTD SVG 1.1//EN" "http://www.w3.org/Graphics/SVG/1.1/DTD/svg11.dtd"><svg width="100%" height="100%" viewBox="0 0 2537 2537" version="1.1" xmlns="http://www.w3.org/2000/svg" xmlns:xlink="http://www.w3.org/1999/xlink" xml:space="preserve" style="fill-rule:evenodd;clip-rule:evenodd;stroke-linejoin:round;stroke-miterlimit:1.41421;"><g><path d="M2537,306.954c0,-169.412 -137.542,-306.954 -306.954,-306.954l-1923.09,0c-169.412,0 -306.954,137.542 -306.954,306.954l0,1923.09c0,169.412 137.542,306.954 306.954,306.954l1923.09,0c169.412,0 306.954,-137.542 306.954,-306.954l0,-1923.09Z" style="fill:#ff2734;"/><g><path d="M426.585,2256.52c-65.225,-17.224 -122.483,-72.122 -142.381,-136.572c-4.85,-15.619 -6.491,-30.593 -6.491,-58.365c0,-41.989 5.975,-66.977 23.199,-96.814c13.092,-22.682 306.577,-319.928 935.129,-947.134c665.562,-664.105 718.044,-715.371 749.025,-731.156c31.552,-16.099 88.036,-22.147 125.581,-13.443c56.871,13.185 110.534,55.451 135.115,106.403c16.394,33.986 20.211,49.808 20.285,84.126c0.074,38.671 -5.385,66.332 -18.514,93.679c-11.157,23.254 -25.578,38.283 -369.977,385.448c-197.094,198.681 -400.108,402.174 -451.133,452.222c-51.026,50.03 -245.133,242.901 -431.347,428.563c-186.196,185.679 -357.16,354.301 -379.898,374.752c-45.972,41.381 -68.913,54.806 -102.567,60.08c-29.616,4.647 -64.321,3.928 -86.026,-1.789Z" style="fill:#fff;fill-rule:nonzero;"/><path d="M427.028,1548.62c-27.496,-5.957 -57.038,-20.341 -80.568,-39.205c-74.888,-60.08 -97.404,-158.406 -56.355,-246.239c11.323,-24.25 26.61,-39.98 459.064,-472.415c455.264,-455.227 485.415,-484.604 510.937,-497.475c131.408,-66.331 287.749,30.224 288.044,177.897c0.055,25.891 -7.543,65.52 -15.656,81.711c-11.581,23.088 -50.583,65.133 -205.614,221.658c-247.604,250.019 -682.363,683.099 -721.641,718.856c-39.334,35.812 -61.205,47.854 -100.65,55.414c-30.925,5.901 -49.642,5.865 -77.561,-0.202Z" style="fill:#fff;fill-rule:nonzero;"/><path d="M431.582,817.424c-57.018,-14.439 -108.007,-55.488 -133.492,-107.49c-30.888,-63.068 -26.296,-140.74 11.71,-198.404c6.602,-10.014 54.566,-60.799 106.587,-112.857c87.87,-87.944 96.335,-95.486 119.386,-106.459c33.23,-15.803 59.932,-22.221 92.646,-22.221c54.289,0 98.842,19.049 139.209,59.527c29.247,29.339 45.899,59.305 54.566,98.178c11.009,49.495 0.442,107.934 -27.016,149.61c-15.453,23.438 -190.253,197.998 -213.783,213.488c-39.537,26.038 -105.684,37.785 -149.813,26.628Z" style="fill:#fff;fill-rule:nonzero;"/><path d="M1867.49,2261.3c-24.01,-5.606 -60.541,-26.259 -83.223,-47.024c-51.265,-46.95 -70.923,-101.534 -63.529,-176.348c5.44,-55.322 18.128,-74.814 109.797,-168.714c133.99,-137.329 160.231,-154.534 235.451,-154.644c69.337,-0.111 128.034,31.183 166.556,88.81c25.282,37.767 31.958,61.02 31.921,110.976c-0.018,34.651 -1.254,44.977 -7.727,63.75c-13.185,38.32 -29.892,58.715 -129.324,157.926c-100.023,99.82 -108.69,106.68 -154.792,122.133c-16.154,5.403 -28.214,6.823 -56.244,6.565c-19.621,-0.184 -41.621,-1.733 -48.886,-3.43Z" style="fill:#fff;fill-rule:nonzero;"/><path d="M1144.68,2265.94c-48.61,-9.11 -111.382,-59.379 -134.248,-107.546c-20.672,-43.502 -25.707,-84.348 -16.154,-130.874c11.175,-54.474 2.379,-44.092 242.716,-287.73c119.791,-121.451 328.522,-331.011 463.84,-465.666c262.504,-261.268 263.001,-261.71 309.859,-276.26c67.088,-20.838 139.873,-4.26 190.899,43.502c27.421,25.632 43.594,50.361 55.857,85.399c8.648,24.729 9.884,32.64 9.699,63.012c-0.221,39.795 -9.755,75.754 -27.476,103.71c-11.083,17.482 -110.147,119.183 -325.922,334.662c-250.48,250.149 -551.838,548.981 -584.921,580.072c-49.808,46.765 -82.153,60.448 -141.053,59.692c-19.234,-0.239 -38.633,-1.143 -43.096,-1.973Z" style="fill:#fff;fill-rule:nonzero;"/></g></g></svg>