<?xml version="1.0" encoding="UTF-8" standalone="no"?>
<!DOCTYPE svg PUBLIC "-//W3C//DTD SVG 1.1//EN" "http://www.w3.org/Graphics/SVG/1.1/DTD/svg11.dtd">
<svg width="100%" height="100%" viewBox="0 0 2537 452" version="1.1" xmlns="http://www.w3.org/2000/svg" xmlns:xlink="http://www.w3.org/1999/xlink" xml:space="preserve" style="fill-rule:evenodd;clip-rule:evenodd;stroke-linejoin:round;stroke-miterlimit:1.41421;">
    <g transform="matrix(1,0,0,1,-150.636,-152.979)">
        <g transform="matrix(4.16667,0,0,4.16667,0,0)">
            <path d="M166.925,143.129L166.925,133.481L210.412,74.011L168.365,74.011L168.365,64.363L222.508,64.363L222.508,73.435L179.453,133.481L225.244,133.481L225.244,143.129L166.925,143.129Z" style="fill:white;fill-rule:nonzero;"/>
        </g>
        <g transform="matrix(4.16667,0,0,4.16667,0,0)">
            <path d="M273.482,72.283C258.506,72.283 246.555,82.506 243.675,97.626L304.01,97.626C300.41,81.93 288.746,72.283 273.482,72.283ZM243.387,107.273C244.251,122.825 257.931,135.209 274.058,135.209C286.01,135.209 297.098,128.009 301.562,117.209L312.649,117.209C307.609,132.186 292.202,145.001 274.346,145.001C251.019,145.001 232.731,126.713 232.731,103.386C232.731,80.491 250.73,62.491 273.626,62.491C296.954,62.491 314.666,79.338 314.666,107.273L243.387,107.273Z" style="fill:white;fill-rule:nonzero;"/>
        </g>
        <g transform="matrix(4.16667,0,0,4.16667,0,0)">
            <path d="M370.682,72.283C353.113,72.283 339.29,85.962 339.29,103.386C339.29,120.81 353.258,135.209 370.537,135.209C388.249,135.209 401.641,121.529 401.641,103.386C401.641,85.674 388.393,72.283 370.682,72.283ZM370.825,145.001C357.865,145.001 346.634,139.385 340.01,129.593L340.01,143.129L329.354,143.129L329.354,36.715L340.01,36.715L340.01,77.899C346.777,67.962 357.722,62.491 370.969,62.491C394.297,62.491 412.44,80.491 412.44,103.674C412.44,127.289 394.585,145.001 370.825,145.001Z" style="fill:white;fill-rule:nonzero;"/>
        </g>
        <g transform="matrix(4.16667,0,0,4.16667,0,0)">
            <path d="M468.889,72.283C451.32,72.283 437.496,85.962 437.496,103.386C437.496,120.81 451.465,135.209 468.744,135.209C486.455,135.209 499.848,121.529 499.848,103.386C499.848,85.674 486.6,72.283 468.889,72.283ZM469.031,145.001C456.072,145.001 444.84,139.385 438.217,129.593L438.217,143.129L427.561,143.129L427.561,36.715L438.217,36.715L438.217,77.899C444.984,67.962 455.928,62.491 469.176,62.491C492.504,62.491 510.646,80.491 510.646,103.674C510.646,127.289 492.791,145.001 469.031,145.001Z" style="fill:white;fill-rule:nonzero;"/>
        </g>
        <g transform="matrix(4.16667,0,0,4.16667,0,0)">
            <path d="M536.424,97.194L536.424,143.129L525.768,143.129L525.768,64.363L536.424,64.363L536.424,75.594C540.6,66.955 547.367,63.067 558.742,62.491L558.742,73.002C543.912,74.443 536.424,82.506 536.424,97.194Z" style="fill:white;fill-rule:nonzero;"/>
        </g>
        <g transform="matrix(4.16667,0,0,4.16667,0,0)">
            <path d="M603.525,72.283C586.391,72.283 572.566,86.107 572.566,103.241C572.566,121.241 586.246,135.209 604.102,135.209C621.094,135.209 634.342,121.241 634.342,103.386C634.342,85.819 620.807,72.283 603.525,72.283ZM634.342,143.129L634.342,129.306C625.99,140.537 617.35,145.001 603.959,145.001C579.768,145.001 561.768,127.434 561.768,103.962C561.768,80.346 579.623,62.491 603.238,62.491C616.918,62.491 626.566,67.387 634.342,78.331L634.342,64.363L644.998,64.363L644.998,143.129L634.342,143.129Z" style="fill:white;fill-rule:nonzero;"/>
        </g>
        <g transform="matrix(4.16667,0,0,4.16667,0,0)">
            <path d="M44.653,144.557C41.116,143.623 38.011,140.646 36.932,137.151C36.669,136.304 36.58,135.492 36.58,133.986C36.58,131.709 36.904,130.354 37.838,128.736C38.548,127.506 54.463,111.387 88.548,77.375C124.64,41.362 127.486,38.582 129.166,37.726C130.877,36.853 133.94,36.525 135.976,36.997C139.06,37.712 141.97,40.004 143.303,42.767C144.192,44.61 144.399,45.468 144.403,47.329C144.407,49.426 144.111,50.926 143.399,52.409C142.794,53.67 142.012,54.485 123.336,73.311C112.648,84.085 101.639,95.12 98.872,97.834C96.105,100.547 85.579,111.006 75.481,121.074C65.384,131.143 56.113,140.287 54.88,141.396C52.387,143.64 51.143,144.368 49.318,144.654C47.712,144.906 45.83,144.867 44.653,144.557Z" style="fill:white;fill-rule:nonzero;"/>
        </g>
        <g transform="matrix(4.16667,0,0,4.16667,0,0)">
            <path d="M44.677,106.169C43.186,105.846 41.584,105.066 40.308,104.043C36.247,100.785 35.026,95.453 37.252,90.69C37.866,89.375 38.695,88.522 62.146,65.072C86.834,40.386 88.469,38.793 89.853,38.095C96.979,34.498 105.457,39.734 105.473,47.742C105.476,49.146 105.064,51.295 104.624,52.173C103.996,53.425 101.881,55.705 93.474,64.193C80.047,77.751 56.471,101.236 54.341,103.175C52.208,105.117 51.022,105.77 48.883,106.18C47.206,106.5 46.191,106.498 44.677,106.169Z" style="fill:white;fill-rule:nonzero;"/>
        </g>
        <g transform="matrix(4.16667,0,0,4.16667,0,0)">
            <path d="M44.924,66.518C41.832,65.735 39.067,63.509 37.685,60.689C36.01,57.269 36.259,53.057 38.32,49.93C38.678,49.387 41.279,46.633 44.1,43.81C48.865,39.041 49.324,38.632 50.574,38.037C52.376,37.18 53.824,36.832 55.598,36.832C58.542,36.832 60.958,37.865 63.147,40.06C64.733,41.651 65.636,43.276 66.106,45.384C66.703,48.068 66.13,51.237 64.641,53.497C63.803,54.768 54.324,64.234 53.048,65.074C50.904,66.486 47.317,67.123 44.924,66.518Z" style="fill:white;fill-rule:nonzero;"/>
        </g>
        <g transform="matrix(4.16667,0,0,4.16667,0,0)">
            <path d="M122.79,144.816C121.488,144.512 119.507,143.392 118.277,142.266C115.497,139.72 114.431,136.76 114.832,132.703C115.127,129.703 115.815,128.646 120.786,123.554C128.052,116.107 129.475,115.174 133.554,115.168C137.314,115.162 140.497,116.859 142.586,119.984C143.957,122.032 144.319,123.293 144.317,126.002C144.316,127.881 144.249,128.441 143.898,129.459C143.183,131.537 142.277,132.643 136.885,138.023C131.461,143.436 130.991,143.808 128.491,144.646C127.615,144.939 126.961,145.016 125.441,145.002C124.377,144.992 123.184,144.908 122.79,144.816Z" style="fill:white;fill-rule:nonzero;"/>
        </g>
        <g transform="matrix(4.16667,0,0,4.16667,0,0)">
            <path d="M83.594,145.068C80.958,144.574 77.554,141.848 76.314,139.236C75.193,136.877 74.92,134.662 75.438,132.139C76.044,129.185 75.567,129.748 88.6,116.536C95.096,109.95 106.415,98.586 113.753,91.284C127.988,77.116 128.015,77.092 130.556,76.303C134.194,75.173 138.141,76.072 140.908,78.662C142.395,80.052 143.272,81.393 143.937,83.293C144.406,84.634 144.473,85.063 144.463,86.71C144.451,88.868 143.934,90.818 142.973,92.334C142.372,93.282 137,98.797 125.299,110.482C111.716,124.047 95.374,140.252 93.58,141.938C90.879,144.474 89.125,145.216 85.931,145.175C84.888,145.162 83.836,145.113 83.594,145.068Z" style="fill:white;fill-rule:nonzero;"/>
        </g>
    </g>
</svg>
