<?xml version="1.0" encoding="UTF-8" standalone="no"?><!DOCTYPE svg PUBLIC "-//W3C//DTD SVG 1.1//EN" "http://www.w3.org/Graphics/SVG/1.1/DTD/svg11.dtd"><svg width="100%" height="100%" viewBox="0 0 284 100" version="1.1" xmlns="http://www.w3.org/2000/svg" xmlns:xlink="http://www.w3.org/1999/xlink" xml:space="preserve" style="fill-rule:evenodd;clip-rule:evenodd;stroke-linejoin:round;stroke-miterlimit:1.41421;"><g><path d="M115.6,37.55c0,-4.6 -3.2,-6.3 -7.9,-6.3l-11.4,0l0,13l11.4,0c5,0 7.9,-2.3 7.9,-6.7Z" style="fill:none;"/><path d="M108.3,55.55l-12,0l0,13.3l11.9,0c5,0 7.9,-2.4 7.9,-6.7c0.1,-5 -3,-6.6 -7.8,-6.6Z" style="fill:none;"/><rect x="0" y="19.45" width="61.1" height="61.1" style="fill:#ff6418;"/><path d="M124.2,49.95l0,-0.4c2.4,-1.8 6.5,-5.4 6.5,-12.9c0,-12.1 -8.9,-17.3 -21.2,-17.3l-29.1,0l0,61.1l30.3,0c12.3,0 21.3,-5.4 21.3,-17.3c0.1,-8.4 -5.9,-12.5 -7.8,-13.2Zm-27.9,-18.7l11.4,0c4.7,0 7.9,1.6 7.9,6.3c0,4.5 -2.9,6.7 -7.9,6.7l-11.4,0l0,-13Zm12,37.6l-12,0l0,-13.3l11.9,0c4.8,0 7.9,1.6 7.9,6.6c0.1,4.2 -2.8,6.7 -7.8,6.7Z" style="fill-rule:nonzero;"/><path d="M195.2,19.45l-18.5,0l-17.8,24.1l-0.8,0l0,-24.1l-15.9,0l0,61.1l15.9,0l0,-24.8l0.8,0l21,24.8l20.1,0l-28.1,-31.6l23.3,-29.5Z" style="fill-rule:nonzero;"/><path d="M267.4,19.45l-7.5,42.8l-0.6,0l-9.3,-42.8l-16.4,0l-9.3,42.8l-0.6,0l-7.5,-42.8l-16.2,0l12.6,61.1l19.7,0l9.2,-41l0.6,0l9,41l19.6,0l12.8,-61.1l-16.1,0Z" style="fill-rule:nonzero;"/></g></svg>