<?xml version="1.0" encoding="UTF-8" standalone="no"?>
<!-- Generator: Adobe Illustrator 15.1.0, SVG Export Plug-In . SVG Version: 6.00 Build 0)  -->

<svg
   xmlns:dc="http://purl.org/dc/elements/1.1/"
   xmlns:cc="http://creativecommons.org/ns#"
   xmlns:rdf="http://www.w3.org/1999/02/22-rdf-syntax-ns#"
   xmlns:svg="http://www.w3.org/2000/svg"
   xmlns="http://www.w3.org/2000/svg"
   xmlns:sodipodi="http://sodipodi.sourceforge.net/DTD/sodipodi-0.dtd"
   xmlns:inkscape="http://www.inkscape.org/namespaces/inkscape"
   version="1.1"
   id="Ebene_1"
   x="0px"
   y="0px"
   width="190"
   height="72.444"
   viewBox="0 0 190 72.444"
   enable-background="new 0 0 200 90"
   xml:space="preserve"
   sodipodi:docname="feusi.svg"
   inkscape:version="0.92.1 r"><metadata
     id="metadata4143"><rdf:RDF><cc:Work
         rdf:about=""><dc:format>image/svg+xml</dc:format><dc:type
           rdf:resource="http://purl.org/dc/dcmitype/StillImage" /></cc:Work></rdf:RDF></metadata><defs
     id="defs4141" /><sodipodi:namedview
     pagecolor="#ffffff"
     bordercolor="#666666"
     borderopacity="1"
     objecttolerance="10"
     gridtolerance="10"
     guidetolerance="10"
     inkscape:pageopacity="0"
     inkscape:pageshadow="2"
     inkscape:window-width="640"
     inkscape:window-height="480"
     id="namedview4139"
     showgrid="false"
     inkscape:zoom="1.42"
     inkscape:cx="95"
     inkscape:cy="36.222"
     inkscape:window-x="0"
     inkscape:window-y="23"
     inkscape:window-maximized="0"
     inkscape:current-layer="Ebene_1" /><g
     id="g4136"
     transform="translate(-5,-8.778)"><g
       id="g4120"><path
         d="m 5,81.222 0.825,-3.776 c 3.456,-0.916 5.922,-4.771 7.398,-11.6 l 0.225,-1.03 -4.854,0.008 2.758,-12.615 H 23.873 L 21.478,63.188 C 19.036,74.392 13.54,80.398 5,81.222 Z"
         id="path4116"
         inkscape:connector-curvature="0"
         style="fill:#e60038" /><polygon
         points="17.295,25.042 29.825,25.042 27.058,37.652 14.536,37.652 "
         id="polygon4118"
         style="fill:#e60038" /></g><g
       id="g4134"><polygon
         points="170.786,64.823 182.965,64.823 191.538,24.868 179.37,24.868 "
         id="polygon4122"
         style="fill:#008d8d" /><polygon
         points="180.692,18.684 192.861,18.684 195,8.778 182.814,8.778 "
         id="polygon4124"
         style="fill:#008d8d" /><path
         d="m 54.504,8.903 c -4.854,0 -9.556,3.83 -10.621,8.693 l -10.15,47.227 h 12.162 l 7.83,-36.451 h 5.819 l 0.758,-3.504 h -5.799 l 0.95,-4.524 c 0.237,-1.04 1.413,-1.885 2.63,-1.885 h 3.588 l 2.052,-9.556 z"
         id="path4126"
         inkscape:connector-curvature="0"
         style="fill:#008d8d" /><path
         d="m 154.408,64.823 c 4.862,0 9.548,-3.829 10.623,-8.693 v 0.018 l 0.815,-3.784 c 0.216,-0.953 0.216,-1.798 0.112,-2.573 -0.162,-3.275 -2.011,-5.035 -5.245,-5.979 l -9.34,-3.112 c -0.561,-0.155 -0.901,-0.781 -0.764,-1.387 l 2.159,-10.062 c 0.114,-0.48 0.583,-0.879 1.075,-0.879 h 4.065 c 0.408,0 0.689,0.29 0.703,0.681 -0.014,0.06 -0.014,0.115 -0.025,0.17 v 0 c 0,0.015 0,0.021 0,0.028 l -1.189,5.508 -0.821,3.798 h 12.238 l 1.047,-4.964 v 0 l 0.012,-0.008 v -0.022 c 1.022,-4.867 -2.035,-8.694 -6.898,-8.694 h -12.536 l -0.007,0.023 c -4.872,0 -9.563,3.83 -10.643,8.693 l -0.825,3.732 c -0.218,0.964 -0.25,1.805 -0.134,2.568 0.134,3.282 1.831,5.169 5.081,6.106 l 9.342,3.119 c 0.558,0.157 0.908,0.771 0.754,1.386 l -2.118,9.916 c -0.108,0.475 -0.588,0.883 -1.076,0.883 h -4.054 c -0.416,0 -0.703,-0.296 -0.703,-0.68 0,-0.061 0,-0.116 0.018,-0.179 v 0 c 0,-0.012 0,-0.016 0,-0.024 l 1.168,-5.48 0.826,-3.794 h -12.031 l -1.074,4.991 v 0 c -1.004,4.864 2.039,8.693 6.898,8.693 h 12.547 z"
         id="path4128"
         inkscape:connector-curvature="0"
         style="fill:#008d8d" /><path
         d="m 103.957,64.823 c -4.875,0 -7.912,-3.829 -6.905,-8.693 l 0.017,-0.069 6.695,-31.192 h 12.165 l -7.581,35.317 c -0.137,0.604 0.264,1.11 0.874,1.11 h 3.606 c 0.599,0 1.205,-0.506 1.341,-1.11 l 7.581,-35.317 h 12.173 l -8.577,39.955 h -21.389 z"
         id="path4130"
         inkscape:connector-curvature="0"
         style="fill:#008d8d" /><path
         d="M 93.264,33.537 C 94.278,28.664 91.231,24.84 86.371,24.84 h -12.67 c -4.852,0 -9.546,3.824 -10.616,8.697 L 58.26,56.008 c -1.014,4.864 2.033,8.705 6.89,8.705 l -0.024,0.126 12.663,-0.016 c 4.865,0 9.557,-3.829 10.63,-8.693 l 0.031,-0.132 0.601,-2.772 H 76.869 l -1.507,6.997 c -0.134,0.614 -0.716,1.073 -1.326,1.073 h -3.678 c -0.608,0 -0.97,-0.506 -0.837,-1.11 l 2.34,-10.874 c 0.138,-0.616 0.744,-1.114 1.364,-1.114 h 16.9 l 3.139,-14.661 m -17.13,-4.08 v 0 c 0.151,-0.597 0.743,-1.085 1.346,-1.085 h 3.621 c 0.602,0 0.992,0.488 0.875,1.085 v 0 l -3.213,15.015 c -0.144,0.604 -0.747,1.104 -1.362,1.104 h -3.625 c -0.612,0 -1.013,-0.5 -0.876,-1.104 z"
         id="path4132"
         inkscape:connector-curvature="0"
         style="fill:#008d8d" /></g></g></svg>