<?xml version="1.0" encoding="UTF-8" standalone="no"?>
<!-- Created with Inkscape (http://www.inkscape.org/) -->

<svg
   xmlns:dc="http://purl.org/dc/elements/1.1/"
   xmlns:cc="http://creativecommons.org/ns#"
   xmlns:rdf="http://www.w3.org/1999/02/22-rdf-syntax-ns#"
   xmlns:svg="http://www.w3.org/2000/svg"
   xmlns="http://www.w3.org/2000/svg"
   version="1.1"
   width="892.91339"
   height="251.92912"
   id="svg6816">
  <defs
     id="defs6818" />
  <metadata
     id="metadata6821">
    <rdf:RDF>
      <cc:Work
         rdf:about="">
        <dc:format>image/svg+xml</dc:format>
        <dc:type
           rdf:resource="http://purl.org/dc/dcmitype/StillImage" />
        <dc:title></dc:title>
      </cc:Work>
    </rdf:RDF>
  </metadata>
  <g
     transform="translate(32.248146,-362.53264)"
     id="layer1">
    <g
       transform="matrix(2.9091538,0,0,2.9091538,-2262.213,-2955.3323)"
       id="g6845">
      <path
         d="m 774.61703,1178.5311 c 3.78556,7.6209 7.41962,15.293 11.00322,22.9146 0.30293,-0.051 0.65637,-0.1011 0.95936,-0.1011 0.3028,0 0.65619,0.05 0.95918,0.1011 3.63415,-7.8236 7.36911,-15.5958 11.15563,-23.4194 l 0.10103,0 c 0.80772,7.8236 1.66592,16.4036 2.01837,23.4194 1.41377,-0.1515 2.82734,-0.2525 4.18956,-0.2525 1.36318,0 2.72613,0.101 4.08931,0.2525 -1.2622,-7.1168 -3.0291,-23.2174 -4.34079,-34.8265 -0.70691,0.1514 -1.41378,0.2524 -2.12053,0.2524 -0.70674,0 -1.46415,-0.101 -2.17,-0.2524 -3.63489,8.0256 -7.7739,16.6054 -11.76237,24.1261 -3.68458,-7.1167 -7.97494,-16.1005 -11.65954,-24.1261 -0.65637,0.1514 -1.36312,0.2524 -2.01944,0.2524 -0.7068,0 -1.36228,-0.101 -2.06902,-0.2524 -1.41368,11.6091 -3.07971,23.2173 -5.19917,34.8265 0.80772,-0.1515 1.56417,-0.2525 2.37195,-0.2525 0.75728,0 1.565,0.101 2.37283,0.2525 0.50487,-7.6216 0.95829,-15.2937 2.01851,-22.9146 l 0.10191,0"
         id="path5169"
         style="fill:#0d4c93;fill-opacity:1;fill-rule:nonzero;stroke:none" />
      <path
         d="m 832.6824,1166.3668 c -0.65644,0.1009 -1.2622,0.2524 -1.91762,0.2524 -0.65638,0 -1.26222,-0.1515 -1.9183,-0.2524 -4.34098,11.5081 -11.9131,29.4766 -14.38586,35.0789 0.95913,-0.1011 1.71631,-0.2525 2.52341,-0.2525 0.80772,0 1.56491,0.1514 2.37269,0.2525 0.95844,-3.4826 2.06902,-6.9148 3.4322,-10.347 1.7669,-0.051 3.48258,-0.101 5.24972,-0.101 2.17079,0 4.29037,0.05 6.46132,0.101 1.26215,3.4322 2.42243,6.9148 3.48259,10.347 1.41349,-0.1011 2.8777,-0.2525 4.29036,-0.2525 1.41377,0 2.82728,0.1514 4.44289,0.2525 -3.83695,-8.2266 -9.74208,-23.5708 -14.0334,-35.0789 z m -8.58095,21.7541 c 1.46421,-4.0886 3.02934,-8.0759 4.74503,-12.0131 1.6155,3.9372 3.02814,7.9245 4.49229,12.0131 l -9.23732,0"
         id="path5171"
         style="fill:#0d4c93;fill-opacity:1;fill-rule:evenodd;stroke:none" />
      <path
         d="m 855.34706,1187.4645 c 0,5.6536 -0.10095,9.5392 -0.40394,13.9812 1.11069,-0.1011 2.47389,-0.2525 4.13896,-0.2525 1.66611,0 3.02929,0.1514 4.13895,0.2525 -0.30192,-4.442 -0.40382,-8.3276 -0.40382,-13.9812 l 0,-12.6179 c 0,-1.9184 0,-3.736 0.1019,-4.4418 2.01847,0 6.25843,0.3029 8.98473,0.6562 -0.15156,-0.7572 -0.25254,-1.464 -0.25254,-2.2213 0,-0.7572 0.10098,-1.4633 0.25254,-2.2205 -4.29053,0.1514 -6.5623,0.2524 -12.82176,0.2524 -6.25842,0 -8.53036,-0.101 -13.12369,-0.2524 0.15162,0.7572 0.25238,1.4633 0.25238,2.2205 0,0.7573 -0.10076,1.4641 -0.25238,2.2213 3.02839,-0.3533 7.26814,-0.6562 9.23727,-0.6562 0.1514,0.7058 0.1514,2.5234 0.1514,4.4418 l 0,12.6179"
         id="path5173"
         style="fill:#0d4c93;fill-opacity:1;fill-rule:nonzero;stroke:none" />
      <path
         d="m 900.48444,1187.4645 c 0,5.6536 -0.101,9.5392 -0.40399,13.9812 1.10983,-0.1011 2.47302,-0.2525 4.13895,-0.2525 1.66615,0 3.02821,0.1514 4.13898,0.2525 -0.30297,-4.442 -0.4038,-8.3276 -0.4038,-13.9812 l 0,-6.8643 c 0,-5.6527 0.10083,-9.5392 0.4038,-13.981 -1.11077,0.101 -2.47283,0.2524 -4.13898,0.2524 -1.66593,0 -3.02912,-0.1514 -4.13895,-0.2524 0.30299,4.3914 0.40399,8.278 0.40399,13.8802 -1.91857,0.05 -4.03891,0.1008 -7.62268,0.1008 -3.58358,0 -6.00691,-0.051 -7.72254,-0.1008 0,-5.6022 0.10099,-9.4888 0.404,-13.8802 -1.11171,0.101 -2.47393,0.2524 -4.1399,0.2524 -1.66521,0 -3.02817,-0.1514 -4.13899,-0.2524 0.30304,4.4418 0.40382,8.3283 0.40382,13.981 l 0,6.8643 c 0,5.6536 -0.10078,9.5392 -0.40382,13.9812 1.11082,-0.1011 2.47378,-0.2525 4.13899,-0.2525 1.66597,0 3.02819,0.1514 4.1399,0.2525 -0.30301,-4.442 -0.404,-8.3276 -0.404,-13.9812 l 0,-2.8768 c 2.57399,-0.101 5.14783,-0.2029 7.67214,-0.2029 2.57473,0 5.09814,0.1525 7.67308,0.2029 l 0,2.8768"
         id="path5175"
         style="fill:#0d4c93;fill-opacity:1;fill-rule:nonzero;stroke:none" />
      <path
         d="m 930.46861,1181.7613 c -1.4117,-2.3223 -5.19822,-10.1449 -7.52058,-15.1421 -1.51456,0.101 -2.97777,0.2524 -4.49237,0.2524 -1.51471,0 -3.02927,-0.1514 -4.54292,-0.2524 1.56515,2.8768 7.31874,13.6782 10.80229,20.3909 0.0504,1.5652 0.10099,3.1292 0.10099,4.6944 0,3.1292 -0.4544,6.5109 -0.60579,9.7412 1.41354,-0.1011 2.87773,-0.2525 4.29125,-0.2525 1.41174,0 2.8759,0.1514 4.28946,0.2525 -0.45438,-3.7856 -0.50478,-7.2178 -0.50478,-10.549 0,-1.6652 0.10096,-3.3312 0.10096,-4.9458 3.23112,-6.3603 8.32834,-15.5461 10.5497,-19.3317 -0.85819,0.101 -1.61559,0.2524 -2.42334,0.2524 -0.80778,0 -1.56496,-0.1514 -2.32051,-0.2524 -2.22134,4.9458 -4.89706,11.3062 -7.6234,15.1421 l -0.10096,0"
         id="path5177"
         style="fill:#0d4c93;fill-opacity:1;fill-rule:nonzero;stroke:none" />
      <path
         d="m 963.96897,1173.433 c 0.65728,-2.2204 1.00995,-3.4322 1.61553,-4.9972 -1.91834,-1.5138 -4.64354,-2.4729 -8.27901,-2.4729 -6.00599,0 -11.35747,3.8359 -11.35747,10.8013 0,11.4577 15.0428,9.4382 15.0428,17.0599 0,2.8271 -1.96823,5.1485 -5.90464,5.1485 -4.08949,0 -6.41182,-2.5234 -6.96721,-5.4515 l -0.95938,0 c -0.35339,2.2719 -0.80591,4.0883 -1.46395,6.41 1.46395,1.1106 4.49328,2.1709 8.12761,2.1709 8.02609,0 13.37498,-4.6439 13.37498,-11.4073 0,-11.4575 -15.34337,-9.5895 -15.34337,-17.0597 0,-2.4224 2.17151,-4.543 5.24938,-4.543 3.07969,0 5.04791,1.4642 6.10771,4.341 l 0.75702,0"
         id="path5179"
         style="fill:#0d4c93;fill-opacity:1;fill-rule:nonzero;stroke:none" />
      <path
         d="m 1072.2482,1183.7683 -42.1227,42.1216 -6.5435,-6.4983 0,-49.4818 24.6968,24.6048 17.3576,-17.3348 6.6118,6.5885"
         id="path5181"
         style="fill:#0d4c93;fill-opacity:1;fill-rule:nonzero;stroke:none" />
      <path
         d="m 1020.9215,1163.481 0,53.161 -32.82999,-32.8052 42.10229,-42.1451 33.5777,33.603 -15.5166,15.5163 -27.3334,-27.33"
         id="path5183"
         style="fill:#0d4c93;fill-opacity:1;fill-rule:nonzero;stroke:none" />
    </g>
  </g>
</svg>
