<?xml version="1.0" encoding="UTF-8" standalone="no"?><!DOCTYPE svg PUBLIC "-//W3C//DTD SVG 1.1//EN" "http://www.w3.org/Graphics/SVG/1.1/DTD/svg11.dtd"><svg width="100%" height="100%" viewBox="0 0 226 87" version="1.1" xmlns="http://www.w3.org/2000/svg" xmlns:xlink="http://www.w3.org/1999/xlink" xml:space="preserve" style="fill-rule:evenodd;clip-rule:evenodd;stroke-linejoin:round;stroke-miterlimit:1.41421;"><path d="M0,86.04l0.978,-4.488c4.109,-1.078 7.031,-5.662 8.788,-13.775l0.265,-1.215l-5.765,0.006l3.278,-14.978l14.872,0l-2.844,13.028c-2.903,13.306 -9.428,20.447 -19.572,21.422" style="fill:#ed1846;fill-rule:nonzero;"/><path d="M26.201,34.293l-14.869,0l3.272,-14.979l14.881,0l-3.284,14.979Z" style="fill:#ed1846;fill-rule:nonzero;"/><path d="M221.57,19.104l-14.457,0l-10.203,47.462l14.469,0l10.191,-47.462Z" style="fill:#006fba;fill-rule:nonzero;"/><path d="M225.671,0l-14.475,0l-2.515,11.759l14.459,0l2.531,-11.759Z" style="fill:#006fba;fill-rule:nonzero;"/><path d="M178.632,24.318l0,-0.031c0.009,-0.066 0.009,-0.138 0.025,-0.207c-0.016,-0.459 -0.357,-0.806 -0.832,-0.806l-4.828,0c-0.59,0 -1.15,0.478 -1.284,1.044l-2.563,11.944l-5.215,24.793c-0.169,0.719 0.303,1.313 1.022,1.313l4.284,0c0.709,0 1.434,-0.594 1.6,-1.313l13.016,-61.053l14.459,0l-14.194,66.566l-25.419,0c-5.781,0 -9.403,-4.56 -8.193,-10.325l0.015,-0.088l4.788,-22.259l0.981,-4.431c1.281,-5.772 6.866,-10.335 12.644,-10.335l0.009,-0.025l14.888,0" style="fill:#006fba;fill-rule:nonzero;"/><path d="M132.596,24.56l-3.816,17.828c-0.168,0.722 -0.887,1.316 -1.615,1.316l-4.303,0c-0.735,0 -1.21,-0.594 -1.044,-1.316l3.84,-17.828c0.182,-0.712 0.885,-1.287 1.6,-1.287l4.304,0c0.712,0 1.175,0.575 1.034,1.287m5.225,-5.49l-15.044,0c-5.769,0 -11.34,4.553 -12.615,10.334l-5.766,26.838c-1.206,5.765 2.412,10.325 8.197,10.325l15.028,0c5.781,0 11.359,-4.56 12.628,-10.325l0.038,-0.157l0.715,-3.293l-14.465,0l-1.794,8.3c-0.156,0.734 -0.85,1.275 -1.575,1.275l-4.369,0c-0.722,0 -1.147,-0.591 -0.987,-1.313l2.771,-12.922c0.163,-0.725 0.888,-1.309 1.622,-1.309l20.075,0l3.732,-17.419c1.203,-5.781 -2.419,-10.334 -8.191,-10.334" style="fill:#006fba;fill-rule:nonzero;"/><path d="M91.344,19.229l-20.841,0l-0.006,0.025c-0.169,-0.009 -0.325,-0.025 -0.503,-0.025l-25.416,0l-10.181,47.463l14.459,0l9.003,-41.95c0.163,-0.719 0.888,-1.316 1.597,-1.316l4.285,0c0.715,0 1.193,0.597 1.025,1.316l-9,41.95l14.437,0l9.003,-41.95c0.166,-0.719 0.891,-1.316 1.6,-1.316l4.281,0c0.719,0 1.194,0.597 1.025,1.316l-8.996,41.95l14.453,0l7.953,-37.054l0.015,-0.081c1.21,-5.772 -2.412,-10.328 -8.193,-10.328" style="fill:#006fba;fill-rule:nonzero;"/></svg>