<?xml version="1.0" encoding="UTF-8" standalone="no"?><!DOCTYPE svg PUBLIC "-//W3C//DTD SVG 1.1//EN" "http://www.w3.org/Graphics/SVG/1.1/DTD/svg11.dtd"><svg width="100%" height="100%" viewBox="0 0 791 256" version="1.1" xmlns="http://www.w3.org/2000/svg" xmlns:xlink="http://www.w3.org/1999/xlink" xml:space="preserve" style="fill-rule:evenodd;clip-rule:evenodd;stroke-linejoin:round;stroke-miterlimit:1.41421;"><path id="path2943" d="M153.628,63.588c1.538,0.977 3.337,1.538 5.776,1.538c3.226,0 5.889,-1.65 5.889,-5.362c0,-5.141 -12.004,-5.778 -12.004,-12.641c0,-4.201 3.676,-6.828 8.291,-6.828c1.275,0 3.337,0.188 5.139,0.862l-0.413,2.365c-1.162,-0.639 -3.002,-0.976 -4.764,-0.976c-2.7,0 -5.663,1.125 -5.663,4.501c0,5.253 12.002,5.289 12.002,12.941c0,5.289 -4.538,7.389 -8.59,7.389c-2.55,0 -4.537,-0.525 -5.926,-1.126l0.263,-2.663" style="fill-rule:nonzero;"/><path id="path2945" d="M188.21,50.347c-1.274,-0.562 -2.812,-0.974 -4.088,-0.974c-4.613,0 -7.203,3.339 -7.203,7.989c0,4.352 2.626,7.991 6.939,7.991c1.501,0 2.89,-0.339 4.316,-0.864l0.224,2.214c-1.613,0.561 -3.115,0.674 -4.913,0.674c-6.154,0 -9.154,-4.689 -9.154,-10.015c0,-5.89 3.789,-10.015 9.454,-10.015c2.287,0 3.937,0.525 4.613,0.749l-0.188,2.251" style="fill-rule:nonzero;"/><path id="path2947" d="M195.338,38.794l2.362,0l0,12.229l0.076,0c1.013,-2.099 3.151,-3.676 5.963,-3.676c5.14,0 6.527,3.415 6.527,8.14l0,11.44l-2.363,0l0,-11.403c0,-3.3 -0.637,-6.151 -4.538,-6.151c-4.2,0 -5.665,3.976 -5.665,7.315l0,10.239l-2.362,0l0,-28.133" style="fill-rule:nonzero;"/><path id="path2949" d="M238.775,66.927l-2.851,0l-5.214,-16.541l-0.076,0l-5.213,16.541l-2.851,0l-6.151,-19.131l2.587,0l5.026,16.544l0.075,0l5.327,-16.544l2.85,0l5.065,16.544l0.073,0l5.29,-16.544l2.362,0l-6.299,19.131" style="fill-rule:nonzero;"/><path id="path2951" d="M262.892,56.012c0,-3.339 -1.349,-6.639 -4.874,-6.639c-3.49,0 -5.628,3.488 -5.628,6.639l10.502,0Zm1.165,10.315c-1.65,0.676 -3.789,1.05 -5.553,1.05c-6.339,0 -8.702,-4.277 -8.702,-10.015c0,-5.851 3.227,-10.015 8.064,-10.015c5.402,0 7.616,4.352 7.616,9.49l0,1.201l-13.092,0c0,4.052 2.177,7.315 6.302,7.315c1.725,0 4.239,-0.713 5.365,-1.425l0,2.399" style="fill-rule:nonzero;"/><path id="path2953" d="M272.907,47.796l2.363,0l0,19.131l-2.363,0l0,-19.131Zm2.363,-5.101l-2.363,0l0,-3.149l2.363,0l0,3.149" style="fill-rule:nonzero;"/><path id="path2955" d="M282.4,64.94l11.516,-15.118l-11.067,0l0,-2.026l13.802,0l0,2.026l-11.513,15.08l11.513,0l0,2.025l-14.251,0l0,-1.987" style="fill-rule:nonzero;"/><path id="path2957" d="M315.405,56.012c0,-3.339 -1.35,-6.639 -4.875,-6.639c-3.49,0 -5.628,3.488 -5.628,6.639l10.503,0Zm1.164,10.315c-1.65,0.676 -3.788,1.05 -5.553,1.05c-6.339,0 -8.702,-4.277 -8.702,-10.015c0,-5.851 3.227,-10.015 8.065,-10.015c5.401,0 7.615,4.352 7.615,9.49l0,1.201l-13.092,0c0,4.052 2.177,7.315 6.302,7.315c1.726,0 4.239,-0.713 5.365,-1.425l0,2.399" style="fill-rule:nonzero;"/><path id="path2959" d="M325.422,52.073c0,-2.1 0,-2.888 -0.149,-4.277l2.363,0l0,3.676l0.073,0c0.864,-2.136 2.477,-4.125 4.915,-4.125c0.562,0 1.238,0.112 1.651,0.224l0,2.478c-0.488,-0.151 -1.126,-0.227 -1.726,-0.227c-3.752,0 -4.764,4.203 -4.764,7.652l0,9.453l-2.363,0l0,-14.854" style="fill-rule:nonzero;"/><path id="path2961" d="M340.838,47.796l2.363,0l0,19.131l-2.363,0l0,-19.131Zm2.363,-5.101l-2.363,0l0,-3.149l2.363,0l0,3.149" style="fill-rule:nonzero;"/><path id="path2963" d="M350.628,64.152c1.425,0.713 3.152,1.201 4.989,1.201c2.251,0 4.238,-1.24 4.238,-3.415c0,-4.537 -9.19,-3.824 -9.19,-9.377c0,-3.789 3.075,-5.214 6.226,-5.214c1.014,0 3.039,0.224 4.726,0.864l-0.225,2.063c-1.237,-0.564 -2.924,-0.901 -4.237,-0.901c-2.438,0 -4.127,0.749 -4.127,3.188c0,3.563 9.414,3.114 9.414,9.377c0,4.052 -3.788,5.439 -6.676,5.439c-1.838,0 -3.676,-0.225 -5.362,-0.899l0.224,-2.326" style="fill-rule:nonzero;"/><path id="path2965" d="M382.059,50.347c-1.274,-0.562 -2.812,-0.974 -4.089,-0.974c-4.613,0 -7.202,3.339 -7.202,7.989c0,4.352 2.626,7.991 6.939,7.991c1.501,0 2.89,-0.339 4.315,-0.864l0.225,2.214c-1.614,0.561 -3.115,0.674 -4.913,0.674c-6.154,0 -9.154,-4.689 -9.154,-10.015c0,-5.89 3.788,-10.015 9.454,-10.015c2.287,0 3.936,0.525 4.613,0.749l-0.188,2.251" style="fill-rule:nonzero;"/><path id="path2967" d="M389.186,38.794l2.363,0l0,12.229l0.076,0c1.012,-2.099 3.15,-3.676 5.962,-3.676c5.141,0 6.527,3.415 6.527,8.14l0,11.44l-2.363,0l0,-11.403c0,-3.3 -0.637,-6.151 -4.537,-6.151c-4.201,0 -5.665,3.976 -5.665,7.315l0,10.239l-2.363,0l0,-28.133" style="fill-rule:nonzero;"/><path id="path2969" d="M424.632,56.012c0,-3.339 -1.35,-6.639 -4.874,-6.639c-3.491,0 -5.629,3.488 -5.629,6.639l10.503,0Zm1.164,10.315c-1.65,0.676 -3.788,1.05 -5.553,1.05c-6.339,0 -8.701,-4.277 -8.701,-10.015c0,-5.851 3.227,-10.015 8.064,-10.015c5.402,0 7.616,4.352 7.616,9.49l0,1.201l-13.093,0c0,4.052 2.177,7.315 6.302,7.315c1.726,0 4.24,-0.713 5.365,-1.425l0,2.399" style="fill-rule:nonzero;"/><path id="path2971" d="M447.139,40.745l12.826,0l0,2.25l-10.239,0l0,9.341l9.715,0l0,2.25l-9.715,0l0,10.091l10.691,0l0,2.25l-13.278,0l0,-26.182" style="fill-rule:nonzero;"/><path id="path2973" d="M468.557,47.796l2.363,0l0,19.131l-2.363,0l0,-19.131Zm2.363,-5.101l-2.363,0l0,-3.149l2.363,0l0,3.149" style="fill-rule:nonzero;"/><path id="path2975" d="M486.937,65.353c4.2,0 5.663,-4.503 5.663,-7.991c0,-3.488 -1.463,-7.989 -5.663,-7.989c-4.501,0 -5.665,4.276 -5.665,7.989c0,3.715 1.164,7.991 5.665,7.991Zm8.027,1.574l-2.364,0l0,-3.038l-0.074,0c-1.276,2.438 -3.227,3.488 -5.965,3.488c-5.25,0 -7.877,-4.35 -7.877,-10.015c0,-5.814 2.251,-10.015 7.877,-10.015c3.751,0 5.626,2.739 5.965,3.676l0.074,0l0,-12.229l2.364,0l0,28.133" style="fill-rule:nonzero;"/><path id="path2977" d="M510.569,64.902c4.274,0 5.814,-4.052 5.814,-7.54c0,-4.613 -1.35,-7.989 -5.664,-7.989c-4.499,0 -5.663,4.276 -5.663,7.989c0,3.751 1.499,7.54 5.513,7.54Zm8.178,0.451c0,5.326 -2.399,9.676 -8.962,9.676c-2.515,0 -4.804,-0.713 -5.779,-1.013l0.185,-2.363c1.464,0.752 3.564,1.352 5.629,1.352c6.078,0 6.603,-4.428 6.603,-9.829l-0.075,0c-1.275,2.775 -3.379,3.751 -5.814,3.751c-6.118,0 -8.069,-5.326 -8.069,-9.565c0,-5.814 2.251,-10.015 7.879,-10.015c2.55,0 4.199,0.337 5.964,2.626l0.075,0l0,-2.177l2.364,0l0,17.557" style="fill-rule:nonzero;"/><path id="path2979" d="M539.038,56.012c0,-3.339 -1.35,-6.639 -4.874,-6.639c-3.489,0 -5.629,3.488 -5.629,6.639l10.503,0Zm1.164,10.315c-1.649,0.676 -3.789,1.05 -5.553,1.05c-6.339,0 -8.698,-4.277 -8.698,-10.015c0,-5.851 3.224,-10.015 8.063,-10.015c5.398,0 7.613,4.352 7.613,9.49l0,1.201l-13.092,0c0,4.052 2.18,7.315 6.304,7.315c1.724,0 4.239,-0.713 5.363,-1.425l0,2.399" style="fill-rule:nonzero;"/><path id="path2981" d="M549.055,52.3c0,-1.465 0,-2.964 -0.15,-4.504l2.29,0l0,3.415l0.075,0c0.785,-1.726 2.209,-3.864 6.188,-3.864c4.729,0 6.524,3.151 6.524,7.352l0,12.228l-2.36,0l0,-11.628c0,-3.6 -1.274,-5.926 -4.539,-5.926c-4.313,0 -5.663,3.788 -5.663,6.976l0,10.578l-2.365,0l0,-14.627" style="fill-rule:nonzero;"/><path id="path2983" d="M580.303,65.353c4.124,0 6.339,-3.564 6.339,-7.991c0,-4.425 -2.215,-7.989 -6.339,-7.989c-4.129,0 -6.343,3.564 -6.343,7.989c0,4.427 2.214,7.991 6.343,7.991Zm0,-18.006c6.189,0 8.928,4.801 8.928,10.015c0,5.213 -2.739,10.015 -8.928,10.015c-6.189,0 -8.928,-4.802 -8.928,-10.015c0,-5.214 2.739,-10.015 8.928,-10.015" style="fill-rule:nonzero;"/><path id="path2985" d="M595.155,64.152c1.424,0.713 3.154,1.201 4.988,1.201c2.25,0 4.239,-1.24 4.239,-3.415c0,-4.537 -9.187,-3.824 -9.187,-9.377c0,-3.789 3.074,-5.214 6.223,-5.214c1.015,0 3.039,0.224 4.724,0.864l-0.22,2.063c-1.24,-0.564 -2.924,-0.901 -4.239,-0.901c-2.439,0 -4.129,0.749 -4.129,3.188c0,3.563 9.418,3.114 9.418,9.377c0,4.052 -3.789,5.439 -6.679,5.439c-1.839,0 -3.674,-0.225 -5.363,-0.899l0.225,-2.326" style="fill-rule:nonzero;"/><path id="path2987" d="M612.67,64.152c1.425,0.713 3.155,1.201 4.989,1.201c2.25,0 4.239,-1.24 4.239,-3.415c0,-4.537 -9.193,-3.824 -9.193,-9.377c0,-3.789 3.08,-5.214 6.229,-5.214c1.015,0 3.039,0.224 4.724,0.864l-0.225,2.063c-1.235,-0.564 -2.919,-0.901 -4.234,-0.901c-2.44,0 -4.129,0.749 -4.129,3.188c0,3.563 9.418,3.114 9.418,9.377c0,4.052 -3.789,5.439 -6.679,5.439c-1.839,0 -3.674,-0.225 -5.364,-0.899l0.225,-2.326" style="fill-rule:nonzero;"/><path id="path2989" d="M643.318,56.012c0,-3.339 -1.354,-6.639 -4.878,-6.639c-3.49,0 -5.629,3.488 -5.629,6.639l10.507,0Zm1.16,10.315c-1.65,0.676 -3.784,1.05 -5.549,1.05c-6.338,0 -8.703,-4.277 -8.703,-10.015c0,-5.851 3.225,-10.015 8.063,-10.015c5.404,0 7.619,4.352 7.619,9.49l0,1.201l-13.097,0c0,4.052 2.179,7.315 6.303,7.315c1.725,0 4.239,-0.713 5.364,-1.425l0,2.399" style="fill-rule:nonzero;"/><path id="path2991" d="M653.331,52.3c0,-1.465 0,-2.964 -0.15,-4.504l2.289,0l0,3.415l0.075,0c0.785,-1.726 2.21,-3.864 6.189,-3.864c4.724,0 6.523,3.151 6.523,7.352l0,12.228l-2.359,0l0,-11.628c0,-3.6 -1.275,-5.926 -4.539,-5.926c-4.314,0 -5.664,3.788 -5.664,6.976l0,10.578l-2.364,0l0,-14.627" style="fill-rule:nonzero;"/><path id="path2993" d="M675.651,64.152c1.424,0.713 3.149,1.201 4.989,1.201c2.249,0 4.234,-1.24 4.234,-3.415c0,-4.537 -9.188,-3.824 -9.188,-9.377c0,-3.789 3.074,-5.214 6.228,-5.214c1.01,0 3.039,0.224 4.724,0.864l-0.225,2.063c-1.235,-0.564 -2.924,-0.901 -4.239,-0.901c-2.434,0 -4.124,0.749 -4.124,3.188c0,3.563 9.418,3.114 9.418,9.377c0,4.052 -3.794,5.439 -6.678,5.439c-1.84,0 -3.68,-0.225 -5.369,-0.899l0.23,-2.326" style="fill-rule:nonzero;"/><path id="path2995" d="M707.083,50.347c-1.274,-0.562 -2.814,-0.974 -4.089,-0.974c-4.614,0 -7.203,3.339 -7.203,7.989c0,4.352 2.624,7.991 6.938,7.991c1.505,0 2.89,-0.339 4.319,-0.864l0.22,2.214c-1.609,0.561 -3.114,0.674 -4.908,0.674c-6.154,0 -9.158,-4.689 -9.158,-10.015c0,-5.89 3.789,-10.015 9.457,-10.015c2.285,0 3.934,0.525 4.609,0.749l-0.185,2.251" style="fill-rule:nonzero;"/><path id="path2997" d="M714.212,38.794l2.359,0l0,12.229l0.075,0c1.015,-2.099 3.154,-3.676 5.964,-3.676c5.139,0 6.528,3.415 6.528,8.14l0,11.44l-2.359,0l0,-11.403c0,-3.3 -0.64,-6.151 -4.539,-6.151c-4.204,0 -5.669,3.976 -5.669,7.315l0,10.239l-2.359,0l0,-28.133" style="fill-rule:nonzero;"/><path id="path2999" d="M748.754,57.286l-0.67,0c-4.094,0 -8.963,0.415 -8.963,4.616c0,2.511 1.794,3.451 3.969,3.451c5.554,0 5.664,-4.84 5.664,-6.903l0,-1.164Zm0.225,6.566l-0.07,0c-1.05,2.287 -3.72,3.525 -6.079,3.525c-5.439,0 -6.303,-3.676 -6.303,-5.402c0,-6.412 6.828,-6.712 11.777,-6.712l0.45,0l0,-0.977c0,-3.263 -1.16,-4.913 -4.349,-4.913c-1.985,0 -3.86,0.449 -5.629,1.574l0,-2.287c1.465,-0.712 3.939,-1.313 5.629,-1.313c4.724,0 6.713,2.138 6.713,7.127l0,8.441c0,1.537 0,2.699 0.19,4.012l-2.329,0l0,-3.075" style="fill-rule:nonzero;"/><path id="path3001" d="M761.281,49.822l-3.859,0l0,-2.026l3.859,0l0,-1.386c0,-4.013 0.15,-8.065 5.068,-8.065c0.745,0 1.76,0.113 2.21,0.376l-0.15,2.063c-0.49,-0.264 -1.2,-0.413 -1.875,-0.413c-3.229,0 -2.889,3.488 -2.889,5.775l0,1.65l4.314,0l0,2.026l-4.314,0l0,17.105l-2.364,0l0,-17.105" style="fill-rule:nonzero;"/><path id="path3003" d="M783.335,49.822l-4.349,0l0,12.38c0,1.726 0.64,3.151 2.555,3.151c0.9,0 1.5,-0.188 2.169,-0.451l0.155,1.95c-0.564,0.224 -1.724,0.525 -2.889,0.525c-4.199,0 -4.354,-2.888 -4.354,-6.376l0,-11.179l-3.749,0l0,-2.026l3.749,0l0,-4.613l2.364,-0.825l0,5.438l4.349,0l0,2.026" style="fill-rule:nonzero;"/><path id="path3005" d="M172.008,95.41c-1.65,-0.862 -4.015,-1.125 -5.853,-1.125c-6.788,0 -10.616,4.8 -10.616,11.291c0,6.6 3.716,11.289 10.616,11.289c1.726,0 4.352,-0.225 5.853,-1.125l0.149,2.25c-1.426,0.864 -4.35,1.125 -6.002,1.125c-8.253,0 -13.202,-5.438 -13.202,-13.539c0,-7.953 5.101,-13.542 13.202,-13.542c1.538,0 4.652,0.264 6.002,0.977l-0.149,2.399" style="fill-rule:nonzero;"/><path id="path3007" d="M188.249,117.092c4.128,0 6.339,-3.564 6.339,-7.992c0,-4.425 -2.211,-7.988 -6.339,-7.988c-4.125,0 -6.339,3.563 -6.339,7.988c0,4.428 2.214,7.992 6.339,7.992Zm0,-18.007c6.19,0 8.929,4.802 8.929,10.015c0,5.214 -2.739,10.015 -8.929,10.015c-6.187,0 -8.926,-4.801 -8.926,-10.015c0,-5.213 2.739,-10.015 8.926,-10.015" style="fill-rule:nonzero;"/><path id="path3009" d="M204.566,104.038c0,-1.464 0,-2.963 -0.149,-4.503l2.287,0l0,3.415l0.076,0c0.786,-1.726 2.211,-3.865 6.188,-3.865c4.727,0 6.526,3.152 6.526,7.352l0,12.229l-2.363,0l0,-11.628c0,-3.6 -1.274,-5.926 -4.537,-5.926c-4.315,0 -5.665,3.788 -5.665,6.976l0,10.578l-2.363,0l0,-14.628" style="fill-rule:nonzero;"/><path id="path3011" d="M229.96,101.56l-3.863,0l0,-2.025l3.863,0l0,-1.387c0,-4.012 0.15,-8.064 5.063,-8.064c0.752,0 1.765,0.112 2.214,0.373l-0.149,2.065c-0.488,-0.263 -1.201,-0.412 -1.877,-0.412c-3.224,0 -2.887,3.488 -2.887,5.775l0,1.65l4.312,0l0,2.025l-4.312,0l0,17.106l-2.364,0l0,-17.106" style="fill-rule:nonzero;"/><path id="path3013" d="M251.492,92.146l2.962,0l-4.725,5.402l-1.726,0l3.489,-5.402Zm3.936,15.605c0,-3.339 -1.35,-6.639 -4.874,-6.639c-3.49,0 -5.628,3.488 -5.628,6.639l10.502,0Zm1.165,10.315c-1.65,0.675 -3.788,1.049 -5.553,1.049c-6.339,0 -8.702,-4.276 -8.702,-10.015c0,-5.85 3.227,-10.015 8.065,-10.015c5.401,0 7.615,4.353 7.615,9.491l0,1.2l-13.092,0c0,4.052 2.176,7.316 6.302,7.316c1.725,0 4.24,-0.713 5.365,-1.426l0,2.4" style="fill-rule:nonzero;"/><path id="path3015" d="M272.57,117.092c4.201,0 5.663,-4.504 5.663,-7.992c0,-3.487 -1.462,-7.988 -5.663,-7.988c-4.5,0 -5.665,4.276 -5.665,7.988c0,3.715 1.165,7.992 5.665,7.992Zm8.028,1.574l-2.365,0l0,-3.039l-0.073,0c-1.277,2.439 -3.227,3.488 -5.965,3.488c-5.251,0 -7.877,-4.35 -7.877,-10.015c0,-5.813 2.25,-10.015 7.877,-10.015c3.751,0 5.626,2.739 5.965,3.677l0.073,0l0,-12.229l2.365,0l0,28.133" style="fill-rule:nonzero;"/><path id="path3017" d="M296.952,92.146l2.963,0l-4.728,5.402l-1.723,0l3.488,-5.402Zm3.937,15.605c0,-3.339 -1.35,-6.639 -4.874,-6.639c-3.491,0 -5.629,3.488 -5.629,6.639l10.503,0Zm1.164,10.315c-1.65,0.675 -3.788,1.049 -5.553,1.049c-6.339,0 -8.702,-4.276 -8.702,-10.015c0,-5.85 3.228,-10.015 8.065,-10.015c5.402,0 7.616,4.353 7.616,9.491l0,1.2l-13.093,0c0,4.052 2.177,7.316 6.302,7.316c1.726,0 4.24,-0.713 5.365,-1.426l0,2.4" style="fill-rule:nonzero;"/><path id="path3019" d="M310.906,103.811c0,-2.099 0,-2.887 -0.149,-4.276l2.363,0l0,3.678l0.073,0c0.864,-2.138 2.477,-4.128 4.916,-4.128c0.561,0 1.238,0.113 1.65,0.225l0,2.477c-0.488,-0.151 -1.125,-0.227 -1.726,-0.227c-3.751,0 -4.764,4.201 -4.764,7.653l0,9.453l-2.363,0l0,-14.855" style="fill-rule:nonzero;"/><path id="path3021" d="M337.089,109.027l-0.676,0c-4.088,0 -8.965,0.413 -8.965,4.613c0,2.512 1.801,3.452 3.976,3.452c5.55,0 5.665,-4.841 5.665,-6.903l0,-1.162Zm0.224,6.564l-0.075,0c-1.05,2.287 -3.713,3.524 -6.078,3.524c-5.438,0 -6.3,-3.676 -6.3,-5.401c0,-6.412 6.827,-6.713 11.778,-6.713l0.451,0l0,-0.976c0,-3.263 -1.164,-4.913 -4.352,-4.913c-1.99,0 -3.864,0.448 -5.626,1.574l0,-2.287c1.462,-0.713 3.937,-1.314 5.626,-1.314c4.725,0 6.714,2.139 6.714,7.128l0,8.44c0,1.538 0,2.7 0.188,4.013l-2.326,0l0,-3.075" style="fill-rule:nonzero;"/><path id="path3023" d="M356.254,101.56l-4.351,0l0,12.381c0,1.725 0.639,3.151 2.55,3.151c0.901,0 1.501,-0.188 2.177,-0.452l0.149,1.95c-0.561,0.225 -1.726,0.525 -2.888,0.525c-4.2,0 -4.352,-2.888 -4.352,-6.375l0,-11.18l-3.751,0l0,-2.025l3.751,0l0,-4.613l2.364,-0.825l0,5.438l4.351,0l0,2.025" style="fill-rule:nonzero;"/><path id="path3025" d="M363.418,99.535l2.363,0l0,19.131l-2.363,0l0,-19.131Zm2.363,-5.101l-2.363,0l0,-3.149l2.363,0l0,3.149" style="fill-rule:nonzero;"/><path id="path3027" d="M382.134,117.092c4.128,0 6.339,-3.564 6.339,-7.992c0,-4.425 -2.211,-7.988 -6.339,-7.988c-4.125,0 -6.338,3.563 -6.338,7.988c0,4.428 2.213,7.992 6.338,7.992Zm0,-18.007c6.191,0 8.929,4.802 8.929,10.015c0,5.214 -2.738,10.015 -8.929,10.015c-6.187,0 -8.926,-4.801 -8.926,-10.015c0,-5.213 2.739,-10.015 8.926,-10.015" style="fill-rule:nonzero;"/><path id="path3029" d="M398.452,104.038c0,-1.464 0,-2.963 -0.149,-4.503l2.287,0l0,3.415l0.076,0c0.785,-1.726 2.211,-3.865 6.187,-3.865c4.728,0 6.527,3.152 6.527,7.352l0,12.229l-2.363,0l0,-11.628c0,-3.6 -1.274,-5.926 -4.538,-5.926c-4.315,0 -5.665,3.788 -5.665,6.976l0,10.578l-2.362,0l0,-14.628" style="fill-rule:nonzero;"/><path id="path3031" d="M433.751,115.891c1.425,0.712 3.151,1.201 4.989,1.201c2.251,0 4.237,-1.24 4.237,-3.415c0,-4.537 -9.19,-3.825 -9.19,-9.378c0,-3.788 3.076,-5.214 6.227,-5.214c1.013,0 3.039,0.225 4.726,0.862l-0.225,2.065c-1.237,-0.564 -2.924,-0.9 -4.237,-0.9c-2.439,0 -4.128,0.749 -4.128,3.187c0,3.564 9.417,3.115 9.417,9.378c0,4.052 -3.791,5.438 -6.678,5.438c-1.838,0 -3.676,-0.225 -5.365,-0.898l0.227,-2.326" style="fill-rule:nonzero;"/><path id="path3033" d="M467.656,114.165c0,1.462 0,2.963 0.152,4.501l-2.29,0l0,-3.412l-0.073,0c-0.788,1.723 -2.214,3.861 -6.19,3.861c-4.726,0 -6.527,-3.151 -6.527,-7.352l0,-12.228l2.363,0l0,11.628c0,3.602 1.277,5.929 4.54,5.929c4.313,0 5.663,-3.791 5.663,-6.979l0,-10.578l2.362,0l0,14.63" style="fill-rule:nonzero;"/><path id="path3035" d="M476.509,99.535l2.363,0l0,19.131l-2.363,0l0,-19.131Zm2.363,-5.101l-2.363,0l0,-3.149l2.363,0l0,3.149" style="fill-rule:nonzero;"/><path id="path3037" d="M486.299,115.891c1.426,0.712 3.152,1.201 4.99,1.201c2.25,0 4.237,-1.24 4.237,-3.415c0,-4.537 -9.19,-3.825 -9.19,-9.378c0,-3.788 3.076,-5.214 6.227,-5.214c1.013,0 3.039,0.225 4.726,0.862l-0.225,2.065c-1.238,-0.564 -2.924,-0.9 -4.238,-0.9c-2.438,0 -4.127,0.749 -4.127,3.187c0,3.564 9.414,3.115 9.414,9.378c0,4.052 -3.788,5.438 -6.675,5.438c-1.838,0 -3.676,-0.225 -5.363,-0.898l0.224,-2.326" style="fill-rule:nonzero;"/><path id="path3039" d="M503.817,115.891c1.429,0.712 3.153,1.201 4.993,1.201c2.249,0 4.234,-1.24 4.234,-3.415c0,-4.537 -9.19,-3.825 -9.19,-9.378c0,-3.788 3.076,-5.214 6.23,-5.214c1.01,0 3.04,0.225 4.724,0.862l-0.225,2.065c-1.234,-0.564 -2.924,-0.9 -4.239,-0.9c-2.434,0 -4.124,0.749 -4.124,3.187c0,3.564 9.418,3.115 9.418,9.378c0,4.052 -3.794,5.438 -6.678,5.438c-1.84,0 -3.679,-0.225 -5.37,-0.898l0.227,-2.326" style="fill-rule:nonzero;"/><path id="path3041" d="M534.464,107.751c0,-3.339 -1.35,-6.639 -4.874,-6.639c-3.494,0 -5.629,3.488 -5.629,6.639l10.503,0Zm1.164,10.315c-1.654,0.675 -3.789,1.049 -5.553,1.049c-6.339,0 -8.703,-4.276 -8.703,-10.015c0,-5.85 3.229,-10.015 8.063,-10.015c5.404,0 7.618,4.353 7.618,9.491l0,1.2l-13.092,0c0,4.052 2.175,7.316 6.299,7.316c1.729,0 4.239,-0.713 5.368,-1.426l0,2.4" style="fill-rule:nonzero;"/><path id="path3043" d="M172.008,147.148c-1.65,-0.861 -4.015,-1.125 -5.853,-1.125c-6.788,0 -10.616,4.801 -10.616,11.291c0,6.6 3.716,11.289 10.616,11.289c1.726,0 4.352,-0.225 5.853,-1.125l0.149,2.251c-1.426,0.863 -4.35,1.125 -6.002,1.125c-8.253,0 -13.202,-5.438 -13.202,-13.54c0,-7.952 5.101,-13.541 13.202,-13.541c1.538,0 4.652,0.261 6.002,0.973l-0.149,2.402" style="fill-rule:nonzero;"/><path id="path3045" d="M188.249,168.83c4.128,0 6.339,-3.563 6.339,-7.991c0,-4.425 -2.211,-7.989 -6.339,-7.989c-4.125,0 -6.339,3.564 -6.339,7.989c0,4.428 2.214,7.991 6.339,7.991Zm0,-18.006c6.19,0 8.929,4.801 8.929,10.015c0,5.213 -2.739,10.015 -8.929,10.015c-6.187,0 -8.926,-4.802 -8.926,-10.015c0,-5.214 2.739,-10.015 8.926,-10.015" style="fill-rule:nonzero;"/><path id="path3047" d="M204.566,155.776c0,-1.464 0,-2.963 -0.149,-4.503l2.287,0l0,3.415l0.076,0c0.786,-1.726 2.211,-3.864 6.188,-3.864c4.727,0 6.526,3.151 6.526,7.352l0,12.228l-2.363,0l0,-11.628c0,-3.6 -1.274,-5.926 -4.537,-5.926c-4.315,0 -5.665,3.788 -5.665,6.976l0,10.578l-2.363,0l0,-14.628" style="fill-rule:nonzero;"/><path id="path3049" d="M229.96,153.299l-3.863,0l0,-2.026l3.863,0l0,-1.386c0,-4.013 0.15,-8.065 5.063,-8.065c0.752,0 1.765,0.112 2.214,0.376l-0.149,2.063c-0.488,-0.264 -1.201,-0.413 -1.877,-0.413c-3.224,0 -2.887,3.488 -2.887,5.775l0,1.65l4.312,0l0,2.026l-4.312,0l0,17.105l-2.364,0l0,-17.105" style="fill-rule:nonzero;"/><path id="path3051" d="M255.428,159.489c0,-3.339 -1.35,-6.639 -4.874,-6.639c-3.49,0 -5.628,3.488 -5.628,6.639l10.502,0Zm1.165,10.315c-1.65,0.676 -3.788,1.05 -5.553,1.05c-6.339,0 -8.702,-4.277 -8.702,-10.015c0,-5.851 3.227,-10.015 8.065,-10.015c5.401,0 7.615,4.352 7.615,9.49l0,1.201l-13.092,0c0,4.051 2.176,7.315 6.302,7.315c1.725,0 4.24,-0.713 5.365,-1.425l0,2.399" style="fill-rule:nonzero;"/><path id="path3053" d="M272.57,168.83c4.201,0 5.663,-4.503 5.663,-7.991c0,-3.488 -1.462,-7.989 -5.663,-7.989c-4.5,0 -5.665,4.276 -5.665,7.989c0,3.715 1.165,7.991 5.665,7.991Zm8.028,1.574l-2.365,0l0,-3.038l-0.073,0c-1.277,2.438 -3.227,3.488 -5.965,3.488c-5.251,0 -7.877,-4.35 -7.877,-10.015c0,-5.814 2.25,-10.015 7.877,-10.015c3.751,0 5.626,2.739 5.965,3.676l0.073,0l0,-12.229l2.365,0l0,28.133" style="fill-rule:nonzero;"/><path id="path3055" d="M300.889,159.489c0,-3.339 -1.35,-6.639 -4.874,-6.639c-3.491,0 -5.629,3.488 -5.629,6.639l10.503,0Zm1.164,10.315c-1.65,0.676 -3.788,1.05 -5.553,1.05c-6.339,0 -8.702,-4.277 -8.702,-10.015c0,-5.851 3.228,-10.015 8.065,-10.015c5.402,0 7.616,4.352 7.616,9.49l0,1.201l-13.093,0c0,4.051 2.177,7.315 6.302,7.315c1.726,0 4.24,-0.713 5.365,-1.425l0,2.399" style="fill-rule:nonzero;"/><path id="path3057" d="M310.906,155.549c0,-2.099 0,-2.887 -0.149,-4.276l2.363,0l0,3.676l0.073,0c0.864,-2.136 2.477,-4.125 4.916,-4.125c0.561,0 1.238,0.112 1.65,0.224l0,2.478c-0.488,-0.151 -1.125,-0.227 -1.726,-0.227c-3.751,0 -4.764,4.203 -4.764,7.652l0,9.453l-2.363,0l0,-14.855" style="fill-rule:nonzero;"/><path id="path3059" d="M337.089,160.763l-0.676,0c-4.088,0 -8.965,0.415 -8.965,4.615c0,2.512 1.801,3.452 3.976,3.452c5.55,0 5.665,-4.84 5.665,-6.903l0,-1.164Zm0.224,6.566l-0.075,0c-1.05,2.287 -3.713,3.525 -6.078,3.525c-5.438,0 -6.3,-3.676 -6.3,-5.402c0,-6.412 6.827,-6.712 11.778,-6.712l0.451,0l0,-0.977c0,-3.263 -1.164,-4.913 -4.352,-4.913c-1.99,0 -3.864,0.449 -5.626,1.574l0,-2.287c1.462,-0.713 3.937,-1.313 5.626,-1.313c4.725,0 6.714,2.138 6.714,7.127l0,8.441c0,1.538 0,2.699 0.188,4.012l-2.326,0l0,-3.075" style="fill-rule:nonzero;"/><path id="path3061" d="M346.24,168.418l11.516,-15.119l-11.067,0l0,-2.026l13.803,0l0,2.026l-11.514,15.079l11.514,0l0,2.026l-14.252,0l0,-1.986" style="fill-rule:nonzero;"/><path id="path3063" d="M367.582,151.273l2.363,0l0,19.131l-2.363,0l0,-19.131Zm2.363,-5.101l-2.363,0l0,-3.149l2.363,0l0,3.149" style="fill-rule:nonzero;"/><path id="path3065" d="M386.298,168.83c4.128,0 6.339,-3.563 6.339,-7.991c0,-4.425 -2.211,-7.989 -6.339,-7.989c-4.125,0 -6.338,3.564 -6.338,7.989c0,4.428 2.213,7.991 6.338,7.991Zm0,-18.006c6.191,0 8.929,4.801 8.929,10.015c0,5.213 -2.738,10.015 -8.929,10.015c-6.187,0 -8.925,-4.802 -8.925,-10.015c0,-5.214 2.738,-10.015 8.925,-10.015" style="fill-rule:nonzero;"/><path id="path3067" d="M402.616,155.776c0,-1.464 0,-2.963 -0.149,-4.503l2.287,0l0,3.415l0.076,0c0.785,-1.726 2.211,-3.864 6.187,-3.864c4.728,0 6.527,3.151 6.527,7.352l0,12.228l-2.363,0l0,-11.628c0,-3.6 -1.274,-5.926 -4.537,-5.926c-4.316,0 -5.666,3.788 -5.666,6.976l0,10.578l-2.362,0l0,-14.628" style="fill-rule:nonzero;"/><path id="path3069" d="M438.061,159.489c0,-3.339 -1.349,-6.639 -4.874,-6.639c-3.49,0 -5.629,3.488 -5.629,6.639l10.503,0Zm1.165,10.315c-1.651,0.676 -3.789,1.05 -5.553,1.05c-6.339,0 -8.702,-4.277 -8.702,-10.015c0,-5.851 3.227,-10.015 8.064,-10.015c5.402,0 7.616,4.352 7.616,9.49l0,1.201l-13.093,0c0,4.051 2.178,7.315 6.303,7.315c1.725,0 4.239,-0.713 5.365,-1.425l0,2.399" style="fill-rule:nonzero;"/><path id="path3071" d="M460.608,167.065c1.537,0.977 3.336,1.538 5.774,1.538c3.227,0 5.89,-1.65 5.89,-5.362c0,-5.141 -12.004,-5.778 -12.004,-12.642c0,-4.2 3.676,-6.826 8.292,-6.826c1.274,0 3.336,0.188 5.137,0.861l-0.412,2.365c-1.162,-0.639 -3.002,-0.976 -4.764,-0.976c-2.7,0 -5.663,1.125 -5.663,4.501c0,5.252 12.001,5.289 12.001,12.941c0,5.289 -4.537,7.389 -8.589,7.389c-2.551,0 -4.537,-0.525 -5.926,-1.125l0.264,-2.664" style="fill-rule:nonzero;"/><path id="path3073" d="M489.375,170.404l-2.775,0l-6.491,-19.131l2.59,0l5.29,16.544l0.073,0l5.553,-16.544l2.475,0l-6.715,19.131" style="fill-rule:nonzero;"/><path id="path3075" d="M502.316,151.273l2.365,0l0,19.131l-2.365,0l0,-19.131Zm2.365,-5.101l-2.365,0l0,-3.149l2.365,0l0,3.149" style="fill-rule:nonzero;"/><path id="path3077" d="M511.809,168.418l11.517,-15.119l-11.067,0l0,-2.026l13.802,0l0,2.026l-11.513,15.079l11.513,0l0,2.026l-14.252,0l0,-1.986" style="fill-rule:nonzero;"/><path id="path3079" d="M531.389,168.418l11.518,-15.119l-11.068,0l0,-2.026l13.802,0l0,2.026l-11.512,15.079l11.512,0l0,2.026l-14.252,0l0,-1.986" style="fill-rule:nonzero;"/><path id="path3081" d="M564.392,159.489c0,-3.339 -1.35,-6.639 -4.874,-6.639c-3.489,0 -5.629,3.488 -5.629,6.639l10.503,0Zm1.165,10.315c-1.65,0.676 -3.785,1.05 -5.549,1.05c-6.344,0 -8.703,-4.277 -8.703,-10.015c0,-5.851 3.224,-10.015 8.063,-10.015c5.404,0 7.613,4.352 7.613,9.49l0,1.201l-13.092,0c0,4.051 2.18,7.315 6.304,7.315c1.724,0 4.239,-0.713 5.364,-1.425l0,2.399" style="fill-rule:nonzero;"/><path id="path3083" d="M574.409,155.549c0,-2.099 0,-2.887 -0.145,-4.276l2.36,0l0,3.676l0.075,0c0.865,-2.136 2.474,-4.125 4.914,-4.125c0.565,0 1.239,0.112 1.649,0.224l0,2.478c-0.485,-0.151 -1.124,-0.227 -1.724,-0.227c-3.749,0 -4.764,4.203 -4.764,7.652l0,9.453l-2.365,0l0,-14.855" style="fill-rule:nonzero;"/><path id="path3085" d="M600.593,160.763l-0.675,0c-4.089,0 -8.967,0.415 -8.967,4.615c0,2.512 1.804,3.452 3.979,3.452c5.548,0 5.663,-4.84 5.663,-6.903l0,-1.164Zm0.225,6.566l-0.075,0c-1.05,2.287 -3.714,3.525 -6.078,3.525c-5.439,0 -6.299,-3.676 -6.299,-5.402c0,-6.412 6.829,-6.712 11.777,-6.712l0.45,0l0,-0.977c0,-3.263 -1.164,-4.913 -4.349,-4.913c-1.989,0 -3.864,0.449 -5.628,1.574l0,-2.287c1.464,-0.713 3.939,-1.313 5.628,-1.313c4.724,0 6.714,2.138 6.714,7.127l0,8.441c0,1.538 0,2.699 0.185,4.012l-2.325,0l0,-3.075" style="fill-rule:nonzero;"/><path id="path3087" d="M172.008,198.884c-1.65,-0.862 -4.015,-1.125 -5.853,-1.125c-6.788,0 -10.616,4.801 -10.616,11.291c0,6.6 3.716,11.289 10.616,11.289c1.726,0 4.352,-0.225 5.853,-1.125l0.149,2.25c-1.426,0.864 -4.35,1.126 -6.002,1.126c-8.253,0 -13.202,-5.439 -13.202,-13.54c0,-7.952 5.101,-13.542 13.202,-13.542c1.538,0 4.652,0.261 6.002,0.974l-0.149,2.402" style="fill-rule:nonzero;"/><path id="path3089" d="M188.249,220.566c4.128,0 6.339,-3.564 6.339,-7.991c0,-4.425 -2.211,-7.989 -6.339,-7.989c-4.125,0 -6.339,3.564 -6.339,7.989c0,4.427 2.214,7.991 6.339,7.991Zm0,-18.006c6.19,0 8.929,4.801 8.929,10.015c0,5.213 -2.739,10.015 -8.929,10.015c-6.187,0 -8.926,-4.802 -8.926,-10.015c0,-5.214 2.739,-10.015 8.926,-10.015" style="fill-rule:nonzero;"/><path id="path3091" d="M204.566,207.513c0,-1.465 0,-2.964 -0.149,-4.504l2.287,0l0,3.415l0.076,0c0.786,-1.726 2.211,-3.864 6.188,-3.864c4.727,0 6.526,3.151 6.526,7.352l0,12.228l-2.363,0l0,-11.628c0,-3.6 -1.274,-5.926 -4.537,-5.926c-4.315,0 -5.665,3.788 -5.665,6.976l0,10.578l-2.363,0l0,-14.627" style="fill-rule:nonzero;"/><path id="path3093" d="M229.96,205.035l-3.863,0l0,-2.026l3.863,0l0,-1.386c0,-4.013 0.15,-8.065 5.063,-8.065c0.752,0 1.765,0.112 2.214,0.376l-0.149,2.062c-0.488,-0.263 -1.201,-0.412 -1.877,-0.412c-3.224,0 -2.887,3.488 -2.887,5.775l0,1.65l4.312,0l0,2.026l-4.312,0l0,17.105l-2.364,0l0,-17.105" style="fill-rule:nonzero;"/><path id="path3095" d="M255.428,211.225c0,-3.339 -1.35,-6.639 -4.874,-6.639c-3.49,0 -5.628,3.488 -5.628,6.639l10.502,0Zm1.165,10.315c-1.65,0.676 -3.788,1.05 -5.553,1.05c-6.339,0 -8.702,-4.277 -8.702,-10.015c0,-5.851 3.227,-10.015 8.065,-10.015c5.401,0 7.615,4.352 7.615,9.49l0,1.201l-13.092,0c0,4.051 2.176,7.315 6.302,7.315c1.725,0 4.24,-0.713 5.365,-1.425l0,2.399" style="fill-rule:nonzero;"/><path id="path3097" d="M272.57,220.566c4.201,0 5.663,-4.503 5.663,-7.991c0,-3.488 -1.462,-7.989 -5.663,-7.989c-4.5,0 -5.665,4.276 -5.665,7.989c0,3.715 1.165,7.991 5.665,7.991Zm8.028,1.574l-2.365,0l0,-3.039l-0.073,0c-1.277,2.439 -3.227,3.489 -5.965,3.489c-5.251,0 -7.877,-4.35 -7.877,-10.015c0,-5.814 2.25,-10.015 7.877,-10.015c3.751,0 5.626,2.739 5.965,3.676l0.073,0l0,-12.229l2.365,0l0,28.133" style="fill-rule:nonzero;"/><path id="path3099" d="M300.889,211.225c0,-3.339 -1.35,-6.639 -4.874,-6.639c-3.491,0 -5.629,3.488 -5.629,6.639l10.503,0Zm1.164,10.315c-1.65,0.676 -3.788,1.05 -5.553,1.05c-6.339,0 -8.702,-4.277 -8.702,-10.015c0,-5.851 3.228,-10.015 8.065,-10.015c5.402,0 7.616,4.352 7.616,9.49l0,1.201l-13.093,0c0,4.051 2.177,7.315 6.302,7.315c1.726,0 4.24,-0.713 5.365,-1.425l0,2.399" style="fill-rule:nonzero;"/><path id="path3101" d="M310.906,207.285c0,-2.099 0,-2.887 -0.149,-4.276l2.363,0l0,3.676l0.073,0c0.864,-2.136 2.477,-4.125 4.916,-4.125c0.561,0 1.238,0.112 1.65,0.225l0,2.477c-0.488,-0.151 -1.125,-0.227 -1.726,-0.227c-3.751,0 -4.764,4.203 -4.764,7.652l0,9.453l-2.363,0l0,-14.855" style="fill-rule:nonzero;"/><path id="path3103" d="M337.089,212.499l-0.676,0c-4.088,0 -8.965,0.415 -8.965,4.615c0,2.512 1.801,3.452 3.976,3.452c5.55,0 5.665,-4.84 5.665,-6.903l0,-1.164Zm0.224,6.566l-0.075,0c-1.05,2.287 -3.713,3.525 -6.078,3.525c-5.438,0 -6.3,-3.676 -6.3,-5.402c0,-6.412 6.827,-6.713 11.778,-6.713l0.451,0l0,-0.976c0,-3.263 -1.164,-4.913 -4.352,-4.913c-1.99,0 -3.864,0.449 -5.626,1.574l0,-2.287c1.462,-0.713 3.937,-1.313 5.626,-1.313c4.725,0 6.714,2.138 6.714,7.127l0,8.441c0,1.537 0,2.699 0.188,4.012l-2.326,0l0,-3.075" style="fill-rule:nonzero;"/><path id="path3105" d="M346.24,220.154l11.516,-15.119l-11.067,0l0,-2.026l13.803,0l0,2.026l-11.514,15.079l11.514,0l0,2.026l-14.252,0l0,-1.986" style="fill-rule:nonzero;"/><path id="path3107" d="M367.582,203.009l2.363,0l0,19.131l-2.363,0l0,-19.131Zm2.363,-5.101l-2.363,0l0,-3.149l2.363,0l0,3.149" style="fill-rule:nonzero;"/><path id="path3109" d="M393.763,217.639c0,1.462 0,2.964 0.151,4.501l-2.289,0l0,-3.412l-0.074,0c-0.788,1.723 -2.214,3.862 -6.19,3.862c-4.725,0 -6.526,-3.149 -6.526,-7.352l0,-12.229l2.362,0l0,11.628c0,3.603 1.277,5.929 4.54,5.929c4.313,0 5.663,-3.79 5.663,-6.978l0,-10.579l2.363,0l0,14.63" style="fill-rule:nonzero;"/><path id="path3111" d="M402.616,207.513c0,-1.465 0,-2.964 -0.149,-4.504l2.287,0l0,3.415l0.076,0c0.785,-1.726 2.211,-3.864 6.187,-3.864c4.728,0 6.527,3.151 6.527,7.352l0,12.228l-2.363,0l0,-11.628c0,-3.6 -1.274,-5.926 -4.537,-5.926c-4.316,0 -5.666,3.788 -5.666,6.976l0,10.578l-2.362,0l0,-14.627" style="fill-rule:nonzero;"/><path id="path3113" d="M437.912,219.365c1.426,0.713 3.152,1.201 4.99,1.201c2.25,0 4.237,-1.24 4.237,-3.415c0,-4.537 -9.19,-3.825 -9.19,-9.377c0,-3.788 3.076,-5.214 6.227,-5.214c1.013,0 3.039,0.225 4.725,0.864l-0.224,2.063c-1.238,-0.564 -2.924,-0.901 -4.238,-0.901c-2.438,0 -4.127,0.749 -4.127,3.188c0,3.563 9.414,3.114 9.414,9.377c0,4.052 -3.788,5.439 -6.675,5.439c-1.838,0 -3.676,-0.225 -5.363,-0.899l0.224,-2.326" style="fill-rule:nonzero;"/><path id="path3115" d="M463.531,222.14l-2.774,0l-6.491,-19.131l2.59,0l5.289,16.544l0.073,0l5.553,-16.544l2.475,0l-6.715,19.131" style="fill-rule:nonzero;"/><path id="path3117" d="M476.473,203.009l2.363,0l0,19.131l-2.363,0l0,-19.131Zm2.363,-5.101l-2.363,0l0,-3.149l2.363,0l0,3.149" style="fill-rule:nonzero;"/><path id="path3119" d="M485.963,220.154l11.515,-15.119l-11.066,0l0,-2.026l13.803,0l0,2.026l-11.514,15.079l11.514,0l0,2.026l-14.252,0l0,-1.986" style="fill-rule:nonzero;"/><path id="path3121" d="M507.305,207.285c0,-2.099 0,-2.887 -0.15,-4.276l2.365,0l0,3.676l0.075,0c0.859,-2.136 2.474,-4.125 4.913,-4.125c0.56,0 1.235,0.112 1.65,0.225l0,2.477c-0.49,-0.151 -1.125,-0.227 -1.725,-0.227c-3.754,0 -4.763,4.203 -4.763,7.652l0,9.453l-2.365,0l0,-14.855" style="fill-rule:nonzero;"/><path id="path3131" d="M533.489,212.499l-0.675,0c-4.089,0 -8.968,0.415 -8.968,4.615c0,2.512 1.8,3.452 3.979,3.452c5.549,0 5.664,-4.84 5.664,-6.903l0,-1.164Zm0.225,6.566l-0.075,0c-1.05,2.287 -3.714,3.525 -6.079,3.525c-5.438,0 -6.298,-3.676 -6.298,-5.402c0,-6.412 6.823,-6.713 11.772,-6.713l0.455,0l0,-0.976c0,-3.263 -1.165,-4.913 -4.354,-4.913c-1.99,0 -3.864,0.449 -5.624,1.574l0,-2.287c1.46,-0.713 3.934,-1.313 5.624,-1.313c4.729,0 6.713,2.138 6.713,7.127l0,8.441c0,1.537 0,2.699 0.19,4.012l-2.324,0l0,-3.075" style="fill-rule:nonzero;"/><path id="path3133" d="M110.396,39.597c0,0 -19.839,-8.689 -53.054,-8.689l-0.01,0c-33.215,0 -53.059,8.689 -53.059,8.689c0,0 -1.776,38.473 5.756,60.226c13.303,38.248 47.299,48.992 47.299,48.992l0.019,0c0,0 33.991,-10.744 47.299,-48.992c7.532,-21.753 5.75,-60.226 5.75,-60.226" style="fill:#f00;fill-rule:nonzero;"/><path id="path3135" d="M92.598,72.763l0,21.197l-24.731,0l0,24.731l-21.196,0l0,-24.731l-24.731,0l0,-21.197l24.731,0l0,-24.725l21.192,0l0.004,24.725l24.731,0" style="fill:#fff;fill-rule:nonzero;"/></svg>