<?xml version="1.0" encoding="UTF-8" standalone="no"?><!DOCTYPE svg PUBLIC "-//W3C//DTD SVG 1.1//EN" "http://www.w3.org/Graphics/SVG/1.1/DTD/svg11.dtd"><svg width="100%" height="100%" viewBox="0 0 603 200" version="1.1" xmlns="http://www.w3.org/2000/svg" xmlns:xlink="http://www.w3.org/1999/xlink" xml:space="preserve" style="fill-rule:evenodd;clip-rule:evenodd;stroke-linejoin:round;stroke-miterlimit:1.41421;"><path id="polygon3036" d="M106.369,150.117l0,-57.866l-24.824,57.866l-13.773,0l-24.413,-57.866l0,57.866l-25.642,0l0,-100.234l34.329,0l23.581,56.595l24.681,-56.595l31.699,0l0,100.234l-25.638,0Zm45.375,0l0,-100.234l21.927,0c1.921,0 3.842,1.921 3.842,4.011l0,96.223l-25.769,0Zm96.916,-57.725l32.594,0c2.571,0 4.025,2.105 4.025,4.577l0,51.778c-9.168,2.049 -23.495,3.306 -34.145,3.306c-37.368,0 -57.076,-17.815 -57.076,-52.187c0.001,-30.672 19.708,-51.919 52.554,-51.919c14.468,0 27.155,3.857 35.321,9.366l-10.101,17.25c-7.067,-3.165 -16.572,-5.369 -23.298,-5.369c-18.887,0 -27.719,12.531 -27.719,30.672c0,19.368 10.228,31.334 29.089,31.334c3.447,0 7.744,-0.127 11.176,-0.664l0,-17.659l-12.42,0l0,-20.485Zm93.81,-23.198l-12.615,0l0,25.133l12.615,0c7.53,0 13.449,-4.012 13.449,-13.548c0.001,-9.664 -5.92,-11.585 -13.449,-11.585Zm18.987,80.923l-11.895,-27.591c-2.431,-5.622 -4.127,-8.405 -9.284,-8.405l-10.423,0l0,35.996l-25.19,0l0,-96.223c0,-2.09 2.288,-4.011 3.927,-4.011l35.559,0c19.325,0 35.895,4.011 35.895,28.96c0,11.175 -6.184,22.619 -17.786,24.936c5.78,1.964 11.602,9.366 14.752,17.405l11.458,28.933l-27.013,0Zm82.704,-80.923c-13.52,0 -23.141,9.649 -23.141,30.672c0.001,21.318 9.62,30.94 23.14,30.94c11.599,0 21.092,-9.622 21.092,-30.94c0.001,-21.023 -9.493,-30.672 -21.091,-30.672Zm0,82.859c-32.818,0 -50.183,-23.183 -50.183,-52.187c0,-28.751 17.364,-51.919 50.182,-51.919c30.742,0 48.134,23.169 48.134,51.919c0.001,29.003 -17.393,52.187 -48.133,52.187Zm97.48,0c-16.952,0 -32.692,-6.074 -39.712,-10.906l11.428,-20.259c6.373,3.857 18.775,9.79 30.204,9.79c6.471,0 14.651,-1.243 14.651,-8.434c0,-6.753 -9.14,-8.815 -21.122,-12.249c-14.466,-4.14 -31.306,-9.903 -31.306,-29.358c0.001,-20.965 18.633,-32.69 42.879,-32.69c16.005,0 28.41,5.664 34.739,11.725l-13.917,15.838c-6.879,-4.112 -13.914,-7.304 -21.798,-7.304c-9.493,0 -14.861,3.603 -14.861,8.843c0.001,5.199 6.879,7.855 15.552,10.468c15.332,4.734 36.268,9.566 36.268,29.641c0.001,20.683 -16.532,34.895 -43.005,34.895Z" style="fill:#f60;"/></svg>