<?xml version="1.0" encoding="UTF-8" standalone="no"?>
<!-- Generator: Adobe Illustrator 15.1.0, SVG Export Plug-In . SVG Version: 6.00 Build 0)  -->

<svg
   xmlns:dc="http://purl.org/dc/elements/1.1/"
   xmlns:cc="http://creativecommons.org/ns#"
   xmlns:rdf="http://www.w3.org/1999/02/22-rdf-syntax-ns#"
   xmlns:svg="http://www.w3.org/2000/svg"
   xmlns="http://www.w3.org/2000/svg"
   xmlns:sodipodi="http://sodipodi.sourceforge.net/DTD/sodipodi-0.dtd"
   xmlns:inkscape="http://www.inkscape.org/namespaces/inkscape"
   version="1.1"
   id="Ebene_1"
   x="0px"
   y="0px"
   width="515.09399"
   height="138.658"
   viewBox="0 0 515.094 138.658"
   enable-background="new 0 0 515.094 138.658"
   xml:space="preserve"
   sodipodi:docname="ricardo.svg"
   inkscape:version="0.92.1 r"><metadata
     id="metadata4327"><rdf:RDF><cc:Work
         rdf:about=""><dc:format>image/svg+xml</dc:format><dc:type
           rdf:resource="http://purl.org/dc/dcmitype/StillImage" /><dc:title></dc:title></cc:Work></rdf:RDF></metadata><defs
     id="defs4325" /><sodipodi:namedview
     pagecolor="#ffffff"
     bordercolor="#666666"
     borderopacity="1"
     objecttolerance="10"
     gridtolerance="10"
     guidetolerance="10"
     inkscape:pageopacity="0"
     inkscape:pageshadow="2"
     inkscape:window-width="640"
     inkscape:window-height="480"
     id="namedview4323"
     showgrid="false"
     inkscape:zoom="0.55135568"
     inkscape:cx="257.547"
     inkscape:cy="69.328998"
     inkscape:window-x="0"
     inkscape:window-y="23"
     inkscape:window-maximized="0"
     inkscape:current-layer="Ebene_1" /><g
     id="g4280"><path
       d="m 410.059,70.847 c 0,-0.898 0.738,-1.644 1.635,-1.644 h 7.714 c 0.907,0 1.644,0.745 1.644,1.644 v 7.809 c 0,0.905 -0.736,1.641 -1.644,1.641 h -7.714 c -0.896,0 -1.635,-0.735 -1.635,-1.641 v -7.809 z"
       id="path4258"
       inkscape:connector-curvature="0"
       style="fill:#17479d" /><path
       d="m 214.749,27.144 c 0,-0.91 -0.748,-1.653 -1.658,-1.653 0,0 -5.951,0 -11.566,0 -13.641,0 -23.673,11.28 -23.673,27.125 0,16.69 10.12,27.641 23.708,27.641 5.729,0 11.532,0 11.532,0 0.91,0 1.658,-0.749 1.658,-1.654 V 71.2 c 0,-0.91 -0.748,-1.662 -1.658,-1.668 0,0 -4.206,-0.023 -8.163,-0.023 -9.846,0 -13.979,-6.923 -13.979,-17.257 0,-10.315 5.179,-16.222 13.816,-16.222 4.27,0 8.326,0 8.326,0 0.91,0 1.658,-0.74 1.658,-1.654 v -7.232 z"
       id="path4260"
       inkscape:connector-curvature="0"
       style="fill:#f5961e" /><path
       d="m 370.065,50.817 c 0,10.555 2.719,19.271 12.215,19.271 8.918,0 11.875,-9.782 11.875,-18.888 0,-8.373 -3.064,-16.931 -11.875,-16.931 -8.097,0.002 -12.215,8.388 -12.215,16.548 z m -12.407,1.78 c 0,-18.012 9.559,-28.896 25.089,-28.896 14.963,0 23.965,11.308 23.965,29.318 0,15.673 -8.734,27.696 -24.656,27.696 -16.56,0 -24.398,-12.446 -24.398,-28.118 z"
       id="path4262"
       inkscape:connector-curvature="0"
       style="clip-rule:evenodd;fill:#f5961e;fill-rule:evenodd" /><path
       d="m 158.547,19.615 c 0,0.914 0.748,1.655 1.651,1.655 h 9.233 c 0.911,0 1.654,-0.741 1.654,-1.655 v -9.191 c 0,-0.913 -0.744,-1.655 -1.654,-1.655 h -9.233 c -0.903,0 -1.651,0.742 -1.651,1.655 v 9.191 z"
       id="path4264"
       inkscape:connector-curvature="0"
       style="fill:#f5961e" /><path
       d="m 158.547,78.602 c 0,0.905 0.748,1.654 1.651,1.654 h 9.233 c 0.911,0 1.654,-0.749 1.654,-1.654 V 27.144 c 0,-0.91 -0.744,-1.653 -1.654,-1.653 h -9.233 c -0.903,0 -1.651,0.743 -1.651,1.653 v 51.458 z"
       id="path4266"
       inkscape:connector-curvature="0"
       style="fill:#f5961e" /><path
       d="m 137.851,27.152 c 0,-0.912 -0.756,-1.658 -1.667,-1.658 h -9.385 c -0.912,0 -1.66,0.746 -1.66,1.658 v 51.449 c 0,0.91 0.748,1.654 1.66,1.654 h 9.401 c 0.91,0 1.658,-0.749 1.658,-1.654 l 0.037,-18.675 c 0,-7.867 -1.272,-20.57 8.669,-23.24 2.414,-0.644 3.709,-0.673 3.709,-0.673 0.911,-0.019 1.659,-0.777 1.659,-1.688 v -6.868 c 0,-0.911 -0.731,-1.765 -1.638,-1.897 0,0 -0.495,-0.069 -1.849,-0.069 -3.192,0 -6.739,1.247 -8.936,3.197 l -0.585,0.538 c -0.372,0.347 -1.066,0.457 -1.066,-0.273 -0.007,-0.734 -0.007,-1.801 -0.007,-1.801 z"
       id="path4268"
       inkscape:connector-curvature="0"
       style="fill:#f5961e" /><path
       d="m 284.706,27.152 c 0,-0.912 -0.751,-1.658 -1.654,-1.658 h -9.393 c -0.914,0 -1.658,0.746 -1.658,1.658 v 51.449 c 0,0.91 0.744,1.654 1.658,1.654 h 9.399 c 0.914,0 1.658,-0.749 1.658,-1.654 l 0.038,-18.675 c 0,-7.867 -1.087,-20.582 8.673,-23.24 2.412,-0.658 3.714,-0.673 3.714,-0.673 0.911,-0.019 1.658,-0.777 1.658,-1.688 v -6.868 c 0,-0.911 -0.74,-1.765 -1.647,-1.897 0,0 -0.484,-0.069 -1.846,-0.069 -3.191,0 -6.739,1.247 -8.928,3.197 l -0.589,0.538 c -0.37,0.347 -1.073,0.457 -1.073,-0.273 10e-4,-0.734 -0.01,-1.801 -0.01,-1.801 z"
       id="path4270"
       inkscape:connector-curvature="0"
       style="fill:#f5961e" /><path
       d="m 231.606,64.009 c 0,4.68 3.185,6.161 8.18,6.161 4.272,0 6.904,-2.489 9.085,-5.464 V 55.29 c 0,-0.65 -0.169,-0.95 -0.592,-1.349 -0.457,-0.438 -1.548,-0.503 -1.548,-0.503 h -1.412 c -6.242,0 -13.713,3.822 -13.713,10.571 z m 18.058,12.388 c -2.108,1.589 -6.439,4.24 -12.907,4.24 -9.468,0 -17.662,-6.539 -17.662,-16.959 0,-10.109 10.444,-19.959 22.548,-19.959 l 5.228,-0.092 0.862,-0.014 c 0.481,-0.012 0.852,-0.369 0.827,-0.795 -0.021,-0.429 0.014,-0.77 -0.117,-1.424 -1.178,-5.332 -6.333,-5.344 -6.333,-5.344 h -0.952 -14.475 c -0.91,0 -1.651,-0.75 -1.651,-1.664 v -7.174 c 0,-0.913 0.741,-1.654 1.651,-1.654 h 15.213 l 2.129,-0.007 c 10.726,0 17.358,6.218 17.358,21.766 v 17.845 c 0,5.056 3.265,5.127 3.265,5.127 0.91,0.02 1.647,0.791 1.647,1.697 v 6.686 c 0,0.907 -0.737,1.724 -1.641,1.796 0,0 -3.278,0.298 -6.308,-0.384 -2.42,-0.537 -4.754,-1.88 -6.152,-3.157 -0.475,-0.439 -0.744,-0.745 -0.982,-1.06 -0.246,-0.329 -0.572,-0.274 -0.773,-0.107 -0.169,0.143 -0.073,0.088 -0.775,0.637 z"
       id="path4272"
       inkscape:connector-curvature="0"
       style="clip-rule:evenodd;fill:#f5961e;fill-rule:evenodd" /><path
       d="m 312.707,51.918 c 0,7.556 2.009,18.093 11.66,18.093 11.311,0 13.021,-10.331 13.021,-18.097 0,-7.657 -1.782,-17.37 -11.902,-17.37 -9.757,0 -12.779,10.035 -12.779,17.374 z M 337.108,26.585 V 10.282 c 0,-0.909 0.744,-1.652 1.654,-1.652 h 9.402 c 0.9,0 1.648,0.743 1.648,1.652 v 51.291 3.615 c 0,5.054 3.278,5.121 3.278,5.121 0.91,0.022 1.658,0.79 1.658,1.695 v 6.688 c 0,0.911 -0.748,1.723 -1.658,1.803 0,0 -3.271,0.293 -6.301,-0.384 -2.421,-0.54 -4.753,-1.885 -6.152,-3.168 -0.463,-0.435 -0.744,-0.737 -0.982,-1.056 -0.243,-0.325 -0.888,-0.237 -1.091,-0.069 -2.175,1.119 -7.763,4.726 -14.894,4.726 -15.427,0 -23.595,-13.218 -23.595,-28.208 0,-15.102 8.528,-28.402 23.438,-28.402 6.256,0 9.69,1.515 11.587,2.899 0,0 0.763,0.473 1.34,0.484 0.668,0.016 0.668,-0.732 0.668,-0.732 z"
       id="path4274"
       inkscape:connector-curvature="0"
       style="fill:#f5961e" /><path
       d="m 459.518,25.176 c 0,0 -5.892,0 -11.477,0 -13.74,0.021 -23.809,11.39 -23.836,27.267 0.027,16.703 10.175,27.755 23.881,27.785 5.678,0 11.432,0 11.432,0 1.104,0 1.998,-0.892 2.005,-1.996 v -7.348 c -0.007,-1.099 -0.9,-1.997 -1.998,-2.007 0,0 -4.168,-0.022 -8.094,-0.022 -9.563,-0.033 -13.478,-6.585 -13.526,-16.777 0.042,-10.127 4.971,-15.713 13.357,-15.747 4.227,0 8.256,0 8.256,0 1.104,0 1.998,-0.888 2.005,-1.987 v -7.17 c -0.001,-1.103 -0.901,-1.998 -2.005,-1.998 z"
       id="path4276"
       inkscape:connector-curvature="0"
       style="fill:#17479d" /><path
       d="m 515.072,43.775 c -0.097,-10.454 -5.487,-18.353 -17.413,-18.319 -6.249,0 -11.519,2.42 -14.991,6.297 -0.29,0.33 -0.298,0.33 -0.446,0.48 V 10.356 c 0,-1.094 -0.894,-1.994 -1.99,-1.994 h -9.164 c -1.104,0 -2.001,0.9 -2.001,1.994 v 67.875 c 0.007,1.1 0.896,1.996 2.001,1.996 h 9.164 c 1.097,0 1.983,-0.896 1.99,-1.996 V 47.8 c 0.662,-5.645 3.229,-12.162 10.95,-12.162 6.938,0.027 8.396,4.622 8.767,9.6 v 33.068 c 0.006,1.097 0.896,1.99 1.998,1.99 h 9.159 c 1.104,0 1.998,-0.894 1.998,-1.99 V 43.913 c 0,-0.063 -0.014,-0.115 -0.022,-0.138 z"
       id="path4278"
       inkscape:connector-curvature="0"
       style="fill:#1946a0" /></g><g
     id="g4290"><path
       d="m 81.361,100.118 c 0,0.516 -0.428,0.941 -0.948,0.941 H 16.471 C 7.373,101.06 0,93.766 0,84.761 V 21.515 C 0,20.994 0.426,20.57 0.942,20.57 h 4.056 c 0.518,0 0.945,0.425 0.945,0.945 v 63.04 c 0,6.27 4.402,10.32 10.727,10.32 h 63.743 c 0.521,0 0.948,0.424 0.948,0.944 z"
       id="path4282"
       inkscape:connector-curvature="0"
       style="fill:#f5961e" /><path
       d="m 95.928,80.564 c -0.518,0 -0.938,-0.426 -0.938,-0.943 L 94.95,16.509 C 94.95,10.255 90.709,6.113 84.389,6.113 L 20.663,6.154 C 20.142,6.154 19.72,5.728 19.72,5.21 V 0.944 C 19.72,0.425 20.142,0 20.663,0 h 63.925 c 9.103,0 16.472,7.308 16.472,16.317 v 63.304 c 0,0.518 -0.425,0.943 -0.948,0.943 z"
       id="path4284"
       inkscape:connector-curvature="0"
       style="fill:#f5961e" /><polygon
       points="34.063,50.93 34.057,54.622 37.624,54.622 37.624,25.468 44.793,25.464 44.793,43.745 48.357,43.745 48.357,21.899 55.467,21.899 55.467,43.745 59.032,43.745 59.032,25.464 66.12,25.464 66.12,47.424 69.685,47.424 69.685,35.469 76.819,35.466 76.819,51.02 73.251,51.02 73.251,62.173 69.685,62.173 69.685,69.417 66.12,69.417 66.12,80.564 41.203,80.564 41.203,72.661 37.636,72.661 37.636,69.099 34.068,69.099 34.068,65.526 30.505,65.526 30.505,58.207 26.939,58.207 26.939,54.643 23.373,54.643 23.373,47.367 30.496,47.367 30.496,50.93 "
       id="polygon4286"
       style="clip-rule:evenodd;fill:#ffffff;fill-rule:evenodd" /><path
       d="m 19.814,47.367 h 3.558 v 7.275 H 19.814 Z M 34.057,25.468 h 3.567 V 54.622 H 34.057 Z M 23.373,47.367 v -3.569 h 7.124 v 3.569 z m 7.123,3.563 v -3.563 h 3.567 v 3.563 z m -7.123,7.277 v -3.564 h 3.566 v 3.564 z m 7.132,10.892 v -3.572 h 3.563 v 3.572 z m 3.563,3.562 v -3.563 h 3.567 v 3.563 z m 3.568,0 h 3.567 v 7.903 H 37.636 Z M 26.939,58.207 h 3.566 v 7.319 h -3.566 z m 42.746,3.966 h 3.566 v 7.244 h -3.566 z m -3.565,7.244 h 3.565 V 80.564 H 66.12 Z M 73.251,51.02 h 3.568 V 62.173 H 73.251 Z M 48.357,21.899 v -3.564 h 7.109 v 3.564 z m 17.763,3.569 h 3.565 v 6.431 h 7.134 v 3.57 H 69.685 V 47.424 H 66.12 Z M 59.032,25.464 V 43.745 H 55.467 V 21.899 H 66.12 v 3.564 H 59.032 Z M 48.357,21.899 V 43.745 H 44.793 V 25.464 L 37.623,25.468 37.62,21.9 h 10.737 z m 28.462,13.567 h 3.565 V 51.02 h -3.565 z"
       id="path4288"
       inkscape:connector-curvature="0"
       style="clip-rule:evenodd;fill:#17479d;fill-rule:evenodd" /></g><g
     id="g4320"><path
       d="m 137.099,131.68 c -3.587,0 -6.433,-1.208 -8.499,-3.626 -2.144,-2.495 -3.119,-5.652 -3.119,-10.058 0,-5.381 1.559,-9.084 4.639,-11.618 1.949,-1.599 4.094,-2.3 6.745,-2.3 2.924,0 5.497,0.857 7.603,2.689 l -1.793,2.339 c -1.988,-1.442 -3.665,-2.026 -5.731,-2.026 -2.573,0 -4.601,1.013 -5.77,3.431 -1.248,2.572 -1.481,4.483 -1.481,7.68 0,3.704 0.663,6.472 1.91,8.109 1.169,1.521 3.47,2.417 5.77,2.417 1.521,0 2.885,-0.39 3.977,-1.014 v -7.642 h -4.951 l -0.624,-3.079 h 9.279 v 12.554 c -2.185,1.364 -5.109,2.144 -7.955,2.144 z"
       id="path4292"
       inkscape:connector-curvature="0"
       style="fill:#7b7b7b" /><path
       d="m 154.716,122.284 v 0.468 c 0,1.677 0.234,2.963 0.818,3.898 1.014,1.56 2.612,2.301 4.483,2.301 1.833,0 3.392,-0.624 4.795,-1.872 l 1.365,2.145 c -1.911,1.677 -4.211,2.495 -6.745,2.495 -5.419,0 -8.733,-3.938 -8.733,-10.331 0,-3.392 0.663,-5.575 2.339,-7.563 1.56,-1.832 3.47,-2.69 5.887,-2.69 2.183,0 3.938,0.702 5.302,2.105 1.716,1.755 2.339,3.938 2.378,8.421 v 0.624 h -11.889 z m 6.94,-7.056 c -0.624,-0.779 -1.56,-1.364 -2.807,-1.364 -2.729,0 -4.094,2.222 -4.094,5.77 h 8.109 c 0,-1.872 -0.428,-3.432 -1.208,-4.406 z"
       id="path4294"
       inkscape:connector-curvature="0"
       style="fill:#7b7b7b" /><path
       d="m 183.056,131.29 v -13.178 c 0,-1.754 -0.156,-2.378 -0.624,-3.002 -0.39,-0.507 -1.091,-0.779 -1.988,-0.779 -1.403,0 -3.509,1.092 -4.834,2.495 v 14.464 h -3.548 v -14.542 c 0,-2.339 -0.195,-3.235 -0.741,-4.64 l 3.392,-0.936 c 0.468,0.936 0.663,1.794 0.663,3.002 1.248,-1.053 1.793,-1.481 2.534,-1.91 1.131,-0.663 2.417,-0.975 3.626,-0.975 2.066,0 3.898,1.092 4.601,2.769 0.312,0.701 0.468,1.559 0.468,2.456 v 14.775 h -3.549 z"
       id="path4296"
       inkscape:connector-curvature="0"
       style="fill:#7b7b7b" /><path
       d="m 206.327,132.108 c -1.209,-0.468 -2.145,-1.442 -2.611,-2.807 -0.508,0.624 -2.145,2.573 -5.537,2.573 -3.898,0 -6.316,-1.988 -6.316,-5.731 0,-4.522 3.626,-6.939 9.942,-6.939 0.467,0 0.857,0 1.363,0.039 v -1.286 c 0,-2.301 -0.312,-3.86 -3.041,-3.86 -2.066,0 -4.405,1.014 -6.004,2.223 l -1.637,-2.573 c 1.91,-1.092 4.405,-2.573 8.188,-2.573 2.846,0 4.912,1.053 5.652,3.119 0.313,0.857 0.391,1.521 0.391,3.431 0,1.403 -0.156,4.405 -0.156,7.252 0,2.689 0.078,3.781 1.598,4.717 z m -4.405,-10.487 c -2.69,0 -4.328,0.507 -5.107,1.404 -0.741,0.857 -1.014,1.559 -1.014,2.846 0,2.145 1.091,3.392 3.08,3.392 1.638,0 3.196,-1.014 4.094,-2.573 l 0.116,-4.99 c -0.545,-0.04 -0.858,-0.079 -1.169,-0.079 z"
       id="path4298"
       inkscape:connector-curvature="0"
       style="fill:#7b7b7b" /><path
       d="m 226.909,131.953 c -0.975,-0.741 -1.482,-1.481 -1.833,-2.808 -1.56,1.91 -3.47,2.808 -5.887,2.808 -2.495,0 -4.444,-1.131 -5.263,-2.924 -0.352,-0.78 -0.469,-1.872 -0.469,-3.275 v -13.879 l 3.548,-0.702 v 13.606 c 0,1.988 0.195,2.769 0.897,3.431 0.506,0.468 1.402,0.857 2.261,0.857 1.755,0 3.626,-1.364 4.444,-3.079 v -14.035 l 3.548,-0.702 v 14.698 c 0,1.988 0.429,3.392 1.208,4.055 z"
       id="path4300"
       inkscape:connector-curvature="0"
       style="fill:#7b7b7b" /><path
       d="m 264.798,131.29 v -13.996 c 0,-2.223 -0.702,-3.002 -2.34,-3.002 -1.793,0 -3.08,1.17 -4.561,2.651 v 14.347 h -3.51 v -13.918 c 0,-2.184 -0.623,-3.002 -2.416,-3.002 -1.326,0 -2.808,0.663 -4.484,2.261 v 14.659 h -3.547 v -14.347 c 0,-2.769 -0.156,-3.509 -0.702,-4.873 l 3.353,-0.819 c 0.391,0.663 0.663,1.638 0.663,2.729 1.677,-1.755 3.665,-2.769 5.497,-2.769 1.832,0 3.664,0.975 4.639,3.08 1.949,-2.066 3.977,-3.08 5.965,-3.08 3.041,0 4.991,1.91 4.991,5.497 v 14.581 h -3.548 z"
       id="path4302"
       inkscape:connector-curvature="0"
       style="fill:#7b7b7b" /><path
       d="m 278.204,122.284 v 0.468 c 0,1.677 0.234,2.963 0.819,3.898 1.014,1.56 2.611,2.301 4.483,2.301 1.832,0 3.392,-0.624 4.795,-1.872 l 1.364,2.145 c -1.91,1.677 -4.21,2.495 -6.744,2.495 -5.419,0 -8.733,-3.938 -8.733,-10.331 0,-3.392 0.663,-5.575 2.34,-7.563 1.559,-1.832 3.47,-2.69 5.887,-2.69 2.183,0 3.938,0.702 5.302,2.105 1.716,1.755 2.34,3.938 2.378,8.421 v 0.624 h -11.891 z m 6.94,-7.056 c -0.623,-0.779 -1.56,-1.364 -2.807,-1.364 -2.729,0 -4.094,2.222 -4.094,5.77 h 8.109 c 0.001,-1.872 -0.428,-3.432 -1.208,-4.406 z"
       id="path4304"
       inkscape:connector-curvature="0"
       style="fill:#7b7b7b" /><path
       d="m 297.382,108.327 c -1.403,0 -2.495,-1.17 -2.495,-2.573 0,-1.442 1.131,-2.612 2.534,-2.612 1.403,0 2.573,1.131 2.573,2.612 0,1.403 -1.17,2.573 -2.612,2.573 z m -1.832,22.963 v -19.415 l 3.704,-0.585 v 20 z"
       id="path4306"
       inkscape:connector-curvature="0"
       style="fill:#7b7b7b" /><path
       d="m 317.264,131.29 v -13.178 c 0,-1.754 -0.156,-2.378 -0.624,-3.002 -0.39,-0.507 -1.092,-0.779 -1.988,-0.779 -1.403,0 -3.509,1.092 -4.834,2.495 v 14.464 h -3.548 v -14.542 c 0,-2.339 -0.195,-3.235 -0.741,-4.64 l 3.393,-0.936 c 0.468,0.936 0.662,1.794 0.662,3.002 1.248,-1.053 1.794,-1.481 2.534,-1.91 1.131,-0.663 2.417,-0.975 3.626,-0.975 2.066,0 3.898,1.092 4.601,2.769 0.312,0.701 0.468,1.559 0.468,2.456 v 14.775 h -3.549 z"
       id="path4308"
       inkscape:connector-curvature="0"
       style="fill:#7b7b7b" /><path
       d="m 352.346,127.664 c -1.871,2.34 -4.366,3.626 -9.044,3.626 h -6.706 v -26.861 h 6.237 c 4.64,0 7.603,1.053 10.059,4.444 1.599,2.222 2.379,5.302 2.379,9.006 0,4.366 -1.131,7.563 -2.925,9.785 z m -3.236,-17.855 c -1.481,-1.871 -3.041,-2.378 -5.653,-2.378 h -3.041 v 20.779 h 2.963 c 3.08,0 5.068,-0.818 6.277,-3.002 0.975,-1.793 1.442,-4.21 1.442,-6.861 10e-4,-3.743 -0.389,-6.511 -1.988,-8.538 z"
       id="path4310"
       inkscape:connector-curvature="0"
       style="fill:#7b7b7b" /><path
       d="m 362.946,108.327 c -1.403,0 -2.495,-1.17 -2.495,-2.573 0,-1.442 1.131,-2.612 2.534,-2.612 1.403,0 2.573,1.131 2.573,2.612 0.001,1.403 -1.169,2.573 -2.612,2.573 z m -1.832,22.963 v -19.415 l 3.704,-0.585 v 20 z"
       id="path4312"
       inkscape:connector-curvature="0"
       style="fill:#7b7b7b" /><path
       d="m 382.828,131.29 v -13.178 c 0,-1.754 -0.156,-2.378 -0.624,-3.002 -0.39,-0.507 -1.092,-0.779 -1.988,-0.779 -1.403,0 -3.509,1.092 -4.834,2.495 v 14.464 h -3.548 v -14.542 c 0,-2.339 -0.195,-3.235 -0.741,-4.64 l 3.393,-0.936 c 0.468,0.936 0.662,1.794 0.662,3.002 1.248,-1.053 1.794,-1.481 2.534,-1.91 1.131,-0.663 2.417,-0.975 3.626,-0.975 2.066,0 3.898,1.092 4.601,2.769 0.312,0.701 0.468,1.559 0.468,2.456 v 14.775 h -3.549 z"
       id="path4314"
       inkscape:connector-curvature="0"
       style="fill:#7b7b7b" /><path
       d="m 407.736,114.526 c -0.585,0 -0.74,-0.039 -1.676,-0.313 1.014,1.287 1.403,2.34 1.403,3.587 0,2.807 -1.91,6.043 -7.018,6.043 -1.209,0.39 -3.08,1.286 -3.08,2.145 0,0.584 0.468,0.975 1.403,0.975 h 3.002 c 4.99,0 7.057,2.339 7.057,5.38 0,4.21 -3.47,6.315 -8.226,6.315 -5.459,0 -8.577,-1.91 -8.577,-5.146 0,-0.819 0.155,-1.404 0.351,-1.988 l 3.509,-0.195 c -0.156,0.312 -0.351,0.936 -0.351,1.481 0,2.027 1.676,3.119 4.717,3.119 3.197,0 4.796,-1.287 4.796,-3.354 0,-1.871 -1.521,-2.963 -5.381,-2.963 -1.364,0 -2.924,-0.116 -3.664,-0.194 -1.716,-0.195 -2.729,-1.17 -2.729,-2.612 0,-1.832 1.599,-2.612 3.821,-3.431 -3.002,-0.896 -4.601,-2.924 -4.601,-5.614 0,-3.938 3.002,-6.55 7.485,-6.55 1.053,0 1.871,0.078 3.041,0.429 1.014,0.313 2.066,0.624 2.924,0.624 1.169,0 2.145,-0.39 3.196,-1.131 l 1.833,2.223 c -1.09,0.858 -2.026,1.17 -3.235,1.17 z M 399.9,114.02 c -2.3,0 -3.548,1.247 -3.548,3.742 0,2.417 1.286,3.626 3.587,3.626 2.339,0 3.548,-1.287 3.548,-3.704 0,-2.496 -1.131,-3.664 -3.587,-3.664 z"
       id="path4316"
       inkscape:connector-curvature="0"
       style="fill:#7b7b7b" /><path
       d="m 416.661,131.836 c -1.599,0 -2.769,-1.325 -2.769,-2.924 0,-1.599 1.17,-2.924 2.769,-2.924 1.598,0 2.768,1.325 2.768,2.924 0,1.599 -1.17,2.924 -2.768,2.924 z"
       id="path4318"
       inkscape:connector-curvature="0"
       style="fill:#7b7b7b" /></g></svg>