<?xml version="1.0" encoding="UTF-8" standalone="no"?>
<!-- Created with Inkscape (http://www.inkscape.org/) -->

<svg
   xmlns:dc="http://purl.org/dc/elements/1.1/"
   xmlns:cc="http://creativecommons.org/ns#"
   xmlns:rdf="http://www.w3.org/1999/02/22-rdf-syntax-ns#"
   xmlns:svg="http://www.w3.org/2000/svg"
   xmlns="http://www.w3.org/2000/svg"
   xmlns:sodipodi="http://sodipodi.sourceforge.net/DTD/sodipodi-0.dtd"
   xmlns:inkscape="http://www.inkscape.org/namespaces/inkscape"
   width="491.49374"
   height="100"
   viewBox="0 0 130.04105 26.458334"
   version="1.1"
   id="svg8"
   inkscape:version="0.92.1 r"
   sodipodi:docname="sbb.svg">
  <defs
     id="defs2">
    <clipPath
       id="clp7">
      <path
         id="path2875"
         d="M 22.677,17.008 H 130.39 v 11.34 H 22.677 Z"
         inkscape:connector-curvature="0" />
    </clipPath>
    <clipPath
       id="clp6">
      <path
         id="path2869"
         d="M 22.677,0 H 572.6 V 45.355 H 22.677 Z"
         inkscape:connector-curvature="0" />
    </clipPath>
  </defs>
  <sodipodi:namedview
     id="base"
     pagecolor="#ffffff"
     bordercolor="#666666"
     borderopacity="1.0"
     inkscape:pageopacity="0.0"
     inkscape:pageshadow="2"
     inkscape:zoom="0.49497475"
     inkscape:cx="-659.16624"
     inkscape:cy="-316.40924"
     inkscape:document-units="mm"
     inkscape:current-layer="layer1"
     showgrid="false"
     units="px"
     inkscape:window-width="1955"
     inkscape:window-height="1147"
     inkscape:window-x="438"
     inkscape:window-y="72"
     inkscape:window-maximized="0" />
  <metadata
     id="metadata5">
    <rdf:RDF>
      <cc:Work
         rdf:about="">
        <dc:format>image/svg+xml</dc:format>
        <dc:type
           rdf:resource="http://purl.org/dc/dcmitype/StillImage" />
        <dc:title></dc:title>
      </cc:Work>
    </rdf:RDF>
  </metadata>
  <g
     inkscape:label="Layer 1"
     inkscape:groupmode="layer"
     id="layer1"
     transform="translate(-2.4670364,-211.82131)">
    <g
       id="g128"
       transform="translate(-0.53453906,42.228585)" />
    <g
       id="layer1-2"
       transform="matrix(0.18350238,0,0,0.18350238,-43.900737,194.75169)">
      <g
         id="q10"
         style="font-size:12px;font-family:fnt0;letter-spacing:0.51599997;word-spacing:0;fill:#ffffff;fill-rule:nonzero;stroke:none"
         transform="matrix(6.5791633,0,0,-6.5791633,103.48645,317.06208)">
        <clipPath
           id="clipPath3240">
          <path
             id="path3242"
             d="M 22.677,0 H 572.6 V 45.355 H 22.677 Z"
             inkscape:connector-curvature="0" />
        </clipPath>
        <g
           id="g2871"
           clip-path="url(#clp6)">
          <g
             id="q11"
             style="fill:none;stroke:none">
            <clipPath
               id="clipPath3246">
              <path
                 id="path3248"
                 d="M 22.677,17.008 H 130.39 v 11.34 H 22.677 Z"
                 inkscape:connector-curvature="0" />
            </clipPath>
            <g
               id="g2877"
               clip-path="url(#clp7)">
              <path
                 id="path2879"
                 style="fill:#ec1b24;fill-rule:nonzero;stroke:none"
                 d="m 22.677,17.008 h 34.02 v 11.34 h -34.02 z"
                 inkscape:connector-curvature="0" />
              <path
                 id="path2881"
                 style="fill:#ffffff;fill-rule:nonzero;stroke:none"
                 d="m 42.703,23.546 h 3.678 v 2.912 h 1.732 v -2.912 h 3.678 l -2.96,2.912 h 2.196 l 3.78,-3.78 -3.78,-3.78 h -2.196 l 2.96,2.912 h -3.678 v -2.912 h -1.732 v 2.912 h -3.678 l 2.959,-2.912 h -2.195 l -3.78,3.78 3.78,3.78 h 2.195"
                 inkscape:connector-curvature="0" />
              <path
                 id="path2883"
                 style="fill:#231f20;fill-rule:nonzero;stroke:none"
                 d="m 60.208,21.156 c -0.022,-1.957 1.623,-2.824 3.379,-2.824 2.157,0 3.302,1.089 3.302,2.546 0,1.8 -1.779,2.167 -2.357,2.311 -1.99,0.512 -2.367,0.59 -2.367,1.201 0,0.667 0.644,0.9 1.2,0.9 0.834,0 1.512,-0.244 1.567,-1.2 h 1.69 c 0,1.834 -1.523,2.556 -3.179,2.556 -1.434,0 -2.968,-0.778 -2.968,-2.401 0,-1.489 1.189,-1.945 2.368,-2.256 1.167,-0.311 2.356,-0.456 2.356,-1.311 0,-0.812 -0.934,-0.99 -1.545,-0.99 -0.934,0 -1.756,0.412 -1.756,1.468"
                 inkscape:connector-curvature="0" />
              <path
                 id="path2885"
                 style="fill:#231f20;fill-rule:evenodd;stroke:none"
                 d="m 69.711,25.101 h 1.634 c 0.622,0 1.2,-0.155 1.2,-0.911 0,-0.667 -0.456,-0.945 -1.067,-0.945 h -1.767 z m -1.745,-6.58 h 3.845 c 1.434,0 2.802,0.689 2.802,2.301 0,0.989 -0.49,1.734 -1.457,2.012 0.69,0.333 1.079,0.878 1.079,1.656 0,1.478 -1.023,1.967 -2.535,1.967 h -3.734 z m 1.745,3.535 h 1.9 c 0.745,0 1.256,-0.323 1.256,-1.134 0,-0.822 -0.6,-1.045 -1.289,-1.045 h -1.867"
                 inkscape:connector-curvature="0" />
              <path
                 id="path2887"
                 style="fill:#231f20;fill-rule:evenodd;stroke:none"
                 d="m 77.522,25.101 h 1.634 c 0.622,0 1.2,-0.155 1.2,-0.911 0,-0.667 -0.456,-0.945 -1.067,-0.945 h -1.767 z m -1.746,-6.58 h 3.846 c 1.434,0 2.801,0.689 2.801,2.301 0,0.989 -0.489,1.734 -1.456,2.012 0.689,0.333 1.078,0.878 1.078,1.656 0,1.478 -1.022,1.967 -2.534,1.967 h -3.735 z m 1.746,3.535 h 1.9 c 0.745,0 1.256,-0.323 1.256,-1.134 0,-0.822 -0.6,-1.045 -1.289,-1.045 h -1.867"
                 inkscape:connector-curvature="0" />
              <path
                 id="path2889"
                 style="fill:#231f20;fill-rule:nonzero;stroke:none"
                 d="m 93.509,23.79 c -0.211,1.834 -1.678,2.856 -3.423,2.856 -2.457,0 -3.901,-1.834 -3.901,-4.19 0,-2.29 1.444,-4.124 3.901,-4.124 1.945,0 3.312,1.267 3.49,3.246 h -1.69 c -0.133,-1.045 -0.733,-1.779 -1.8,-1.779 -1.567,0 -2.157,1.334 -2.157,2.657 0,1.389 0.59,2.723 2.157,2.723 0.867,0 1.623,-0.6 1.734,-1.389"
                 inkscape:connector-curvature="0" />
              <path
                 id="path2891"
                 style="fill:#231f20;fill-rule:nonzero;stroke:none"
                 d="m 94.65,18.521 h 1.745 V 21.8 h 3.324 v 1.356 h -3.324 v 1.834 h 3.835 v 1.467 h -5.58"
                 inkscape:connector-curvature="0" />
              <path
                 id="path2893"
                 style="fill:#231f20;fill-rule:nonzero;stroke:none"
                 d="m 101.29,18.521 h 1.74 V 21.8 h 3.32 v 1.356 h -3.32 v 1.834 h 3.83 v 1.467 h -5.57"
                 inkscape:connector-curvature="0" />
              <path
                 id="path2895"
                 style="fill:#231f20;fill-rule:nonzero;stroke:none"
                 d="m 110.64,18.521 h 1.75 V 21.8 h 3.32 v 1.356 h -3.32 v 1.834 h 3.83 v 1.467 h -5.58"
                 inkscape:connector-curvature="0" />
              <path
                 id="path2897"
                 style="fill:#231f20;fill-rule:nonzero;stroke:none"
                 d="m 117.49,18.521 h 1.74 V 21.8 h 3.32 v 1.356 h -3.32 v 1.834 h 3.84 v 1.467 h -5.58"
                 inkscape:connector-curvature="0" />
              <path
                 id="path2899"
                 style="fill:#231f20;fill-rule:nonzero;stroke:none"
                 d="m 123.71,21.156 c -0.02,-1.957 1.62,-2.824 3.38,-2.824 2.16,0 3.3,1.089 3.3,2.546 0,1.8 -1.78,2.167 -2.35,2.311 -1.99,0.512 -2.37,0.59 -2.37,1.201 0,0.667 0.64,0.9 1.2,0.9 0.83,0 1.51,-0.244 1.57,-1.2 h 1.68 c 0,1.834 -1.52,2.556 -3.17,2.556 -1.44,0 -2.97,-0.778 -2.97,-2.401 0,-1.489 1.19,-1.945 2.37,-2.256 1.16,-0.311 2.35,-0.456 2.35,-1.311 0,-0.812 -0.93,-0.99 -1.54,-0.99 -0.94,0 -1.76,0.412 -1.76,1.468"
                 inkscape:connector-curvature="0" />
            </g>
          </g>
        </g>
      </g>
    </g>
  </g>
</svg>
