<?xml version="1.0" encoding="UTF-8" standalone="no"?><!DOCTYPE svg PUBLIC "-//W3C//DTD SVG 1.1//EN" "http://www.w3.org/Graphics/SVG/1.1/DTD/svg11.dtd"><svg width="100%" height="100%" viewBox="0 0 227 48" version="1.1" xmlns="http://www.w3.org/2000/svg" xmlns:xlink="http://www.w3.org/1999/xlink" xml:space="preserve" style="fill-rule:evenodd;clip-rule:evenodd;stroke-linejoin:round;"><g><clipPath id="_clip1"><rect x="0" y="0" width="226.226" height="47.061"/></clipPath><g clip-path="url(#_clip1)"><path d="M24.454,0.767c2.014,0.151 3.617,0.542 4.656,1.102c0.916,0.503 1.372,1.071 1.43,1.748c0.008,0.092 0.009,0.188 0.003,0.286c-0.034,0.444 -0.233,0.965 -0.652,1.549c-0.244,0.351 -0.954,0.938 -1.882,1.594c-0.93,0.661 -2.085,1.414 -3.272,2.192c-2.377,1.557 -4.561,3.163 -5.655,4.409c-0.31,0.368 -0.529,0.694 -0.569,1.087c-0.006,0.047 -0.006,0.095 -0.002,0.14c0.025,0.278 0.212,0.556 0.47,0.693c0.302,0.177 0.691,0.265 1.224,0.31c0.013,0.001 0.032,0.002 0.055,0.003c1.45,0.108 2.701,0.095 4.272,-0.043c4.855,-0.425 10.017,-1.984 13.853,-4.424c0.11,-0.071 0.167,-0.199 0.156,-0.324c-0.004,-0.054 -0.022,-0.107 -0.052,-0.153c-0.071,-0.113 -0.196,-0.169 -0.32,-0.157c-0.055,0.004 -0.107,0.019 -0.156,0.052c-3.714,2.381 -8.842,3.91 -13.575,4.324c-6.422,0.333 -6.379,-0.053 -1.936,-3.569c1.458,-1.153 3.768,-2.491 5.489,-3.683c1.154,-0.804 2.046,-1.475 2.461,-2.049c0.469,-0.657 0.732,-1.29 0.781,-1.897c0.01,-0.136 0.009,-0.27 -0.002,-0.398c-0.084,-0.959 -0.763,-1.757 -1.797,-2.3c-1.177,-0.629 -2.852,-1.023 -4.928,-1.181c-1.607,-0.123 -3.456,-0.103 -5.491,0.076c-5.348,0.467 -11.925,1.99 -18.805,4.894c-0.141,0.061 -0.222,0.203 -0.209,0.347c0.002,0.035 0.011,0.07 0.027,0.107c0.06,0.142 0.203,0.222 0.348,0.21c0.034,-0.004 0.069,-0.013 0.102,-0.026c6.818,-2.88 13.345,-4.385 18.609,-4.846c1.996,-0.173 3.804,-0.195 5.367,-0.073" style="fill:#8097a2;fill-rule:nonzero;"/><path d="M21.666,3.938c1.731,0.128 3.188,0.438 4.307,0.876c1.122,0.439 1.883,1.004 2.275,1.615c0.192,0.302 0.306,0.616 0.335,0.955c0.01,0.117 0.009,0.233 0.002,0.356c-0.022,0.307 -0.11,0.64 -0.271,0.996c-0.144,0.33 -0.619,0.879 -1.279,1.497c-0.655,0.615 -1.486,1.313 -2.345,2.03c-1.722,1.443 -3.533,2.927 -4.382,4.205c-0.241,0.377 -0.414,0.735 -0.449,1.142c-0.007,0.071 -0.007,0.141 -0.001,0.215c0.024,0.273 0.146,0.559 0.345,0.759c0.265,0.267 0.608,0.425 1.039,0.537c0.614,0.158 1.28,0.258 1.985,0.314c0.739,0.054 1.849,0.012 3.193,-0.105c6.308,-0.551 17.833,-2.773 21.958,-4.259c0.213,-0.078 0.341,-0.289 0.322,-0.504c-0.004,-0.042 -0.012,-0.084 -0.026,-0.124c-0.078,-0.214 -0.289,-0.344 -0.505,-0.325c-0.045,0.004 -0.083,0.013 -0.125,0.03c-4.108,1.486 -15.638,3.672 -21.748,4.209c-1.269,0.11 -2.301,0.15 -2.996,0.096c-0.656,-0.049 -1.266,-0.143 -1.815,-0.283c-0.332,-0.085 -0.496,-0.187 -0.588,-0.281c-0.003,-0.007 -0.049,-0.051 -0.059,-0.126c-0.002,-0.023 -0.002,-0.04 -0.002,-0.067c0.01,-0.244 0.223,-0.645 0.649,-1.162c0.415,-0.504 1.007,-1.08 1.678,-1.678c1.341,-1.203 2.991,-2.494 4.239,-3.628c0.84,-0.77 1.491,-1.422 1.804,-2.08c0.202,-0.45 0.324,-0.897 0.358,-1.331c0.013,-0.172 0.013,-0.344 -0.002,-0.511c-0.044,-0.504 -0.214,-0.985 -0.49,-1.41c-0.368,-0.569 -0.915,-1.051 -1.604,-1.452c-1.38,-0.801 -3.325,-1.3 -5.727,-1.487c-1.533,-0.115 -3.25,-0.101 -5.118,0.064c-4.561,0.397 -10.008,1.683 -15.812,4.104c-0.201,0.084 -0.318,0.287 -0.299,0.493c0.004,0.049 0.015,0.099 0.039,0.151c0.081,0.202 0.284,0.316 0.491,0.298c0.049,-0.005 0.099,-0.017 0.148,-0.035c5.719,-2.39 11.086,-3.646 15.53,-4.035c1.816,-0.158 3.476,-0.174 4.946,-0.059" style="fill:#8097a2;fill-rule:nonzero;"/><path d="M18.909,7.205c1.986,0.15 3.655,0.548 4.935,1.111c1.281,0.559 2.155,1.28 2.609,2.044c0.223,0.375 0.351,0.764 0.387,1.168c0.013,0.146 0.013,0.292 0.003,0.448c-0.009,0.109 -0.023,0.224 -0.045,0.337c-0.058,0.299 -0.245,0.699 -0.547,1.172c-0.3,0.468 -0.696,0.989 -1.133,1.532c-0.876,1.087 -1.902,2.254 -2.633,3.369c-0.49,0.755 -0.858,1.461 -0.924,2.224c-0.011,0.116 -0.011,0.235 0,0.354c0.02,0.225 0.076,0.448 0.179,0.66c0.156,0.319 0.421,0.601 0.747,0.806c1.085,0.699 2.522,1.045 4.281,1.181c1.497,0.114 3.23,0.069 5.175,-0.101c1.49,-0.131 3.104,-0.336 4.832,-0.593c0.302,-0.045 0.516,-0.321 0.488,-0.618c-0.001,-0.013 -0.003,-0.028 -0.003,-0.034c-0.047,-0.306 -0.323,-0.518 -0.62,-0.491c0,0 -0.001,-0.003 -0.035,0.004c-1.708,0.257 -3.301,0.456 -4.76,0.584c-1.906,0.166 -3.582,0.21 -4.988,0.103c-1.655,-0.124 -2.92,-0.462 -3.746,-1.001c-0.181,-0.112 -0.289,-0.25 -0.338,-0.349c-0.031,-0.063 -0.059,-0.153 -0.065,-0.247c-0.006,-0.05 -0.006,-0.109 -0.002,-0.169c0.023,-0.311 0.171,-0.711 0.44,-1.192c0.267,-0.473 0.64,-0.998 1.061,-1.541c0.844,-1.094 1.878,-2.249 2.648,-3.325c0.518,-0.732 0.924,-1.393 1.071,-2.1c0.029,-0.161 0.053,-0.323 0.066,-0.481c0.015,-0.21 0.013,-0.419 -0.005,-0.623c-0.051,-0.589 -0.238,-1.157 -0.544,-1.667c-0.417,-0.696 -1.039,-1.3 -1.828,-1.811c-1.582,-1.022 -3.832,-1.688 -6.62,-1.901c-1.405,-0.109 -2.946,-0.101 -4.606,0.046c-3.768,0.327 -8.208,1.416 -12.953,3.374l-0.032,0.013c-0.219,0.107 -0.344,0.337 -0.323,0.57c0.005,0.056 0.017,0.111 0.042,0.168c0.097,0.238 0.338,0.374 0.581,0.354c0.054,-0.006 0.112,-0.019 0.171,-0.043c4.649,-1.916 8.984,-2.971 12.624,-3.29c1.598,-0.139 3.075,-0.15 4.41,-0.045" style="fill:#8097a2;fill-rule:nonzero;"/><path d="M50.238,14.787c0.083,-1.058 -0.712,-1.982 -1.767,-2.061c-1.058,-0.081 -1.981,0.711 -2.061,1.768c-0.08,1.058 0.711,1.979 1.769,2.06c1.056,0.082 1.979,-0.712 2.059,-1.767" style="fill:#8097a2;fill-rule:nonzero;"/><path d="M46.103,28.08c0.099,-1.306 -0.879,-2.444 -2.184,-2.543c-1.305,-0.101 -2.445,0.877 -2.544,2.182c-0.097,1.306 0.88,2.444 2.184,2.544c1.307,0.098 2.444,-0.878 2.544,-2.183" style="fill:#8097a2;fill-rule:nonzero;"/><path d="M38.094,22.695c0.09,-1.175 -0.789,-2.198 -1.964,-2.289c-1.175,-0.089 -2.199,0.79 -2.289,1.966c-0.09,1.174 0.789,2.199 1.964,2.289c1.175,0.089 2.199,-0.791 2.289,-1.966" style="fill:#8097a2;fill-rule:nonzero;"/><path d="M39.777,11.321c0.06,-0.773 -0.515,-1.443 -1.289,-1.503c-0.769,-0.059 -1.442,0.518 -1.499,1.288c-0.062,0.772 0.517,1.444 1.288,1.502c0.77,0.06 1.443,-0.518 1.5,-1.287" style="fill:#8097a2;fill-rule:nonzero;"/><path d="M22.847,12.346c1.239,0.828 2.002,1.803 2.31,2.795c0.071,0.229 0.118,0.462 0.139,0.691c0.001,0.012 0.001,0.018 0.002,0.029c0,0.011 0.001,0.014 0.001,0.015c0.015,0.163 0.015,0.331 0.004,0.504c-0.054,0.96 -0.454,2.11 -0.887,3.319c-0.429,1.218 -0.881,2.464 -0.964,3.718c-0.016,0.249 -0.015,0.498 0.007,0.748c0.025,0.29 0.079,0.577 0.167,0.862c0.043,0.134 0.089,0.264 0.147,0.395c0.28,0.637 0.774,1.227 1.468,1.699c1.414,0.955 3.621,1.537 7.147,1.754c0.87,0.053 9.374,-0.023 10.482,-0.025c0.022,0 0.037,-0.002 0.055,-0.004c0.04,-0.003 0.087,-0.01 0.129,-0.024c0.254,-0.079 0.44,-0.316 0.44,-0.597c0,-0.02 -0.001,-0.041 -0.001,-0.055c-0.005,-0.044 -0.014,-0.087 -0.027,-0.128c-0.077,-0.256 -0.318,-0.443 -0.598,-0.443c-1.082,-0.001 -9.47,0.082 -10.405,0.027c-2.563,-0.152 -4.342,-0.524 -5.528,-1.017c-1.175,-0.491 -1.745,-1.081 -2.019,-1.697c-0.036,-0.084 -0.066,-0.168 -0.095,-0.255c-0.057,-0.186 -0.095,-0.383 -0.113,-0.591c-0.016,-0.183 -0.016,-0.371 -0.006,-0.569c0.057,-0.999 0.459,-2.166 0.893,-3.373c0.429,-1.219 0.881,-2.439 0.959,-3.663c0.013,-0.237 0.012,-0.474 -0.009,-0.711c-0.028,-0.334 -0.095,-0.661 -0.194,-0.983c-0.409,-1.315 -1.393,-2.524 -2.81,-3.463c-1.77,-1.176 -4.228,-1.971 -7.264,-2.153c-1.093,-0.065 -2.264,-0.052 -3.502,0.056c-2.049,0.18 -4.291,0.615 -6.694,1.364c-1.281,0.395 -2.608,0.882 -3.978,1.46c-0.257,0.11 -0.401,0.371 -0.38,0.631c0.004,0.044 0.012,0.087 0.027,0.132c0.006,0.023 0.015,0.047 0.02,0.058c0.109,0.258 0.368,0.403 0.63,0.381c0.04,-0.004 0.088,-0.013 0.133,-0.027c0.012,-0.003 0.033,-0.011 0.058,-0.022c1.332,-0.565 2.617,-1.036 3.855,-1.419c2.329,-0.723 4.485,-1.139 6.44,-1.311c1.179,-0.102 2.286,-0.118 3.316,-0.056c2.858,0.172 5.107,0.925 6.645,1.948" style="fill:#8097a2;fill-rule:nonzero;"/><path d="M61.034,44.639c-1.287,0 -1.785,-0.581 -1.785,-1.882l0,-3.792c0,-0.055 -0.028,-0.083 -0.083,-0.083l-0.554,0c-0.083,0 -0.139,-0.055 -0.139,-0.138l0,-0.665c0,-0.083 0.056,-0.138 0.139,-0.138l0.554,0c0.055,0 0.083,-0.028 0.083,-0.083l0,-1.868c0,-0.083 0.055,-0.139 0.138,-0.139l0.886,0c0.083,0 0.138,0.056 0.138,0.139l0,1.868c0,0.055 0.028,0.083 0.083,0.083l1.052,0c0.083,0 0.138,0.055 0.138,0.138l0,0.665c0,0.083 -0.055,0.138 -0.138,0.138l-1.052,0c-0.055,0 -0.083,0.028 -0.083,0.083l0,3.75c0,0.665 0.249,0.845 0.844,0.845l0.291,0c0.083,0 0.138,0.055 0.138,0.138l0,0.803c0,0.083 -0.055,0.138 -0.138,0.138l-0.512,0Z" style="fill:#8097a2;fill-rule:nonzero;"/><path d="M68.505,44.57c-0.083,0 -0.138,-0.055 -0.138,-0.138l0,-3.875c0,-1.066 -0.484,-1.689 -1.481,-1.689c-0.9,0 -1.522,0.637 -1.522,1.619l0,3.945c0,0.083 -0.055,0.138 -0.138,0.138l-0.886,0c-0.083,0 -0.138,-0.055 -0.138,-0.138l0,-9.134c0,-0.083 0.055,-0.139 0.138,-0.139l0.886,0c0.083,0 0.138,0.056 0.138,0.139l0,3.391l0.014,0c0.318,-0.512 0.955,-0.9 1.854,-0.9c1.439,0 2.297,0.983 2.297,2.491l0,4.152c0,0.083 -0.055,0.138 -0.138,0.138l-0.886,0Z" style="fill:#8097a2;fill-rule:nonzero;"/><path d="M76.391,40.682c0.055,0 0.083,-0.028 0.083,-0.083c0,-0.305 -0.028,-0.54 -0.097,-0.748c-0.221,-0.664 -0.775,-1.037 -1.522,-1.037c-0.747,0 -1.301,0.373 -1.522,1.037c-0.069,0.208 -0.097,0.443 -0.097,0.748c0,0.055 0.028,0.083 0.083,0.083l3.072,0Zm-4.124,2.242c-0.138,-0.429 -0.221,-0.914 -0.221,-1.675c0,-0.761 0.069,-1.273 0.207,-1.674c0.374,-1.149 1.343,-1.785 2.602,-1.785c1.273,0 2.228,0.65 2.602,1.785c0.138,0.429 0.207,0.886 0.207,1.896c0,0.083 -0.055,0.138 -0.152,0.138l-4.193,0c-0.055,0 -0.083,0.028 -0.083,0.083c0,0.36 0.041,0.581 0.11,0.803c0.264,0.761 0.859,1.148 1.675,1.148c0.789,0 1.343,-0.318 1.702,-0.733c0.07,-0.07 0.139,-0.083 0.208,-0.028l0.567,0.512c0.069,0.055 0.069,0.125 0.014,0.194c-0.526,0.664 -1.425,1.134 -2.588,1.134c-1.342,0 -2.297,-0.65 -2.657,-1.798" style="fill:#8097a2;fill-rule:nonzero;"/><path d="M88.219,42.605c0.111,-0.36 0.152,-0.72 0.152,-1.356c0,-0.637 -0.041,-0.983 -0.152,-1.343c-0.221,-0.664 -0.761,-1.038 -1.494,-1.038c-0.734,0 -1.273,0.374 -1.495,1.038c-0.111,0.36 -0.152,0.706 -0.152,1.343c0,0.636 0.041,0.996 0.152,1.356c0.222,0.664 0.761,1.038 1.495,1.038c0.733,0 1.273,-0.374 1.494,-1.038m-4.11,0.332c-0.152,-0.457 -0.221,-0.913 -0.221,-1.688c0,-0.762 0.069,-1.218 0.221,-1.675c0.36,-1.135 1.329,-1.785 2.616,-1.785c1.286,0 2.255,0.65 2.615,1.785c0.152,0.457 0.221,0.913 0.221,1.675c0,0.775 -0.069,1.231 -0.221,1.688c-0.36,1.121 -1.329,1.785 -2.615,1.785c-1.287,0 -2.256,-0.664 -2.616,-1.785" style="fill:#8097a2;fill-rule:nonzero;"/><path d="M96.382,42.632c0.111,-0.346 0.152,-0.775 0.152,-1.384c0,-0.595 -0.041,-1.024 -0.152,-1.383c-0.221,-0.651 -0.719,-0.997 -1.453,-0.997c-0.733,0 -1.245,0.332 -1.467,0.997c-0.111,0.331 -0.152,0.719 -0.152,1.383c0,0.665 0.041,1.066 0.152,1.384c0.222,0.664 0.734,1.011 1.467,1.011c0.734,0 1.232,-0.361 1.453,-1.011m-4.096,4.429c-0.083,0 -0.138,-0.056 -0.138,-0.138l0,-8.844c0,-0.083 0.055,-0.138 0.138,-0.138l0.886,0c0.083,0 0.138,0.055 0.138,0.138l0,0.623l0.014,0c0.318,-0.526 0.886,-0.913 1.882,-0.913c1.149,0 1.951,0.54 2.283,1.591c0.18,0.526 0.235,1.052 0.235,1.868c0,0.831 -0.055,1.357 -0.235,1.882c-0.332,1.052 -1.134,1.591 -2.283,1.591c-0.996,0 -1.564,-0.401 -1.882,-0.926l-0.014,0l0,3.128c0,0.082 -0.055,0.138 -0.138,0.138l-0.886,0Z" style="fill:#8097a2;fill-rule:nonzero;"/><path d="M104.254,40.682c0.055,0 0.083,-0.028 0.083,-0.083c0,-0.305 -0.028,-0.54 -0.097,-0.748c-0.221,-0.664 -0.775,-1.037 -1.522,-1.037c-0.747,0 -1.301,0.373 -1.522,1.037c-0.069,0.208 -0.097,0.443 -0.097,0.748c0,0.055 0.028,0.083 0.083,0.083l3.072,0Zm-4.124,2.242c-0.138,-0.429 -0.221,-0.914 -0.221,-1.675c0,-0.761 0.069,-1.273 0.207,-1.674c0.374,-1.149 1.343,-1.785 2.602,-1.785c1.273,0 2.228,0.65 2.602,1.785c0.138,0.429 0.207,0.886 0.207,1.896c0,0.083 -0.055,0.138 -0.152,0.138l-4.193,0c-0.055,0 -0.083,0.028 -0.083,0.083c0,0.36 0.041,0.581 0.11,0.803c0.264,0.761 0.859,1.148 1.675,1.148c0.789,0 1.343,-0.318 1.702,-0.733c0.07,-0.07 0.139,-0.083 0.208,-0.028l0.567,0.512c0.069,0.055 0.069,0.125 0.014,0.194c-0.526,0.664 -1.425,1.134 -2.588,1.134c-1.342,0 -2.297,-0.65 -2.657,-1.798" style="fill:#8097a2;fill-rule:nonzero;"/><path d="M112.416,44.57c-0.082,0 -0.138,-0.055 -0.138,-0.138l0,-3.875c0,-1.066 -0.485,-1.689 -1.48,-1.689c-0.901,0 -1.523,0.637 -1.523,1.619l0,3.945c0,0.083 -0.055,0.138 -0.138,0.138l-0.886,0c-0.083,0 -0.138,-0.055 -0.138,-0.138l0,-6.352c0,-0.083 0.055,-0.139 0.138,-0.139l0.886,0c0.083,0 0.138,0.056 0.138,0.139l0,0.609l0.014,0c0.318,-0.512 0.955,-0.9 1.854,-0.9c1.44,0 2.297,0.983 2.297,2.491l0,4.152c0,0.083 -0.054,0.138 -0.138,0.138l-0.886,0Z" style="fill:#8097a2;fill-rule:nonzero;"/><path d="M120.204,39.574c0.373,-1.149 1.343,-1.785 2.615,-1.785c1.011,0 1.786,0.429 2.27,1.121c0.042,0.069 0.042,0.124 -0.041,0.193l-0.609,0.498c-0.069,0.056 -0.138,0.056 -0.193,-0.014c-0.388,-0.484 -0.762,-0.719 -1.427,-0.719c-0.719,0 -1.259,0.346 -1.48,1.038c-0.111,0.346 -0.152,0.761 -0.152,1.342c0,0.595 0.041,1.01 0.152,1.357c0.221,0.691 0.761,1.038 1.48,1.038c0.665,0 1.039,-0.236 1.427,-0.72c0.055,-0.07 0.124,-0.07 0.193,-0.014l0.609,0.498c0.083,0.069 0.083,0.125 0.041,0.194c-0.484,0.692 -1.259,1.12 -2.27,1.12c-1.272,0 -2.242,-0.636 -2.615,-1.784c-0.124,-0.402 -0.208,-0.941 -0.208,-1.689c0,-0.733 0.084,-1.273 0.208,-1.674" style="fill:#8097a2;fill-rule:nonzero;"/><path d="M131.95,44.57c-0.083,0 -0.138,-0.055 -0.138,-0.138l0,-3.875c0,-1.066 -0.485,-1.689 -1.482,-1.689c-0.899,0 -1.521,0.637 -1.521,1.619l0,3.945c0,0.083 -0.055,0.138 -0.139,0.138l-0.886,0c-0.082,0 -0.138,-0.055 -0.138,-0.138l0,-9.134c0,-0.083 0.056,-0.139 0.138,-0.139l0.886,0c0.084,0 0.139,0.056 0.139,0.139l0,3.391l0.014,0c0.317,-0.512 0.954,-0.9 1.854,-0.9c1.439,0 2.296,0.983 2.296,2.491l0,4.152c0,0.083 -0.055,0.138 -0.138,0.138l-0.885,0Z" style="fill:#8097a2;fill-rule:nonzero;"/><path d="M139.823,42.605c0.111,-0.36 0.153,-0.72 0.153,-1.356c0,-0.637 -0.042,-0.983 -0.153,-1.343c-0.222,-0.664 -0.761,-1.038 -1.494,-1.038c-0.734,0 -1.274,0.374 -1.495,1.038c-0.111,0.36 -0.152,0.706 -0.152,1.343c0,0.636 0.041,0.996 0.152,1.356c0.221,0.664 0.761,1.038 1.495,1.038c0.733,0 1.272,-0.374 1.494,-1.038m-4.11,0.332c-0.152,-0.457 -0.222,-0.913 -0.222,-1.688c0,-0.762 0.07,-1.218 0.222,-1.675c0.359,-1.135 1.329,-1.785 2.616,-1.785c1.286,0 2.256,0.65 2.615,1.785c0.152,0.457 0.222,0.913 0.222,1.675c0,0.775 -0.07,1.231 -0.222,1.688c-0.359,1.121 -1.329,1.785 -2.615,1.785c-1.287,0 -2.257,-0.664 -2.616,-1.785" style="fill:#8097a2;fill-rule:nonzero;"/><path d="M143.887,44.57c-0.082,0 -0.138,-0.055 -0.138,-0.138l0,-6.352c0,-0.083 0.056,-0.139 0.138,-0.139l0.886,0c0.084,0 0.138,0.056 0.138,0.139l0,6.352c0,0.083 -0.054,0.138 -0.138,0.138l-0.886,0Zm-0.026,-8.123c-0.084,0 -0.139,-0.056 -0.139,-0.139l0,-1.01c0,-0.083 0.055,-0.139 0.139,-0.139l0.94,0c0.084,0 0.138,0.056 0.138,0.139l0,1.01c0,0.083 -0.054,0.139 -0.138,0.139l-0.94,0Z" style="fill:#8097a2;fill-rule:nonzero;"/><path d="M147.707,39.574c0.373,-1.149 1.343,-1.785 2.615,-1.785c1.011,0 1.786,0.429 2.27,1.121c0.041,0.069 0.041,0.124 -0.042,0.193l-0.609,0.498c-0.069,0.056 -0.139,0.056 -0.193,-0.014c-0.388,-0.484 -0.762,-0.719 -1.426,-0.719c-0.72,0 -1.26,0.346 -1.481,1.038c-0.111,0.346 -0.152,0.761 -0.152,1.342c0,0.595 0.041,1.01 0.152,1.357c0.221,0.691 0.761,1.038 1.481,1.038c0.664,0 1.038,-0.236 1.426,-0.72c0.054,-0.07 0.124,-0.07 0.193,-0.014l0.609,0.498c0.083,0.069 0.083,0.125 0.042,0.194c-0.484,0.692 -1.259,1.12 -2.27,1.12c-1.272,0 -2.242,-0.636 -2.615,-1.784c-0.125,-0.402 -0.209,-0.941 -0.209,-1.689c0,-0.733 0.084,-1.273 0.209,-1.674" style="fill:#8097a2;fill-rule:nonzero;"/><path d="M158.929,40.682c0.054,0 0.082,-0.028 0.082,-0.083c0,-0.305 -0.028,-0.54 -0.096,-0.748c-0.222,-0.664 -0.775,-1.037 -1.523,-1.037c-0.747,0 -1.3,0.373 -1.523,1.037c-0.068,0.208 -0.096,0.443 -0.096,0.748c0,0.055 0.028,0.083 0.083,0.083l3.073,0Zm-4.124,2.242c-0.139,-0.429 -0.222,-0.914 -0.222,-1.675c0,-0.761 0.069,-1.273 0.208,-1.674c0.373,-1.149 1.342,-1.785 2.601,-1.785c1.272,0 2.228,0.65 2.601,1.785c0.138,0.429 0.209,0.886 0.209,1.896c0,0.083 -0.056,0.138 -0.153,0.138l-4.193,0c-0.055,0 -0.083,0.028 -0.083,0.083c0,0.36 0.042,0.581 0.11,0.803c0.263,0.761 0.858,1.148 1.676,1.148c0.788,0 1.341,-0.318 1.7,-0.733c0.071,-0.07 0.139,-0.083 0.209,-0.028l0.567,0.512c0.07,0.055 0.07,0.125 0.014,0.194c-0.525,0.664 -1.425,1.134 -2.587,1.134c-1.343,0 -2.298,-0.65 -2.657,-1.798" style="fill:#8097a2;fill-rule:nonzero;"/><path d="M65.029,14.894c0.609,0.232 1.421,0.493 1.421,1.218l0,0.261c0,0.347 -0.29,0.579 -0.638,0.579c-0.203,0 -0.406,-0.087 -0.551,-0.232c-0.609,-0.608 -1.536,-0.956 -2.638,-0.956c-1.798,0 -2.87,0.87 -2.87,2.29c0,1.218 0.782,1.826 3.276,2.783c2.957,1.16 4.377,2.551 4.377,4.552c0,2.377 -1.884,3.971 -4.609,3.971c-0.841,0 -1.624,-0.087 -2.32,-0.348l-0.869,-0.318c-0.667,-0.145 -1.363,-0.522 -1.363,-1.218l0,-0.609c0,-0.377 0.29,-0.609 0.609,-0.609c0.145,0 0.319,0.088 0.435,0.232c0.782,1.015 1.913,1.537 3.421,1.537c1.768,0 2.87,-0.986 2.87,-2.465c0,-1.101 -0.58,-1.884 -2.059,-2.579c-0.55,-0.262 -1.159,-0.465 -1.797,-0.755l0.029,0c-0.087,-0.028 -0.145,-0.087 -0.232,-0.116c-2.58,-1.043 -3.566,-2.174 -3.566,-3.942c0,-2.116 1.914,-3.769 4.436,-3.769c0.812,0 1.623,0.174 2.638,0.493" style="fill:#b8373c;fill-rule:nonzero;"/><path d="M65.029,14.894c0.609,0.232 1.421,0.493 1.421,1.218l0,0.261c0,0.347 -0.29,0.579 -0.638,0.579c-0.203,0 -0.406,-0.087 -0.551,-0.232c-0.609,-0.608 -1.536,-0.956 -2.638,-0.956c-1.798,0 -2.87,0.87 -2.87,2.29c0,1.218 0.782,1.826 3.276,2.783c2.957,1.16 4.377,2.551 4.377,4.552c0,2.377 -1.884,3.971 -4.609,3.971c-0.841,0 -1.624,-0.087 -2.32,-0.348l-0.869,-0.318c-0.667,-0.145 -1.363,-0.522 -1.363,-1.218l0,-0.609c0,-0.377 0.29,-0.609 0.609,-0.609c0.145,0 0.319,0.088 0.435,0.232c0.782,1.015 1.913,1.537 3.421,1.537c1.768,0 2.87,-0.986 2.87,-2.465c0,-1.101 -0.58,-1.884 -2.059,-2.579c-0.55,-0.262 -1.159,-0.465 -1.797,-0.755l0.029,0c-0.087,-0.028 -0.145,-0.087 -0.232,-0.116c-2.58,-1.043 -3.566,-2.174 -3.566,-3.942c0,-2.116 1.914,-3.769 4.436,-3.769c0.812,0 1.623,0.174 2.638,0.493Z" style="fill:none;stroke:#b8373c;stroke-width:1.05px;"/><path d="M90.439,9.415c0.754,0 1.304,0.58 1.304,1.275c0,0.667 -0.55,1.276 -1.304,1.276c-0.725,0 -1.276,-0.609 -1.276,-1.276c0,-0.695 0.551,-1.275 1.276,-1.275" style="fill:#b8373c;fill-rule:nonzero;"/><path d="M90.439,9.415c0.754,0 1.304,0.58 1.304,1.275c0,0.667 -0.55,1.276 -1.304,1.276c-0.725,0 -1.276,-0.609 -1.276,-1.276c0,-0.695 0.551,-1.275 1.276,-1.275Z" style="fill:none;stroke:#b8373c;stroke-width:1.05px;"/><path d="M102.16,14.894c0.609,0.232 1.421,0.493 1.421,1.218l0,0.261c0,0.347 -0.29,0.579 -0.638,0.579c-0.203,0 -0.406,-0.087 -0.551,-0.232c-0.609,-0.608 -1.536,-0.956 -2.638,-0.956c-1.798,0 -2.87,0.87 -2.87,2.29c0,1.218 0.782,1.826 3.276,2.783c2.957,1.16 4.377,2.551 4.377,4.552c0,2.377 -1.884,3.971 -4.609,3.971c-0.841,0 -1.624,-0.087 -2.32,-0.348l-0.869,-0.318c-0.667,-0.145 -1.363,-0.522 -1.363,-1.218l0,-0.609c0,-0.377 0.29,-0.609 0.609,-0.609c0.145,0 0.319,0.088 0.435,0.232c0.782,1.015 1.913,1.537 3.421,1.537c1.768,0 2.87,-0.986 2.87,-2.465c0,-1.101 -0.58,-1.884 -2.059,-2.579c-0.55,-0.262 -1.159,-0.465 -1.797,-0.755l0.029,0c-0.087,-0.028 -0.145,-0.087 -0.232,-0.116c-2.58,-1.043 -3.566,-2.174 -3.566,-3.942c0,-2.116 1.914,-3.769 4.436,-3.769c0.812,0 1.623,0.174 2.638,0.493" style="fill:#b8373c;fill-rule:nonzero;"/><path d="M102.16,14.894c0.609,0.232 1.421,0.493 1.421,1.218l0,0.261c0,0.347 -0.29,0.579 -0.638,0.579c-0.203,0 -0.406,-0.087 -0.551,-0.232c-0.609,-0.608 -1.536,-0.956 -2.638,-0.956c-1.798,0 -2.87,0.87 -2.87,2.29c0,1.218 0.782,1.826 3.276,2.783c2.957,1.16 4.377,2.551 4.377,4.552c0,2.377 -1.884,3.971 -4.609,3.971c-0.841,0 -1.624,-0.087 -2.32,-0.348l-0.869,-0.318c-0.667,-0.145 -1.363,-0.522 -1.363,-1.218l0,-0.609c0,-0.377 0.29,-0.609 0.609,-0.609c0.145,0 0.319,0.088 0.435,0.232c0.782,1.015 1.913,1.537 3.421,1.537c1.768,0 2.87,-0.986 2.87,-2.465c0,-1.101 -0.58,-1.884 -2.059,-2.579c-0.55,-0.262 -1.159,-0.465 -1.797,-0.755l0.029,0c-0.087,-0.028 -0.145,-0.087 -0.232,-0.116c-2.58,-1.043 -3.566,-2.174 -3.566,-3.942c0,-2.116 1.914,-3.769 4.436,-3.769c0.812,0 1.623,0.174 2.638,0.493Z" style="fill:none;stroke:#b8373c;stroke-width:1.05px;"/><path d="M114.131,14.894c0.609,0.232 1.422,0.493 1.422,1.218l0,0.261c0,0.347 -0.291,0.579 -0.638,0.579c-0.203,0 -0.406,-0.087 -0.551,-0.232c-0.609,-0.608 -1.537,-0.956 -2.639,-0.956c-1.797,0 -2.87,0.87 -2.87,2.29c0,1.218 0.783,1.826 3.277,2.783c2.956,1.16 4.377,2.551 4.377,4.552c0,2.377 -1.884,3.971 -4.609,3.971c-0.841,0 -1.624,-0.087 -2.32,-0.348l-0.869,-0.318c-0.667,-0.145 -1.363,-0.522 -1.363,-1.218l0,-0.609c0,-0.377 0.29,-0.609 0.609,-0.609c0.145,0 0.318,0.088 0.435,0.232c0.782,1.015 1.913,1.537 3.42,1.537c1.769,0 2.87,-0.986 2.87,-2.465c0,-1.101 -0.58,-1.884 -2.057,-2.579c-0.552,-0.262 -1.16,-0.465 -1.798,-0.755l0.029,0c-0.087,-0.028 -0.145,-0.087 -0.233,-0.116c-2.579,-1.043 -3.565,-2.174 -3.565,-3.942c0,-2.116 1.913,-3.769 4.436,-3.769c0.811,0 1.622,0.174 2.637,0.493" style="fill:#b8373c;fill-rule:nonzero;"/><path d="M114.131,14.894c0.609,0.232 1.422,0.493 1.422,1.218l0,0.261c0,0.347 -0.291,0.579 -0.638,0.579c-0.203,0 -0.406,-0.087 -0.551,-0.232c-0.609,-0.608 -1.537,-0.956 -2.639,-0.956c-1.797,0 -2.87,0.87 -2.87,2.29c0,1.218 0.783,1.826 3.277,2.783c2.956,1.16 4.377,2.551 4.377,4.552c0,2.377 -1.884,3.971 -4.609,3.971c-0.841,0 -1.624,-0.087 -2.32,-0.348l-0.869,-0.318c-0.667,-0.145 -1.363,-0.522 -1.363,-1.218l0,-0.609c0,-0.377 0.29,-0.609 0.609,-0.609c0.145,0 0.318,0.088 0.435,0.232c0.782,1.015 1.913,1.537 3.42,1.537c1.769,0 2.87,-0.986 2.87,-2.465c0,-1.101 -0.58,-1.884 -2.057,-2.579c-0.552,-0.262 -1.16,-0.465 -1.798,-0.755l0.029,0c-0.087,-0.028 -0.145,-0.087 -0.233,-0.116c-2.579,-1.043 -3.565,-2.174 -3.565,-3.942c0,-2.116 1.913,-3.769 4.436,-3.769c0.811,0 1.622,0.174 2.637,0.493Z" style="fill:none;stroke:#b8373c;stroke-width:1.05px;"/><path d="M129.232,16.025l0,11.77c0,0.058 0.029,0.145 0.029,0.232c0,0.464 -0.174,0.957 -0.637,0.957l-0.465,0c-0.579,0 -0.724,-0.493 -0.724,-0.841c0.086,-0.232 0.086,-0.406 0.086,-0.58l0,-11.538l-1.276,0c-0.26,0 -0.318,-0.203 -0.318,-0.464c0,-0.812 0.203,-0.812 0.318,-0.812l1.276,0l0,-1.188c0,-2.9 1.16,-4.291 3.537,-4.291c0.899,0 2.488,-0.211 2.488,0.775c0,0.405 -0.318,0.58 -0.695,0.58c-0.522,0 -1.068,0.008 -1.706,0.008c-1.305,0 -1.913,0.87 -1.913,2.928l0,1.188l3.42,0c0.262,0 0.348,0.203 0.348,0.464c0,0.783 -0.231,0.812 -0.348,0.812l-3.42,0Z" style="fill:#b8373c;fill-rule:nonzero;stroke:#b8373c;stroke-width:1.05px;"/><path d="M136.961,9.415c0.753,0 1.304,0.58 1.304,1.275c0,0.667 -0.551,1.276 -1.304,1.276c-0.725,0 -1.275,-0.609 -1.275,-1.276c0,-0.695 0.55,-1.275 1.275,-1.275" style="fill:#b8373c;fill-rule:nonzero;"/><path d="M136.961,9.415c0.753,0 1.304,0.58 1.304,1.275c0,0.667 -0.551,1.276 -1.304,1.276c-0.725,0 -1.275,-0.609 -1.275,-1.276c0,-0.695 0.55,-1.275 1.275,-1.275Z" style="fill:none;stroke:#b8373c;stroke-width:1.05px;"/><path d="M144.305,21.881c0,3.74 1.652,6.117 4.262,6.117c2.609,0 4.145,-2.377 4.145,-6.378c0,-3.623 -1.536,-5.856 -4.058,-5.856c-1.421,0 -2.724,0.812 -3.508,2.233c-0.608,1.071 -0.841,2.086 -0.841,3.884m0.03,-5.044c0.898,-1.537 2.492,-2.435 4.377,-2.435c3.45,0 5.828,2.956 5.828,7.305c0,4.58 -2.407,7.653 -5.914,7.653c-1.944,0 -3.508,-0.869 -4.408,-2.435l-0.058,0.581c0,0.202 -0.057,0.463 -0.057,0.637c-0.03,0.551 -0.463,1.014 -1.102,1.014c-0.29,0 -0.552,-0.086 -0.552,-0.347c0,-0.145 0.03,-0.29 0.03,-0.377c0.029,-0.232 0.029,-0.551 0.058,-1.043c0.028,-0.32 0.028,-0.697 0.028,-1.103c0.03,-0.521 0.058,-1.276 0.088,-1.768c0,-0.551 -0.03,-1.594 -0.03,-2.145l0,-11.278c0,-0.261 -0.086,-0.521 -0.086,-0.782c0,-0.464 0.202,-0.899 0.667,-0.986c0.086,0 0.174,-0.029 0.262,-0.029c0.492,0 0.869,0.145 0.869,0.492l0,7.046Z" style="fill:#b8373c;fill-rule:nonzero;"/><path d="M144.305,21.881c0,3.74 1.652,6.117 4.262,6.117c2.609,0 4.145,-2.377 4.145,-6.378c0,-3.623 -1.536,-5.856 -4.058,-5.856c-1.421,0 -2.724,0.812 -3.508,2.233c-0.608,1.071 -0.841,2.086 -0.841,3.884Zm0.03,-5.044c0.898,-1.537 2.492,-2.435 4.377,-2.435c3.45,0 5.828,2.956 5.828,7.305c0,4.58 -2.407,7.653 -5.914,7.653c-1.944,0 -3.508,-0.869 -4.408,-2.435l-0.058,0.581c0,0.202 -0.057,0.463 -0.057,0.637c-0.03,0.551 -0.463,1.014 -1.102,1.014c-0.29,0 -0.552,-0.086 -0.552,-0.347c0,-0.145 0.03,-0.29 0.03,-0.377c0.029,-0.232 0.029,-0.551 0.058,-1.043c0.028,-0.32 0.028,-0.697 0.028,-1.103c0.03,-0.521 0.058,-1.276 0.088,-1.768c0,-0.551 -0.03,-1.594 -0.03,-2.145l0,-11.278c0,-0.261 -0.086,-0.521 -0.086,-0.782c0,-0.464 0.202,-0.899 0.667,-0.986c0.086,0 0.174,-0.029 0.262,-0.029c0.492,0 0.869,0.145 0.869,0.492l0,7.046Z" style="fill:none;stroke:#b8373c;stroke-width:1.05px;"/><path d="M159.697,20.345l0.029,7.508c0,0.493 0,1.131 -0.638,1.131l-0.435,0c-0.637,0 -0.668,-0.667 -0.668,-1.131l0,-11.596c0,-0.29 -0.058,-0.581 -0.058,-0.841c0,-0.58 0.262,-0.986 1.016,-0.986c0.434,0 0.754,0.116 0.754,0.493l0,2.754c1.188,-2.522 2.145,-3.275 3.856,-3.275c0.638,0 2.144,0.103 2.144,1.274c0,0.407 -0.318,0.581 -0.667,0.581c-0.55,0 -1.605,-0.833 -3.175,0.41c-0.91,0.719 -1.627,1.859 -2.1,3.387l-0.058,0.291Z" style="fill:#b8373c;fill-rule:nonzero;stroke:#b8373c;stroke-width:1.05px;"/><path d="M176.741,20.141c0,-2.494 -1.594,-4.377 -3.711,-4.377c-2.522,0 -3.885,2.551 -4,5.711c2.579,-0.29 5.132,-0.667 7.711,-0.987l0,-0.347Zm-3.305,7.857c1.595,0 3.045,-0.899 3.973,-2.494l0,0.03c0.057,-0.145 0.173,-0.203 0.26,-0.203c0.203,0 0.376,0.173 0.376,0.406l0,0.695c0,1.798 -2.695,2.928 -4.812,2.928c-3.595,0 -6.145,-3.073 -6.145,-7.567c0,-4.232 2.55,-7.392 6.001,-7.392c3.305,0 5.449,2.522 5.449,6.523l0,0.435c0,0.174 -0.143,0.348 -0.347,0.376c-2.899,0.319 -6.232,0.725 -9.161,1.016c0.146,1.391 0.493,2.348 0.493,2.348c0.638,1.768 2.204,2.899 3.913,2.899" style="fill:#b8373c;fill-rule:nonzero;"/><path d="M176.741,20.141c0,-2.494 -1.594,-4.377 -3.711,-4.377c-2.522,0 -3.885,2.551 -4,5.711c2.579,-0.29 5.132,-0.667 7.711,-0.987l0,-0.347Zm-3.305,7.857c1.595,0 3.045,-0.899 3.973,-2.494l0,0.03c0.057,-0.145 0.173,-0.203 0.26,-0.203c0.203,0 0.376,0.173 0.376,0.406l0,0.695c0,1.798 -2.695,2.928 -4.812,2.928c-3.595,0 -6.145,-3.073 -6.145,-7.567c0,-4.232 2.55,-7.392 6.001,-7.392c3.305,0 5.449,2.522 5.449,6.523l0,0.435c0,0.174 -0.143,0.348 -0.347,0.376c-2.899,0.319 -6.232,0.725 -9.161,1.016c0.146,1.391 0.493,2.348 0.493,2.348c0.638,1.768 2.204,2.899 3.913,2.899Z" style="fill:none;stroke:#b8373c;stroke-width:1.05px;"/><path d="M197.67,18.866c0,-2.203 -0.609,-3.101 -2.175,-3.101c-1.826,0 -3.71,1.97 -4.522,4.492l0,7.307c0,0.029 0.03,0.057 0.03,0.115l0,0.146c0,0.492 0,1.159 -0.639,1.159l-0.463,0c-0.552,0 -0.638,-0.725 -0.638,-1.189l0,-11.828c0,-0.145 -0.03,-0.29 -0.03,-0.435c0,-0.638 0.174,-1.072 0.956,-1.072c0.436,0 0.784,0.144 0.784,0.463l0.059,2.435c0.927,-1.71 2.724,-2.956 4.522,-2.956c2.289,0 3.827,1.159 3.827,4.464l0,6.523c0,1.247 0.29,2.522 0.725,3.334c0.058,0.087 0.058,0.145 0.058,0.203c0,0.232 -0.289,0.289 -0.522,0.289c-1.566,0 -1.972,-1.42 -1.972,-3.101l0,-7.248Z" style="fill:#b8373c;fill-rule:nonzero;stroke:#b8373c;stroke-width:1.05px;"/><path d="M212.918,20.141c0,-2.494 -1.596,-4.377 -3.712,-4.377c-2.522,0 -3.885,2.551 -4,5.711c2.579,-0.29 5.13,-0.667 7.712,-0.987l0,-0.347Zm-3.306,7.857c1.594,0 3.044,-0.899 3.972,-2.494l0,0.03c0.059,-0.145 0.173,-0.203 0.261,-0.203c0.203,0 0.376,0.173 0.376,0.406l0,0.695c0,1.798 -2.695,2.928 -4.813,2.928c-3.594,0 -6.146,-3.073 -6.146,-7.567c0,-4.232 2.552,-7.392 6.001,-7.392c3.305,0 5.45,2.522 5.45,6.523l0,0.435c0,0.174 -0.146,0.348 -0.346,0.376c-2.899,0.319 -6.235,0.725 -9.161,1.016c0.144,1.391 0.491,2.348 0.491,2.348c0.638,1.768 2.203,2.899 3.915,2.899" style="fill:#b8373c;fill-rule:nonzero;"/><path d="M212.918,20.141c0,-2.494 -1.596,-4.377 -3.712,-4.377c-2.522,0 -3.885,2.551 -4,5.711c2.579,-0.29 5.13,-0.667 7.712,-0.987l0,-0.347Zm-3.306,7.857c1.594,0 3.044,-0.899 3.972,-2.494l0,0.03c0.059,-0.145 0.173,-0.203 0.261,-0.203c0.203,0 0.376,0.173 0.376,0.406l0,0.695c0,1.798 -2.695,2.928 -4.813,2.928c-3.594,0 -6.146,-3.073 -6.146,-7.567c0,-4.232 2.552,-7.392 6.001,-7.392c3.305,0 5.45,2.522 5.45,6.523l0,0.435c0,0.174 -0.146,0.348 -0.346,0.376c-2.899,0.319 -6.235,0.725 -9.161,1.016c0.144,1.391 0.491,2.348 0.491,2.348c0.638,1.768 2.203,2.899 3.915,2.899Z" style="fill:none;stroke:#b8373c;stroke-width:1.05px;"/><path d="M222.626,29.361c-2.174,0 -3.014,-1.189 -3.014,-4.261l0,-9.075l-1.624,0c-0.232,0 -0.318,-0.232 -0.318,-0.493c0,-0.811 0.202,-0.783 0.318,-0.783l1.624,-0.028c0,-0.812 0.377,-2.087 1.478,-2.087c0.145,0 0.232,0.057 0.232,0.289l0,1.826l4.059,0c0.259,0 0.317,0.204 0.317,0.465c0,0.811 -0.201,0.811 -0.317,0.811l-4.059,0l0,8.987c0,2.494 0.261,2.987 1.536,2.987c0.724,0 1.42,-0.406 1.972,-1.016c0.116,-0.115 0.289,-0.202 0.463,-0.202c0.204,0 0.378,0.116 0.378,0.377c0,1.478 -1.624,2.203 -3.045,2.203" style="fill:#b8373c;fill-rule:nonzero;"/><path d="M222.626,29.361c-2.174,0 -3.014,-1.189 -3.014,-4.261l0,-9.075l-1.624,0c-0.232,0 -0.318,-0.232 -0.318,-0.493c0,-0.811 0.202,-0.783 0.318,-0.783l1.624,-0.028c0,-0.812 0.377,-2.087 1.478,-2.087c0.145,0 0.232,0.057 0.232,0.289l0,1.826l4.059,0c0.259,0 0.317,0.204 0.317,0.465c0,0.811 -0.201,0.811 -0.317,0.811l-4.059,0l0,8.987c0,2.494 0.261,2.987 1.536,2.987c0.724,0 1.42,-0.406 1.972,-1.016c0.116,-0.115 0.289,-0.202 0.463,-0.202c0.204,0 0.378,0.116 0.378,0.377c0,1.478 -1.624,2.203 -3.045,2.203Z" style="fill:none;stroke:#b8373c;stroke-width:1.05px;"/><path d="M85.959,18.903c-0.341,3.2 -3.044,10.312 -6.001,10.312c-0.464,0 -0.609,-0.434 -0.696,-0.811c-0.116,-0.522 -1.247,-5.132 -1.392,-5.653c-0.87,2.754 -2.783,6.464 -4.986,6.464c-0.435,0 -0.638,-0.434 -0.725,-0.811c-0.261,-1.45 -2.162,-11.064 -2.452,-12.485c0,-0.203 -0.087,-0.376 -0.087,-0.551c0,-0.493 0.261,-0.957 0.725,-0.957l0.261,0c0.841,0 0.754,0.783 0.956,1.392l2.017,11.471c0,0.028 0,0.028 0.029,0.028c1.914,-1.681 3.479,-5.885 3.479,-8.668c0,-0.319 -0.029,-0.637 -0.116,-0.928c0,-0.058 0,-0.463 1.073,-0.463c0.174,0 0.319,0.057 0.377,0.26l2.175,9.771c0,0.028 0.029,0.028 0.058,0.028c1.913,-1.681 3.367,-5.691 3.826,-8.465c0.207,-1.248 0.208,-3.928 0.208,-3.928c0,-0.29 0.354,-0.434 0.644,-0.434c1.331,0 0.672,4.002 0.627,4.428Z" style="fill:#b8373c;fill-rule:nonzero;stroke:#b8373c;stroke-width:1.05px;"/><path d="M137.861,27.825c0,0.058 0.026,0.145 0.026,0.232c0,0.434 -0.173,0.927 -0.635,0.927l-0.464,0c-0.639,0 -0.668,-0.696 -0.668,-1.217c0.029,-0.087 0.029,-0.145 0.029,-0.203l0,-11.364c0,-0.29 -0.087,-0.581 -0.087,-0.87c0,-0.581 0.349,-0.87 1.102,-0.87c0.405,0 0.696,0.116 0.696,0.493l0,12.872Z" style="fill:#b8373c;fill-rule:nonzero;stroke:#b8373c;stroke-width:1.05px;"/><path d="M91.338,27.825c0,0.058 0.03,0.145 0.03,0.232c0,0.434 -0.175,0.927 -0.638,0.927l-0.464,0c-0.638,0 -0.667,-0.696 -0.667,-1.217c0.029,-0.087 0.029,-0.145 0.029,-0.203l0,-11.364c0,-0.29 -0.087,-0.581 -0.087,-0.87c0,-0.581 0.347,-0.87 1.101,-0.87c0.406,0 0.696,0.116 0.696,0.493l0,12.872Z" style="fill:#b8373c;fill-rule:nonzero;stroke:#b8373c;stroke-width:1.05px;"/></g></g></svg>