<?xml version="1.0" encoding="UTF-8" standalone="no"?>
<svg
   xmlns:dc="http://purl.org/dc/elements/1.1/"
   xmlns:cc="http://creativecommons.org/ns#"
   xmlns:rdf="http://www.w3.org/1999/02/22-rdf-syntax-ns#"
   xmlns:svg="http://www.w3.org/2000/svg"
   xmlns="http://www.w3.org/2000/svg"
   xmlns:sodipodi="http://sodipodi.sourceforge.net/DTD/sodipodi-0.dtd"
   xmlns:inkscape="http://www.inkscape.org/namespaces/inkscape"
   width="488.3414"
   height="210.93997"
   viewBox="0 0 488.3414 210.93997"
   version="1.1"
   xml:space="preserve"
   style="clip-rule:evenodd;fill-rule:evenodd"
   id="svg4406"
   sodipodi:docname="spie.svg"
   inkscape:version="0.92.1 r"><metadata
     id="metadata4412"><rdf:RDF><cc:Work
         rdf:about=""><dc:format>image/svg+xml</dc:format><dc:type
           rdf:resource="http://purl.org/dc/dcmitype/StillImage" /><dc:title></dc:title></cc:Work></rdf:RDF></metadata><defs
     id="defs4410" /><sodipodi:namedview
     pagecolor="#ffffff"
     bordercolor="#666666"
     borderopacity="1"
     objecttolerance="10"
     gridtolerance="10"
     guidetolerance="10"
     inkscape:pageopacity="0"
     inkscape:pageshadow="2"
     inkscape:window-width="640"
     inkscape:window-height="480"
     id="namedview4408"
     showgrid="false"
     inkscape:zoom="0.4609375"
     inkscape:cx="244.17041"
     inkscape:cy="105.47021"
     inkscape:window-x="0"
     inkscape:window-y="23"
     inkscape:window-maximized="0"
     inkscape:current-layer="svg4406" /><g
     id="Layer-1"
     transform="translate(-11.829589,-150.53023)"><g
       id="g144"><path
         id="path148"
         d="m 48.242,361.202 c -9.172,-0.47 -17.829,-1.505 -25.478,-3.048 -3.38,-0.681 -10.384,-2.441 -10.734,-2.696 -0.29,-0.213 -0.056,-0.722 2.04,-4.424 1.302,-2.3 2.471,-4.182 2.599,-4.18 0.127,0.002 1.05,0.279 2.051,0.618 2.684,0.909 8.606,2.316 12.638,3.003 7.44,1.266 15.325,1.939 26.37,2.249 13.145,0.369 20.627,-0.403 27.766,-2.864 5.751,-1.983 9.566,-4.665 11.111,-7.811 0.505,-1.029 0.571,-1.385 0.571,-3.087 0,-1.763 -0.056,-2.036 -0.659,-3.262 -1.359,-2.765 -4.64,-5.166 -9.249,-6.772 -2.973,-1.036 -17.958,-4.832 -30.533,-7.735 -14.188,-3.276 -20.383,-5.11 -26.749,-7.92 -9.802,-4.325 -15.335,-10.031 -16.4,-16.911 -1.718,-11.108 7.02,-20.444 24.343,-26.009 17.835,-5.728 45.675,-6.948 69.559,-3.048 7.271,1.187 17.087,3.847 17.087,4.63 0,0.243 -4.839,6.413 -5.209,6.641 -0.096,0.06 -1.806,-0.293 -3.801,-0.782 -9.56,-2.345 -18.591,-3.496 -31.154,-3.972 -13.282,-0.503 -22.567,0.592 -28.99,3.42 -1.663,0.732 -4.312,2.562 -5.247,3.624 -0.454,0.516 -1.12,1.536 -1.48,2.267 -0.54,1.096 -0.666,1.614 -0.724,2.969 -0.098,2.292 0.356,3.294 2.329,5.136 1.692,1.58 4.668,3.186 7.851,4.237 2.643,0.872 11.741,3.24 26.514,6.901 20.48,5.075 27.081,7.168 34.471,10.93 6.565,3.341 11.336,7.76 13.183,12.212 1.719,4.145 1.498,9.067 -0.586,13.043 -5.622,10.721 -24.45,18.704 -51.036,21.64 -6.674,0.737 -12.118,1.028 -20.625,1.103 -4.615,0.041 -9.938,-0.005 -11.829,-0.102 z m 109.024,0.074 c -0.225,-0.225 -0.156,-48.637 0.073,-51.226 0.876,-9.907 5.275,-19.024 12.832,-26.596 8.761,-8.779 20.402,-14.637 34.112,-17.167 6.355,-1.173 7.465,-1.226 25.944,-1.227 17.208,-10e-4 19.483,0.072 25.478,0.821 20.829,2.601 34.829,10.376 39.633,22.01 0.409,0.992 0.981,2.812 1.269,4.044 0.466,1.99 0.525,2.662 0.523,5.982 -0.002,3.082 -0.08,4.106 -0.445,5.81 -2.288,10.676 -9.995,18.125 -23.287,22.508 -6.355,2.095 -12.763,3.276 -22.04,4.061 -3.893,0.329 -54.398,0.499 -54.985,0.184 -0.419,-0.224 -0.426,-0.319 -0.373,-5.426 l 0.054,-5.197 22.749,-0.112 c 22.696,-0.112 22.752,-0.113 24.77,-0.57 5.104,-1.154 9.063,-3.054 12.353,-5.926 2.455,-2.145 3.898,-4.046 5.239,-6.904 3.584,-7.641 1.987,-17.464 -3.867,-23.787 -1.622,-1.752 -4.04,-3.505 -6.417,-4.652 -2.384,-1.15 -3.301,-1.473 -6.196,-2.181 -2.06,-0.503 -2.365,-0.521 -10.211,-0.605 -5.441,-0.059 -8.717,-0.01 -10.01,0.149 -12.064,1.48 -22.086,8.248 -27.874,18.824 -1.479,2.703 -2.97,6.754 -3.675,9.99 -0.875,4.008 -0.87,3.863 -0.991,31.141 l -0.116,26.085 -17.203,0.052 c -9.462,0.028 -17.265,-0.01 -17.339,-0.085 z m 165.606,0 c -0.074,-0.075 -0.136,-21.683 -0.136,-48.018 0,-47.132 0.008,-47.885 0.392,-48.091 0.468,-0.251 33.742,-0.292 34.135,-0.042 0.202,0.128 0.243,9.896 0.203,48.172 l -0.051,48.012 -17.204,0.051 c -9.461,0.029 -17.264,-0.009 -17.339,-0.084 z m 118.155,-0.406 c -25.281,-1.387 -46.984,-15.226 -54.075,-34.482 -2.739,-7.439 -3.137,-15.74 -1.127,-23.51 4.716,-18.231 22.646,-32.736 45.729,-36.994 6.615,-1.221 5.899,-1.197 38.129,-1.278 21.035,-0.052 29.685,-0.01 29.977,0.146 0.396,0.212 0.411,0.401 0.411,5.256 0,3.807 -0.062,5.076 -0.253,5.2 -0.139,0.09 -11.354,0.212 -24.922,0.272 l -24.669,0.109 -2.123,0.53 c -8.753,2.186 -15.733,7.189 -20.819,14.923 -1.552,2.36 -2.755,4.728 -3.74,7.364 -0.933,2.499 -1.885,6.086 -2.057,7.75 l -0.131,1.264 59.808,0.102 v 10.515 l -29.876,0.051 -29.876,0.051 v 0.517 c 0,2.017 1.696,7.692 3.32,11.109 1.903,4.005 3.863,6.861 6.778,9.879 4.453,4.609 9.07,7.441 14.872,9.122 4.307,1.248 3.052,1.192 29.423,1.312 l 24.164,0.109 0.054,5.132 c 0.038,3.616 -0.014,5.213 -0.177,5.409 -0.193,0.233 -4.813,0.272 -28.969,0.24 -15.807,-0.02 -29.24,-0.065 -29.851,-0.098 z M 337.497,246.017 c -6.581,-0.472 -12.463,-1.982 -17.895,-4.595 -14.159,-6.812 -23.824,-19.596 -26.617,-35.205 -0.412,-2.307 -0.47,-3.272 -0.47,-7.886 0,-4.598 0.058,-5.583 0.465,-7.852 1.816,-10.137 5.971,-18.306 12.963,-25.484 7.201,-7.393 15.889,-11.996 26.095,-13.824 2.608,-0.468 3.478,-0.527 7.886,-0.54 5.019,-0.015 7.132,0.183 10.708,1 14.053,3.213 26.061,12.662 32.333,25.444 1.289,2.627 2.725,6.292 2.605,6.651 -0.04,0.12 -0.923,-0.912 -1.962,-2.294 -1.04,-1.382 -2.581,-3.332 -3.425,-4.333 -1.687,-2 -6.609,-7.119 -7.095,-7.379 -0.345,-0.184 -2.456,0.585 -2.574,0.938 -0.04,0.121 1.091,1.221 2.513,2.446 4.451,3.832 9.627,9.352 12.985,13.848 0.788,1.054 0.897,1.35 1.231,3.336 0.504,2.995 0.701,5.313 0.45,5.313 -0.111,0 -0.854,-0.868 -1.652,-1.929 -4.941,-6.574 -12.411,-13.652 -19.429,-18.41 l -2.576,-1.746 -1.844,0.953 c -1.015,0.524 -1.845,1.033 -1.845,1.131 0,0.098 0.473,0.418 1.051,0.711 1.893,0.959 6.284,3.648 8.553,5.237 6.306,4.416 12.429,10.061 16.854,15.539 l 1.119,1.385 -0.039,1.547 c -0.057,2.273 -0.262,4.064 -0.48,4.199 -0.106,0.065 -0.527,-0.276 -0.937,-0.759 -8.162,-9.616 -18.548,-17.255 -29.883,-21.977 -4.191,-1.746 -3.494,-1.755 -6.217,0.084 -1.297,0.876 -2.33,1.678 -2.296,1.781 0.035,0.103 0.513,0.313 1.063,0.467 11.444,3.202 21.388,8.371 30.118,15.656 2.859,2.386 7.57,7.03 7.714,7.604 0.128,0.51 -0.824,4.668 -1.142,4.986 -0.113,0.113 -0.941,-0.536 -2.116,-1.659 -10.842,-10.366 -25.174,-17.479 -39.943,-19.826 -4.512,-0.717 -4.135,-0.718 -4.997,0.006 -1.172,0.985 -4.709,4.487 -4.709,4.662 0,0.086 0.66,0.156 1.466,0.157 2.276,0.001 6.858,0.38 9.774,0.808 10.64,1.562 20.864,5.396 29.923,11.222 2.437,1.567 6.766,4.833 8.377,6.319 l 1.314,1.212 -0.278,0.784 c -0.629,1.775 -1.715,3.919 -1.986,3.919 -0.158,0 -1,-0.543 -1.871,-1.206 -9.827,-7.481 -21.521,-12.26 -34.486,-14.094 -4.576,-0.647 -16.314,-0.496 -20.17,0.26 -0.63,0.123 -1.415,1.075 -3.961,4.805 -0.902,1.321 -1.596,2.475 -1.541,2.563 0.054,0.088 0.393,0.075 0.753,-0.029 2.317,-0.669 7.623,-1.607 11.473,-2.027 2.979,-0.325 10.714,-0.324 13.851,0.002 9.428,0.979 17.953,3.489 26.084,7.679 3.092,1.593 6.715,3.761 7.823,4.681 l 0.615,0.511 -1.427,2.134 c -0.785,1.174 -1.557,2.241 -1.714,2.372 -0.229,0.19 -0.994,-0.125 -3.803,-1.566 -7.395,-3.793 -14.631,-6.054 -23.13,-7.224 -3.737,-0.515 -13.452,-0.515 -17.187,0 -6.737,0.929 -14.441,3.029 -18.886,5.148 -1.057,0.504 -1.182,0.642 -1.868,2.057 -0.91,1.876 -2.869,7.078 -2.722,7.226 0.059,0.059 1.453,-0.579 3.097,-1.419 10.173,-5.198 20.258,-7.623 31.702,-7.623 7.949,0 14.821,1.106 22.089,3.556 2.745,0.925 7.28,2.785 7.628,3.127 0.253,0.251 -1.801,2.345 -4.441,4.526 -6.388,5.278 -14.15,8.862 -22.142,10.222 -3.789,0.645 -7.824,0.893 -10.919,0.672 z"
         style="fill:#cb0303;fill-rule:nonzero;stroke:#000000;stroke-width:0.2px"
         inkscape:connector-curvature="0" /><path
         id="path146"
         d="m 48.242,361.202 c -9.172,-0.47 -17.829,-1.505 -25.478,-3.048 -3.38,-0.681 -10.384,-2.441 -10.734,-2.696 -0.29,-0.213 -0.056,-0.722 2.04,-4.424 1.302,-2.3 2.471,-4.182 2.599,-4.18 0.127,0.002 1.05,0.279 2.051,0.618 2.684,0.909 8.606,2.316 12.638,3.003 7.44,1.266 15.325,1.939 26.37,2.249 13.145,0.369 20.627,-0.403 27.766,-2.864 5.751,-1.983 9.566,-4.665 11.111,-7.811 0.505,-1.029 0.571,-1.385 0.571,-3.087 0,-1.763 -0.056,-2.036 -0.659,-3.262 -1.359,-2.765 -4.64,-5.166 -9.249,-6.772 -2.973,-1.036 -17.958,-4.832 -30.533,-7.735 -14.188,-3.276 -20.383,-5.11 -26.749,-7.92 -9.802,-4.325 -15.335,-10.031 -16.4,-16.911 -1.718,-11.108 7.02,-20.444 24.343,-26.009 17.835,-5.728 45.675,-6.948 69.559,-3.048 7.271,1.187 17.087,3.847 17.087,4.63 0,0.243 -4.839,6.413 -5.209,6.641 -0.096,0.06 -1.806,-0.293 -3.801,-0.782 -9.56,-2.345 -18.591,-3.496 -31.154,-3.972 -13.282,-0.503 -22.567,0.592 -28.99,3.42 -1.663,0.732 -4.312,2.562 -5.247,3.624 -0.454,0.516 -1.12,1.536 -1.48,2.267 -0.54,1.096 -0.666,1.614 -0.724,2.969 -0.098,2.292 0.356,3.294 2.329,5.136 1.692,1.58 4.668,3.186 7.851,4.237 2.643,0.872 11.741,3.24 26.514,6.901 20.48,5.075 27.081,7.168 34.471,10.93 6.565,3.341 11.336,7.76 13.183,12.212 1.719,4.145 1.498,9.067 -0.586,13.043 -5.622,10.721 -24.45,18.704 -51.036,21.64 -6.674,0.737 -12.118,1.028 -20.625,1.103 -4.615,0.041 -9.938,-0.005 -11.829,-0.102 z m 109.024,0.074 c -0.225,-0.225 -0.156,-48.637 0.073,-51.226 0.876,-9.907 5.275,-19.024 12.832,-26.596 8.761,-8.779 20.402,-14.637 34.112,-17.167 6.355,-1.173 7.465,-1.226 25.944,-1.227 17.208,-10e-4 19.483,0.072 25.478,0.821 20.829,2.601 34.829,10.376 39.633,22.01 0.409,0.992 0.981,2.812 1.269,4.044 0.466,1.99 0.525,2.662 0.523,5.982 -0.002,3.082 -0.08,4.106 -0.445,5.81 -2.288,10.676 -9.995,18.125 -23.287,22.508 -6.355,2.095 -12.763,3.276 -22.04,4.061 -3.893,0.329 -54.398,0.499 -54.985,0.184 -0.419,-0.224 -0.426,-0.319 -0.373,-5.426 l 0.054,-5.197 22.749,-0.112 c 22.696,-0.112 22.752,-0.113 24.77,-0.57 5.104,-1.154 9.063,-3.054 12.353,-5.926 2.455,-2.145 3.898,-4.046 5.239,-6.904 3.584,-7.641 1.987,-17.464 -3.867,-23.787 -1.622,-1.752 -4.04,-3.505 -6.417,-4.652 -2.384,-1.15 -3.301,-1.473 -6.196,-2.181 -2.06,-0.503 -2.365,-0.521 -10.211,-0.605 -5.441,-0.059 -8.717,-0.01 -10.01,0.149 -12.064,1.48 -22.086,8.248 -27.874,18.824 -1.479,2.703 -2.97,6.754 -3.675,9.99 -0.875,4.008 -0.87,3.863 -0.991,31.141 l -0.116,26.085 -17.203,0.052 c -9.462,0.028 -17.265,-0.01 -17.339,-0.085 z m 165.606,0 c -0.074,-0.075 -0.136,-21.683 -0.136,-48.018 0,-47.132 0.008,-47.885 0.392,-48.091 0.468,-0.251 33.742,-0.292 34.135,-0.042 0.202,0.128 0.243,9.896 0.203,48.172 l -0.051,48.012 -17.204,0.051 c -9.461,0.029 -17.264,-0.009 -17.339,-0.084 z m 118.155,-0.406 c -25.281,-1.387 -46.984,-15.226 -54.075,-34.482 -2.739,-7.439 -3.137,-15.74 -1.127,-23.51 4.716,-18.231 22.646,-32.736 45.729,-36.994 6.615,-1.221 5.899,-1.197 38.129,-1.278 21.035,-0.052 29.685,-0.01 29.977,0.146 0.396,0.212 0.411,0.401 0.411,5.256 0,3.807 -0.062,5.076 -0.253,5.2 -0.139,0.09 -11.354,0.212 -24.922,0.272 l -24.669,0.109 -2.123,0.53 c -8.753,2.186 -15.733,7.189 -20.819,14.923 -1.552,2.36 -2.755,4.728 -3.74,7.364 -0.933,2.499 -1.885,6.086 -2.057,7.75 l -0.131,1.264 59.808,0.102 v 10.515 l -29.876,0.051 -29.876,0.051 v 0.517 c 0,2.017 1.696,7.692 3.32,11.109 1.903,4.005 3.863,6.861 6.778,9.879 4.453,4.609 9.07,7.441 14.872,9.122 4.307,1.248 3.052,1.192 29.423,1.312 l 24.164,0.109 0.054,5.132 c 0.038,3.616 -0.014,5.213 -0.177,5.409 -0.193,0.233 -4.813,0.272 -28.969,0.24 -15.807,-0.02 -29.24,-0.065 -29.851,-0.098 z"
         style="fill:#0e1c59;fill-rule:nonzero;stroke:#000000;stroke-width:0.2px"
         inkscape:connector-curvature="0" /></g></g></svg>