<?xml version="1.0" encoding="UTF-8" standalone="no"?><!DOCTYPE svg PUBLIC "-//W3C//DTD SVG 1.1//EN" "http://www.w3.org/Graphics/SVG/1.1/DTD/svg11.dtd"><svg width="100%" height="100%" viewBox="0 0 603 200" version="1.1" xmlns="http://www.w3.org/2000/svg" xmlns:xlink="http://www.w3.org/1999/xlink" xml:space="preserve" style="fill-rule:evenodd;clip-rule:evenodd;stroke-linejoin:round;stroke-miterlimit:1.41421;"><path id="path10" d="M526.661,107.182c0.319,-4.849 1.775,-8.971 4.366,-12.37c2.586,-3.402 6.474,-5.1 11.644,-5.1c5.826,0 9.951,1.698 12.377,5.1c2.427,3.399 3.64,7.521 3.64,12.37l-32.027,0Zm57.985,11.162c0,-6.311 -0.729,-12.291 -2.189,-17.954c-1.447,-5.66 -3.879,-10.631 -7.278,-14.92c-3.393,-4.289 -7.765,-7.721 -13.104,-10.309c-5.333,-2.586 -11.882,-3.881 -19.647,-3.881c-6.473,0 -12.458,0.97 -17.947,2.912c-5.504,1.934 -10.237,4.767 -14.196,8.488c-3.969,3.719 -7.038,8.29 -9.223,13.709c-2.186,5.42 -3.275,11.604 -3.275,18.56c0,6.955 1.216,13.14 3.636,18.561c2.427,5.42 5.822,10.031 10.194,13.829c4.361,3.803 9.502,6.672 15.403,8.614c5.907,1.934 12.333,2.909 19.288,2.909c11.326,0 21.595,-1.778 30.813,-5.337l0,-20.38c-4.368,2.265 -8.732,3.922 -13.1,4.973c-4.366,1.049 -8.573,1.578 -12.615,1.578c-7.113,0 -12.776,-1.255 -16.983,-3.758c-4.206,-2.508 -6.714,-6.672 -7.516,-12.496l57.739,0l0,-5.098Zm-103.524,-7.377c-3.413,-1.786 -7.186,-3.121 -11.332,-4.02c-4.143,-0.894 -7.915,-1.699 -11.328,-2.438c-3.414,-0.732 -6.3,-1.625 -8.648,-2.677c-2.363,-1.06 -3.541,-2.725 -3.541,-4.999c0,-2.436 1.343,-4.099 4.019,-4.995c2.681,-0.894 5.732,-1.338 9.151,-1.338c4.702,0 9.543,0.563 14.493,1.702c4.96,1.139 9.062,2.602 12.305,4.385l2.198,-20.716c-1.789,-0.808 -5.481,-1.823 -11.092,-3.044c-5.596,-1.219 -12.145,-1.827 -19.615,-1.827c-5.038,0 -9.873,0.524 -14.505,1.584c-4.632,1.053 -8.732,2.72 -12.31,4.998c-3.573,2.273 -6.416,5.155 -8.526,8.647c-2.12,3.496 -3.17,7.678 -3.17,12.555c0,5.036 1.093,9.104 3.294,12.183c2.188,3.094 4.989,5.492 8.402,7.194c3.416,1.707 7.029,3.044 10.845,4.019c3.828,0.974 7.432,1.909 10.849,2.802c3.413,0.894 6.212,1.954 8.405,3.173c2.2,1.215 3.288,2.963 3.288,5.236c0.001,1.465 -0.434,2.604 -1.329,3.418c-0.897,0.814 -1.954,1.457 -3.173,1.945c-1.218,0.49 -2.599,0.772 -4.146,0.854c-1.548,0.083 -2.884,0.125 -4.018,0.125c-5.69,0 -11.3,-0.69 -16.819,-2.067c-5.524,-1.391 -9.991,-2.81 -13.404,-4.275l-1.709,20.713c4.387,1.468 9.3,2.647 14.751,3.54c5.444,0.89 11.654,1.34 18.645,1.34c5.198,0 10.235,-0.367 15.111,-1.094c4.87,-0.735 9.18,-2.16 12.918,-4.263c3.735,-2.115 6.7,-4.917 8.894,-8.412c2.195,-3.492 3.292,-8.08 3.292,-13.772c0,-5.364 -1.175,-9.667 -3.535,-12.918c-2.357,-3.248 -5.241,-5.765 -8.66,-7.558Zm-393.101,-14.623c-3.978,-2.437 -8.239,-4.306 -12.786,-5.609c-4.551,-1.298 -8.82,-2.553 -12.796,-3.774c-3.984,-1.216 -7.272,-2.596 -9.872,-4.142c-2.602,-1.542 -3.9,-3.86 -3.9,-6.948c0,-2.437 0.613,-4.384 1.824,-5.846c1.221,-1.463 2.725,-2.562 4.509,-3.292c1.789,-0.738 3.695,-1.215 5.731,-1.462c2.028,-0.24 3.936,-0.367 5.729,-0.367c5.355,0 10.268,0.571 14.744,1.708c4.467,1.134 8.652,2.601 12.55,4.388l1.952,-23.399c-3.739,-1.304 -8.285,-2.48 -13.645,-3.531c-5.366,-1.056 -11.536,-1.592 -18.522,-1.592c-4.886,0 -10.007,0.571 -15.355,1.707c-5.367,1.14 -10.326,3.048 -14.872,5.734c-4.55,2.68 -8.293,6.252 -11.217,10.721c-2.92,4.467 -4.379,10.117 -4.379,16.942c0,6.82 1.289,12.265 3.896,16.325c2.596,4.063 5.892,7.311 9.87,9.749c3.978,2.437 8.242,4.351 12.794,5.734c4.55,1.38 8.821,2.72 12.799,4.017c3.979,1.304 7.276,2.927 9.871,4.878c2.595,1.944 3.896,4.631 3.896,8.038c0,2.279 -0.52,4.105 -1.578,5.491c-1.06,1.377 -2.437,2.434 -4.148,3.163c-1.708,0.736 -3.653,1.221 -5.849,1.462c-2.192,0.246 -4.504,0.37 -6.95,0.37c-6.169,0 -11.9,-0.738 -17.179,-2.194c-5.276,-1.465 -9.868,-3.251 -13.772,-5.364l-2.678,24.853c5.042,1.626 10.597,2.853 16.693,3.661c6.093,0.815 11.739,1.219 16.936,1.219c6.18,0 12.231,-0.528 18.163,-1.583c5.929,-1.055 11.208,-2.966 15.847,-5.731c4.628,-2.76 8.361,-6.497 11.208,-11.21c2.835,-4.711 4.266,-10.722 4.266,-18.039c0,-6.819 -1.3,-12.266 -3.904,-16.328c-2.596,-4.061 -5.89,-7.309 -9.876,-9.749Zm80.884,12.18c0,9.113 -1.176,15.771 -3.534,19.999c-2.355,4.224 -6.542,6.333 -12.553,6.333c-4.06,0 -7.063,-1.338 -9.013,-4.024c-1.957,-2.677 -2.93,-7.11 -2.93,-13.283l0,-44.601l-29.008,0l0,52.402c0,4.388 0.5,8.61 1.467,12.675c0.978,4.063 2.677,7.637 5.12,10.721c2.443,3.091 5.641,5.573 9.63,7.439c3.976,1.864 8.974,2.799 14.991,2.799c6.169,0 11.69,-1.182 16.574,-3.537c4.874,-2.352 8.688,-6.124 11.448,-11.329l0.246,0l0,12.912l26.571,0l0,-84.082l-29.009,0l0,35.576Zm121.378,-27.286c-2.434,-3.087 -5.646,-5.57 -9.627,-7.433c-3.984,-1.872 -8.974,-2.805 -14.988,-2.805c-6.169,0 -11.7,1.173 -16.579,3.531c-4.875,2.358 -8.691,6.215 -11.454,11.579l-0.237,0l0,-13.162l-26.326,0l0,84.082l29.009,0l0,-35.578c0,-9.099 1.17,-15.726 3.529,-19.868c2.355,-4.142 6.375,-6.212 12.058,-6.212c4.23,0 7.359,1.379 9.39,4.142c2.032,2.765 3.048,7.478 3.048,14.139l0,43.377l29.005,0l0,-52.399c0,-4.385 -0.528,-8.603 -1.589,-12.677c-1.054,-4.06 -2.801,-7.629 -5.239,-10.716Zm70.685,-9.509c-6.176,0 -11.219,1.18 -15.111,3.535c-3.899,2.355 -7.148,5.974 -9.754,10.846l-0.242,0l0,-13.162l-26.567,0l0,84.082l29.25,0l0,-35.578c0,-8.291 1.789,-14.584 5.363,-18.89c3.572,-4.306 8.774,-6.461 15.602,-6.461c2.756,0 4.916,0.122 6.462,0.368c1.535,0.243 2.716,0.447 3.526,0.611l1.465,-24.375c-1.465,-0.325 -3.049,-0.569 -4.751,-0.733c-1.711,-0.16 -3.457,-0.243 -5.243,-0.243Zm18.526,-9.262l29.004,0l0,-21.451l-29.004,0l0,21.451Zm0,94.563l29.004,0l0,-84.082l-29.004,0l0,84.082Z" style="fill:#d41d0f;"/></svg>