<?xml version="1.0" encoding="UTF-8" standalone="no"?><!DOCTYPE svg PUBLIC "-//W3C//DTD SVG 1.1//EN" "http://www.w3.org/Graphics/SVG/1.1/DTD/svg11.dtd"><svg width="100%" height="100%" viewBox="0 0 787 239" version="1.1" xmlns="http://www.w3.org/2000/svg" xmlns:xlink="http://www.w3.org/1999/xlink" xml:space="preserve" style="fill-rule:evenodd;clip-rule:evenodd;"><clipPath id="_clip1"><path id="path3212" d="M-1542.21,-1760.4l3186.6,0l0,4506.59l-3186.6,0l0,-4506.59Z"/></clipPath><g clip-path="url(#_clip1)"><path d="M577.483,164.986c-21.293,0 -35.205,-10.647 -35.205,-36.083c0,-21.55 11.899,-38.213 38.09,-38.213c5.637,0 12.778,1.129 17.541,3.013l-4.009,15.031c-4.255,-1.499 -8.393,-2.634 -13.034,-2.634c-13.398,0 -18.916,8.773 -18.916,21.925c0,12.783 5.01,21.304 18.167,21.304c6.14,0 10.4,-1.504 14.533,-3.131l2.13,14.779c-3.634,2.253 -11.273,4.009 -19.297,4.009l0,0Zm-171.882,-82.058c6.509,0 11.771,-5.015 11.771,-11.401c0,-6.263 -5.262,-11.027 -11.771,-11.027c-6.011,0 -11.401,4.764 -11.401,11.027c0,6.386 5.39,11.401 11.401,11.401Zm-10.154,80.805l18.419,0l0,-71.785c-8.645,-0.878 -18.419,1.504 -18.419,15.035l0,56.75Zm241.297,-57.504c-8.26,0 -16.16,6.139 -16.16,21.925c0,13.66 5.133,21.298 15.913,21.298c9.143,0 16.166,-7.392 16.166,-21.919c0,-13.912 -5.016,-21.304 -15.919,-21.304l0,0Zm-0.744,59.008c-20.426,0 -34.708,-11.144 -34.708,-36.206c0,-22.428 15.031,-38.588 36.833,-38.588c20.297,0 33.449,11.402 33.449,35.832c0,23.429 -14.276,38.962 -35.574,38.962Zm-368.34,-57.884c-4.009,-1.499 -10.148,-3.003 -15.159,-3.003c-5.765,0 -10.148,1.504 -10.148,6.766c0,12.402 31.822,4.764 31.822,30.318c0,17.289 -14.035,23.927 -29.82,23.927c-7.264,0 -14.528,-1.124 -21.171,-3.132l1.124,-15.159c0,0 10.524,3.512 19.297,3.512c6.134,0 11.15,-1.879 11.15,-7.269c0,-13.281 -31.951,-4.759 -31.951,-30.195c0,-15.909 13.409,-22.428 28.193,-22.428c8.768,0 15.786,1.632 20.041,3.136l-3.378,13.527l0,0Zm119.394,-15.405c-4.004,21.298 -14.282,54.871 -20.796,71.785l-19.548,0l-13.778,-47.853l-0.252,0l-13.778,47.853l-19.419,0c-6.269,-16.663 -17.541,-51.365 -20.796,-71.785l18.414,0l12.156,49.363l0.246,0l14.533,-49.363l18.418,0l14.159,48.988l0.251,0l12.274,-48.988l17.916,0Zm377.738,-1.505c13.907,0 22.048,7.516 22.048,23.927l0,49.363l-18.542,0l0,-45.6c0,-7.392 -2.135,-12.279 -10.025,-12.279c-7.89,0 -14.785,6.889 -14.785,19.291l0,38.588l-18.162,0l0,-45.6c0,-6.894 -2.253,-12.279 -10.154,-12.279c-8.264,0 -14.656,7.644 -14.656,20.046l0,37.833l-18.788,0l0,-71.785c12.274,-1.505 16.91,3.506 17.413,11.524c4.507,-8.018 12.279,-13.029 22.428,-13.029c12.9,0 18.033,7.141 19.912,13.907c3.131,-7.141 11.155,-13.907 23.311,-13.907l0,0Zm-295.177,16.91c-4.127,-1.499 -10.149,-3.003 -15.154,-3.003c-5.77,0 -10.395,1.504 -10.395,6.766c0,12.402 32.068,4.764 32.068,30.318c0,17.289 -14.152,23.927 -29.815,23.927c-7.274,0 -14.538,-1.124 -21.427,-3.132l1.381,-15.159c0,0 10.518,3.512 19.292,3.512c5.893,0 11.026,-1.879 11.026,-7.269c0,-13.281 -32.079,-4.759 -32.079,-30.195c0,-15.909 13.532,-22.428 28.193,-22.428c8.768,0 16.037,1.632 20.298,3.136l-3.388,13.527l0,0Zm58.382,0c-4.004,-1.499 -10.143,-3.003 -15.159,-3.003c-5.759,0 -10.272,1.504 -10.272,6.766c0,12.402 31.951,4.764 31.951,30.318c0,17.289 -14.03,23.927 -29.815,23.927c-7.269,0 -14.538,-1.124 -21.176,-3.132l1.253,-15.159c0,0 10.395,3.512 19.168,3.512c6.14,0 11.15,-1.879 11.15,-7.269c0,-13.281 -31.951,-4.759 -31.951,-30.195c0,-15.909 13.409,-22.428 28.193,-22.428c8.768,0 15.909,1.632 20.046,3.136l-3.388,13.527" style="fill:#152168;fill-rule:nonzero;"/></g><g id="g8049"><path id="path7180" d="M55.751,131.97c-44.015,37.806 -15.361,65.517 23.451,81.637l0.221,-43.142c-18.976,-3.891 -7.901,-29.039 -23.673,-38.496l0.001,0.001Z" style="fill:url(#_Linear2);fill-rule:nonzero;stroke:#999;stroke-width:0.25px;"/><path id="path8011" d="M57.461,23.864c-0.9,0.061 -19.445,13.801 -27.562,20.406c-25.422,20.685 -33.41,36.418 -27.562,54.313c2.973,9.1 8.148,15.283 24.812,29.688c12.53,10.831 19.186,17.479 24.406,24.5c0.575,0.774 1.11,1.554 1.656,2.344c0.159,0.232 0.302,0.41 0.469,0.656c0.008,0.012 0.023,0.019 0.031,0.031c0.142,0.21 0.269,0.389 0.406,0.594c0.869,1.303 1.661,2.569 2.375,3.813c0.787,1.37 1.504,2.747 2.156,4.187c0.033,0.072 0.062,0.146 0.094,0.219c0.226,0.506 0.441,1.003 0.656,1.531c0.188,0.466 0.378,0.942 0.563,1.438c0.023,0.062 0.039,0.124 0.062,0.187c0.189,0.513 0.375,1.041 0.563,1.594c0.014,0.041 0.017,0.083 0.031,0.125c0.196,0.581 0.396,1.181 0.594,1.812c0.003,0.01 -0.003,0.022 0,0.032c1.165,3.794 2.291,8.385 3.593,14.469c0.204,0.32 0.28,0.451 0.469,0.75c0.106,0.433 0.204,0.769 0.313,1.218c2.93,12.11 5.968,19.38 9.812,23.469c0.313,0.333 1.317,0.992 2.25,1.469c0.933,0.477 1.877,0.819 2.094,0.75c0.497,-0.158 0.611,-41.549 0.121,-42.839c-3.041,-0.272 -6.236,-2.037 -8.434,-4.411c-1.333,-1.476 -2.503,-3.672 -3.5,-6.469c-0.025,-0.072 -0.068,-0.146 -0.093,-0.219c-0.056,-0.173 -0.101,-0.379 -0.157,-0.562c-0.661,-2.171 -1.346,-4.965 -2.125,-8.813c-2.466,-12.197 -4.176,-14.706 -15.5,-22.75c-8.06,-5.726 -11.655,-9.159 -13.5,-12.906c-1.268,-2.577 -1.343,-2.985 -1.343,-6.687c0,-3.287 0.152,-4.298 0.906,-5.938c1.882,-4.092 4.814,-6.138 14.188,-9.875c10.038,-4.002 11.69,-5.841 16.25,-18.063c4.196,-9.091 6.255,-9.743 13.708,-13.194c0.076,0.015 -15.18,-24.887 -22.801,-36.869l-0.001,0Z" style="fill:url(#_Linear3);fill-rule:nonzero;stroke:#4d4d4d;stroke-width:0.25px;"/><path id="path8031" d="M79.641,213.96c21.791,-32.02 44.402,-38.61 64.917,-110.21l-80.391,-70.955l16.607,28.684l-1.133,152.481Z" style="fill:url(#_Linear4);fill-rule:nonzero;stroke:#000;stroke-width:0.1px;"/><path id="path7153" d="M92.621,22.364c-4.475,0.246 -8.898,0.432 -12.782,2.374c-0.049,-0.097 0.038,-0.195 0.083,24.171l64.408,54.924c0,0 1.441,-2.287 2.197,-7.594c1.106,-7.766 1.344,-13.703 0.812,-19.406c-1.116,-11.985 -4.363,-21.496 -10.344,-30.281c-2.794,-4.105 -10.337,-11.534 -14.594,-14.375c-6.436,-4.296 -14.443,-7.657 -21.75,-9.125c-2.398,-0.482 -5.233,-0.701 -8.031,-0.688l0.001,0Z" style="fill:url(#_Linear5);fill-rule:nonzero;stroke:#999;stroke-width:0.5px;"/><path id="path7161" d="M79.471,238.05c0.155,-0.073 1.264,-177.11 0.851,-177.31l-18.54,-30.059c-0.5,3.164 56.522,50.065 82.839,73.381l4.596,4.544c11.259,11.132 18.46,20.028 23.183,29.806c4.256,8.81 5.585,15.09 5.212,24.631c-0.386,9.884 -3.188,19.316 -8.368,28.177c-4.827,8.256 -14.175,18.029 -23.244,24.301c-15.603,10.79 -36.81,18.807 -58.213,22.005c-5.464,0.817 -7.879,0.969 -8.323,0.525l0.007,-0.001Z" style="fill:url(#_Linear6);fill-rule:nonzero;"/><path id="path7186" d="M57.341,22.92c-0.002,-0.339 -0.269,-1.487 -0.592,-2.551c-1.27,-4.188 -0.37,-9.02 2.343,-12.577c1.373,-1.8 5.056,-4.289 7.948,-5.371c5.694,-2.131 12.17,-3.106 12.555,-1.891c0,0 0.157,48.704 0.416,48.643c0.214,0.749 -21.307,-18.357 -22.671,-26.253l0.001,0Z" style="fill:url(#_Linear7);fill-rule:nonzero;"/></g><path id="path8057" d="M79.891,170.65l0.533,-110.15c-4.497,2.171 -9.046,1.957 -14.423,14.932c-4.184,11.05 -6.022,12.907 -17.269,17.16c-19.384,5.674 -18.994,22.327 1.535,35.028c11.521,7.516 13.631,12.234 15.813,25.22c2.06,9.029 4.441,16.089 13.811,17.814l0,-0.004Z" style="fill:#fff;fill-rule:nonzero;"/><defs><linearGradient id="_Linear2" x1="0" y1="0" x2="1" y2="0" gradientUnits="userSpaceOnUse" gradientTransform="matrix(-28.28,-34.01,34.01,-28.28,74.2006,197.47)"><stop offset="0" style="stop-color:#0019ce;stop-opacity:1"/><stop offset="1" style="stop-color:#00a4ce;stop-opacity:0.498039"/></linearGradient><linearGradient id="_Linear3" x1="0" y1="0" x2="1" y2="0" gradientUnits="userSpaceOnUse" gradientTransform="matrix(-92.36,-103.413,103.413,-92.36,143.941,161.69)"><stop offset="0" style="stop-color:#040d1a;stop-opacity:1"/><stop offset="1" style="stop-color:#fd110d;stop-opacity:0.992157"/></linearGradient><linearGradient id="_Linear4" x1="0" y1="0" x2="1" y2="0" gradientUnits="userSpaceOnUse" gradientTransform="matrix(38.88,-17.61,17.61,38.88,75.8506,137.25)"><stop offset="0" style="stop-color:#000;stop-opacity:1"/><stop offset="1" style="stop-color:#000;stop-opacity:0"/></linearGradient><linearGradient id="_Linear5" x1="0" y1="0" x2="1" y2="0" gradientUnits="userSpaceOnUse" gradientTransform="matrix(-143.57,-67.935,67.935,-143.57,253.441,121.22)"><stop offset="0" style="stop-color:#040d1a;stop-opacity:1"/><stop offset="1" style="stop-color:#fd110d;stop-opacity:0.992157"/></linearGradient><linearGradient id="_Linear6" x1="0" y1="0" x2="1" y2="0" gradientUnits="userSpaceOnUse" gradientTransform="matrix(24.45,-35.01,35.01,24.45,90.4706,153.27)"><stop offset="0" style="stop-color:#0019ce;stop-opacity:1"/><stop offset="1" style="stop-color:#00a4ce;stop-opacity:0.498039"/></linearGradient><linearGradient id="_Linear7" x1="0" y1="0" x2="1" y2="0" gradientUnits="userSpaceOnUse" gradientTransform="matrix(-3.92,-43.2343,43.2343,-3.92,72.7306,41.6781)"><stop offset="0" style="stop-color:#0b4ad0;stop-opacity:1"/><stop offset="1" style="stop-color:#0bb7d0;stop-opacity:0"/></linearGradient></defs></svg>