<?xml version="1.0" encoding="UTF-8" standalone="no"?>
<!-- Created with Inkscape (http://www.inkscape.org/) -->
<svg
   xmlns:svg="http://www.w3.org/2000/svg"
   xmlns="http://www.w3.org/2000/svg"
   version="1.0"
   width="903.54327"
   height="564.27167"
   id="svg75605">
  <defs
     id="defs75607" />
  <g
     transform="translate(-438.0542,46.00164)"
     id="layer1">
    <g
       transform="translate(8.858237,8.857665)"
       id="g80775">
      <path
         d="M 725.4687,31.230633 C 725.4687,2.2684563 750.15542,-21.590729 779.94502,-21.590729 C 789.87484,-21.590729 799.25306,-18.832438 807.39003,-14.281292 C 802.70098,-11.109292 798.14972,-7.7992723 793.73647,-4.3514664 C 789.59904,-5.868515 785.04789,-6.6959324 779.94502,-6.6959324 C 755.3962,-6.6959324 742.01845,11.232962 742.01845,31.230633 C 742.01845,36.057585 742.98377,40.470944 744.36303,44.746284 C 741.88055,47.780381 739.53597,50.814479 737.32929,54.124498 C 736.08804,55.917353 734.8468,57.710207 733.60567,59.503178 C 728.5028,51.366207 725.4687,41.85009 725.4687,31.230633"
         style="fill:#94add3;fill-rule:nonzero;stroke:none"
         id="path78744" />
      <path
         d="M 725.4687,31.230633 C 725.4687,2.2684563 750.15542,-21.590729 779.94502,-21.590729 C 789.87484,-21.590729 799.25306,-18.832438 807.39003,-14.281292 C 802.70098,-11.109292 798.14972,-7.7992723 793.73647,-4.3514664 C 789.59904,-5.868515 785.04789,-6.6959324 779.94502,-6.6959324 C 755.3962,-6.6959324 742.01845,11.232962 742.01845,31.230633 C 742.01845,36.057585 742.98377,40.470944 744.36303,44.746284 C 741.88055,47.780381 739.53597,50.814479 737.32929,54.124498 C 736.08804,55.917353 734.8468,57.710207 733.60567,59.503178 C 728.5028,51.366207 725.4687,41.85009 725.4687,31.230633"
         style="fill:#231f20;fill-rule:nonzero;stroke:none"
         id="path78746" />
      <path
         d="M 740.63931,68.191761 C 742.57006,65.571373 744.22501,62.813081 746.29379,60.192693 C 747.53503,58.399838 748.77628,56.88279 750.01752,55.089819 C 756.63744,63.640616 767.11888,69.157198 779.94502,69.157198 C 802.28715,69.157198 817.59578,52.055722 817.59578,31.230633 C 817.59578,19.507836 812.90661,8.3367675 803.94222,1.1651164 C 808.07966,-1.7310779 812.355,-4.7651751 816.49244,-7.5234665 C 827.3877,2.1305534 834.28343,15.922011 834.28343,31.230633 C 834.28343,61.296033 809.87251,84.051995 779.94502,84.051995 C 764.49849,84.051995 750.56913,78.121587 740.63931,68.191761"
         style="fill:#94add3;fill-rule:nonzero;stroke:none"
         id="path78748" />
      <path
         d="M 740.63931,68.191761 C 742.57006,65.571373 744.22501,62.813081 746.29379,60.192693 C 747.53503,58.399838 748.77628,56.88279 750.01752,55.089819 C 756.63744,63.640616 767.11888,69.157198 779.94502,69.157198 C 802.28715,69.157198 817.59578,52.055722 817.59578,31.230633 C 817.59578,19.507836 812.90661,8.3367675 803.94222,1.1651164 C 808.07966,-1.7310779 812.355,-4.7651751 816.49244,-7.5234665 C 827.3877,2.1305534 834.28343,15.922011 834.28343,31.230633 C 834.28343,61.296033 809.87251,84.051995 779.94502,84.051995 C 764.49849,84.051995 750.56913,78.121587 740.63931,68.191761"
         style="fill:#231f20;fill-rule:nonzero;stroke:none"
         id="path78750" />
      <path
         d="M 720.77954,168.73161 C 720.77954,184.72975 711.53923,198.52121 697.19616,204.17581 C 697.05825,207.072 697.05825,209.9682 697.05825,212.86439 C 697.05825,215.20897 697.05825,217.55344 697.05825,219.89802 C 720.22793,213.96773 737.32929,193.97006 737.32929,168.73161 C 737.32929,150.25111 727.26156,133.97716 712.36676,124.46105 C 710.57391,129.288 709.05674,134.25297 707.53969,139.21794 C 716.22839,146.38947 720.77954,157.14683 720.77954,168.73161"
         style="fill:#231f20;fill-rule:nonzero;stroke:none"
         id="path78752" />
      <path
         d="M 628.65246,168.86951 C 628.65246,139.76955 653.20128,115.91025 682.99087,115.91025 C 689.7487,115.91025 696.50653,117.2894 702.57484,119.63398 C 700.78187,124.18512 699.40272,128.87429 698.02357,133.56334 C 693.47243,131.77048 688.50746,130.94295 682.99087,130.94295 C 658.57996,130.94295 645.06431,148.87196 645.06431,168.86951 C 645.06431,189.55682 660.51072,206.65818 682.99087,206.65818 L 686.30089,206.52027 C 686.16287,208.58905 686.16287,210.79561 686.16287,212.86439 C 686.16287,215.76059 686.16287,218.65678 686.30089,221.55297 L 682.99087,221.69099 C 652.92548,221.69099 628.65246,198.93503 628.65246,168.86951"
         style="fill:#94add3;fill-rule:nonzero;stroke:none"
         id="path78754" />
      <path
         d="M 628.65246,168.86951 C 628.65246,139.76955 653.20128,115.91025 682.99087,115.91025 C 689.7487,115.91025 696.50653,117.2894 702.57484,119.63398 C 700.78187,124.18512 699.40272,128.87429 698.02357,133.56334 C 693.47243,131.77048 688.50746,130.94295 682.99087,130.94295 C 658.57996,130.94295 645.06431,148.87196 645.06431,168.86951 C 645.06431,189.55682 660.51072,206.65818 682.99087,206.65818 L 686.30089,206.52027 C 686.16287,208.58905 686.16287,210.79561 686.16287,212.86439 C 686.16287,215.76059 686.16287,218.65678 686.30089,221.55297 L 682.99087,221.69099 C 652.92548,221.69099 628.65246,198.93503 628.65246,168.86951"
         style="fill:#231f20;fill-rule:nonzero;stroke:none"
         id="path78756" />
      <path
         d="M 731.95061,343.60766 C 748.91418,339.33232 759.80944,324.43752 759.80944,306.92234 C 759.80944,287.06257 746.29379,269.13368 721.88288,269.13368 C 715.12505,269.13368 709.19464,270.65073 704.09189,273.13321 C 702.85064,268.16824 701.88521,263.20327 700.91977,258.23841 C 707.40179,255.75593 714.43542,254.23888 721.88288,254.23888 C 751.67247,254.23888 776.35919,277.96016 776.35919,306.92234 C 776.35919,330.64362 761.32649,349.81376 740.22548,356.84751 C 737.32929,352.43415 734.57099,348.15881 731.95061,343.60766"
         style="fill:#94add3;fill-rule:nonzero;stroke:none"
         id="path78758" />
      <path
         d="M 731.95061,343.60766 C 748.91418,339.33232 759.80944,324.43752 759.80944,306.92234 C 759.80944,287.06257 746.29379,269.13368 721.88288,269.13368 C 715.12505,269.13368 709.19464,270.65073 704.09189,273.13321 C 702.85064,268.16824 701.88521,263.20327 700.91977,258.23841 C 707.40179,255.75593 714.43542,254.23888 721.88288,254.23888 C 751.67247,254.23888 776.35919,277.96016 776.35919,306.92234 C 776.35919,330.64362 761.32649,349.81376 740.22548,356.84751 C 737.32929,352.43415 734.57099,348.15881 731.95061,343.60766"
         style="fill:#231f20;fill-rule:nonzero;stroke:none"
         id="path78760" />
      <path
         d="M 667.54447,306.92234 C 667.54447,289.13123 676.92268,273.27111 690.85204,263.755 C 691.95538,269.27158 693.19662,274.65026 694.43787,280.02894 C 687.68004,287.06257 684.23212,296.71659 684.23212,306.92234 C 684.23212,327.19582 698.71321,343.88347 720.36583,344.8489 C 722.98622,349.81376 725.88241,354.64083 729.05441,359.32988 C 726.70983,359.7437 724.22746,359.8816 721.88288,359.8816 C 691.95538,359.8816 667.54447,337.12564 667.54447,306.92234"
         style="fill:#94add3;fill-rule:nonzero;stroke:none"
         id="path78762" />
      <path
         d="M 667.54447,306.92234 C 667.54447,289.13123 676.92268,273.27111 690.85204,263.755 C 691.95538,269.27158 693.19662,274.65026 694.43787,280.02894 C 687.68004,287.06257 684.23212,296.71659 684.23212,306.92234 C 684.23212,327.19582 698.71321,343.88347 720.36583,344.8489 C 722.98622,349.81376 725.88241,354.64083 729.05441,359.32988 C 726.70983,359.7437 724.22746,359.8816 721.88288,359.8816 C 691.95538,359.8816 667.54447,337.12564 667.54447,306.92234"
         style="fill:#231f20;fill-rule:nonzero;stroke:none"
         id="path78764" />
      <path
         d="M 1149.9704,424.28774 C 1099.3557,465.38643 1035.5011,488.00449 969.57784,488.00449 C 902.13749,488.00449 836.90382,464.42099 785.87531,421.39155 L 777.46253,430.90767 C 830.83551,475.86798 899.10339,500.5547 969.57784,500.5547 C 1038.5352,500.5547 1105.424,476.8333 1158.2454,433.80386 L 1149.9704,424.28774"
         style="fill:#2a529e;fill-rule:nonzero;stroke:none"
         id="path78766" />
      <path
         d="M 923.65221,320.57589 L 923.65221,256.44544 L 940.20196,256.44544 L 940.20196,317.6797 C 940.20196,331.74696 945.02903,344.98681 963.09582,344.98681 C 981.30064,344.98681 985.98969,331.74696 985.98969,317.6797 L 985.98969,256.44544 L 1002.5394,256.44544 L 1002.5394,320.57589 C 1002.5394,342.78013 988.47217,360.01951 963.09582,360.01951 C 937.71959,360.01951 923.65221,342.78013 923.65221,320.57589"
         style="fill:#94add3;fill-rule:nonzero;stroke:none"
         id="path78768" />
      <path
         d="M 923.65221,320.57589 L 923.65221,256.44544 L 940.20196,256.44544 L 940.20196,317.6797 C 940.20196,331.74696 945.02903,344.98681 963.09582,344.98681 C 981.30064,344.98681 985.98969,331.74696 985.98969,317.6797 L 985.98969,256.44544 L 1002.5394,256.44544 L 1002.5394,320.57589 C 1002.5394,342.78013 988.47217,360.01951 963.09582,360.01951 C 937.71959,360.01951 923.65221,342.78013 923.65221,320.57589"
         style="fill:#231f20;fill-rule:nonzero;stroke:none"
         id="path78770" />
      <path
         d="M 982.67979,81.845316 L 982.67979,-19.522069 L 999.22953,-19.522069 L 999.22953,67.64015 L 1044.7415,67.64015 L 1044.7415,81.845316 L 982.67979,81.845316"
         style="fill:#94add3;fill-rule:nonzero;stroke:none"
         id="path78772" />
      <path
         d="M 982.67979,81.845316 L 982.67979,-19.522069 L 999.22953,-19.522069 L 999.22953,67.64015 L 1044.7415,67.64015 L 1044.7415,81.845316 L 982.67979,81.845316"
         style="fill:#231f20;fill-rule:nonzero;stroke:none"
         id="path78774" />
      <path
         d="M 438.0542,219.76012 L 438.0542,118.25483 L 497.49549,118.25483 L 497.49549,132.87382 L 454.74185,132.87382 L 454.74185,156.87103 L 496.25424,156.87103 L 496.25424,171.4899 L 454.74185,171.4899 L 454.74185,205.00323 L 497.49549,205.00323 L 497.49549,219.76012 L 438.0542,219.76012"
         style="fill:#94add3;fill-rule:nonzero;stroke:none"
         id="path78776" />
      <path
         d="M 438.0542,219.76012 L 438.0542,118.25483 L 497.49549,118.25483 L 497.49549,132.87382 L 454.74185,132.87382 L 454.74185,156.87103 L 496.25424,156.87103 L 496.25424,171.4899 L 454.74185,171.4899 L 454.74185,205.00323 L 497.49549,205.00323 L 497.49549,219.76012 L 438.0542,219.76012"
         style="fill:#231f20;fill-rule:nonzero;stroke:none"
         id="path78778" />
      <path
         d="M 788.35779,152.87149 L 788.35779,219.76012 L 771.80805,219.76012 L 771.80805,113.01406 L 841.59286,184.31604 L 841.59286,118.25483 L 858.14273,118.25483 L 858.14273,223.75965 L 788.35779,152.87149"
         style="fill:#94add3;fill-rule:nonzero;stroke:none"
         id="path78780" />
      <path
         d="M 788.35779,152.87149 L 788.35779,219.76012 L 771.80805,219.76012 L 771.80805,113.01406 L 841.59286,184.31604 L 841.59286,118.25483 L 858.14273,118.25483 L 858.14273,223.75965 L 788.35779,152.87149"
         style="fill:#231f20;fill-rule:nonzero;stroke:none"
         id="path78782" />
      <path
         d="M 1187.759,219.76012 L 1204.3089,219.76012 L 1204.3089,118.25483 L 1187.759,118.25483 L 1187.759,219.76012 z "
         style="fill:#94add3;fill-rule:nonzero;stroke:none"
         id="path78784" />
      <path
         d="M 1187.759,219.76012 L 1204.3089,219.76012 L 1204.3089,118.25483 L 1187.759,118.25483 L 1187.759,219.76012 z "
         style="fill:#231f20;fill-rule:nonzero;stroke:none"
         id="path78786" />
      <path
         d="M 584.79549,357.67492 L 584.79549,256.30754 L 638.58229,256.30754 L 638.58229,270.92653 L 601.34536,270.92653 L 601.34536,295.06164 L 637.34105,295.06164 L 637.34105,309.68063 L 601.34536,309.68063 L 601.34536,357.67492 L 584.79549,357.67492"
         style="fill:#94add3;fill-rule:nonzero;stroke:none"
         id="path78788" />
      <path
         d="M 584.79549,357.67492 L 584.79549,256.30754 L 638.58229,256.30754 L 638.58229,270.92653 L 601.34536,270.92653 L 601.34536,295.06164 L 637.34105,295.06164 L 637.34105,309.68063 L 601.34536,309.68063 L 601.34536,357.67492 L 584.79549,357.67492"
         style="fill:#231f20;fill-rule:nonzero;stroke:none"
         id="path78790" />
      <path
         d="M 637.34105,9.8538161 L 601.62116,86.120656 L 573.21071,-19.522069 L 589.76046,-19.522069 L 606.0344,43.91875 L 606.31021,43.91875 L 637.34105,-21.590729 L 668.37188,43.91875 L 668.64781,43.91875 L 684.92175,-19.522069 L 701.4715,-19.522069 L 673.06105,86.120656 L 637.34105,9.8538161"
         style="fill:#94add3;fill-rule:nonzero;stroke:none"
         id="path78792" />
      <path
         d="M 637.34105,9.8538161 L 601.62116,86.120656 L 573.21071,-19.522069 L 589.76046,-19.522069 L 606.0344,43.91875 L 606.31021,43.91875 L 637.34105,-21.590729 L 668.37188,43.91875 L 668.64781,43.91875 L 684.92175,-19.522069 L 701.4715,-19.522069 L 673.06105,86.120656 L 637.34105,9.8538161"
         style="fill:#231f20;fill-rule:nonzero;stroke:none"
         id="path78794" />
      <path
         d="M 1056.0504,156.3193 L 1055.7746,156.3193 L 1039.5007,219.76012 L 1023.0888,219.76012 L 1051.4993,114.1174 L 1087.2192,190.38423 L 1122.8012,114.1174 L 1151.2116,219.76012 L 1134.7998,219.76012 L 1118.5258,156.3193 L 1118.25,156.3193 L 1087.2192,221.8289 L 1056.0504,156.3193"
         style="fill:#94add3;fill-rule:nonzero;stroke:none"
         id="path78796" />
      <path
         d="M 1056.0504,156.3193 L 1055.7746,156.3193 L 1039.5007,219.76012 L 1023.0888,219.76012 L 1051.4993,114.1174 L 1087.2192,190.38423 L 1122.8012,114.1174 L 1151.2116,219.76012 L 1134.7998,219.76012 L 1118.5258,156.3193 L 1118.25,156.3193 L 1087.2192,221.8289 L 1056.0504,156.3193"
         style="fill:#231f20;fill-rule:nonzero;stroke:none"
         id="path78798" />
      <path
         d="M 1065.1528,294.37201 L 1064.877,294.37201 L 1048.6031,357.81283 L 1032.0532,357.81283 L 1060.7395,252.0322 L 1096.3216,328.43694 L 1131.9036,252.0322 L 1160.314,357.81283 L 1143.7643,357.81283 L 1127.7661,294.37201 L 1127.3524,294.37201 L 1096.3216,360.01951 L 1065.1528,294.37201"
         style="fill:#94add3;fill-rule:nonzero;stroke:none"
         id="path78800" />
      <path
         d="M 1065.1528,294.37201 L 1064.877,294.37201 L 1048.6031,357.81283 L 1032.0532,357.81283 L 1060.7395,252.0322 L 1096.3216,328.43694 L 1131.9036,252.0322 L 1160.314,357.81283 L 1143.7643,357.81283 L 1127.7661,294.37201 L 1127.3524,294.37201 L 1096.3216,360.01951 L 1065.1528,294.37201"
         style="fill:#231f20;fill-rule:nonzero;stroke:none"
         id="path78802" />
      <path
         d="M 870.55504,357.67492 L 839.93791,314.78339 L 828.62894,314.78339 L 828.62894,357.67492 L 812.2171,357.67492 L 812.2171,256.30754 L 839.66211,256.30754 C 848.76452,256.30754 859.52188,256.44544 867.93465,260.99671 C 876.62324,265.96156 881.58821,275.47768 881.58821,285.26972 C 881.58821,299.75069 871.65838,311.74929 856.62568,313.68016 L 889.44937,357.67492 L 870.55504,357.67492 M 828.62894,301.54366 L 836.49011,301.54366 C 849.72984,301.54366 865.31426,301.81946 865.31426,285.68342 C 865.31426,269.96109 848.48871,270.2369 835.80048,270.2369 L 828.62894,270.2369 L 828.62894,301.54366"
         style="fill:#94add3;fill-rule:nonzero;stroke:none"
         id="path78804" />
      <path
         d="M 870.55504,357.67492 L 839.93791,314.78339 L 828.62894,314.78339 L 828.62894,357.67492 L 812.2171,357.67492 L 812.2171,256.30754 L 839.66211,256.30754 C 848.76452,256.30754 859.52188,256.44544 867.93465,260.99671 C 876.62324,265.96156 881.58821,275.47768 881.58821,285.26972 C 881.58821,299.75069 871.65838,311.74929 856.62568,313.68016 L 889.44937,357.67492 L 870.55504,357.67492 M 828.62894,301.54366 L 836.49011,301.54366 C 849.72984,301.54366 865.31426,301.81946 865.31426,285.68342 C 865.31426,269.96109 848.48871,270.2369 835.80048,270.2369 L 828.62894,270.2369 L 828.62894,301.54366"
         style="fill:#231f20;fill-rule:nonzero;stroke:none"
         id="path78806" />
      <path
         d="M 927.37594,81.845316 L 896.89671,38.953779 L 885.58774,38.953779 L 885.58774,81.845316 L 869.03799,81.845316 L 869.03799,-19.522069 L 896.483,-19.522069 C 905.72332,-19.522069 916.61858,-19.384166 924.75555,-14.832904 C 933.44413,-9.8680493 938.4091,-0.2140293 938.4091,9.4401074 C 938.4091,23.921079 928.47928,36.057585 913.44658,37.712536 L 946.27027,81.845316 L 927.37594,81.845316 M 885.58774,25.851953 L 893.311,25.851953 C 906.55073,25.851953 922.27306,25.989856 922.27306,9.991719 C 922.27306,-6.0064179 905.44751,-5.5927092 892.62137,-5.5927092 L 885.58774,-5.5927092 L 885.58774,25.851953"
         style="fill:#94add3;fill-rule:nonzero;stroke:none"
         id="path78808" />
      <path
         d="M 927.37594,81.845316 L 896.89671,38.953779 L 885.58774,38.953779 L 885.58774,81.845316 L 869.03799,81.845316 L 869.03799,-19.522069 L 896.483,-19.522069 C 905.72332,-19.522069 916.61858,-19.384166 924.75555,-14.832904 C 933.44413,-9.8680493 938.4091,-0.2140293 938.4091,9.4401074 C 938.4091,23.921079 928.47928,36.057585 913.44658,37.712536 L 946.27027,81.845316 L 927.37594,81.845316 M 885.58774,25.851953 L 893.311,25.851953 C 906.55073,25.851953 922.27306,25.989856 922.27306,9.991719 C 922.27306,-6.0064179 905.44751,-5.5927092 892.62137,-5.5927092 L 885.58774,-5.5927092 L 885.58774,25.851953"
         style="fill:#231f20;fill-rule:nonzero;stroke:none"
         id="path78810" />
      <path
         d="M 1074.2551,81.845316 L 1074.2551,-19.522069 L 1102.114,-19.522069 C 1133.9723,-19.522069 1160.4519,-3.6618352 1160.4519,30.678905 C 1160.4519,65.709276 1134.524,81.845316 1101.7003,81.845316 L 1074.2551,81.845316 M 1090.9429,67.64015 L 1100.5969,67.64015 C 1122.8012,67.64015 1143.7643,59.503178 1143.7643,30.678905 C 1143.7643,1.5789419 1122.8012,-5.5927092 1100.5969,-5.5927092 L 1090.9429,-5.5927092 L 1090.9429,67.64015"
         style="fill:#94add3;fill-rule:nonzero;stroke:none"
         id="path78812" />
      <path
         d="M 1074.2551,81.845316 L 1074.2551,-19.522069 L 1102.114,-19.522069 C 1133.9723,-19.522069 1160.4519,-3.6618352 1160.4519,30.678905 C 1160.4519,65.709276 1134.524,81.845316 1101.7003,81.845316 L 1074.2551,81.845316 M 1090.9429,67.64015 L 1100.5969,67.64015 C 1122.8012,67.64015 1143.7643,59.503178 1143.7643,30.678905 C 1143.7643,1.5789419 1122.8012,-5.5927092 1100.5969,-5.5927092 L 1090.9429,-5.5927092 L 1090.9429,67.64015"
         style="fill:#231f20;fill-rule:nonzero;stroke:none"
         id="path78814" />
      <path
         d="M 1242.3734,168.86951 C 1242.3734,139.90745 1266.9222,116.04815 1296.7118,116.04815 C 1306.5037,116.04815 1315.744,118.66854 1323.7431,123.0819 L 1315.1924,135.21841 C 1310.0895,132.59802 1303.8833,130.94295 1296.7118,130.94295 C 1272.3009,130.94295 1258.9231,149.00986 1258.9231,168.86951 C 1258.9231,189.69472 1274.2316,206.7962 1296.7118,206.7962 C 1303.6075,206.7962 1309.9516,205.14113 1315.1924,202.38284 L 1323.881,214.79515 C 1315.8819,219.20851 1306.6416,221.69099 1296.7118,221.69099 C 1266.7843,221.69099 1242.3734,198.93503 1242.3734,168.86951"
         style="fill:#94add3;fill-rule:nonzero;stroke:none"
         id="path78816" />
      <path
         d="M 1242.3734,168.86951 C 1242.3734,139.90745 1266.9222,116.04815 1296.7118,116.04815 C 1306.5037,116.04815 1315.744,118.66854 1323.7431,123.0819 L 1315.1924,135.21841 C 1310.0895,132.59802 1303.8833,130.94295 1296.7118,130.94295 C 1272.3009,130.94295 1258.9231,149.00986 1258.9231,168.86951 C 1258.9231,189.69472 1274.2316,206.7962 1296.7118,206.7962 C 1303.6075,206.7962 1309.9516,205.14113 1315.1924,202.38284 L 1323.881,214.79515 C 1315.8819,219.20851 1306.6416,221.69099 1296.7118,221.69099 C 1266.7843,221.69099 1242.3734,198.93503 1242.3734,168.86951"
         style="fill:#231f20;fill-rule:nonzero;stroke:none"
         id="path78818" />
      <path
         d="M 529.21584,168.86951 C 529.21584,139.90745 553.76477,116.04815 583.55436,116.04815 C 593.20838,116.04815 602.5866,118.66854 610.44765,123.0819 L 602.03487,135.21841 C 596.79409,132.59802 590.588,130.94295 583.55436,130.94295 C 559.14345,130.94295 545.6278,149.00986 545.6278,168.86951 C 545.6278,189.69472 561.07421,206.7962 583.55436,206.7962 C 590.31219,206.7962 596.65619,205.14113 602.03487,202.38284 L 610.72357,214.79515 C 602.5866,219.20851 593.48419,221.69099 583.55436,221.69099 C 553.48885,221.69099 529.21584,198.93503 529.21584,168.86951"
         style="fill:#94add3;fill-rule:nonzero;stroke:none"
         id="path78820" />
      <path
         d="M 529.21584,168.86951 C 529.21584,139.90745 553.76477,116.04815 583.55436,116.04815 C 593.20838,116.04815 602.5866,118.66854 610.44765,123.0819 L 602.03487,135.21841 C 596.79409,132.59802 590.588,130.94295 583.55436,130.94295 C 559.14345,130.94295 545.6278,149.00986 545.6278,168.86951 C 545.6278,189.69472 561.07421,206.7962 583.55436,206.7962 C 590.31219,206.7962 596.65619,205.14113 602.03487,202.38284 L 610.72357,214.79515 C 602.5866,219.20851 593.48419,221.69099 583.55436,221.69099 C 553.48885,221.69099 529.21584,198.93503 529.21584,168.86951"
         style="fill:#231f20;fill-rule:nonzero;stroke:none"
         id="path78822" />
      <path
         d="M 1147.488,421.52945 C 1097.7007,462.07641 1034.6736,484.41866 969.57784,484.41866 C 895.37966,484.41866 825.59484,456.14611 773.04929,404.8418 C 720.50373,353.53749 691.54155,285.40762 691.54155,212.86439 C 691.54155,156.73301 708.91884,102.94633 741.74265,57.158596 C 773.87671,12.474205 818.28529,-21.452827 870.27924,-40.898886 L 868.34836,-46.001643 C 815.25119,-26.279895 769.87717,8.3367675 737.19138,53.986596 C 703.67806,100.73965 686.02497,155.62979 686.02497,212.86439 C 686.02497,286.92467 715.53876,356.43368 769.04975,408.70343 C 822.56063,461.11109 893.86262,489.93524 969.57784,489.93524 C 1036.0528,489.93524 1100.3211,467.17928 1151.2116,425.66689 L 1147.488,421.52945"
         style="fill:#2a529e;fill-rule:nonzero;stroke:none"
         id="path78824" />
      <path
         d="M 892.89718,168.86951 C 892.89718,139.90745 917.58402,116.04815 947.23571,116.04815 C 977.0253,116.04815 1001.712,139.90745 1001.712,168.86951 C 1001.712,198.93503 977.30111,221.69099 947.23571,221.69099 C 917.30809,221.69099 892.89718,198.93503 892.89718,168.86951 M 909.44704,168.86951 C 909.44704,189.69472 924.89345,206.7962 947.23571,206.7962 C 969.71575,206.7962 985.02425,189.69472 985.02425,168.86951 C 985.02425,149.00986 971.64662,130.94295 947.23571,130.94295 C 922.82468,130.94295 909.44704,149.00986 909.44704,168.86951"
         style="fill:#94add3;fill-rule:nonzero;stroke:none"
         id="path78826" />
      <path
         d="M 892.89718,168.86951 C 892.89718,139.90745 917.58402,116.04815 947.23571,116.04815 C 977.0253,116.04815 1001.712,139.90745 1001.712,168.86951 C 1001.712,198.93503 977.30111,221.69099 947.23571,221.69099 C 917.30809,221.69099 892.89718,198.93503 892.89718,168.86951 M 909.44704,168.86951 C 909.44704,189.69472 924.89345,206.7962 947.23571,206.7962 C 969.71575,206.7962 985.02425,189.69472 985.02425,168.86951 C 985.02425,149.00986 971.64662,130.94295 947.23571,130.94295 C 922.82468,130.94295 909.44704,149.00986 909.44704,168.86951"
         style="fill:#231f20;fill-rule:nonzero;stroke:none"
         id="path78828" />
    </g>
  </g>
</svg>
