<?xml version="1.0" encoding="UTF-8" standalone="no"?><!DOCTYPE svg PUBLIC "-//W3C//DTD SVG 1.1//EN" "http://www.w3.org/Graphics/SVG/1.1/DTD/svg11.dtd"><svg width="100%" height="100%" viewBox="0 0 512 512" version="1.1" xmlns="http://www.w3.org/2000/svg" xmlns:xlink="http://www.w3.org/1999/xlink" xml:space="preserve" style="fill-rule:evenodd;clip-rule:evenodd;stroke-linejoin:round;stroke-miterlimit:1.41421;"><path id="path53690" d="M491.788,208.813c0,-5.648 -4.594,-10.226 -10.233,-10.226c-5.654,0 -10.248,4.578 -10.248,10.226l0,21.511c0,5.679 4.594,10.259 10.248,10.259c5.639,0 10.233,-4.58 10.233,-10.259l0,-21.511Zm-56.299,-28.233c0,-5.646 -4.58,-10.233 -10.361,-10.233c-5.655,0 -10.235,4.587 -10.235,10.233l0,49.744c0,5.679 4.58,10.259 10.235,10.259c5.781,0 10.361,-4.58 10.361,-10.259l0,-49.744Zm-56.414,-38.626c0,-5.648 -4.581,-10.228 -10.233,-10.228c-5.655,0 -10.235,4.58 -10.235,10.228l0,108.812c0,5.68 4.58,10.259 10.235,10.259c5.652,0 10.233,-4.579 10.233,-10.259l0,-108.812Zm-56.428,38.626c0,-5.646 -4.578,-10.233 -10.233,-10.233c-5.641,0 -10.234,4.587 -10.234,10.233l0,49.744c0,5.679 4.593,10.259 10.234,10.259c5.655,0 10.233,-4.58 10.233,-10.259l0,-49.744Zm-56.414,28.233c0,-5.648 -4.578,-10.226 -10.2,-10.226c-5.655,0 -10.266,4.578 -10.266,10.226l0,21.511c0,5.679 4.611,10.259 10.266,10.259c5.622,0 10.2,-4.58 10.2,-10.259l0,-21.511Zm-56.323,-28.233c0,-5.646 -4.613,-10.233 -10.266,-10.233c-5.654,0 -10.267,4.587 -10.267,10.233l0,49.744c0,5.679 4.613,10.259 10.267,10.259c5.653,0 10.266,-4.58 10.266,-10.259l0,-49.744Zm-56.388,-38.626c0,-5.648 -4.613,-10.228 -10.268,-10.228c-5.652,0 -10.265,4.58 -10.265,10.228l0,108.812c0,5.68 4.613,10.259 10.265,10.259c5.655,0 10.268,-4.579 10.268,-10.259l0,-108.812Zm-56.391,38.626c0,-5.646 -4.611,-10.233 -10.265,-10.233c-5.655,0 -10.266,4.587 -10.266,10.233l0,49.744c0,5.679 4.611,10.259 10.266,10.259c5.654,0 10.265,-4.58 10.265,-10.259l0,-49.744Zm-56.388,28.233c0,-5.648 -4.611,-10.226 -10.265,-10.226c-5.648,0 -10.266,4.578 -10.266,10.226l0,21.511c0,5.679 4.618,10.259 10.266,10.259c5.654,0 10.265,-4.58 10.265,-10.259l0,-21.511Zm211.939,89.195c-0.616,-0.168 -10.089,-2.611 -20.156,-2.611c-19.06,0 -30.535,10.292 -30.535,25.618c0,13.567 9.6,20.333 21.121,23.972c1.277,0.421 3.159,1.011 4.412,1.426c5.129,1.613 9.222,4.01 9.222,8.163c0,4.643 -4.731,7.65 -15.016,7.65c-9.039,0 -17.704,-2.585 -19.529,-3.046l0,18.857c1.017,0.216 11.316,2.237 22.317,2.237c15.824,0 33.925,-6.914 33.925,-27.497c0,-9.984 -6.113,-19.175 -19.533,-23.441l-5.705,-1.817c-3.404,-1.074 -9.48,-2.814 -9.48,-7.803c0,-3.94 4.502,-6.715 12.792,-6.715c7.152,0 15.857,2.403 16.165,2.499l0,-17.492Zm174.747,39.829c0,11.923 -9.133,21.568 -21.387,21.568c-12.268,0 -21.376,-9.645 -21.376,-21.568c0,-11.899 9.108,-21.548 21.376,-21.548c12.254,0 21.387,9.649 21.387,21.548m-21.387,-42.413c-25.203,0 -43.278,19.009 -43.278,42.413c0,23.441 18.075,42.437 43.278,42.437c25.201,0 43.302,-18.996 43.302,-42.437c0,-23.404 -18.101,-42.413 -43.302,-42.413m-280.882,2.936c-1.944,-0.576 -9.126,-2.936 -18.855,-2.936c-25.164,0 -43.636,17.941 -43.636,42.413c0,26.402 20.391,42.437 43.636,42.437c9.235,0 16.285,-2.187 18.855,-2.916l0,-21.996c-0.889,0.493 -7.648,4.349 -17.372,4.349c-13.777,0 -22.662,-9.696 -22.662,-21.874c0,-12.549 9.27,-21.856 22.662,-21.856c9.89,0 16.54,3.94 17.372,4.375l0,-21.996Zm215.833,0c-1.959,-0.576 -9.148,-2.936 -18.844,-2.936c-25.2,0 -43.673,17.941 -43.673,42.413c0,26.402 20.416,42.437 43.673,42.437c9.185,0 16.246,-2.187 18.844,-2.916l0,-21.996c-0.908,0.493 -7.676,4.349 -17.398,4.349c-13.765,0 -22.642,-9.696 -22.642,-21.874c0,-12.549 9.274,-21.856 22.642,-21.856c9.888,0 16.553,3.94 17.398,4.375l0,-21.996Zm-166.731,80.456l-20.679,0l0,-81.941l20.679,0l0,81.941Z" style="fill:#049fd9;fill-rule:nonzero;"/></svg>