<?xml version="1.0" encoding="UTF-8" standalone="no"?><!DOCTYPE svg PUBLIC "-//W3C//DTD SVG 1.1//EN" "http://www.w3.org/Graphics/SVG/1.1/DTD/svg11.dtd"><svg width="100%" height="100%" viewBox="0 0 512 512" version="1.1" xmlns="http://www.w3.org/2000/svg" xmlns:xlink="http://www.w3.org/1999/xlink" xml:space="preserve" style="fill-rule:evenodd;clip-rule:evenodd;stroke-linejoin:round;stroke-miterlimit:1.41421;"><g><path d="M124.595,353.912l0,-24.068c0,-3.163 1.977,-5.703 5.251,-5.703l0.906,0c3.273,0 5.241,2.543 5.241,5.703l0,50.671c0,12.356 -6.104,22.188 -16.742,28.451c-4.873,2.887 -10.437,4.405 -16.1,4.391l-2.261,0c-12.359,0 -22.178,-6.109 -28.452,-16.739c-2.891,-4.873 -4.408,-10.438 -4.389,-16.103l0,-2.258c0,-12.361 6.107,-22.187 16.736,-28.462c4.872,-2.893 10.439,-4.411 16.105,-4.391l2.261,0c8.364,0 15.46,3.242 21.444,8.508l0,0Zm-45.149,25.471c0,8.926 4.326,15.637 12.147,19.918c3.163,1.729 6.596,2.659 10.204,2.659c8.762,0 15.26,-4.133 19.742,-11.557c2.085,-3.454 3.056,-7.233 3.056,-11.25c0,-7.738 -3.663,-13.776 -9.899,-18.261c-3.78,-2.719 -8.036,-4.082 -12.677,-4.082c-9.549,0 -16.422,4.825 -20.546,13.395c-1.392,2.897 -2.027,5.973 -2.027,9.178l0,0Zm96.09,-33.979l1.58,0c13.206,0 23.25,6.406 29.615,17.934c2.545,4.612 3.907,9.645 3.907,14.919l0,2.258c0,12.356 -6.093,22.201 -16.747,28.453c-4.932,2.893 -10.381,4.389 -16.097,4.389l-2.258,0c-12.359,0 -22.181,-6.109 -28.452,-16.739c-2.892,-4.872 -4.411,-10.438 -4.393,-16.103l0,-2.258c0,-12.362 6.132,-22.156 16.735,-28.459c4.929,-2.929 10.382,-4.394 16.11,-4.394Zm-21.447,33.979c0,8.665 4.251,15.038 11.57,19.52c3.436,2.104 7.221,3.057 11.235,3.057c8.561,0 14.889,-4.341 19.293,-11.566c2.101,-3.445 3.051,-7.23 3.051,-11.241c0,-8.057 -3.88,-14.212 -10.514,-18.672c-3.635,-2.446 -7.682,-3.671 -12.06,-3.671c-9.549,0 -16.422,4.825 -20.545,13.395c-1.394,2.897 -2.03,5.973 -2.03,9.178l0,0Zm103.934,-21.663c-1.721,-0.806 -4.943,-1.073 -6.802,-1.144c-9.523,-0.359 -16.413,5.004 -20.455,13.405c-1.396,2.898 -2.033,5.965 -2.033,9.172c0,9.762 5.126,16.598 13.84,20.765c3.183,1.521 7.293,1.81 10.772,1.81c3.06,0 7.385,-1.874 10.1,-3.164l0.471,-0.224l2.108,0l0.232,0.047c2.592,0.54 4.548,2.183 4.548,4.972l0,1.128c0,6.94 -12.683,8.529 -17.522,8.867c-17.078,1.182 -29.851,-8.197 -34.72,-24.487c-0.845,-2.829 -1.226,-5.638 -1.226,-8.586l0,-2.255c0,-12.361 6.134,-22.152 16.735,-28.449c4.929,-2.927 10.381,-4.398 16.107,-4.398l2.26,0c6.075,0 11.67,1.725 16.686,5.151l0.412,0.285l0.261,0.43c0.541,0.897 1.007,1.936 1.007,3.004l0,1.128c0,2.91 -2.177,4.475 -4.804,4.981l-0.218,0.038l-0.673,0c-1.701,0 -5.568,-1.761 -7.086,-2.476l0,0Zm36.972,7.719c4.427,-4.434 8.87,-8.859 13.363,-13.219c1.252,-1.216 5.993,-6.365 7.86,-6.365l2.042,0l0.232,0.049c2.601,0.54 4.548,2.186 4.548,4.981l0,1.126c0,1.907 -2.233,4.122 -3.464,5.427c-2.618,2.776 -5.375,5.46 -8.055,8.179l-13.771,13.98c5.929,5.943 11.853,11.89 17.734,17.878c1.631,1.653 3.25,3.318 4.856,4.996c0.566,0.595 1.401,1.337 1.877,2.162c0.51,0.774 0.823,1.646 0.823,2.577l0,1.177l-0.066,0.272c-0.64,2.601 -2.29,4.698 -5.172,4.698l-0.907,0c-1.886,0 -4.016,-2.133 -5.308,-3.352c-2.662,-2.51 -5.232,-5.149 -7.842,-7.712l-8.75,-8.591l0,13.73c0,3.163 -1.98,5.705 -5.25,5.705l-0.898,0c-3.274,0 -5.251,-2.542 -5.251,-5.705l0,-77.368c0,-3.162 1.978,-5.692 5.251,-5.692l0.898,0c3.27,0 5.25,2.53 5.25,5.692l0,35.375Zm142.063,-19.584l1.132,0c3.419,0 5.7,2.304 5.7,5.703c0,4.719 -4.511,5.927 -8.414,5.927c-5.119,0 -10.007,3.099 -13.536,6.575c-4.399,4.338 -6.325,9.894 -6.325,16.002l0,27.594c0,3.162 -1.975,5.701 -5.251,5.701l-0.901,0c-3.275,0 -5.25,-2.537 -5.25,-5.701l0,-29.179c0,-11.204 5.455,-20.351 14.548,-26.766c5.43,-3.832 11.649,-5.854 18.297,-5.854l0,-0.002Zm-81.013,54.686c4.148,1.449 8.877,1.241 13.133,0.5c2.177,-0.926 7.743,-3.354 9.79,-2.998l0.32,0.054l0.294,0.144c1.25,0.607 2.443,1.464 3.082,2.736c1.491,2.982 0.775,5.98 -2.155,7.673l-0.976,0.564c-10.811,6.239 -22.311,5.374 -33.089,-0.454c-5.153,-2.786 -9.095,-6.921 -12.004,-11.962l-0.679,-1.178c-6.942,-12.021 -6.005,-24.665 1.824,-36.096c2.702,-3.951 6.234,-7.004 10.363,-9.391l1.562,-0.902c10.182,-5.878 21.095,-5.475 31.553,-0.316c5.623,2.774 10.179,6.909 13.318,12.347l0.565,0.98c2.28,3.951 -0.674,7.393 -3.723,9.747c-3.539,2.73 -7.112,6.016 -10.505,8.943c-7.563,6.53 -15.115,13.075 -22.673,19.609l0,0Zm-9.79,-6.876c8.458,-7.252 16.92,-14.511 25.356,-21.794c2.883,-2.486 6.044,-5.066 8.904,-7.68c-2.295,-2.892 -6.129,-4.976 -9.385,-6.219c-6.576,-2.505 -13.058,-1.664 -19.088,1.817c-7.892,4.557 -11.253,11.813 -10.959,20.843c0.118,3.557 1.074,6.985 2.961,10.01c0.665,1.067 1.408,2.069 2.211,3.023Zm-61.513,-228.409l33.635,0l0,34.384l17.006,0c7.855,0 15.933,-1.399 23.37,-3.919c3.655,-1.24 7.756,-2.964 11.362,-5.134c-4.749,-6.198 -7.173,-14.025 -7.885,-21.741c-0.971,-10.495 1.148,-24.155 8.249,-32.369l3.537,-4.089l4.213,3.388c10.607,8.521 19.528,20.43 21.101,34.006c12.772,-3.757 27.769,-2.869 39.026,3.629l4.619,2.665l-2.43,4.746c-9.521,18.581 -29.428,24.338 -48.889,23.319c-29.121,72.533 -92.522,106.871 -169.394,106.871c-39.717,0 -76.153,-14.846 -96.902,-50.082l-0.34,-0.574l-3.023,-6.152c-7.014,-15.51 -9.344,-32.501 -7.764,-49.479l0.475,-5.085l28.764,0l0,-34.384l33.634,0l0,-33.636l67.272,0l0,-33.635l40.364,0l0,67.271" style="fill:#364548;"/><path d="M393.715,177.977c2.255,-17.529 -10.862,-31.295 -18.996,-37.832c-9.375,10.838 -10.831,39.242 3.876,51.201c-8.208,7.291 -25.503,13.898 -43.212,13.898l-215.565,0c-1.721,18.486 1.524,35.51 8.937,50.08l2.452,4.486c1.552,2.634 3.249,5.179 5.082,7.626c8.863,0.569 17.034,0.765 24.509,0.6l0.003,0c14.691,-0.324 26.678,-2.059 35.763,-5.207c0.249,-0.078 0.508,-0.117 0.769,-0.117c1.421,0 2.591,1.169 2.591,2.59c0,1.071 -0.664,2.036 -1.664,2.419c-1.209,0.421 -2.468,0.812 -3.769,1.184l-0.004,0c-7.154,2.044 -14.825,3.418 -24.721,4.028c0.588,0.01 -0.612,0.088 -0.615,0.088c-0.337,0.022 -0.761,0.071 -1.099,0.088c-3.895,0.22 -8.099,0.265 -12.398,0.265c-4.701,0 -9.33,-0.088 -14.506,-0.353l-0.133,0.088c17.961,20.188 46.045,32.296 81.248,32.296c74.503,0 137.696,-33.027 165.68,-107.171c19.852,2.037 38.932,-3.026 47.611,-19.969c-13.824,-7.977 -31.602,-5.434 -41.839,-0.288" style="fill:#22a0c8;"/><path d="M393.715,177.977c2.255,-17.529 -10.862,-31.295 -18.996,-37.832c-9.375,10.838 -10.831,39.242 3.876,51.201c-8.208,7.291 -25.503,13.898 -43.212,13.898l-202.799,0c-0.88,28.311 9.626,49.8 28.213,62.792l0.004,0c14.691,-0.324 26.678,-2.059 35.763,-5.207c0.249,-0.078 0.508,-0.117 0.769,-0.117c1.421,0 2.591,1.169 2.591,2.59c0,1.071 -0.664,2.036 -1.664,2.419c-1.209,0.421 -2.468,0.812 -3.769,1.184l-0.004,0c-7.154,2.044 -15.484,3.594 -25.38,4.204c-0.003,0 -0.24,-0.228 -0.243,-0.228c25.355,13.007 62.119,12.96 104.27,-3.231c47.263,-18.158 91.244,-52.75 121.93,-92.315c-0.462,0.209 -0.912,0.423 -1.349,0.642" style="fill:#37b1d9;"/><path d="M120.223,227.705c1.338,9.902 4.236,19.174 8.532,27.619l2.452,4.486c1.552,2.634 3.249,5.18 5.082,7.626c8.864,0.569 17.035,0.765 24.512,0.6c14.691,-0.324 26.678,-2.059 35.763,-5.207c0.249,-0.078 0.508,-0.117 0.769,-0.117c1.421,0 2.591,1.169 2.591,2.59c0,1.071 -0.664,2.036 -1.664,2.419c-1.209,0.421 -2.468,0.812 -3.769,1.184l-0.004,0c-7.154,2.044 -15.44,3.506 -25.336,4.118c-0.34,0.02 -0.933,0.025 -1.276,0.044c-3.892,0.218 -8.053,0.351 -12.353,0.351c-4.7,0 -9.507,-0.089 -14.68,-0.353c17.96,20.188 46.218,32.34 81.421,32.34c63.782,0 119.273,-24.21 151.481,-77.7l-253.521,0" style="fill:#1b81a5;"/><path d="M134.524,227.705c3.813,17.387 12.975,31.036 26.277,40.331c14.691,-0.324 26.678,-2.059 35.763,-5.207c0.249,-0.078 0.508,-0.117 0.769,-0.117c1.421,0 2.591,1.169 2.591,2.59c0,1.071 -0.664,2.036 -1.664,2.419c-1.209,0.421 -2.468,0.812 -3.769,1.184l-0.004,0c-7.154,2.044 -15.615,3.506 -25.513,4.118c25.354,13.003 62.012,12.816 104.16,-3.373c25.498,-9.797 50.039,-24.38 72.055,-41.945l-210.665,0" style="fill:#1d91b4;"/><path d="M149.076,170.862l29.152,0l0,29.151l-29.152,0l0,-29.151Zm2.429,2.43l2.3,0l0,24.293l-2.3,0l0,-24.293Zm4.324,0l2.394,0l0,24.293l-2.392,0l0,-24.293l-0.002,0Zm4.416,0l2.394,0l0,24.293l-2.394,0l0,-24.293Zm4.419,0l2.392,0l0,24.293l-2.392,0l0,-24.293Zm4.418,0l2.391,0l0,24.293l-2.391,0l0,-24.293Zm4.415,0l2.302,0l0,24.293l-2.302,0l0,-24.293Zm9.215,-36.066l29.153,0l0,29.151l-29.155,0l0,-29.151l0.002,0Zm2.43,2.43l2.299,0l0,24.292l-2.299,0l0,-24.292Zm4.324,0l2.392,0l0,24.292l-2.39,0l0,-24.292l-0.002,0Zm4.416,0l2.392,0l0,24.292l-2.392,0l0,-24.292Zm4.418,0l2.391,0l0,24.292l-2.391,0l0,-24.292Zm4.417,0l2.393,0l0,24.292l-2.393,0l0,-24.292Zm4.416,0l2.303,0l0,24.292l-2.303,0l0,-24.292Z" style="fill:#23a3c2;"/><path d="M182.712,170.862l29.153,0l0,29.151l-29.155,0l0,-29.151l0.002,0Zm2.43,2.43l2.299,0l0,24.293l-2.299,0l0,-24.293Zm4.324,0l2.392,0l0,24.293l-2.39,0l0,-24.293l-0.002,0Zm4.416,0l2.392,0l0,24.293l-2.392,0l0,-24.293Zm4.418,0l2.391,0l0,24.293l-2.391,0l0,-24.293Zm4.417,0l2.393,0l0,24.293l-2.393,0l0,-24.293Zm4.416,0l2.303,0l0,24.293l-2.303,0l0,-24.293Z" style="fill:#34bbde;"/><path d="M216.349,170.862l29.151,0l0,29.151l-29.151,0l0,-29.151Zm2.428,2.43l2.299,0l0,24.293l-2.299,0l0,-24.293Zm4.325,0l2.392,0l0,24.293l-2.392,0l0,-24.293Zm4.417,0l2.392,0l0,24.293l-2.392,0l0,-24.293Zm4.418,0l2.391,0l0,24.293l-2.391,0l0,-24.293Zm4.415,0l2.395,0l0,24.293l-2.395,0l0,-24.293Zm4.418,0l2.3,0l0,24.293l-2.3,0l0,-24.293l0,0Z" style="fill:#23a3c2;"/><path d="M216.349,137.226l29.151,0l0,29.151l-29.151,0l0,-29.151Zm2.428,2.43l2.299,0l0,24.292l-2.299,0l0,-24.292Zm4.325,0l2.392,0l0,24.292l-2.392,0l0,-24.292Zm4.417,0l2.392,0l0,24.292l-2.392,0l0,-24.292Zm4.418,0l2.391,0l0,24.292l-2.391,0l0,-24.292Zm4.415,0l2.395,0l0,24.292l-2.395,0l0,-24.292Zm4.418,0l2.3,0l0,24.292l-2.3,0l0,-24.292l0,0Zm9.214,31.206l29.152,0l0,29.151l-29.152,0l0,-29.151Zm2.43,2.43l2.299,0l0,24.293l-2.299,0l0,-24.293Zm4.325,0l2.392,0l0,24.293l-2.392,0l0,-24.293Zm4.416,0l2.391,0l0,24.293l-2.391,0l0,-24.293Zm4.417,0l2.393,0l0,24.293l-2.393,0l0,-24.293Zm4.417,0l2.394,0l0,24.293l-2.394,0l0,-24.293Zm4.418,0l2.3,0l0,24.293l-2.3,0l0,-24.293Z" style="fill:#34bbde;"/><path d="M249.984,137.226l29.152,0l0,29.151l-29.152,0l0,-29.151Zm2.43,2.43l2.299,0l0,24.292l-2.299,0l0,-24.292Zm4.325,0l2.392,0l0,24.292l-2.392,0l0,-24.292Zm4.416,0l2.391,0l0,24.292l-2.391,0l0,-24.292Zm4.417,0l2.393,0l0,24.292l-2.393,0l0,-24.292Zm4.417,0l2.394,0l0,24.292l-2.394,0l0,-24.292Zm4.418,0l2.3,0l0,24.292l-2.3,0l0,-24.292Z" style="fill:#23a3c2;"/><path d="M249.984,103.589l29.152,0l0,29.155l-29.152,0l0,-29.155Zm2.43,2.429l2.299,0l0,24.294l-2.299,0l0,-24.296l0,0.002Zm4.325,0l2.392,0l0,24.294l-2.392,0l0,-24.296l0,0.002Zm4.416,0l2.391,0l0,24.294l-2.391,0l0,-24.296l0,0.002Zm4.417,0l2.393,0l0,24.294l-2.393,0l0,-24.296l0,0.002Zm4.417,0l2.394,0l0,24.294l-2.394,0l0,-24.296l0,0.002Zm4.418,0l2.3,0l0,24.294l-2.3,0l0,-24.296l0,0.002Z" style="fill:#34bbde;"/><path d="M283.619,170.862l29.152,0l0,29.151l-29.152,0l0,-29.151Zm2.428,2.43l2.302,0l0,24.293l-2.301,0l0,-24.293l-0.001,0Zm4.324,0l2.394,0l0,24.293l-2.392,0l0,-24.293l-0.002,0Zm4.419,0l2.393,0l0,24.293l-2.393,0l0,-24.293Zm4.416,0l2.393,0l0,24.293l-2.393,0l0,-24.293Zm4.419,0l2.392,0l0,24.293l-2.392,0l0,-24.293Zm4.416,0l2.3,0l0,24.293l-2.3,0l0,-24.293Z" style="fill:#23a3c2;"/><path d="M210.04,247.278c0.035,-0.001 0.071,-0.001 0.107,-0.001c4.412,0 8.043,3.631 8.043,8.043c0,4.413 -3.631,8.044 -8.043,8.044c-0.037,0 -0.074,-0.001 -0.11,-0.001c-4.371,-0.06 -7.934,-3.672 -7.934,-8.043c0,-4.372 3.565,-7.984 7.937,-8.042" style="fill:#d3ecec;"/><path d="M210.04,249.559c0.735,0 1.437,0.138 2.084,0.39c-0.724,0.42 -1.171,1.196 -1.171,2.033c0,1.287 1.058,2.347 2.345,2.35c0.89,0 1.662,-0.492 2.062,-1.222c0.291,0.7 0.44,1.45 0.44,2.208c0,3.159 -2.6,5.759 -5.759,5.759c-3.159,0 -5.759,-2.6 -5.759,-5.759c0,-3.159 2.599,-5.758 5.758,-5.759m-142.25,-18.948l374.11,0c-8.145,-2.065 -25.772,-4.857 -22.865,-15.533c-14.813,17.14 -50.533,12.025 -59.548,3.574c-10.038,14.56 -68.48,9.025 -72.556,-2.318c-12.586,14.77 -51.583,14.77 -64.169,0c-4.079,11.343 -62.52,16.878 -72.559,2.317c-9.014,8.452 -44.733,13.567 -59.545,-3.572c2.906,10.675 -14.72,13.467 -22.868,15.534" style="fill:#364548;"/><path d="M231.417,305.231c-19.917,-9.451 -30.848,-22.3 -36.93,-36.324c-7.399,2.111 -16.291,3.461 -26.625,4.041c-3.892,0.217 -7.987,0.329 -12.283,0.329c-4.954,0 -10.174,-0.147 -15.655,-0.437c18.265,18.255 40.734,32.309 82.339,32.565c3.072,0 6.12,-0.059 9.154,-0.174" style="fill:#bdd9d7;"/><path d="M201.884,281.849c-2.755,-3.741 -5.428,-8.442 -7.393,-12.945c-7.399,2.114 -16.294,3.464 -26.629,4.045c7.099,3.853 17.25,7.423 34.024,8.9" style="fill:#d3ecec;"/></g></svg>