<?xml version="1.0" encoding="UTF-8" standalone="no"?><!DOCTYPE svg PUBLIC "-//W3C//DTD SVG 1.1//EN" "http://www.w3.org/Graphics/SVG/1.1/DTD/svg11.dtd"><svg width="100%" height="100%" viewBox="0 0 512 512" version="1.1" xmlns="http://www.w3.org/2000/svg" xmlns:xlink="http://www.w3.org/1999/xlink" xml:space="preserve" style="fill-rule:evenodd;clip-rule:evenodd;stroke-linejoin:round;stroke-miterlimit:1.41421;"><path d="M395.7,206.413c0,-23.67 -14.519,-44.365 -36.369,-52.416c0.962,-4.991 1.462,-9.98 1.462,-15.177c0,-44.001 -35.415,-79.8 -78.951,-79.8c-25.43,0 -49.087,12.328 -63.952,33.1c-7.309,-5.732 -16.285,-8.872 -25.649,-8.872c-23.106,0 -41.905,19.003 -41.905,42.359c0,5.16 0.911,10.101 2.62,14.761c-21.721,7.925 -36.658,29.104 -36.658,52.624c0,23.793 14.59,44.581 36.539,52.575c-0.932,4.933 -1.442,10.023 -1.442,15.169c0,43.901 35.332,79.615 78.761,79.615c25.494,0 49.137,-12.379 63.918,-33.237c7.357,5.839 16.354,9.044 25.683,9.044c23.106,0 41.905,-18.995 41.905,-42.352c0,-5.161 -0.912,-10.108 -2.62,-14.769c21.722,-7.917 36.658,-29.103 36.658,-52.624" style="fill:#fff;fill-rule:nonzero;"/><path d="M226.147,180.183l61.136,28.174l61.683,-54.634c0.893,-4.506 1.33,-8.999 1.33,-13.702c0,-38.44 -30.933,-69.713 -68.96,-69.713c-22.75,0 -43.968,11.323 -56.865,30.308l-10.26,53.807l11.936,25.76Z" style="fill:#fdd20b;fill-rule:nonzero;"/><path d="M162.862,245.625c-0.893,4.507 -1.349,9.181 -1.349,13.912c0,38.538 31.022,69.897 69.153,69.897c22.935,0 44.258,-11.428 57.136,-30.61l10.183,-53.625l-13.59,-26.25l-61.379,-28.279l-60.154,54.955l0,0Z" style="fill:#1ebab0;fill-rule:nonzero;"/><path d="M162.475,138.677l41.898,10l9.18,-48.153c-5.725,-4.422 -12.794,-6.843 -20.063,-6.843c-18.208,0 -33.016,14.975 -33.016,33.38c0,4.066 0.671,7.963 2.001,11.616" style="fill:#ef5198;fill-rule:nonzero;"/><path d="M158.838,148.764c-18.719,6.271 -31.734,24.41 -31.734,44.361c0,19.426 11.886,36.774 29.726,43.639l58.783,-53.71l-10.792,-23.309l-45.983,-10.981l0,0Z" style="fill:#17a7e0;fill-rule:nonzero;"/><path d="M298.548,298.823c5.746,4.464 12.779,6.899 19.959,6.899c18.206,0 33.016,-14.968 33.016,-33.373c0,-4.059 -0.673,-7.957 -2.002,-11.609l-41.863,-9.903l-9.11,47.986l0,0Z" style="fill:#92c740;fill-rule:nonzero;"/><path d="M307.066,239.745l46.086,10.896c18.726,-6.257 31.742,-24.402 31.742,-44.36c0,-19.392 -11.915,-36.72 -29.789,-43.563l-60.28,53.381l12.241,23.646Z" style="fill:#087aa1;fill-rule:nonzero;"/><path d="M138.01,415.761c0,-7.78 -1.235,-13.277 -3.702,-16.491c-2.469,-3.213 -6.484,-4.82 -12.046,-4.82c-5.566,0 -9.747,1.692 -12.549,5.073c-2.805,3.384 -4.248,8.796 -4.33,16.238l32.627,0Zm3.388,27.525l3.64,-0.38l0.25,7.484c-9.537,1.351 -17.693,2.03 -24.469,2.03c-9.036,0 -15.436,-2.642 -19.201,-7.928c-3.764,-5.285 -5.646,-13.51 -5.646,-24.672c0,-22.242 8.74,-33.362 26.227,-33.362c8.449,0 14.765,2.39 18.949,7.167c4.183,4.778 6.274,12.285 6.274,22.515l-0.502,7.231l-41.411,0c0,7.021 1.254,12.221 3.765,15.602c2.509,3.383 6.879,5.075 13.112,5.075c6.233,0 12.57,-0.254 19.012,-0.762" style="fill:#231f20;fill-rule:nonzero;"/><rect x="160.546" y="368.439" width="9.412" height="83.49" style="fill:#231f20;"/><path d="M190.578,432.758c0,7.781 3.178,11.67 9.537,11.67c5.688,0 11.294,-0.971 16.815,-2.918l2.887,-1.015l0,-20.929l-18.573,1.775c-3.764,0.339 -6.484,1.439 -8.157,3.298c-1.675,1.862 -2.509,4.566 -2.509,8.119m38.65,-25.877l0,31.994c0,3.169 7.811,3.043 7.811,3.043l-0.48,8.405c-6.611,0 -12.084,0.555 -15.371,-2.658c-7.53,3.382 -15.049,4.755 -22.578,4.755c-5.773,0 -10.166,-1.651 -13.177,-4.948c-3.012,-3.298 -4.519,-8.033 -4.519,-14.207c0,-6.171 1.548,-10.719 4.645,-13.636c3.093,-2.918 7.946,-4.714 14.556,-5.391l19.702,-1.903l0,-5.454c0,-4.313 -0.922,-7.399 -2.761,-9.261c-1.842,-1.858 -4.351,-2.791 -7.529,-2.791l-24.729,0.021l0,-8.392l24.101,0c7.11,0 12.277,1.649 15.498,4.947c3.22,3.298 4.831,8.457 4.831,15.476" style="fill:#231f20;fill-rule:nonzero;"/><path d="M265.961,394.957c-9.119,0 -13.678,3.214 -13.678,9.64c0,2.962 1.044,5.054 3.137,6.279c2.09,1.228 6.859,2.496 14.306,3.806c7.445,1.312 12.716,3.152 15.812,5.518c3.094,2.369 4.643,6.808 4.643,13.319c0,6.513 -2.071,11.289 -6.213,14.333c-4.141,3.045 -10.185,4.568 -18.132,4.568c-5.188,0 -22.499,-1.942 -22.499,-1.942l0.502,-8.245c9.95,0.97 17.144,1.688 21.997,1.688c4.851,0 8.552,-0.782 11.105,-2.347c2.551,-1.564 3.828,-4.186 3.828,-7.865c0,-3.678 -1.088,-6.172 -3.263,-7.483c-2.177,-1.311 -6.946,-2.558 -14.305,-3.743c-7.364,-1.183 -12.593,-2.917 -15.687,-5.201c-3.096,-2.283 -4.643,-6.51 -4.643,-12.685c0,-6.172 2.153,-10.738 6.462,-13.699c4.309,-2.96 9.683,-4.44 16.126,-4.44c5.101,0 22.809,1.312 22.809,1.312l0,8.294c-9.314,-0.429 -16.954,-1.107 -22.307,-1.107" style="fill:#231f20;fill-rule:nonzero;"/><path d="M335.573,395.971l-19.952,0l0,30.317c0,7.275 0.521,12.05 1.568,14.335c1.046,2.283 3.534,3.424 7.467,3.424l11.168,-0.761l0.627,7.864c-5.605,0.93 -9.872,1.396 -12.799,1.396c-6.525,0 -11.044,-1.605 -13.553,-4.82c-2.51,-3.213 -3.764,-9.344 -3.764,-18.393l0,-33.362l-8.91,0l0,-8.245l8.91,0l0,-19.408l9.286,0l0,19.408l19.952,0l0,8.245Z" style="fill:#231f20;fill-rule:nonzero;"/><path d="M348.657,387.726l9.411,0l0,64.204l-9.411,0l0,-64.204Zm0,-19.138l9.411,0l0,11.036l-9.411,0l0,-11.036l0,0Z" style="fill:#231f20;fill-rule:nonzero;"/><path d="M398.836,386.458c2.76,0 7.444,0.508 14.055,1.522l3.011,0.381l-0.377,7.737c-6.693,-0.761 -11.629,-1.141 -14.807,-1.141c-7.112,0 -11.944,1.712 -14.494,5.137c-2.553,3.425 -3.827,9.767 -3.827,19.027c0,9.26 1.191,15.711 3.576,19.345c2.384,3.636 7.342,5.455 14.87,5.455l14.809,-1.142l0.375,7.864c-7.78,1.183 -13.595,1.776 -17.442,1.776c-9.789,0 -16.545,-2.537 -20.267,-7.611c-3.723,-5.074 -5.584,-13.637 -5.584,-25.687c0,-12.051 2.007,-20.507 6.024,-25.37c4.015,-4.861 10.707,-7.293 20.078,-7.293" style="fill:#231f20;fill-rule:nonzero;"/></svg>