<?xml version="1.0" encoding="UTF-8" standalone="no"?><!DOCTYPE svg PUBLIC "-//W3C//DTD SVG 1.1//EN" "http://www.w3.org/Graphics/SVG/1.1/DTD/svg11.dtd"><svg width="100%" height="100%" viewBox="0 0 512 512" version="1.1" xmlns="http://www.w3.org/2000/svg" xmlns:xlink="http://www.w3.org/1999/xlink" xml:space="preserve" style="fill-rule:evenodd;clip-rule:evenodd;stroke-linejoin:round;stroke-miterlimit:1.41421;"><path d="M255.999,497.314c-2.3,0 -4.591,-0.044 -6.878,-0.113l47.3,-135.535l65.094,0c11.425,0 23.967,-9.158 27.875,-20.347l51.317,-146.962c8.395,-24.061 -4.823,-43.746 -29.379,-43.746l-90.305,0l-75.772,217.089l-0.028,0l-42.955,123.062c-101.911,-25.261 -177.714,-120.778 -177.714,-234.761c0,-110.698 71.492,-203.977 168.958,-232.406l-44.322,127.016l-0.013,0l-73.685,211.055l49.052,0.004l62.663,-179.344l36.864,0l-62.663,179.344l49.033,0.009l58.395,-167.322c8.401,-24.061 -4.819,-43.746 -29.352,-43.746l-41.232,0l47.345,-135.671c3.452,-0.16 6.916,-0.254 10.402,-0.254c127.825,0 231.446,108.039 231.446,241.315c0,133.272 -103.621,241.313 -231.446,241.313Zm140.038,-315.116l-36.855,0l-51.611,147.646l36.856,0l51.61,-147.646Z" style="fill:#4987ce;fill-rule:nonzero;"/></svg>