<?xml version="1.0" encoding="UTF-8" standalone="no"?><!DOCTYPE svg PUBLIC "-//W3C//DTD SVG 1.1//EN" "http://www.w3.org/Graphics/SVG/1.1/DTD/svg11.dtd"><svg width="100%" height="100%" viewBox="0 0 512 512" version="1.1" xmlns="http://www.w3.org/2000/svg" xmlns:xlink="http://www.w3.org/1999/xlink" xml:space="preserve" style="fill-rule:evenodd;clip-rule:evenodd;stroke-linejoin:round;stroke-miterlimit:1.41421;"><g><g><path d="M239.443,58.122c10.027,-5.739 23.087,-5.765 33.105,0c50.401,28.479 100.818,56.914 151.21,85.41c9.478,5.339 15.818,15.887 15.721,26.808l0,171.341c0.071,11.374 -6.896,22.174 -16.895,27.392c-50.235,28.322 -100.444,56.679 -150.671,85.001c-10.234,5.851 -23.556,5.401 -33.471,-0.931c-15.06,-8.73 -30.147,-17.418 -45.208,-26.14c-3.078,-1.835 -6.548,-3.295 -8.721,-6.279c1.921,-2.59 5.356,-2.912 8.147,-4.043c6.287,-1.999 12.061,-5.208 17.836,-8.321c1.46,-1 3.243,-0.617 4.643,0.278c12.879,7.384 25.644,14.982 38.565,22.296c2.757,1.591 5.548,-0.522 7.904,-1.835c49.296,-27.861 98.653,-55.617 147.94,-83.487c1.827,-0.879 2.836,-2.817 2.688,-4.818c0.034,-56.521 0.009,-113.053 0.017,-169.575c0.209,-2.27 -1.104,-4.357 -3.157,-5.286c-50.061,-28.192 -100.096,-56.428 -150.148,-84.627c-1.771,-1.218 -4.121,-1.221 -5.896,-0.009c-50.052,28.208 -100.079,56.47 -150.131,84.661c-2.045,0.93 -3.417,2.983 -3.174,5.261c0.009,56.522 0,113.054 0,169.584c-0.177,1.994 0.913,3.899 2.722,4.757c13.357,7.574 26.731,15.095 40.096,22.643c7.529,4.053 16.774,6.461 25.07,3.356c7.321,-2.626 12.452,-10.096 12.312,-17.869c0.07,-56.192 -0.034,-112.392 0.052,-168.576c-0.183,-2.494 2.184,-4.555 4.609,-4.32c6.418,-0.044 12.844,-0.087 19.262,0.017c2.678,-0.061 4.522,2.625 4.191,5.139c-0.026,56.547 0.069,113.096 -0.044,169.644c0.018,15.071 -6.174,31.469 -20.114,38.843c-17.173,8.896 -38.399,7.01 -55.365,-1.521c-14.687,-7.331 -28.704,-15.982 -43.13,-23.836c-10.026,-5.189 -16.958,-16.032 -16.887,-27.397l0,-171.343c-0.105,-11.147 6.487,-21.887 16.26,-27.148c50.227,-28.345 100.444,-56.712 150.662,-85.07Z" style="fill:#8cc84b;fill-rule:nonzero;"/><path d="M283.261,176.811c21.906,-1.41 45.357,-0.835 65.069,9.957c15.262,8.269 23.724,25.626 23.993,42.581c-0.426,2.288 -2.817,3.549 -5.001,3.392c-6.355,-0.008 -12.712,0.087 -19.068,-0.043c-2.696,0.104 -4.263,-2.382 -4.602,-4.766c-1.826,-8.113 -6.25,-16.148 -13.886,-20.061c-11.722,-5.869 -25.314,-5.573 -38.096,-5.451c-9.331,0.496 -19.365,1.303 -27.271,6.791c-6.069,4.156 -7.912,12.547 -5.746,19.305c2.042,4.852 7.643,6.417 12.226,7.86c26.399,6.905 54.374,6.218 80.27,15.304c10.721,3.704 21.208,10.906 24.878,22.131c4.8,15.044 2.696,33.027 -8.008,45.105c-8.68,9.939 -21.322,15.348 -33.931,18.286c-16.775,3.741 -34.183,3.836 -51.218,2.175c-16.018,-1.826 -32.687,-6.035 -45.053,-16.949c-10.574,-9.181 -15.739,-23.487 -15.226,-37.294c0.123,-2.332 2.444,-3.958 4.678,-3.766c6.4,-0.052 12.801,-0.07 19.201,0.008c2.556,-0.183 4.452,2.027 4.583,4.436c1.181,7.73 4.086,15.843 10.826,20.425c13.008,8.393 29.33,7.818 44.225,8.053c12.34,-0.548 26.192,-0.713 36.262,-8.869c5.313,-4.652 6.887,-12.435 5.451,-19.131c-1.555,-5.653 -7.469,-8.287 -12.547,-10.009c-26.061,-8.244 -54.348,-5.253 -80.157,-14.575c-10.478,-3.703 -20.61,-10.704 -24.635,-21.468c-5.617,-15.235 -3.043,-34.079 8.782,-45.749c11.531,-11.608 28.175,-16.079 44.001,-17.679l0,0.001Z" style="fill:#8cc84b;fill-rule:nonzero;"/></g></g></svg>