<?xml version="1.0" encoding="UTF-8" standalone="no"?><!DOCTYPE svg PUBLIC "-//W3C//DTD SVG 1.1//EN" "http://www.w3.org/Graphics/SVG/1.1/DTD/svg11.dtd"><svg width="100%" height="100%" viewBox="0 0 512 512" version="1.1" xmlns="http://www.w3.org/2000/svg" xmlns:xlink="http://www.w3.org/1999/xlink" xml:space="preserve" style="fill-rule:evenodd;clip-rule:evenodd;stroke-linecap:round;stroke-linejoin:round;"><g id="g6015"><path id="path2466.-5" d="M234.269,264.069c-1.15,42.572 1.843,76.353 5.867,86.771c4.027,10.418 17.306,25.858 46.939,19.287c24.757,-5.494 36.096,-16.126 40.005,-39.594c2.879,-17.265 6.875,-52.91 7.587,-62.735" style="fill:none;stroke:#000;stroke-width:10.54px;"/><path id="path2468.-0" d="M212.971,45.825c0,0 -136.491,-56.759 -130.254,72.314c1.327,27.46 40.355,207.776 84.123,153.311c26.483,-25.547 30.459,-35.539 30.459,-35.539" style="fill:none;stroke:#000;stroke-width:10.54px;"/><path id="path2470.-7" d="M275.878,35.465c-4.644,1.507 74.628,-29.996 119.679,29.591c15.913,21.051 -2.528,107.058 -46.641,174.816" style="fill:none;stroke:#000;stroke-width:10.54px;"/><path id="path2472.-2" d="M348.915,225.958c0,0 2.875,14.647 44.657,5.72c18.306,-3.914 7.289,24.897 -11.277,33.822c-15.238,7.321 -49.399,9.196 -49.958,-0.919c-1.436,-26.098 17.98,-32.084 16.579,-38.623c-1.267,-5.89 -9.95,2.245 -15.693,-12.169c-5.015,-12.581 -68.771,-109.061 17.681,-94.732c3.167,-0.679 -22.548,-85.12 -103.454,-86.493c-80.888,-1.373 -78.234,102.968 -78.234,102.968" style="fill:none;stroke:#000;stroke-width:10.54px;stroke-linejoin:bevel;"/><path id="path2474.-7" d="M216.287,248.798c-11.277,13.039 -7.961,15.329 -30.502,20.133c-22.808,4.866 -9.395,9.653 -0.662,12.33c18.763,3.551 33.586,9.291 51.718,-10.716c5.048,-7.315 -0.029,-22.206 -6.965,-25.181c-3.351,-1.437 -7.831,-3.237 -13.589,3.434l0,0Z" style="fill:none;stroke:#000;stroke-width:10.54px;"/><path id="path2476.-1" d="M215.548,248.57c-1.136,-7.667 2.434,-16.79 6.26,-27.463c5.749,-16.014 19.015,-32.031 8.403,-82.829c-7.91,-37.855 -60.963,-7.878 -60.996,-2.746c-0.029,5.131 2.4,26.017 -0.886,50.338c-4.287,31.737 19.509,58.578 46.912,55.832" style="fill:none;stroke:#000;stroke-width:10.54px;"/><path id="path2478.-4" d="M208.693,130.774l0.206,0.002l0.208,0.005l0.21,0.008l0.21,0.009l0.213,0.012l0.213,0.014l0.215,0.017l0.216,0.019l0.217,0.021l0.218,0.023l0.219,0.026l0.221,0.029l0.22,0.031l0.221,0.033l0.22,0.035l0.218,0.037l0.216,0.039l0.214,0.041l0.213,0.043l0.211,0.045l0.209,0.046l0.208,0.049l0.205,0.051l0.203,0.052l0.202,0.054l0.199,0.056l0.197,0.057l0.195,0.059l0.193,0.061l0.19,0.063l0.189,0.064l0.186,0.065l0.183,0.068l0.181,0.069l0.179,0.071l0.176,0.072l0.174,0.074l0.172,0.075l0.168,0.077l0.166,0.078l0.164,0.081l0.161,0.081l0.158,0.084l0.156,0.085l0.152,0.086l0.15,0.089l0.148,0.09l0.144,0.092l0.142,0.094l0.139,0.096l0.136,0.098l0.133,0.1l0.13,0.103l0.127,0.104l0.12,0.104l0.125,0.113l0.118,0.113l0.114,0.116l0.111,0.12l0.108,0.122l0.104,0.127l0.1,0.13l0.096,0.135l0.092,0.14l0.086,0.144l0.082,0.149l0.076,0.155l0.069,0.159l0.032,0.083l0.03,0.083l0.028,0.084l0.026,0.087l0.024,0.087l0.022,0.089l0.02,0.089l0.017,0.091l0.014,0.092l0.012,0.092l0.009,0.094l0.007,0.095l0.003,0.095l0.001,0.095l-0.002,0.096l-0.006,0.096l-0.008,0.096l-0.011,0.094l-0.014,0.091l-0.015,0.088l-0.018,0.086l-0.019,0.085l-0.021,0.083l-0.023,0.082l-0.025,0.081l-0.026,0.08l-0.027,0.079l-0.029,0.078l-0.03,0.077l-0.031,0.076l-0.033,0.076l-0.034,0.075l-0.035,0.074l-0.036,0.074l-0.037,0.073l-0.038,0.073l-0.04,0.073l-0.04,0.072l-0.042,0.072l-0.043,0.071l-0.044,0.071l-0.045,0.071l-0.045,0.071l-0.05,0.074l-0.094,0.136l-0.101,0.139l-0.105,0.138l-0.109,0.137l-0.113,0.136l-0.117,0.136l-0.12,0.135l-0.125,0.134l-0.129,0.133l-0.132,0.132l-0.136,0.13l-0.14,0.13l-0.143,0.128l-0.148,0.127l-0.148,0.123l-0.08,0.065l-0.077,0.061l-0.079,0.062l-0.08,0.06l-0.08,0.061l-0.082,0.06l-0.082,0.059l-0.083,0.059l-0.084,0.059l-0.085,0.058l-0.086,0.057l-0.087,0.057l-0.087,0.056l-0.089,0.055l-0.089,0.055l-0.09,0.054l-0.091,0.054l-0.092,0.053l-0.093,0.052l-0.094,0.052l-0.094,0.051l-0.096,0.05l-0.096,0.049l-0.097,0.048l-0.098,0.048l-0.098,0.047l-0.1,0.046l-0.1,0.045l-0.101,0.044l-0.102,0.043l-0.103,0.043l-0.103,0.041l-0.105,0.04l-0.105,0.04l-0.105,0.038l-0.107,0.037l-0.108,0.036l-0.108,0.035l-0.109,0.034l-0.109,0.033l-0.111,0.032l-0.111,0.03l-0.112,0.029l-0.112,0.028l-0.114,0.027l-0.114,0.025l-0.114,0.024l-0.116,0.023l-0.116,0.021l-0.117,0.02l-0.117,0.018l-0.118,0.017l-0.119,0.016l-0.119,0.014l-0.12,0.012l-0.12,0.011l-0.121,0.009l-0.122,0.008l-0.122,0.006l-0.122,0.004l-0.123,0.003l-0.124,0.001l-0.124,-0.001l-0.124,-0.002l-0.125,-0.005l-0.126,-0.006l-0.126,-0.008l-0.126,-0.01l-0.126,-0.011l-0.127,-0.014l-0.127,-0.015l-0.127,-0.018l-0.126,-0.019l-0.127,-0.021l-0.126,-0.023l-0.125,-0.024l-0.125,-0.026l-0.124,-0.028l-0.123,-0.03l-0.122,-0.031l-0.122,-0.033l-0.121,-0.034l-0.12,-0.036l-0.119,-0.037l-0.118,-0.039l-0.118,-0.04l-0.117,-0.041l-0.116,-0.043l-0.115,-0.044l-0.114,-0.046l-0.114,-0.047l-0.113,-0.048l-0.111,-0.049l-0.111,-0.05l-0.11,-0.052l-0.11,-0.053l-0.108,-0.053l-0.108,-0.055l-0.106,-0.056l-0.106,-0.057l-0.105,-0.058l-0.104,-0.059l-0.103,-0.06l-0.103,-0.06l-0.101,-0.062l-0.101,-0.063l-0.099,-0.063l-0.099,-0.064l-0.098,-0.065l-0.097,-0.066l-0.096,-0.067l-0.096,-0.067l-0.094,-0.068l-0.094,-0.069l-0.092,-0.069l-0.092,-0.07l-0.091,-0.071l-0.09,-0.071l-0.089,-0.072l-0.088,-0.073l-0.087,-0.073l-0.086,-0.073l-0.086,-0.075l-0.084,-0.074l-0.084,-0.075l-0.083,-0.076l-0.081,-0.076l-0.081,-0.076l-0.08,-0.077l-0.079,-0.077l-0.078,-0.077l-0.077,-0.078l-0.076,-0.079l-0.076,-0.078l-0.074,-0.079l-0.073,-0.079l-0.073,-0.079l-0.074,-0.083l-0.138,-0.157l-0.136,-0.161l-0.132,-0.161l-0.129,-0.162l-0.125,-0.163l-0.12,-0.163l-0.117,-0.163l-0.113,-0.164l-0.109,-0.163l-0.105,-0.164l-0.1,-0.163l-0.097,-0.164l-0.09,-0.16l-0.047,-0.085l-0.043,-0.082l-0.043,-0.082l-0.041,-0.082l-0.04,-0.081l-0.04,-0.082l-0.038,-0.082l-0.037,-0.082l-0.036,-0.081l-0.035,-0.082l-0.033,-0.082l-0.033,-0.082l-0.031,-0.082l-0.03,-0.083l-0.029,-0.082l-0.028,-0.083l-0.026,-0.083l-0.026,-0.083l-0.024,-0.084l-0.022,-0.084l-0.021,-0.084l-0.02,-0.085l-0.018,-0.086l-0.017,-0.086l-0.015,-0.087l-0.013,-0.088l-0.011,-0.089l-0.01,-0.089l-0.007,-0.091l-0.006,-0.092l-0.003,-0.093l0,-0.095l0.002,-0.096l0.005,-0.098l0.009,-0.099l0.193,-1.619l0.463,0l0.002,-0.002l0.054,-0.069l0.056,-0.067l0.057,-0.066l0.058,-0.063l0.059,-0.062l0.06,-0.06l0.061,-0.059l0.062,-0.057l0.063,-0.055l0.063,-0.054l0.064,-0.053l0.065,-0.051l0.066,-0.05l0.067,-0.048l0.067,-0.047l0.067,-0.046l0.069,-0.045l0.069,-0.043l0.069,-0.043l0.07,-0.041l0.071,-0.041l0.071,-0.039l0.072,-0.038l0.072,-0.038l0.073,-0.036l0.079,-0.038l0.143,-0.066l0.151,-0.066l0.153,-0.061l0.155,-0.059l0.157,-0.056l0.16,-0.054l0.162,-0.05l0.163,-0.048l0.167,-0.045l0.168,-0.043l0.17,-0.04l0.172,-0.038l0.175,-0.036l0.177,-0.033l0.179,-0.031l0.18,-0.028l0.183,-0.027l0.185,-0.024l0.187,-0.022l0.189,-0.019l0.191,-0.018l0.193,-0.015l0.194,-0.013l0.197,-0.01l0.198,-0.009l0.2,-0.006l0.201,-0.004l0.203,-0.002l0.205,0.001Zm-0.358,3.513l-0.162,0.003l-0.159,0.005l-0.158,0.007l-0.155,0.008l-0.152,0.01l-0.15,0.012l-0.147,0.014l-0.145,0.015l-0.141,0.016l-0.139,0.018l-0.135,0.02l-0.132,0.02l-0.129,0.023l-0.126,0.023l-0.121,0.025l-0.119,0.026l-0.114,0.027l-0.111,0.028l-0.106,0.029l-0.103,0.03l-0.098,0.031l-0.094,0.031l-0.089,0.032l-0.085,0.032l-0.08,0.033l-0.075,0.032l-0.075,0.035l-0.028,0.013l-0.032,0.016l-0.03,0.016l-0.03,0.015l-0.027,0.016l-0.027,0.015l-0.025,0.015l-0.024,0.014l-0.022,0.014l-0.021,0.014l-0.02,0.013l-0.018,0.013l-0.017,0.012l-0.015,0.012l-0.008,0.006l0.043,0.15l0.054,0.149l0.071,0.17l0.088,0.187l0.104,0.196l0.061,0.109l0.063,0.107l0.068,0.109l0.071,0.111l0.075,0.113l0.078,0.114l0.083,0.115l0.086,0.116l0.089,0.117l0.093,0.117l0.097,0.118l0.099,0.117l0.155,0.176l0.162,0.174l0.168,0.173l0.175,0.17l0.18,0.168l0.186,0.164l0.19,0.159l0.196,0.155l0.133,0.101l0.135,0.098l0.136,0.096l0.138,0.092l0.14,0.09l0.141,0.087l0.143,0.084l0.143,0.08l0.145,0.077l0.146,0.073l0.147,0.07l0.148,0.066l0.149,0.062l0.149,0.059l0.15,0.054l0.15,0.05l0.151,0.046l0.151,0.042l0.152,0.038l0.152,0.033l0.152,0.028l0.154,0.025l0.153,0.02l0.151,0.015l0.151,0.01l0.15,0.007l0.149,0.002l0.075,-0.001l0.074,-0.002l0.074,-0.002l0.074,-0.004l0.074,-0.005l0.074,-0.005l0.073,-0.007l0.074,-0.008l0.073,-0.008l0.073,-0.01l0.073,-0.01l0.073,-0.012l0.072,-0.012l0.073,-0.013l0.072,-0.014l0.072,-0.015l0.072,-0.016l0.072,-0.017l0.071,-0.018l0.071,-0.019l0.071,-0.019l0.071,-0.02l0.071,-0.021l0.07,-0.022l0.07,-0.023l0.07,-0.023l0.069,-0.025l0.069,-0.025l0.069,-0.025l0.069,-0.027l0.068,-0.027l0.068,-0.028l0.068,-0.029l0.067,-0.029l0.067,-0.03l0.066,-0.031l0.067,-0.031l0.065,-0.032l0.066,-0.033l0.064,-0.033l0.065,-0.034l0.064,-0.035l0.063,-0.034l0.063,-0.036l0.063,-0.036l0.062,-0.037l0.062,-0.037l0.061,-0.037l0.06,-0.038l0.06,-0.039l0.059,-0.038l0.059,-0.04l0.058,-0.039l0.058,-0.04l0.057,-0.041l0.056,-0.04l0.056,-0.041l0.055,-0.041l0.054,-0.042l0.054,-0.042l0.053,-0.042l0.049,-0.04l0.106,-0.087l0.099,-0.086l0.096,-0.086l0.094,-0.086l0.089,-0.087l0.087,-0.086l0.083,-0.086l0.079,-0.085l0.076,-0.084l0.071,-0.083l0.068,-0.082l0.064,-0.081l0.06,-0.078l0.055,-0.077l0.054,-0.078l0.021,-0.032l0.023,-0.035l0.022,-0.034l0.021,-0.033l0.019,-0.033l0.018,-0.031l0.017,-0.031l0.016,-0.029l0.015,-0.028l0.014,-0.027l0.012,-0.026l0.012,-0.024l0.01,-0.023l0.009,-0.021l0.004,-0.01l-0.001,-0.002l-0.009,-0.013l-0.01,-0.015l-0.011,-0.015l-0.012,-0.017l-0.014,-0.017l-0.014,-0.018l-0.016,-0.019l-0.018,-0.02l-0.018,-0.021l-0.019,-0.021l-0.021,-0.022l-0.022,-0.022l-0.023,-0.023l-0.025,-0.024l-0.025,-0.024l-0.027,-0.025l-0.024,-0.022l-0.064,-0.055l-0.064,-0.053l-0.07,-0.054l-0.073,-0.056l-0.079,-0.056l-0.082,-0.057l-0.087,-0.058l-0.091,-0.058l-0.096,-0.059l-0.099,-0.058l-0.104,-0.059l-0.107,-0.059l-0.112,-0.058l-0.114,-0.059l-0.119,-0.058l-0.122,-0.058l-0.125,-0.057l-0.129,-0.056l-0.132,-0.056l-0.136,-0.056l-0.138,-0.054l-0.141,-0.054l-0.145,-0.053l-0.147,-0.052l-0.15,-0.052l-0.152,-0.05l-0.156,-0.049l-0.158,-0.048l-0.16,-0.046l-0.163,-0.046l-0.165,-0.044l-0.167,-0.043l-0.169,-0.042l-0.172,-0.04l-0.173,-0.039l-0.176,-0.037l-0.177,-0.036l-0.179,-0.034l-0.181,-0.033l-0.183,-0.031l-0.184,-0.029l-0.186,-0.028l-0.186,-0.026l-0.185,-0.024l-0.184,-0.022l-0.182,-0.019l-0.181,-0.018l-0.18,-0.016l-0.178,-0.013l-0.177,-0.012l-0.175,-0.01l-0.174,-0.008l-0.172,-0.006l-0.17,-0.004l-0.168,-0.002l-0.166,-0.001l-0.165,0.002Z"/><path id="path2480.-8" d="M335.343,131.189c0.236,1.753 -3.1,6.431 -7.456,7.056c-4.351,0.628 -8.072,-3.028 -8.31,-4.78c-0.231,-1.753 3.106,-3.684 7.458,-4.311c4.351,-0.628 8.072,0.286 8.308,2.036l0,-0.001Z" style="fill:none;stroke:#000;stroke-width:1.76px;stroke-linecap:butt;stroke-linejoin:miter;"/><path id="path2482.-4" d="M350.904,119.057c0.716,13.751 -2.862,23.117 -3.313,37.756c-0.668,21.277 9.801,45.631 -5.973,70.015" style="fill:none;stroke:#000;stroke-width:10.54px;"/><path id="path11678" d="M188.92,241.538l25.964,-0.618l-11.408,17.291l-19.67,-1.852l5.114,-14.821Z" style="fill-rule:nonzero;"/><path id="path2464" d="M385.461,239.262c-38.506,8.222 -41.153,-5.273 -41.153,-5.273c40.656,-62.446 57.652,-141.712 42.985,-161.111c-40.012,-52.919 -109.276,-27.892 -110.431,-27.242l-0.373,0.069c-7.607,-1.635 -16.121,-2.608 -25.69,-2.77c-17.423,-0.296 -30.639,4.728 -40.668,12.6c0,0 -123.559,-52.689 -117.812,66.267c1.222,25.307 35.041,191.483 75.379,141.29c14.743,-18.354 28.988,-33.872 28.988,-33.872c7.075,4.865 15.546,7.347 24.425,6.455l0.69,-0.606c-0.214,2.279 -0.116,4.508 0.277,7.147c-10.392,12.018 -7.338,14.128 -28.111,18.554c-21.02,4.484 -8.672,12.467 -0.61,14.554c9.774,2.53 32.386,6.114 47.664,-16.026l-0.609,2.527c4.071,3.375 6.931,21.957 6.451,38.802c-0.479,16.845 -0.799,28.41 2.409,37.443c3.208,9.033 6.406,29.357 33.714,23.3c22.819,-5.061 34.643,-18.178 36.288,-40.058c1.168,-15.555 3.809,-13.255 3.976,-27.162l2.119,-6.586c2.444,-21.085 0.389,-27.888 14.447,-24.724l3.416,0.311c10.347,0.488 23.889,-1.722 31.837,-5.546c17.115,-8.222 27.266,-21.949 10.39,-18.342l0.002,0l0,-0.001Z" style="fill:#316192;fill-rule:nonzero;stroke:#fff;stroke-width:9.71px;"/><path id="path2466" d="M242.675,251.349c-1.061,39.235 0.266,78.744 3.975,88.346c3.711,9.602 11.653,28.278 38.964,22.222c22.816,-5.063 31.118,-14.862 34.72,-36.49c2.653,-15.913 7.768,-60.105 8.424,-69.159" style="fill:#316192;fill-rule:nonzero;stroke:#fff;stroke-width:9.71px;"/><path id="path2468" d="M209.941,54.659c0,0 -123.643,-52.31 -117.895,66.646c1.222,25.307 35.043,191.489 75.38,141.293c14.74,-18.356 28.071,-32.753 28.071,-32.753" style="fill:#316192;fill-rule:nonzero;stroke:#fff;stroke-width:9.71px;"/><path id="path2470" d="M276.726,45.111c-4.28,1.389 68.778,-27.645 110.298,27.271c14.666,19.401 -2.33,98.666 -42.985,161.114" style="fill:#316192;fill-rule:nonzero;stroke:#fff;stroke-width:9.71px;"/><path id="path2472" d="M344.038,233.496c0,0 2.65,13.499 41.156,5.271c16.872,-3.607 6.718,10.122 -10.393,18.348c-14.043,6.746 -45.527,8.475 -46.041,-0.847c-1.324,-24.052 16.57,-16.745 15.279,-22.772c-1.168,-5.428 -9.17,-10.755 -14.463,-24.039c-4.622,-11.595 -63.38,-100.512 16.295,-87.307c2.919,-0.625 -20.78,-78.447 -95.345,-79.712c-74.547,-1.265 -72.101,94.897 -72.101,94.897" style="fill:#316192;fill-rule:nonzero;stroke:#fff;stroke-width:9.71px;stroke-linejoin:bevel;"/><path id="path2474" d="M221.806,241.721c-10.393,12.018 -7.337,14.128 -28.111,18.555c-21.02,4.485 -8.67,12.467 -0.611,14.552c9.774,2.532 32.386,6.116 47.664,-16.029c4.653,-6.742 -0.028,-17.5 -6.418,-20.242c-3.088,-1.324 -7.217,-2.984 -12.524,3.164l0,0Z" style="fill:#316192;fill-rule:nonzero;stroke:#fff;stroke-width:9.71px;"/><path id="path2476" d="M221.125,241.511c-1.047,-7.065 2.243,-15.473 5.769,-25.31c5.299,-14.758 17.525,-29.52 7.745,-76.337c-7.29,-34.887 -56.185,-7.26 -56.215,-2.53c-0.029,4.729 2.211,23.978 -0.817,46.393c-3.952,29.249 17.98,53.986 43.234,51.455" style="fill:#316192;fill-rule:nonzero;stroke:#fff;stroke-width:9.71px;"/><path id="path2478" d="M209.491,136.625c-0.22,1.616 2.858,5.927 6.871,6.503c4.007,0.579 7.436,-2.791 7.654,-4.405c0.217,-1.615 -2.857,-3.395 -6.872,-3.973c-4.009,-0.58 -7.44,0.263 -7.652,1.875l-0.001,0l0,0Z" style="fill:#fff;fill-rule:nonzero;"/><path d="M214.807,132.949l0.191,0.002l0.191,0.005l0.193,0.007l0.194,0.008l0.196,0.011l0.197,0.013l0.197,0.016l0.199,0.017l0.2,0.02l0.202,0.021l0.202,0.024l0.203,0.026l0.203,0.029l0.204,0.03l0.202,0.032l0.201,0.035l0.199,0.036l0.198,0.038l0.196,0.039l0.195,0.042l0.192,0.043l0.191,0.044l0.19,0.047l0.187,0.048l0.185,0.05l0.184,0.051l0.182,0.053l0.179,0.055l0.178,0.056l0.176,0.057l0.173,0.06l0.172,0.06l0.169,0.062l0.167,0.064l0.164,0.065l0.163,0.067l0.16,0.068l0.158,0.069l0.155,0.071l0.154,0.072l0.15,0.074l0.149,0.076l0.145,0.076l0.144,0.079l0.141,0.08l0.138,0.081l0.136,0.083l0.133,0.085l0.13,0.087l0.128,0.088l0.125,0.09l0.123,0.093l0.12,0.094l0.117,0.097l0.114,0.099l0.112,0.101l0.109,0.104l0.101,0.103l0.106,0.114l0.1,0.113l0.095,0.116l0.093,0.121l0.088,0.124l0.084,0.128l0.081,0.134l0.075,0.137l0.069,0.142l0.064,0.148l0.057,0.152l0.051,0.157l0.022,0.08l0.02,0.082l0.018,0.083l0.016,0.083l0.013,0.085l0.011,0.085l0.008,0.087l0.006,0.087l0.004,0.087l0,0.088l-0.002,0.088l-0.005,0.089l-0.007,0.089l-0.011,0.087l-0.012,0.083l-0.015,0.082l-0.016,0.079l-0.018,0.078l-0.019,0.077l-0.021,0.075l-0.023,0.075l-0.024,0.074l-0.025,0.072l-0.026,0.072l-0.028,0.071l-0.029,0.07l-0.03,0.07l-0.031,0.07l-0.032,0.068l-0.034,0.068l-0.034,0.068l-0.038,0.072l-0.071,0.128l-0.078,0.132l-0.081,0.131l-0.086,0.13l-0.089,0.129l-0.093,0.128l-0.097,0.127l-0.1,0.126l-0.104,0.126l-0.108,0.125l-0.112,0.124l-0.114,0.124l-0.119,0.122l-0.122,0.122l-0.125,0.12l-0.129,0.12l-0.132,0.118l-0.136,0.117l-0.139,0.115l-0.143,0.115l-0.146,0.112l-0.149,0.111l-0.152,0.109l-0.156,0.107l-0.156,0.103l-0.084,0.054l-0.082,0.051l-0.082,0.051l-0.083,0.05l-0.084,0.049l-0.085,0.049l-0.085,0.048l-0.087,0.048l-0.087,0.047l-0.087,0.046l-0.089,0.045l-0.09,0.045l-0.09,0.044l-0.091,0.043l-0.091,0.042l-0.093,0.042l-0.093,0.04l-0.094,0.04l-0.094,0.039l-0.096,0.038l-0.096,0.038l-0.097,0.036l-0.097,0.035l-0.099,0.034l-0.099,0.034l-0.099,0.032l-0.101,0.031l-0.101,0.03l-0.102,0.03l-0.102,0.028l-0.103,0.026l-0.104,0.026l-0.104,0.025l-0.105,0.023l-0.106,0.022l-0.106,0.021l-0.107,0.02l-0.108,0.018l-0.108,0.017l-0.109,0.016l-0.109,0.014l-0.11,0.013l-0.111,0.011l-0.111,0.01l-0.111,0.009l-0.112,0.007l-0.113,0.005l-0.113,0.004l-0.113,0.003l-0.114,0.001l-0.114,-0.001l-0.115,-0.002l-0.115,-0.004l-0.116,-0.006l-0.115,-0.007l-0.117,-0.009l-0.116,-0.011l-0.117,-0.012l-0.118,-0.015l-0.116,-0.016l-0.117,-0.017l-0.117,-0.02l-0.116,-0.021l-0.115,-0.022l-0.115,-0.025l-0.114,-0.025l-0.114,-0.027l-0.113,-0.029l-0.112,-0.03l-0.111,-0.032l-0.111,-0.033l-0.109,-0.034l-0.11,-0.036l-0.108,-0.037l-0.108,-0.038l-0.106,-0.04l-0.107,-0.04l-0.105,-0.042l-0.105,-0.043l-0.103,-0.045l-0.104,-0.045l-0.102,-0.046l-0.101,-0.048l-0.101,-0.048l-0.1,-0.05l-0.099,-0.05l-0.098,-0.052l-0.098,-0.053l-0.096,-0.053l-0.096,-0.054l-0.096,-0.055l-0.094,-0.056l-0.093,-0.057l-0.093,-0.058l-0.092,-0.058l-0.091,-0.059l-0.09,-0.06l-0.09,-0.061l-0.088,-0.061l-0.088,-0.062l-0.087,-0.063l-0.086,-0.064l-0.086,-0.064l-0.084,-0.064l-0.084,-0.065l-0.083,-0.066l-0.082,-0.066l-0.081,-0.067l-0.081,-0.068l-0.079,-0.067l-0.079,-0.069l-0.078,-0.068l-0.077,-0.069l-0.076,-0.07l-0.075,-0.07l-0.077,-0.073l-0.144,-0.139l-0.143,-0.143l-0.14,-0.145l-0.136,-0.146l-0.132,-0.146l-0.13,-0.148l-0.125,-0.148l-0.122,-0.149l-0.119,-0.149l-0.115,-0.15l-0.111,-0.15l-0.108,-0.15l-0.104,-0.151l-0.1,-0.151l-0.096,-0.15l-0.093,-0.151l-0.089,-0.151l-0.085,-0.151l-0.082,-0.151l-0.077,-0.15l-0.073,-0.151l-0.07,-0.151l-0.063,-0.146l-0.033,-0.08l-0.03,-0.075l-0.029,-0.076l-0.027,-0.076l-0.027,-0.076l-0.026,-0.077l-0.024,-0.076l-0.023,-0.076l-0.022,-0.078l-0.021,-0.077l-0.019,-0.078l-0.019,-0.078l-0.016,-0.079l-0.016,-0.08l-0.014,-0.08l-0.012,-0.081l-0.01,-0.082l-0.009,-0.082l-0.007,-0.084l-0.005,-0.085l-0.003,-0.085l0,-0.088l0.002,-0.088l0.005,-0.09l0.007,-0.092l0.178,-1.492l0.427,0l0.002,-0.002l0.05,-0.064l0.052,-0.062l0.052,-0.06l0.053,-0.058l0.055,-0.057l0.055,-0.056l0.056,-0.054l0.057,-0.052l0.058,-0.051l0.059,-0.05l0.059,-0.049l0.06,-0.047l0.061,-0.045l0.061,-0.045l0.062,-0.044l0.062,-0.042l0.063,-0.041l0.064,-0.04l0.064,-0.039l0.069,-0.042l0.126,-0.07l0.133,-0.07l0.135,-0.066l0.137,-0.063l0.139,-0.06l0.141,-0.058l0.143,-0.054l0.145,-0.052l0.147,-0.049l0.149,-0.046l0.151,-0.044l0.153,-0.042l0.155,-0.039l0.157,-0.037l0.159,-0.035l0.16,-0.033l0.163,-0.031l0.165,-0.028l0.167,-0.026l0.168,-0.025l0.171,-0.022l0.172,-0.02l0.174,-0.018l0.176,-0.016l0.178,-0.014l0.179,-0.012l0.181,-0.01l0.182,-0.008l0.185,-0.005l0.185,-0.004l0.188,-0.002l0.188,0.001Zm-0.329,3.238l-0.15,0.003l-0.147,0.004l-0.145,0.006l-0.143,0.008l-0.14,0.01l-0.138,0.01l-0.136,0.013l-0.133,0.014l-0.131,0.015l-0.127,0.016l-0.125,0.018l-0.122,0.02l-0.119,0.02l-0.115,0.022l-0.113,0.023l-0.109,0.024l-0.105,0.025l-0.102,0.026l-0.098,0.026l-0.095,0.028l-0.09,0.028l-0.087,0.029l-0.082,0.029l-0.078,0.03l-0.074,0.03l-0.069,0.03l-0.064,0.029l-0.06,0.03l-0.055,0.029l-0.055,0.03l-0.018,0.011l-0.022,0.014l-0.021,0.013l-0.019,0.012l-0.018,0.013l-0.017,0.011l-0.015,0.012l-0.015,0.01l-0.007,0.006l0.04,0.138l0.049,0.137l0.066,0.157l0.039,0.084l0.042,0.088l0.047,0.091l0.051,0.094l0.054,0.096l0.058,0.099l0.062,0.101l0.066,0.102l0.069,0.104l0.073,0.105l0.076,0.106l0.079,0.107l0.082,0.108l0.086,0.108l0.089,0.108l0.091,0.108l0.095,0.108l0.097,0.108l0.101,0.107l0.102,0.106l0.106,0.106l0.162,0.156l0.168,0.153l0.173,0.15l0.177,0.146l0.182,0.141l0.185,0.137l0.19,0.131l0.192,0.125l0.196,0.119l0.198,0.112l0.201,0.105l0.135,0.066l0.136,0.063l0.136,0.059l0.137,0.056l0.138,0.052l0.139,0.048l0.138,0.044l0.14,0.041l0.139,0.036l0.14,0.033l0.141,0.028l0.14,0.025l0.142,0.02l0.14,0.016l0.139,0.012l0.138,0.008l0.138,0.003l0.069,0.001l0.069,-0.001l0.068,-0.001l0.069,-0.003l0.068,-0.003l0.068,-0.004l0.068,-0.006l0.068,-0.006l0.067,-0.007l0.068,-0.008l0.067,-0.008l0.067,-0.01l0.068,-0.011l0.067,-0.011l0.066,-0.012l0.067,-0.013l0.066,-0.014l0.067,-0.015l0.066,-0.015l0.065,-0.017l0.066,-0.017l0.066,-0.018l0.065,-0.018l0.065,-0.02l0.065,-0.02l0.064,-0.021l0.065,-0.022l0.064,-0.022l0.063,-0.023l0.064,-0.024l0.063,-0.024l0.063,-0.025l0.063,-0.026l0.062,-0.027l0.062,-0.027l0.062,-0.027l0.061,-0.029l0.061,-0.029l0.06,-0.029l0.06,-0.03l0.06,-0.031l0.06,-0.031l0.059,-0.032l0.058,-0.032l0.058,-0.033l0.058,-0.033l0.057,-0.034l0.057,-0.034l0.056,-0.034l0.056,-0.035l0.052,-0.034l0.112,-0.074l0.107,-0.073l0.104,-0.075l0.102,-0.076l0.1,-0.076l0.097,-0.078l0.094,-0.078l0.092,-0.079l0.089,-0.08l0.085,-0.079l0.083,-0.08l0.08,-0.079l0.076,-0.079l0.073,-0.079l0.07,-0.078l0.066,-0.076l0.063,-0.076l0.058,-0.074l0.055,-0.072l0.052,-0.071l0.047,-0.068l0.043,-0.065l0.039,-0.062l0.034,-0.059l0.034,-0.061l0.011,-0.021l0.012,-0.024l0.012,-0.024l0.011,-0.022l0.009,-0.021l0.008,-0.019l0.004,-0.01l-0.001,-0.002l-0.008,-0.012l-0.01,-0.013l-0.01,-0.015l-0.011,-0.015l-0.013,-0.016l-0.013,-0.017l-0.015,-0.017l-0.016,-0.018l-0.017,-0.019l-0.018,-0.02l-0.015,-0.016l-0.046,-0.046l-0.046,-0.044l-0.05,-0.046l-0.055,-0.048l-0.06,-0.049l-0.063,-0.05l-0.068,-0.051l-0.072,-0.052l-0.077,-0.053l-0.08,-0.053l-0.084,-0.053l-0.088,-0.054l-0.092,-0.054l-0.095,-0.055l-0.099,-0.054l-0.102,-0.054l-0.106,-0.053l-0.109,-0.054l-0.113,-0.053l-0.115,-0.053l-0.119,-0.052l-0.122,-0.052l-0.125,-0.051l-0.127,-0.05l-0.13,-0.05l-0.133,-0.049l-0.136,-0.048l-0.138,-0.047l-0.141,-0.046l-0.143,-0.045l-0.145,-0.044l-0.148,-0.043l-0.15,-0.042l-0.152,-0.041l-0.154,-0.04l-0.156,-0.038l-0.158,-0.037l-0.16,-0.036l-0.162,-0.034l-0.164,-0.033l-0.165,-0.032l-0.167,-0.03l-0.168,-0.029l-0.17,-0.027l-0.171,-0.025l-0.172,-0.024l-0.17,-0.022l-0.169,-0.02l-0.168,-0.018l-0.167,-0.017l-0.166,-0.014l-0.164,-0.013l-0.163,-0.011l-0.161,-0.009l-0.161,-0.007l-0.158,-0.006l-0.157,-0.003l-0.155,-0.002l-0.153,-0.001l-0.151,0.002Z" style="fill:#fff;"/><path id="path2480" d="M331.529,133.331c0.217,1.616 -2.857,5.927 -6.871,6.503c-4.009,0.579 -7.439,-2.79 -7.659,-4.404c-0.212,-1.616 2.863,-3.396 6.874,-3.974c4.01,-0.579 7.439,0.263 7.656,1.876l0,-0.001Z" style="fill:#fff;fill-rule:nonzero;stroke:#fff;stroke-width:1.62px;stroke-linecap:butt;stroke-linejoin:miter;"/><path id="path2482" d="M345.871,122.15c0.661,12.673 -2.637,21.306 -3.053,34.797c-0.615,19.609 9.032,42.054 -5.505,64.527" style="fill:#316192;fill-rule:nonzero;stroke:#fff;stroke-width:9.71px;"/><path id="path5731" d="M64.445,421.257c0,5.646 -1.618,10.068 -4.854,13.267c-3.236,3.199 -7.672,4.798 -13.308,4.798l-22.469,0l0.057,26.703l-6.108,0.099l0,-62.777l30.214,-0.109c5.199,0 9.235,1.6 12.107,4.799c2.909,3.199 4.363,7.622 4.363,13.267m-6.162,0.228c0,-8.807 -4.073,-13.211 -12.217,-13.211l-22.251,-0.099l0,26.138l21.106,0c8.908,0 13.362,-4.29 13.362,-12.871" style="fill:#1a1a1a;fill-rule:nonzero;"/><path id="path5733" d="M108.67,445.475c0,6.699 -1.69,11.932 -5.072,15.695c-3.781,4.215 -9.289,6.323 -16.525,6.323c-3.454,0 -6.472,-0.485 -9.053,-1.468c-2.545,-1.016 -4.781,-2.597 -6.708,-4.742c-3.491,-4.027 -5.236,-9.297 -5.236,-15.808c0,-6.548 1.691,-11.742 5.072,-15.58c3.745,-4.291 9.053,-6.436 15.925,-6.436c7.272,0 12.762,2.089 16.471,6.266c3.417,3.764 5.126,9.014 5.126,15.75m-5.29,0c0,-11.704 -5.436,-17.556 -16.307,-17.556c-4.908,0 -8.762,1.562 -11.562,4.685c-1.345,1.506 -2.381,3.35 -3.109,5.533c-0.69,2.145 -1.036,4.591 -1.036,7.338c0,5.382 1.346,9.673 4.036,12.873c2.727,3.161 6.617,4.742 11.671,4.742c5.599,0 9.763,-1.638 12.489,-4.912c1.309,-1.468 2.273,-3.256 2.891,-5.364c0.618,-2.107 0.927,-4.554 0.927,-7.339" style="fill:#1a1a1a;fill-rule:nonzero;"/><path id="path5735" d="M151.337,454.677c0,8.469 -6.127,12.703 -18.38,12.703c-3.745,0 -6.908,-0.297 -9.489,-0.901c-2.545,-0.604 -4.618,-1.581 -6.218,-2.936c-1.236,-1.016 -2.218,-2.352 -2.945,-4.008c-0.727,-1.694 -1.2,-3.783 -1.418,-6.267l5.672,-0.099c0,3.313 1,5.759 3,7.34c2.145,1.881 5.944,2.822 11.398,2.822c8.581,0 12.871,-2.653 12.871,-7.961c0,-3.086 -1.436,-5.212 -4.308,-6.379c-0.582,-0.267 -4.054,-0.861 -10.417,-1.806c-6.326,-0.981 -10.271,-1.844 -11.835,-2.597c-3.381,-1.656 -5.072,-4.648 -5.072,-8.976c0,-4.215 1.509,-7.357 4.527,-9.427c1.491,-0.862 3.345,-1.525 5.563,-1.976c2.254,-0.485 4.854,-0.733 7.799,-0.733c11.78,0 17.67,4.573 17.67,13.718l-5.399,0c0,-6.436 -4.145,-9.653 -12.435,-9.653c-4.218,0 -7.363,0.663 -9.435,1.975c-2.072,1.28 -3.109,3.275 -3.109,5.984c0,2.522 1.4,4.328 4.2,5.42c1.636,0.604 5.399,1.279 11.289,2.032c5.272,0.604 8.89,1.43 10.853,2.484c3.745,1.806 5.618,4.874 5.618,9.202" style="fill:#1a1a1a;fill-rule:nonzero;"/><path id="path5737" d="M176.074,466.194c-0.872,0.189 -1.654,0.317 -2.345,0.397c-0.654,0.099 -1.127,0.109 -1.418,0.109c-3.709,0 -6.381,-0.664 -8.017,-1.976c-1.636,-1.355 -2.454,-3.707 -2.454,-7.057l0,-28.509l-6.763,0l0,-4.234l6.708,0l0.058,-13.606l5.181,0l0,13.662l9.053,-0.099l0,4.291l-9.053,-0.099l0,27.718c0,2.071 0.436,3.501 1.309,4.291c0.909,0.792 2.508,1.186 4.799,1.186c0.327,0 0.691,0 1.091,-0.1c0.4,-0.099 1,-0.208 1.799,-0.396l0.058,4.291" style="fill:#1a1a1a;fill-rule:nonzero;"/><path id="path5739" d="M218.479,464.783c0,12.495 -6.781,18.742 -20.343,18.742c-7.089,0 -12.125,-1.204 -15.107,-3.613c-2.581,-2.07 -4.163,-5.4 -4.744,-9.992l5.344,-0.099c0.618,3.35 1.746,5.683 3.382,7c2.181,1.769 5.835,2.654 10.962,2.654c5.454,0 9.362,-1.28 11.726,-3.839c2.399,-2.559 3.599,-6.191 3.599,-10.895l-0.057,-7.339c-3.273,5.306 -8.817,7.959 -16.635,7.959c-6.508,0 -11.543,-1.844 -15.107,-5.532c-1.636,-1.806 -2.89,-3.99 -3.763,-6.549c-0.836,-2.597 -1.254,-5.551 -1.254,-8.863c0,-6.624 1.691,-11.686 5.072,-15.186c3.563,-3.839 8.726,-5.758 15.489,-5.758c4.617,0 8.38,0.997 11.289,2.992c0.982,0.753 2.618,2.578 4.909,5.476l0.057,-7.113l5.181,0l0,39.913m-5.181,-20.55c0,-4.93 -1.327,-8.863 -3.981,-11.799c-2.618,-2.973 -6.472,-4.459 -11.562,-4.459c-5.054,0 -8.981,1.467 -11.781,4.403c-2.763,2.898 -4.145,6.925 -4.145,12.081c0,11.102 5.436,16.654 16.307,16.654c2.364,0 4.454,-0.376 6.272,-1.129c1.818,-0.753 3.436,-1.863 4.854,-3.332c2.691,-2.897 4.036,-7.037 4.036,-12.419" style="fill:#1a1a1a;fill-rule:nonzero;"/><path id="path5741" d="M248.648,429.104c-1.563,-0.297 -3.018,-0.455 -4.363,-0.455c-8.544,0 -12.816,5.777 -12.816,17.331l0.057,20.041l-5.181,0l-0.057,-41.042l5.181,-0.099l0,7.396l0.272,0c0.873,-2.898 2.255,-5.081 4.145,-6.549c2.073,-1.43 5.163,-2.145 9.272,-2.145c0.836,0 1.527,0 2.072,0c0.582,0 1.055,0 1.418,0.099l0,5.419" style="fill:#1a1a1a;fill-rule:nonzero;"/><path id="path5743" d="M291.345,446.605l-37.032,0c0,4.704 1.255,8.543 3.764,11.517c2.908,3.462 7.071,5.193 12.489,5.193c7.671,0 12.471,-3.556 14.398,-10.67l5.617,0c-0.836,4.065 -2.818,7.49 -5.944,10.275c-1.782,1.468 -3.873,2.597 -6.272,3.387c-2.364,0.832 -4.945,1.242 -7.745,1.242c-7.017,0 -12.453,-2.183 -16.307,-6.548c-3.563,-3.914 -5.344,-9.203 -5.344,-15.864c0,-6.624 1.854,-11.855 5.563,-15.694c3.708,-3.876 8.926,-5.815 15.652,-5.815c3.599,0 6.745,0.545 9.435,1.638c2.691,1.053 4.945,2.69 6.763,4.911c3.308,3.989 4.963,9.465 4.963,16.428m-5.454,-3.726c0,-3.952 -1.473,-7.49 -4.418,-10.613c-2.908,-3.124 -6.671,-4.686 -11.289,-4.686c-2.363,0 -4.49,0.376 -6.381,1.129c-1.891,0.713 -3.581,1.825 -5.072,3.331c-2.291,2.559 -3.763,6.172 -4.418,10.839l31.578,0" style="fill:#1a1a1a;fill-rule:nonzero;"/><path id="path5724" d="M359.173,449.398c0,14.738 -9.587,22.107 -28.759,22.107c-11.487,0 -19.872,-2.532 -25.156,-7.594c-4.324,-4.16 -6.486,-10.489 -6.486,-18.988l7.73,0c0,13.698 7.971,20.547 23.912,20.547c7.642,0 13.167,-1.424 16.574,-4.272c2.882,-2.441 4.323,-6.307 4.323,-11.596c0,-5.244 -1.965,-8.928 -5.896,-11.053c-2.227,-1.13 -7.664,-2.555 -16.312,-4.272c-10.874,-2.034 -17.928,-4.091 -21.16,-6.171c-4.673,-3.029 -7.009,-8.137 -7.009,-15.325c0,-6.781 1.987,-11.8 5.961,-15.054c4.28,-3.617 11.617,-5.426 22.012,-5.426c18.779,0 28.169,7.709 28.169,23.124l-7.795,0c-0.001,-11.527 -6.966,-17.291 -20.898,-17.291c-6.988,0 -12.098,1.153 -15.33,3.458c-3.057,2.486 -4.585,6.126 -4.585,10.917c0,5.019 1.965,8.567 5.895,10.647c2.097,1.176 8.255,2.803 18.474,4.883c9.609,1.807 16.094,3.887 19.457,6.238c4.586,2.939 6.879,7.979 6.879,15.121" style="fill:#316192;fill-rule:nonzero;"/><path id="path5726" d="M435.726,471.302l-4.717,5.29l-11.399,-9.833c-2.402,1.582 -5.328,2.78 -8.778,3.593c-3.45,0.812 -7.49,1.221 -12.12,1.221c-11.835,0 -21.181,-3.639 -28.038,-10.918c-6.813,-7.323 -10.22,-16.93 -10.22,-28.819c0,-12.161 3.385,-21.812 10.154,-28.956c6.77,-7.143 16.094,-10.714 27.973,-10.714c6.115,0 11.552,0.951 16.312,2.848c4.761,1.899 8.823,4.793 12.185,8.68c6.289,7.052 9.434,16.433 9.434,28.142c0,6.555 -0.961,12.341 -2.883,17.359c-1.921,4.973 -4.891,9.2 -8.909,12.681l11.006,9.426m-6.617,-39.466c0,-5.154 -0.677,-9.743 -2.031,-13.766c-1.354,-4.069 -3.45,-7.618 -6.289,-10.646c-5.371,-6.194 -12.752,-9.29 -22.142,-9.29c-9.259,0 -16.705,2.96 -22.339,8.883c-5.59,5.922 -8.386,14.195 -8.386,24.819c0,10.217 2.817,18.399 8.451,24.548c5.678,6.102 13.102,9.154 22.274,9.154c4.498,0 8.56,-0.723 12.185,-2.17c3.625,-1.447 6.878,-3.594 9.761,-6.443c5.677,-6.147 8.516,-14.511 8.516,-25.089" style="fill:#316192;fill-rule:nonzero;"/><path id="path5728" d="M494.172,469.539l-52.736,0.099l0,-75.406l7.271,-0.139l0,69.168l45.53,0l-0.067,6.307" style="fill:#316192;fill-rule:nonzero;"/></g></svg>