<?xml version="1.0" encoding="UTF-8" standalone="no"?><!DOCTYPE svg PUBLIC "-//W3C//DTD SVG 1.1//EN" "http://www.w3.org/Graphics/SVG/1.1/DTD/svg11.dtd"><svg width="100%" height="100%" viewBox="0 0 512 512" version="1.1" xmlns="http://www.w3.org/2000/svg" xmlns:xlink="http://www.w3.org/1999/xlink" xml:space="preserve" style="fill-rule:evenodd;clip-rule:evenodd;stroke-linejoin:round;stroke-miterlimit:1.41421;"><path id="polygon3282" d="M347.411,309.098l-189.959,112.796l245.96,-16.69l18.944,-248.012l-74.945,151.906Z" style="fill:url(#_Linear1);"/><path id="polygon3293" d="M403.815,405.035l-21.14,-145.912l-57.583,76.037l78.723,69.875Z" style="fill:url(#_Linear2);"/><path id="polygon3304" d="M404.101,405.035l-154.877,-12.158l-90.949,28.7l245.826,-16.542Z" style="fill:url(#_Linear3);"/><path id="polygon3319" d="M158.494,421.609l38.69,-126.751l-85.139,18.205l46.449,108.546Z" style="fill:url(#_Linear4);"/><path id="polygon3334" d="M325.076,335.58l-35.6,-139.446l-101.881,95.5l137.481,43.946Z" style="fill:url(#_Linear5);"/><path id="polygon3349" d="M414.279,198.099l-96.306,-78.657l-26.818,86.701l123.124,-8.044Z" style="fill:url(#_Linear6);"/><path id="polygon3362" d="M369.241,91.399l-56.641,31.301l-35.735,-31.721l92.376,0.42Z" style="fill:url(#_Linear7);"/><path id="polygon3375" d="M89.644,355.58l23.728,-43.274l-19.194,-51.554l-4.534,94.828Z" style="fill:url(#_Linear8);"/><path id="path3377" d="M92.902,259.123l19.311,54.778l83.913,-18.826l95.802,-89.035l27.036,-85.876l-42.571,-30.058l-72.376,27.086c-22.803,21.209 -67.052,63.174 -68.647,63.963c-1.578,0.806 -29.219,53.048 -42.468,77.968Z" style="fill:#fff;"/><path id="path3400" d="M160.71,160.719c49.421,-49.001 113.132,-77.952 137.582,-53.283c24.435,24.668 -1.478,84.618 -50.898,133.602c-49.421,48.984 -112.343,79.53 -136.776,54.861c-24.45,-24.651 0.672,-86.196 50.092,-135.18l0,0Z" style="fill:url(#_Linear9);"/><path id="path3413" d="M158.494,421.559l38.388,-127.154l127.489,40.957c-46.096,43.224 -97.363,79.765 -165.877,86.197Z" style="fill:url(#_Linear10);"/><path id="path3424" d="M292.096,205.79l32.729,129.639c38.505,-40.487 73.064,-84.013 89.99,-137.851l-122.719,8.212l0,0Z" style="fill:url(#_Linear11);"/><path id="path3435" d="M414.48,198.233c13.099,-39.529 16.121,-96.238 -45.644,-106.767l-50.68,27.993l96.324,78.774Z" style="fill:url(#_Linear12);"/><path id="path3437" d="M89.644,355.009c1.813,65.241 48.883,66.214 68.934,66.786l-46.315,-108.163l-22.619,41.377Z" style="fill:#9e1209;"/><path id="path3448" d="M292.279,205.992c29.588,18.186 89.221,54.71 90.43,55.382c1.879,1.058 25.709,-40.185 31.117,-63.493l-121.547,8.111l0,0Z" style="fill:url(#_Radial13);"/><path id="path3459" d="M196.831,294.405l51.318,99.009c30.345,-16.457 54.106,-36.507 75.87,-57.985l-127.188,-41.024Z" style="fill:url(#_Radial14);"/><path id="path3472" d="M112.062,313.767l-7.271,86.582c13.719,18.741 32.594,20.37 52.393,18.909c-14.324,-35.651 -42.939,-106.936 -45.122,-105.491l0,0Z" style="fill:url(#_Linear15);"/><path id="path3485" d="M317.856,119.677l101.948,14.308c-5.441,-23.057 -22.15,-37.935 -50.63,-42.586l-51.318,28.278Z" style="fill:url(#_Linear16);"/><defs><linearGradient id="_Linear1" x1="0" y1="0" x2="1" y2="0" gradientUnits="userSpaceOnUse" gradientTransform="matrix(-70.1888,-123.922,123.922,-70.1888,381.959,452.069)"><stop offset="0" style="stop-color:#fb7655;stop-opacity:1"/><stop offset="0" style="stop-color:#fb7655;stop-opacity:1"/><stop offset="0.41" style="stop-color:#e42b1e;stop-opacity:1"/><stop offset="0.99" style="stop-color:#900;stop-opacity:1"/><stop offset="1" style="stop-color:#900;stop-opacity:1"/></linearGradient><linearGradient id="_Linear2" x1="0" y1="0" x2="1" y2="0" gradientUnits="userSpaceOnUse" gradientTransform="matrix(-90.4575,-60.7025,60.7025,-90.4575,416.924,347.969)"><stop offset="0" style="stop-color:#871101;stop-opacity:1"/><stop offset="0" style="stop-color:#871101;stop-opacity:1"/><stop offset="0.99" style="stop-color:#911209;stop-opacity:1"/><stop offset="1" style="stop-color:#911209;stop-opacity:1"/></linearGradient><linearGradient id="_Linear3" x1="0" y1="0" x2="1" y2="0" gradientUnits="userSpaceOnUse" gradientTransform="matrix(-90.4547,-60.7007,60.7007,-90.4547,344.548,455.824)"><stop offset="0" style="stop-color:#871101;stop-opacity:1"/><stop offset="0" style="stop-color:#871101;stop-opacity:1"/><stop offset="0.99" style="stop-color:#911209;stop-opacity:1"/><stop offset="1" style="stop-color:#911209;stop-opacity:1"/></linearGradient><linearGradient id="_Linear4" x1="0" y1="0" x2="1" y2="0" gradientUnits="userSpaceOnUse" gradientTransform="matrix(14.0229,91.135,-91.135,14.0229,154.625,304.028)"><stop offset="0" style="stop-color:#fff;stop-opacity:1"/><stop offset="0" style="stop-color:#fff;stop-opacity:1"/><stop offset="0.23" style="stop-color:#e57252;stop-opacity:1"/><stop offset="0.46" style="stop-color:#de3b20;stop-opacity:1"/><stop offset="0.99" style="stop-color:#a60003;stop-opacity:1"/><stop offset="1" style="stop-color:#a60003;stop-opacity:1"/></linearGradient><linearGradient id="_Linear5" x1="0" y1="0" x2="1" y2="0" gradientUnits="userSpaceOnUse" gradientTransform="matrix(5.16676,93.009,-93.009,5.16676,251.076,218.931)"><stop offset="0" style="stop-color:#fff;stop-opacity:1"/><stop offset="0" style="stop-color:#fff;stop-opacity:1"/><stop offset="0.23" style="stop-color:#e4714e;stop-opacity:1"/><stop offset="0.56" style="stop-color:#be1a0d;stop-opacity:1"/><stop offset="0.99" style="stop-color:#a80d00;stop-opacity:1"/><stop offset="1" style="stop-color:#a80d00;stop-opacity:1"/></linearGradient><linearGradient id="_Linear6" x1="0" y1="0" x2="1" y2="0" gradientUnits="userSpaceOnUse" gradientTransform="matrix(15.4679,66.6587,-66.6587,15.4679,336.668,132.962)"><stop offset="0" style="stop-color:#fff;stop-opacity:1"/><stop offset="0" style="stop-color:#fff;stop-opacity:1"/><stop offset="0.18" style="stop-color:#e46342;stop-opacity:1"/><stop offset="0.4" style="stop-color:#c82410;stop-opacity:1"/><stop offset="0.99" style="stop-color:#a80d00;stop-opacity:1"/><stop offset="1" style="stop-color:#a80d00;stop-opacity:1"/></linearGradient><linearGradient id="_Linear7" x1="0" y1="0" x2="1" y2="0" gradientUnits="userSpaceOnUse" gradientTransform="matrix(66.6541,-33.3272,33.3272,66.6541,289.436,109.487)"><stop offset="0" style="stop-color:#fff;stop-opacity:1"/><stop offset="0" style="stop-color:#fff;stop-opacity:1"/><stop offset="0.54" style="stop-color:#c81f11;stop-opacity:1"/><stop offset="0.99" style="stop-color:#bf0905;stop-opacity:1"/><stop offset="1" style="stop-color:#bf0905;stop-opacity:1"/></linearGradient><linearGradient id="_Linear8" x1="0" y1="0" x2="1" y2="0" gradientUnits="userSpaceOnUse" gradientTransform="matrix(5.48598,54.9255,-54.9255,5.48598,96.1985,280.794)"><stop offset="0" style="stop-color:#fff;stop-opacity:1"/><stop offset="0" style="stop-color:#fff;stop-opacity:1"/><stop offset="0.31" style="stop-color:#de4024;stop-opacity:1"/><stop offset="0.99" style="stop-color:#bf190b;stop-opacity:1"/><stop offset="1" style="stop-color:#bf190b;stop-opacity:1"/></linearGradient><linearGradient id="_Linear9" x1="0" y1="0" x2="1" y2="0" gradientUnits="userSpaceOnUse" gradientTransform="matrix(257.886,-265.179,265.179,257.886,58.4839,350.567)"><stop offset="0" style="stop-color:#bd0012;stop-opacity:1"/><stop offset="0" style="stop-color:#bd0012;stop-opacity:1"/><stop offset="0.07" style="stop-color:#fff;stop-opacity:1"/><stop offset="0.17" style="stop-color:#fff;stop-opacity:1"/><stop offset="0.27" style="stop-color:#c82f1c;stop-opacity:1"/><stop offset="0.33" style="stop-color:#820c01;stop-opacity:1"/><stop offset="0.46" style="stop-color:#a31601;stop-opacity:1"/><stop offset="0.72" style="stop-color:#b31301;stop-opacity:1"/><stop offset="0.99" style="stop-color:#e82609;stop-opacity:1"/><stop offset="1" style="stop-color:#e82609;stop-opacity:1"/></linearGradient><linearGradient id="_Linear10" x1="0" y1="0" x2="1" y2="0" gradientUnits="userSpaceOnUse" gradientTransform="matrix(-77.6777,-19.1715,19.1715,-77.6777,256.016,377.315)"><stop offset="0" style="stop-color:#8c0c01;stop-opacity:1"/><stop offset="0" style="stop-color:#8c0c01;stop-opacity:1"/><stop offset="0.54" style="stop-color:#990c00;stop-opacity:1"/><stop offset="0.99" style="stop-color:#a80d0e;stop-opacity:1"/><stop offset="1" style="stop-color:#a80d0e;stop-opacity:1"/></linearGradient><linearGradient id="_Linear11" x1="0" y1="0" x2="1" y2="0" gradientUnits="userSpaceOnUse" gradientTransform="matrix(-69.0063,-61.8483,61.8483,-69.0063,389.436,284.085)"><stop offset="0" style="stop-color:#7e110b;stop-opacity:1"/><stop offset="0" style="stop-color:#7e110b;stop-opacity:1"/><stop offset="0.99" style="stop-color:#9e0c00;stop-opacity:1"/><stop offset="1" style="stop-color:#9e0c00;stop-opacity:1"/></linearGradient><linearGradient id="_Linear12" x1="0" y1="0" x2="1" y2="0" gradientUnits="userSpaceOnUse" gradientTransform="matrix(-34.3733,-36.7476,36.7476,-34.3733,414.789,170.604)"><stop offset="0" style="stop-color:#79130d;stop-opacity:1"/><stop offset="0" style="stop-color:#79130d;stop-opacity:1"/><stop offset="0.99" style="stop-color:#9e120b;stop-opacity:1"/><stop offset="1" style="stop-color:#9e120b;stop-opacity:1"/></linearGradient><radialGradient id="_Radial13" cx="0" cy="0" r="1" gradientUnits="userSpaceOnUse" gradientTransform="matrix(84.5637,0,0,84.5637,331.175,223.419)"><stop offset="0" style="stop-color:#a80d00;stop-opacity:1"/><stop offset="0" style="stop-color:#a80d00;stop-opacity:1"/><stop offset="0.99" style="stop-color:#7e0e08;stop-opacity:1"/><stop offset="1" style="stop-color:#7e0e08;stop-opacity:1"/></radialGradient><radialGradient id="_Radial14" cx="0" cy="0" r="1" gradientUnits="userSpaceOnUse" gradientTransform="matrix(112.416,0,0,112.416,214.064,334.86)"><stop offset="0" style="stop-color:#a30c00;stop-opacity:1"/><stop offset="0" style="stop-color:#a30c00;stop-opacity:1"/><stop offset="0.99" style="stop-color:#800e08;stop-opacity:1"/><stop offset="1" style="stop-color:#800e08;stop-opacity:1"/></radialGradient><linearGradient id="_Linear15" x1="0" y1="0" x2="1" y2="0" gradientUnits="userSpaceOnUse" gradientTransform="matrix(-28.0121,-95.0361,95.0361,-28.0121,134.43,421.484)"><stop offset="0" style="stop-color:#8b2114;stop-opacity:1"/><stop offset="0" style="stop-color:#8b2114;stop-opacity:1"/><stop offset="0.43" style="stop-color:#9e100a;stop-opacity:1"/><stop offset="0.99" style="stop-color:#b3100c;stop-opacity:1"/><stop offset="1" style="stop-color:#b3100c;stop-opacity:1"/></linearGradient><linearGradient id="_Linear16" x1="0" y1="0" x2="1" y2="0" gradientUnits="userSpaceOnUse" gradientTransform="matrix(62.8009,27.7213,-27.7213,62.8009,349.327,106.559)"><stop offset="0" style="stop-color:#b31000;stop-opacity:1"/><stop offset="0" style="stop-color:#b31000;stop-opacity:1"/><stop offset="0.44" style="stop-color:#910f08;stop-opacity:1"/><stop offset="0.99" style="stop-color:#791c12;stop-opacity:1"/><stop offset="1" style="stop-color:#791c12;stop-opacity:1"/></linearGradient></defs></svg>