<?xml version="1.0" encoding="UTF-8" standalone="no"?><!DOCTYPE svg PUBLIC "-//W3C//DTD SVG 1.1//EN" "http://www.w3.org/Graphics/SVG/1.1/DTD/svg11.dtd"><svg width="100%" height="100%" viewBox="0 0 512 512" version="1.1" xmlns="http://www.w3.org/2000/svg" xmlns:xlink="http://www.w3.org/1999/xlink" xml:space="preserve" style="fill-rule:evenodd;clip-rule:evenodd;stroke-linejoin:round;stroke-miterlimit:1.41421;"><g><path d="M419.199,286.365c-5.768,2.035 -11.129,3.868 -16.49,5.903c-1.561,0.611 -1.629,-0.61 -2.104,-1.221c-8.414,-11.943 -16.829,-23.886 -25.243,-35.83c-0.475,-0.746 -1.018,-1.425 -1.561,-2.171c-0.882,0.611 -0.543,1.425 -0.543,2.036c0,11.332 -0.068,22.597 0,33.929c0,1.832 -0.475,2.307 -2.307,2.24c-4.886,-0.136 -9.772,-0.136 -14.658,0c-1.492,0 -2.103,-0.272 -2.103,-1.968c0.068,-34.337 0.068,-68.674 0,-103.01c0,-1.764 0.543,-2.172 2.171,-2.104c4.886,0.136 9.772,0.136 14.658,0c1.696,-0.068 2.171,0.407 2.103,2.104c-0.067,19.34 -0.067,38.747 0,58.087c0,0.814 -0.678,2.036 0.679,2.511c1.221,0.407 1.9,-0.543 2.579,-1.357c7.464,-8.822 14.929,-17.644 22.257,-26.533c1.29,-1.493 2.24,-1.968 4.14,-1.018c3.8,1.9 7.804,3.529 11.875,5.293c-7.464,8.143 -14.657,16.15 -22.054,24.022c-1.697,1.832 -2.036,2.918 -0.272,5.089c9.094,11.197 17.847,22.53 26.873,33.998Z" style="fill-rule:nonzero;"/><path d="M241.273,281.818c-2.036,1.832 -3.597,3.393 -5.361,4.75c-9.84,7.533 -20.697,8.415 -31.826,3.665c-7.939,-3.393 -10.993,-10.518 -11.536,-18.594c-1.154,-17.304 -0.271,-34.608 -0.543,-51.912c0,-1.425 0.611,-1.56 1.765,-1.493c4.953,0.068 9.907,0.136 14.861,0c1.9,-0.067 2.239,0.611 2.239,2.375c-0.068,12.826 -0.136,25.719 0,38.544c0,3.325 -0.068,6.65 0.611,9.908c1.764,8.482 7.736,11.807 15.472,10.789c9.364,-1.221 14.182,-7.6 14.25,-18.322c0.068,-13.504 0.068,-27.007 0,-40.511c0,-2.104 0.407,-2.918 2.714,-2.85c4.818,0.203 9.568,0.135 14.386,0.067c1.357,0 1.832,0.408 1.832,1.765c-0.067,23.207 -0.067,46.347 0,69.555c0,1.357 -0.407,1.764 -1.764,1.764c-5.225,-0.067 -10.382,-0.067 -15.607,0c-1.154,0 -1.561,-0.271 -1.493,-1.493c0.068,-2.578 0,-5.021 0,-8.007Z" style="fill-rule:nonzero;"/><path d="M292.099,227.938c4.004,-4.139 7.668,-7.464 12.35,-9.229c7.261,-2.782 14.726,-3.121 22.122,-0.61c9.161,3.189 13.572,10.382 14.251,19.611c1.221,17.372 0.407,34.811 0.61,52.183c0,1.018 -0.203,1.425 -1.357,1.425c-5.429,-0.067 -10.925,-0.067 -16.354,0c-1.9,0.068 -1.357,-1.221 -1.357,-2.103c0,-14.318 0,-28.637 0,-42.955c0,-2.307 -0.136,-4.546 -0.746,-6.718c-2.443,-8.754 -8.89,-10.857 -16.829,-9.432c-8.347,1.493 -12.622,7.6 -12.69,17.236c-0.068,13.843 -0.068,27.686 0,41.462c0,1.968 -0.407,2.578 -2.443,2.51c-4.954,-0.203 -9.907,-0.135 -14.861,0c-1.357,0 -1.764,-0.339 -1.764,-1.764c0.068,-23.072 0.068,-46.212 0,-69.284c0,-1.561 0.475,-1.9 1.9,-1.832c5.089,0.068 10.246,0.136 15.404,0c1.628,-0.068 1.9,0.543 1.832,1.968c-0.204,2.171 -0.068,4.479 -0.068,7.532Z" style="fill-rule:nonzero;"/><path d="M160.928,237.71c0,-17.101 0,-34.201 -0.068,-51.301c0,-1.765 0.339,-2.375 2.239,-2.308c4.954,0.136 9.908,0.068 14.861,0c1.358,0 1.765,0.34 1.765,1.765c-0.068,34.54 -0.068,69.012 0,103.552c0,1.629 -0.543,1.833 -1.968,1.765c-4.818,-0.068 -9.636,-0.136 -14.386,0c-1.968,0.068 -2.579,-0.407 -2.579,-2.511c0.204,-16.965 0.136,-33.93 0.136,-50.962Z" style="fill-rule:nonzero;"/><path d="M62.329,231.467c-4.343,-2.85 -8.822,-4.614 -14.047,-3.8c-2.986,0.475 -5.428,1.9 -6.446,4.886c-1.018,2.985 0,5.564 2.171,7.736c4.547,4.546 9.975,8.075 14.861,12.214c1.425,1.222 2.782,2.511 4.207,3.732c11.061,9.704 8.279,29.587 -8.957,34.948c-11.875,3.664 -23.14,2.239 -33.386,-5.293c-1.358,-0.95 -1.493,-1.697 -0.543,-3.054c1.56,-2.239 2.985,-4.614 4.275,-7.057c0.678,-1.222 1.085,-1.222 2.103,-0.34c3.8,3.122 7.804,5.836 12.894,6.243c5.903,0.543 10.45,-2.442 11.264,-7.6c0.611,-4.003 -1.153,-7.125 -4.139,-9.568c-3.597,-2.986 -7.397,-5.768 -11.129,-8.686c-4.004,-3.121 -7.872,-6.311 -10.247,-10.925c-5.157,-9.975 -0.271,-22.19 10.993,-26.329c10.586,-3.936 20.833,-2.375 30.605,3.189c0.814,0.475 1.153,0.814 0.543,1.764c-1.765,2.579 -3.326,5.293 -5.022,7.94Z" style="fill-rule:nonzero;"/><path d="M435.62,288.943c0,-3.868 0.068,-7.125 -0.067,-10.382c-0.068,-1.493 0.542,-2.104 1.764,-2.714c13.097,-6.583 26.193,-13.233 39.29,-19.815c0.611,-0.272 1.154,-0.543 1.697,-0.882c1.085,-0.611 1.085,-1.29 0,-1.968c-0.543,-0.34 -1.154,-0.611 -1.697,-0.882c-12.961,-6.515 -25.922,-13.029 -38.951,-19.408c-1.493,-0.747 -2.171,-1.561 -2.103,-3.325c0.135,-3.257 0.067,-6.515 0.067,-10.111c2.647,1.289 5.022,2.443 7.397,3.664c11.604,5.972 23.208,11.876 34.812,17.847c4.41,2.239 8.753,4.547 13.164,6.786c1.018,0.475 1.425,1.086 1.425,2.239c-0.068,2.715 -0.135,5.361 0,8.076c0.068,1.492 -0.475,2.307 -1.832,2.985c-14.25,7.126 -28.501,14.319 -42.751,21.579c-4.004,1.901 -7.872,4.004 -12.215,6.311Z" style="fill:#73af37;fill-rule:nonzero;"/><path d="M148.238,233.299c-9.5,-20.358 -36.168,-21.783 -48.655,-7.736c-0.814,0.882 -1.764,1.697 -3.053,2.986c0,-3.122 -0.068,-5.7 0,-8.279c0.068,-1.493 -0.339,-1.968 -1.9,-1.9c-4.886,0.068 -9.772,0.136 -14.658,0c-1.493,0 -1.9,0.407 -1.9,1.9c0.068,35.219 0.068,70.506 0,105.724c0,1.697 0.611,1.968 2.036,1.9c4.75,-0.068 9.432,-0.135 14.182,0c1.968,0.068 2.172,-0.678 2.172,-2.375c-0.068,-13.572 -0.068,-27.211 -0.068,-40.783c0,-0.882 0,-1.764 0,-3.257c0.95,1.018 1.425,1.561 1.968,2.103c2.986,3.122 6.107,6.04 10.247,7.669c11.332,4.546 26.397,0.475 34.404,-9.84c11.536,-14.929 13.029,-31.419 5.225,-48.112Zm-15.336,20.29c-0.271,6.718 -1.153,13.3 -4.411,19.475c-6.582,12.419 -22.189,10.315 -27.754,0.543c-3.8,-6.65 -4.614,-13.911 -4.207,-21.375c0.271,-5.225 1.289,-10.247 3.732,-14.929c5.361,-10.043 17.711,-12.622 25.447,-5.293c4.207,4.003 5.904,9.229 6.718,14.725c0.204,2.307 0.611,4.615 0.475,6.854Z" style="fill-rule:nonzero;"/></g></svg>