<?xml version="1.0" encoding="UTF-8" standalone="no"?><!DOCTYPE svg PUBLIC "-//W3C//DTD SVG 1.1//EN" "http://www.w3.org/Graphics/SVG/1.1/DTD/svg11.dtd"><svg width="100%" height="100%" viewBox="0 0 512 512" version="1.1" xmlns="http://www.w3.org/2000/svg" xmlns:xlink="http://www.w3.org/1999/xlink" xml:space="preserve" style="fill-rule:evenodd;clip-rule:evenodd;stroke-linejoin:round;stroke-miterlimit:1.41421;"><path d="M402.714,406.775l-24.113,24.112c-4.308,4.285 -16.919,6.994 -17.296,6.994c-76.334,0.644 -149.825,-29.329 -203.834,-83.35c-54.163,-54.153 -84.17,-127.933 -83.337,-204.488c0,-0.045 2.764,-12.301 7.061,-16.564l24.112,-24.135c8.848,-8.836 25.788,-12.833 37.656,-8.881l5.085,1.71c11.867,3.951 24.267,17.051 27.553,29.107l12.145,44.561c3.297,12.079 -1.133,29.263 -9.969,38.1l-16.12,16.119c15.809,58.594 61.757,104.532 120.318,120.363l16.119,-16.12c8.838,-8.837 26.067,-13.255 38.145,-9.969l44.562,12.168c12.034,3.264 25.133,15.652 29.108,27.53l1.687,5.085c3.951,11.88 -0.045,28.821 -8.882,37.658Z" style="fill:#d9534f;stroke:#e3aa50;stroke-width:1px;"/><path d="M278.733,255.995c0,15.97 22.735,16.446 22.735,0c0,-25.112 -20.359,-45.472 -45.471,-45.472c-16.692,0 -16.563,22.736 0,22.736c12.533,0 22.736,10.213 22.736,22.736Z" style="fill:#333842;"/><path d="M369.675,255.995c0,-62.79 -50.889,-113.679 -113.678,-113.679c-15.215,0 -14.961,22.736 0,22.736c50.157,0 90.943,40.809 90.943,90.943c0,17.685 22.735,16.485 22.735,0Z" style="fill:#586172;"/><path d="M255.997,74.109c-19.237,0.093 -17.029,22.735 0,22.735c87.745,0 159.15,71.405 159.15,159.151c0,21.078 22.735,22.244 22.735,0c0,-100.446 -81.44,-182.375 -181.885,-181.886Z" style="fill:#8992a4;"/></svg>