<?xml version="1.0" encoding="UTF-8" standalone="no"?><!DOCTYPE svg PUBLIC "-//W3C//DTD SVG 1.1//EN" "http://www.w3.org/Graphics/SVG/1.1/DTD/svg11.dtd"><svg width="100%" height="100%" viewBox="0 0 512 512" version="1.1" xmlns="http://www.w3.org/2000/svg" xmlns:xlink="http://www.w3.org/1999/xlink" xml:space="preserve" style="fill-rule:evenodd;clip-rule:evenodd;stroke-linejoin:round;stroke-miterlimit:1.41421;"><path d="M236.111,91.89c82.86,-5.968 167.639,25.034 226.777,83.423c7.748,7.977 6.738,21.931 -1.437,29.241c-7.508,8.852 -22.545,9.008 -30.294,0.386c-50.589,-48.704 -122.017,-75.041 -192.151,-69.803c-58.265,3.749 -114.707,28.846 -156.986,69.042c-3.76,3.844 -8.561,6.999 -14.09,7.269c-13.85,1.624 -26.658,-12.851 -23.669,-26.398c0.843,-4.863 3.966,-8.914 7.538,-12.153c49.497,-47.392 115.946,-76.499 184.312,-81.007Z" style="fill:#56bfe0;fill-rule:nonzero;"/><path d="M234.06,173.147c63.481,-6.905 129.4,16.495 174.323,61.856c7.019,8.019 6.144,21.13 -1.655,28.336c-7.113,8.706 -21.452,9.684 -29.513,1.79c-28.762,-28.356 -67.647,-46.361 -107.967,-49.308c-48.966,-4.062 -98.993,14.516 -133.858,49.017c-8.04,8.498 -23.015,7.53 -30.251,-1.51c-7.8,-7.362 -8.445,-20.828 -0.958,-28.627c34.553,-34.572 81.278,-56.566 129.879,-61.554Z" style="fill:#27a9d2;fill-rule:nonzero;"/><path d="M243.443,253.321c40.06,-3.977 81.476,11.362 109.353,40.375c7.633,7.945 6.749,21.619 -1.292,28.971c-7.3,8.81 -21.931,9.404 -29.866,1.145c-15.713,-16.129 -37.479,-26.325 -60.014,-27.554c-25.575,-1.823 -51.453,8.279 -69.615,26.252c-4.467,5.021 -11.101,8.103 -17.89,7.302c-15.766,-1.105 -26.711,-22.152 -15.85,-34.783c21.931,-23.785 53.078,-38.521 85.174,-41.708Z" style="fill:#208aac;fill-rule:nonzero;"/><path d="M249.618,328.185c25.815,-4.332 52.016,16.986 52.849,43.164c2.395,25.669 -20.265,50.028 -46.027,49.464c-23.16,0.803 -44.623,-18.411 -46.654,-41.445c-3.302,-24.181 15.609,-48.392 39.832,-51.183Z" style="fill:#186780;fill-rule:nonzero;"/></svg>