<?xml version="1.0" encoding="UTF-8" standalone="no"?><!DOCTYPE svg PUBLIC "-//W3C//DTD SVG 1.1//EN" "http://www.w3.org/Graphics/SVG/1.1/DTD/svg11.dtd"><svg width="100%" height="100%" viewBox="0 0 579 579" version="1.1" xmlns="http://www.w3.org/2000/svg" xmlns:xlink="http://www.w3.org/1999/xlink" xml:space="preserve" style="fill-rule:evenodd;clip-rule:evenodd;stroke-linejoin:round;stroke-miterlimit:1.41421;"><g><g><path d="M164.729,356.335c7.148,0 12.941,5.794 12.941,12.941l0,62.555c0,7.148 -5.793,12.941 -12.941,12.941l-62.555,0c-7.148,0 -12.941,-5.793 -12.941,-12.941l0,-62.555c0,-7.147 5.793,-12.941 12.941,-12.941l62.555,0Z" style="fill:#9fd59f;"/><path d="M165.163,335.337l0.431,0.008l0.432,0.014l0.433,0.019l0.429,0.024l0.428,0.03l0.431,0.036l0.428,0.041l0.423,0.045l0.426,0.051l0.425,0.057l0.422,0.062l0.422,0.067l0.42,0.073l0.418,0.077l0.415,0.082l0.416,0.088l0.413,0.093l0.411,0.097l0.41,0.103l0.408,0.108l0.406,0.112l0.403,0.117l0.4,0.122l0.4,0.127l0.398,0.132l0.394,0.136l0.396,0.142l0.391,0.146l0.385,0.15l0.385,0.154l0.384,0.16l0.384,0.165l0.378,0.168l0.374,0.172l0.374,0.177l0.371,0.182l0.367,0.185l0.365,0.19l0.363,0.194l0.361,0.199l0.357,0.202l0.353,0.206l0.351,0.211l0.349,0.215l0.347,0.219l0.343,0.223l0.338,0.225l0.337,0.231l0.334,0.235l0.33,0.237l0.327,0.242l0.325,0.246l0.321,0.249l0.319,0.254l0.315,0.257l0.311,0.259l0.309,0.265l0.306,0.268l0.301,0.271l0.299,0.274l0.294,0.277l0.292,0.282l0.29,0.287l0.285,0.288l0.281,0.292l0.279,0.295l0.274,0.299l0.271,0.301l0.267,0.305l0.264,0.309l0.261,0.312l0.257,0.316l0.252,0.317l0.25,0.321l0.246,0.325l0.242,0.328l0.238,0.33l0.233,0.333l0.232,0.338l0.226,0.339l0.222,0.342l0.22,0.347l0.214,0.348l0.21,0.351l0.207,0.354l0.202,0.357l0.199,0.36l0.194,0.363l0.189,0.365l0.186,0.368l0.181,0.37l0.177,0.373l0.173,0.377l0.169,0.379l0.163,0.38l0.16,0.384l0.154,0.384l0.151,0.39l0.146,0.391l0.141,0.392l0.136,0.394l0.132,0.399l0.127,0.4l0.122,0.4l0.117,0.404l0.113,0.406l0.107,0.407l0.103,0.41l0.097,0.411l0.093,0.412l0.088,0.416l0.082,0.417l0.077,0.417l0.073,0.42l0.067,0.421l0.062,0.422l0.056,0.424l0.052,0.425l0.045,0.426l0.041,0.428l0.035,0.429l0.03,0.429l0.025,0.431l0.019,0.431l0.014,0.432l0.008,0.432l0.002,0.366l0,62.689l-0.002,0.366l-0.008,0.432l-0.014,0.432l-0.019,0.431l-0.025,0.431l-0.029,0.429l-0.036,0.428l-0.041,0.428l-0.045,0.426l-0.052,0.426l-0.056,0.423l-0.062,0.422l-0.067,0.422l-0.072,0.42l-0.078,0.416l-0.082,0.418l-0.088,0.416l-0.092,0.412l-0.098,0.411l-0.103,0.41l-0.107,0.407l-0.113,0.406l-0.117,0.404l-0.122,0.401l-0.127,0.4l-0.132,0.398l-0.136,0.395l-0.141,0.392l-0.146,0.391l-0.15,0.388l-0.155,0.385l-0.159,0.383l-0.164,0.382l-0.169,0.378l-0.172,0.376l-0.178,0.374l-0.181,0.37l-0.185,0.368l-0.19,0.366l-0.195,0.363l-0.198,0.359l-0.202,0.358l-0.207,0.354l-0.21,0.351l-0.214,0.347l-0.22,0.347l-0.222,0.343l-0.226,0.339l-0.232,0.338l-0.233,0.333l-0.239,0.331l-0.242,0.328l-0.245,0.324l-0.25,0.321l-0.252,0.317l-0.257,0.315l-0.262,0.314l-0.263,0.307l-0.267,0.305l-0.272,0.303l-0.274,0.298l-0.279,0.295l-0.28,0.291l-0.285,0.289l-0.29,0.286l-0.292,0.282l-0.295,0.278l-0.299,0.275l-0.301,0.27l-0.306,0.268l-0.308,0.264l-0.312,0.261l-0.315,0.256l-0.318,0.253l-0.322,0.25l-0.324,0.245l-0.327,0.242l-0.331,0.239l-0.333,0.233l-0.338,0.232l-0.339,0.226l-0.343,0.222l-0.346,0.219l-0.348,0.214l-0.351,0.211l-0.355,0.207l-0.357,0.202l-0.361,0.199l-0.363,0.194l-0.363,0.189l-0.367,0.185l-0.373,0.183l-0.374,0.177l-0.374,0.172l-0.378,0.168l-0.382,0.164l-0.384,0.16l-0.387,0.155l-0.387,0.15l-0.389,0.146l-0.394,0.141l-0.394,0.136l-0.398,0.132l-0.4,0.127l-0.402,0.122l-0.403,0.117l-0.404,0.112l-0.41,0.108l-0.41,0.103l-0.409,0.097l-0.413,0.093l-0.416,0.088l-0.418,0.082l-0.417,0.078l-0.418,0.072l-0.422,0.067l-0.424,0.062l-0.423,0.056l-0.424,0.051l-0.427,0.047l-0.429,0.04l-0.426,0.035l-0.43,0.03l-0.431,0.025l-0.431,0.019l-0.432,0.014l-0.433,0.008l-0.367,0.002l-62.685,0l-0.367,-0.002l-0.433,-0.008l-0.432,-0.014l-0.431,-0.019l-0.431,-0.025l-0.43,-0.03l-0.426,-0.035l-0.429,-0.04l-0.428,-0.047l-0.423,-0.051l-0.423,-0.056l-0.424,-0.062l-0.422,-0.067l-0.418,-0.072l-0.418,-0.078l-0.417,-0.082l-0.416,-0.088l-0.413,-0.093l-0.409,-0.097l-0.41,-0.103l-0.411,-0.108l-0.403,-0.112l-0.403,-0.117l-0.403,-0.122l-0.4,-0.127l-0.397,-0.132l-0.394,-0.136l-0.394,-0.141l-0.389,-0.146l-0.388,-0.15l-0.386,-0.155l-0.385,-0.16l-0.381,-0.164l-0.378,-0.168l-0.375,-0.172l-0.374,-0.177l-0.372,-0.183l-0.368,-0.185l-0.362,-0.189l-0.363,-0.194l-0.362,-0.199l-0.356,-0.202l-0.355,-0.207l-0.352,-0.211l-0.346,-0.213l-0.347,-0.22l-0.344,-0.223l-0.338,-0.225l-0.338,-0.231l-0.333,-0.234l-0.331,-0.239l-0.327,-0.241l-0.324,-0.246l-0.323,-0.25l-0.317,-0.252l-0.314,-0.257l-0.313,-0.261l-0.308,-0.264l-0.305,-0.267l-0.302,-0.271l-0.299,-0.275l-0.296,-0.279l-0.291,-0.281l-0.29,-0.286l-0.285,-0.288l-0.281,-0.292l-0.278,-0.295l-0.274,-0.298l-0.272,-0.303l-0.268,-0.306l-0.263,-0.307l-0.261,-0.312l-0.257,-0.316l-0.253,-0.317l-0.249,-0.321l-0.245,-0.325l-0.243,-0.328l-0.238,-0.33l-0.234,-0.334l-0.231,-0.337l-0.226,-0.339l-0.222,-0.343l-0.22,-0.347l-0.214,-0.347l-0.21,-0.351l-0.207,-0.354l-0.203,-0.358l-0.198,-0.359l-0.194,-0.364l-0.19,-0.365l-0.185,-0.367l-0.182,-0.371l-0.177,-0.374l-0.173,-0.376l-0.168,-0.378l-0.164,-0.381l-0.159,-0.383l-0.155,-0.387l-0.15,-0.387l-0.146,-0.391l-0.141,-0.393l-0.136,-0.395l-0.132,-0.397l-0.127,-0.399l-0.122,-0.402l-0.118,-0.404l-0.112,-0.406l-0.108,-0.407l-0.102,-0.41l-0.098,-0.411l-0.092,-0.413l-0.088,-0.415l-0.082,-0.416l-0.078,-0.419l-0.072,-0.419l-0.067,-0.421l-0.062,-0.423l-0.056,-0.424l-0.052,-0.425l-0.046,-0.426l-0.04,-0.428l-0.036,-0.427l-0.03,-0.43l-0.024,-0.431l-0.019,-0.431l-0.014,-0.432l-0.008,-0.432l-0.002,-0.367l0,-62.687l0.002,-0.367l0.008,-0.432l0.014,-0.432l0.019,-0.432l0.024,-0.43l0.03,-0.43l0.036,-0.428l0.04,-0.427l0.046,-0.427l0.052,-0.424l0.056,-0.425l0.062,-0.423l0.067,-0.42l0.072,-0.419l0.078,-0.419l0.082,-0.416l0.088,-0.415l0.092,-0.413l0.098,-0.411l0.103,-0.41l0.107,-0.407l0.113,-0.406l0.117,-0.404l0.122,-0.401l0.127,-0.399l0.132,-0.398l0.136,-0.395l0.141,-0.393l0.146,-0.39l0.15,-0.389l0.155,-0.386l0.16,-0.384l0.163,-0.38l0.168,-0.377l0.173,-0.377l0.177,-0.373l0.182,-0.371l0.186,-0.369l0.189,-0.364l0.194,-0.362l0.198,-0.36l0.203,-0.358l0.207,-0.355l0.21,-0.35l0.214,-0.348l0.22,-0.347l0.222,-0.343l0.226,-0.338l0.231,-0.338l0.234,-0.333l0.238,-0.33l0.242,-0.328l0.246,-0.325l0.249,-0.321l0.253,-0.318l0.257,-0.315l0.26,-0.312l0.264,-0.308l0.268,-0.306l0.271,-0.301l0.274,-0.299l0.278,-0.295l0.282,-0.292l0.285,-0.288l0.29,-0.286l0.291,-0.282l0.295,-0.278l0.299,-0.274l0.301,-0.271l0.306,-0.268l0.309,-0.264l0.311,-0.261l0.315,-0.256l0.318,-0.254l0.321,-0.249l0.326,-0.246l0.327,-0.242l0.33,-0.237l0.334,-0.235l0.337,-0.231l0.338,-0.225l0.343,-0.223l0.347,-0.22l0.348,-0.214l0.352,-0.211l0.353,-0.206l0.357,-0.202l0.361,-0.199l0.363,-0.194l0.364,-0.19l0.368,-0.185l0.37,-0.182l0.374,-0.177l0.376,-0.172l0.377,-0.169l0.383,-0.164l0.385,-0.16l0.384,-0.154l0.386,-0.15l0.391,-0.146l0.396,-0.142l0.394,-0.136l0.397,-0.132l0.4,-0.127l0.401,-0.122l0.403,-0.117l0.405,-0.112l0.409,-0.108l0.41,-0.103l0.411,-0.097l0.413,-0.093l0.416,-0.088l0.415,-0.082l0.418,-0.077l0.42,-0.073l0.422,-0.067l0.421,-0.062l0.426,-0.057l0.426,-0.051l0.422,-0.045l0.429,-0.041l0.431,-0.036l0.428,-0.03l0.429,-0.024l0.433,-0.019l0.432,-0.014l0.431,-0.008l0.367,-0.002l62.689,0l0.367,0.002Zm-63.156,20.999l-0.167,0.003l-0.166,0.005l-0.166,0.007l-0.165,0.01l-0.165,0.011l-0.164,0.014l-0.163,0.015l-0.163,0.018l-0.162,0.02l-0.162,0.021l-0.161,0.024l-0.16,0.025l-0.16,0.028l-0.159,0.029l-0.158,0.031l-0.158,0.034l-0.157,0.035l-0.156,0.037l-0.155,0.039l-0.155,0.041l-0.154,0.043l-0.153,0.044l-0.153,0.046l-0.151,0.049l-0.151,0.05l-0.15,0.051l-0.149,0.054l-0.148,0.055l-0.148,0.057l-0.146,0.059l-0.146,0.061l-0.144,0.062l-0.144,0.064l-0.143,0.065l-0.142,0.068l-0.141,0.069l-0.14,0.07l-0.139,0.073l-0.138,0.074l-0.137,0.075l-0.136,0.077l-0.135,0.079l-0.134,0.08l-0.133,0.082l-0.132,0.083l-0.13,0.085l-0.13,0.087l-0.129,0.088l-0.127,0.089l-0.126,0.091l-0.126,0.093l-0.123,0.094l-0.123,0.095l-0.122,0.097l-0.12,0.098l-0.12,0.099l-0.118,0.102l-0.116,0.102l-0.116,0.104l-0.114,0.105l-0.113,0.106l-0.112,0.108l-0.11,0.109l-0.11,0.111l-0.107,0.111l-0.107,0.113l-0.105,0.115l-0.104,0.115l-0.102,0.117l-0.101,0.118l-0.1,0.119l-0.098,0.121l-0.097,0.121l-0.095,0.123l-0.094,0.124l-0.092,0.125l-0.091,0.127l-0.09,0.127l-0.088,0.129l-0.086,0.129l-0.085,0.131l-0.083,0.132l-0.082,0.133l-0.08,0.134l-0.079,0.135l-0.077,0.136l-0.076,0.137l-0.074,0.138l-0.072,0.139l-0.071,0.14l-0.068,0.141l-0.068,0.142l-0.065,0.142l-0.064,0.144l-0.063,0.145l-0.06,0.145l-0.059,0.147l-0.057,0.147l-0.055,0.149l-0.054,0.149l-0.052,0.15l-0.05,0.15l-0.048,0.152l-0.046,0.152l-0.045,0.153l-0.042,0.154l-0.041,0.155l-0.039,0.155l-0.037,0.157l-0.035,0.157l-0.034,0.157l-0.031,0.158l-0.029,0.159l-0.028,0.16l-0.025,0.16l-0.024,0.161l-0.022,0.162l-0.019,0.162l-0.018,0.163l-0.015,0.164l-0.014,0.164l-0.011,0.164l-0.01,0.165l-0.007,0.166l-0.005,0.166l-0.003,0.167l-0.001,0.167l0,62.555l0.001,0.167l0.003,0.167l0.005,0.166l0.007,0.166l0.01,0.165l0.011,0.164l0.014,0.165l0.015,0.163l0.018,0.163l0.019,0.162l0.022,0.162l0.024,0.161l0.025,0.16l0.028,0.16l0.029,0.159l0.031,0.158l0.034,0.158l0.035,0.157l0.037,0.156l0.039,0.155l0.041,0.155l0.042,0.154l0.045,0.153l0.046,0.152l0.048,0.152l0.05,0.151l0.052,0.15l0.054,0.149l0.055,0.148l0.057,0.147l0.059,0.147l0.06,0.146l0.063,0.144l0.064,0.144l0.065,0.143l0.068,0.142l0.068,0.141l0.071,0.14l0.072,0.139l0.074,0.138l0.076,0.137l0.077,0.136l0.079,0.135l0.08,0.134l0.082,0.133l0.083,0.132l0.085,0.13l0.086,0.13l0.088,0.128l0.09,0.128l0.091,0.126l0.092,0.125l0.094,0.124l0.095,0.123l0.097,0.122l0.098,0.12l0.1,0.119l0.101,0.118l0.102,0.117l0.104,0.116l0.105,0.114l0.107,0.113l0.107,0.112l0.11,0.11l0.11,0.109l0.112,0.108l0.113,0.107l0.114,0.105l0.116,0.103l0.116,0.103l0.118,0.101l0.12,0.099l0.12,0.099l0.122,0.096l0.123,0.096l0.123,0.094l0.126,0.092l0.126,0.091l0.127,0.089l0.129,0.088l0.13,0.087l0.13,0.085l0.132,0.083l0.133,0.082l0.134,0.08l0.135,0.079l0.136,0.077l0.137,0.076l0.138,0.073l0.139,0.073l0.14,0.07l0.141,0.069l0.142,0.068l0.143,0.065l0.144,0.064l0.144,0.062l0.146,0.061l0.146,0.059l0.148,0.057l0.148,0.055l0.149,0.054l0.15,0.051l0.151,0.05l0.151,0.049l0.153,0.046l0.153,0.044l0.154,0.043l0.155,0.041l0.155,0.039l0.156,0.037l0.157,0.035l0.158,0.033l0.158,0.032l0.159,0.029l0.16,0.028l0.16,0.025l0.161,0.024l0.162,0.021l0.162,0.02l0.163,0.018l0.163,0.015l0.164,0.014l0.165,0.011l0.165,0.009l0.166,0.008l0.166,0.005l0.167,0.003l0.167,0.001l62.555,0l0.167,-0.001l0.167,-0.003l0.166,-0.005l0.166,-0.008l0.165,-0.009l0.164,-0.011l0.165,-0.014l0.163,-0.015l0.163,-0.018l0.162,-0.02l0.162,-0.021l0.161,-0.024l0.16,-0.025l0.16,-0.028l0.159,-0.029l0.158,-0.032l0.158,-0.033l0.157,-0.035l0.156,-0.037l0.155,-0.039l0.155,-0.041l0.154,-0.043l0.153,-0.044l0.152,-0.046l0.152,-0.049l0.151,-0.05l0.15,-0.051l0.149,-0.054l0.148,-0.055l0.147,-0.057l0.147,-0.059l0.146,-0.061l0.144,-0.062l0.144,-0.064l0.143,-0.065l0.142,-0.068l0.141,-0.069l0.14,-0.07l0.139,-0.073l0.138,-0.073l0.137,-0.076l0.136,-0.077l0.135,-0.079l0.134,-0.08l0.133,-0.082l0.132,-0.083l0.13,-0.085l0.13,-0.087l0.128,-0.088l0.128,-0.089l0.126,-0.091l0.125,-0.092l0.124,-0.094l0.123,-0.096l0.122,-0.096l0.12,-0.099l0.119,-0.099l0.118,-0.101l0.117,-0.103l0.116,-0.103l0.114,-0.105l0.113,-0.107l0.112,-0.108l0.11,-0.109l0.109,-0.11l0.108,-0.112l0.107,-0.113l0.105,-0.114l0.103,-0.116l0.103,-0.117l0.101,-0.118l0.099,-0.119l0.099,-0.12l0.096,-0.122l0.096,-0.123l0.094,-0.124l0.092,-0.125l0.091,-0.126l0.089,-0.128l0.088,-0.128l0.087,-0.13l0.085,-0.13l0.083,-0.132l0.082,-0.133l0.08,-0.134l0.079,-0.135l0.077,-0.136l0.076,-0.137l0.073,-0.138l0.073,-0.139l0.07,-0.14l0.069,-0.141l0.068,-0.142l0.065,-0.143l0.064,-0.144l0.062,-0.144l0.061,-0.146l0.059,-0.147l0.057,-0.147l0.055,-0.148l0.054,-0.149l0.051,-0.15l0.05,-0.151l0.049,-0.152l0.046,-0.152l0.044,-0.153l0.043,-0.154l0.041,-0.155l0.039,-0.155l0.037,-0.156l0.035,-0.157l0.033,-0.158l0.032,-0.158l0.029,-0.159l0.028,-0.16l0.025,-0.16l0.024,-0.161l0.021,-0.162l0.02,-0.162l0.018,-0.163l0.015,-0.163l0.014,-0.165l0.011,-0.164l0.009,-0.165l0.008,-0.166l0.005,-0.166l0.003,-0.167l0.001,-0.167l0,-62.555l-0.001,-0.167l-0.003,-0.167l-0.005,-0.166l-0.008,-0.166l-0.009,-0.165l-0.011,-0.164l-0.014,-0.164l-0.015,-0.164l-0.018,-0.163l-0.02,-0.162l-0.021,-0.162l-0.024,-0.161l-0.025,-0.16l-0.028,-0.16l-0.029,-0.159l-0.032,-0.158l-0.033,-0.157l-0.035,-0.157l-0.037,-0.157l-0.039,-0.155l-0.041,-0.155l-0.043,-0.154l-0.044,-0.153l-0.046,-0.152l-0.049,-0.152l-0.05,-0.15l-0.051,-0.15l-0.054,-0.149l-0.055,-0.149l-0.057,-0.147l-0.059,-0.147l-0.061,-0.145l-0.062,-0.145l-0.064,-0.144l-0.065,-0.142l-0.068,-0.142l-0.069,-0.141l-0.07,-0.14l-0.073,-0.139l-0.073,-0.138l-0.076,-0.137l-0.077,-0.136l-0.079,-0.135l-0.08,-0.134l-0.082,-0.133l-0.083,-0.132l-0.085,-0.131l-0.087,-0.129l-0.088,-0.129l-0.089,-0.127l-0.091,-0.127l-0.092,-0.125l-0.094,-0.124l-0.096,-0.123l-0.096,-0.121l-0.099,-0.121l-0.099,-0.119l-0.101,-0.118l-0.103,-0.117l-0.103,-0.115l-0.105,-0.115l-0.107,-0.113l-0.108,-0.111l-0.109,-0.111l-0.11,-0.109l-0.112,-0.108l-0.113,-0.106l-0.114,-0.105l-0.116,-0.104l-0.117,-0.102l-0.118,-0.102l-0.119,-0.099l-0.12,-0.098l-0.122,-0.097l-0.123,-0.095l-0.124,-0.094l-0.125,-0.093l-0.126,-0.091l-0.128,-0.089l-0.128,-0.088l-0.13,-0.087l-0.13,-0.085l-0.132,-0.083l-0.133,-0.082l-0.134,-0.08l-0.135,-0.079l-0.136,-0.077l-0.137,-0.075l-0.138,-0.074l-0.139,-0.073l-0.14,-0.07l-0.141,-0.069l-0.142,-0.068l-0.143,-0.065l-0.144,-0.064l-0.144,-0.062l-0.146,-0.061l-0.147,-0.059l-0.147,-0.057l-0.148,-0.055l-0.149,-0.054l-0.15,-0.051l-0.151,-0.05l-0.152,-0.049l-0.152,-0.046l-0.153,-0.044l-0.154,-0.043l-0.155,-0.041l-0.155,-0.039l-0.156,-0.037l-0.157,-0.035l-0.158,-0.034l-0.158,-0.031l-0.159,-0.029l-0.16,-0.028l-0.16,-0.025l-0.161,-0.024l-0.162,-0.021l-0.162,-0.02l-0.163,-0.018l-0.163,-0.015l-0.165,-0.014l-0.164,-0.011l-0.165,-0.01l-0.166,-0.007l-0.166,-0.005l-0.167,-0.003l-0.167,-0.001l-62.555,0l-0.167,0.001Z" style="fill:#5cb85c;"/><path d="M320.55,356.335c7.147,0 12.942,5.794 12.942,12.941l0,62.555c0,7.148 -5.795,12.941 -12.942,12.941l-62.555,0c-7.148,0 -12.942,-5.793 -12.942,-12.941l0,-62.555c0,-7.147 5.793,-12.941 12.942,-12.941l62.555,0Z" style="fill:#9fd59f;"/><path d="M320.982,335.337l0.433,0.008l0.432,0.014l0.431,0.019l0.431,0.024l0.43,0.03l0.429,0.036l0.426,0.04l0.428,0.046l0.425,0.052l0.424,0.056l0.421,0.062l0.42,0.067l0.42,0.072l0.42,0.078l0.418,0.083l0.413,0.087l0.413,0.093l0.41,0.097l0.409,0.103l0.411,0.108l0.405,0.112l0.404,0.118l0.399,0.121l0.4,0.127l0.4,0.133l0.393,0.136l0.393,0.141l0.391,0.146l0.387,0.149l0.387,0.156l0.385,0.16l0.379,0.163l0.377,0.168l0.377,0.173l0.375,0.178l0.37,0.181l0.367,0.185l0.365,0.19l0.363,0.194l0.361,0.199l0.357,0.203l0.353,0.206l0.351,0.21l0.348,0.214l0.347,0.22l0.342,0.222l0.339,0.226l0.339,0.232l0.333,0.234l0.328,0.236l0.328,0.242l0.327,0.248l0.32,0.248l0.318,0.253l0.315,0.257l0.311,0.26l0.309,0.265l0.305,0.267l0.301,0.27l0.3,0.276l0.295,0.278l0.293,0.282l0.289,0.286l0.283,0.287l0.281,0.291l0.279,0.296l0.276,0.3l0.272,0.303l0.265,0.303l0.264,0.308l0.261,0.312l0.257,0.315l0.253,0.318l0.249,0.322l0.245,0.323l0.243,0.329l0.239,0.331l0.232,0.331l0.232,0.339l0.226,0.339l0.222,0.342l0.22,0.347l0.214,0.348l0.209,0.349l0.207,0.355l0.204,0.359l0.198,0.36l0.194,0.363l0.19,0.364l0.185,0.367l0.182,0.371l0.177,0.373l0.172,0.375l0.168,0.379l0.165,0.382l0.16,0.385l0.155,0.385l0.15,0.388l0.145,0.388l0.141,0.394l0.137,0.397l0.132,0.397l0.127,0.399l0.121,0.4l0.118,0.404l0.112,0.406l0.108,0.408l0.103,0.41l0.097,0.411l0.093,0.413l0.088,0.416l0.082,0.415l0.077,0.418l0.073,0.42l0.067,0.422l0.062,0.424l0.056,0.423l0.052,0.423l0.046,0.428l0.04,0.426l0.036,0.429l0.03,0.43l0.024,0.429l0.019,0.433l0.014,0.432l0.008,0.433l0.003,0.367l0,62.685l-0.003,0.367l-0.008,0.433l-0.014,0.432l-0.019,0.433l-0.024,0.429l-0.03,0.43l-0.036,0.429l-0.04,0.426l-0.046,0.427l-0.051,0.424l-0.057,0.423l-0.062,0.424l-0.067,0.422l-0.073,0.42l-0.077,0.418l-0.082,0.415l-0.088,0.416l-0.093,0.413l-0.097,0.411l-0.103,0.41l-0.108,0.409l-0.112,0.405l-0.117,0.403l-0.122,0.401l-0.127,0.399l-0.132,0.398l-0.137,0.396l-0.141,0.394l-0.145,0.389l-0.15,0.387l-0.155,0.385l-0.16,0.384l-0.165,0.384l-0.168,0.378l-0.172,0.374l-0.177,0.374l-0.182,0.371l-0.185,0.367l-0.19,0.365l-0.194,0.363l-0.199,0.36l-0.202,0.357l-0.207,0.355l-0.21,0.352l-0.215,0.347l-0.219,0.347l-0.222,0.341l-0.226,0.34l-0.232,0.338l-0.232,0.332l-0.239,0.331l-0.243,0.329l-0.246,0.324l-0.248,0.32l-0.253,0.318l-0.257,0.316l-0.261,0.312l-0.264,0.308l-0.267,0.304l-0.271,0.303l-0.275,0.299l-0.279,0.296l-0.281,0.291l-0.285,0.288l-0.29,0.287l-0.291,0.28l-0.294,0.277l-0.3,0.276l-0.301,0.271l-0.306,0.268l-0.309,0.264l-0.31,0.259l-0.315,0.257l-0.319,0.254l-0.321,0.249l-0.325,0.246l-0.328,0.242l-0.33,0.238l-0.334,0.235l-0.336,0.229l-0.339,0.226l-0.345,0.224l-0.346,0.219l-0.346,0.213l-0.351,0.211l-0.355,0.207l-0.357,0.202l-0.359,0.198l-0.364,0.195l-0.366,0.19l-0.365,0.184l-0.372,0.182l-0.375,0.178l-0.375,0.172l-0.377,0.168l-0.381,0.164l-0.385,0.16l-0.387,0.155l-0.387,0.15l-0.389,0.145l-0.395,0.142l-0.393,0.136l-0.398,0.132l-0.4,0.127l-0.402,0.122l-0.403,0.117l-0.405,0.113l-0.409,0.107l-0.409,0.103l-0.412,0.098l-0.411,0.092l-0.416,0.088l-0.417,0.082l-0.416,0.077l-0.42,0.073l-0.424,0.067l-0.421,0.062l-0.422,0.056l-0.427,0.052l-0.426,0.045l-0.426,0.041l-0.431,0.036l-0.428,0.029l-0.429,0.025l-0.433,0.019l-0.432,0.014l-0.433,0.008l-0.367,0.002l-62.685,0l-0.368,-0.002l-0.433,-0.008l-0.432,-0.014l-0.433,-0.019l-0.429,-0.025l-0.428,-0.029l-0.43,-0.036l-0.427,-0.041l-0.425,-0.045l-0.428,-0.052l-0.421,-0.056l-0.422,-0.062l-0.424,-0.067l-0.42,-0.073l-0.415,-0.077l-0.418,-0.082l-0.415,-0.088l-0.412,-0.092l-0.412,-0.098l-0.409,-0.103l-0.408,-0.107l-0.405,-0.113l-0.404,-0.117l-0.402,-0.122l-0.4,-0.127l-0.397,-0.132l-0.395,-0.136l-0.393,-0.142l-0.389,-0.145l-0.388,-0.15l-0.387,-0.155l-0.384,-0.16l-0.381,-0.164l-0.378,-0.168l-0.375,-0.172l-0.374,-0.177l-0.373,-0.183l-0.365,-0.184l-0.364,-0.189l-0.365,-0.196l-0.36,-0.198l-0.356,-0.202l-0.355,-0.207l-0.352,-0.211l-0.347,-0.213l-0.345,-0.219l-0.345,-0.224l-0.339,-0.226l-0.335,-0.229l-0.335,-0.235l-0.331,-0.238l-0.328,-0.243l-0.324,-0.245l-0.32,-0.248l-0.32,-0.255l-0.315,-0.257l-0.31,-0.259l-0.309,-0.264l-0.305,-0.268l-0.302,-0.271l-0.3,-0.276l-0.294,-0.277l-0.291,-0.28l-0.29,-0.287l-0.286,-0.289l-0.28,-0.291l-0.278,-0.295l-0.275,-0.299l-0.272,-0.303l-0.268,-0.306l-0.263,-0.306l-0.261,-0.312l-0.257,-0.317l-0.253,-0.317l-0.249,-0.321l-0.245,-0.324l-0.243,-0.328l-0.238,-0.331l-0.234,-0.333l-0.231,-0.337l-0.226,-0.34l-0.223,-0.343l-0.218,-0.345l-0.214,-0.347l-0.212,-0.354l-0.206,-0.354l-0.202,-0.356l-0.199,-0.36l-0.194,-0.362l-0.19,-0.366l-0.185,-0.368l-0.182,-0.371l-0.177,-0.374l-0.173,-0.375l-0.168,-0.378l-0.164,-0.381l-0.159,-0.384l-0.155,-0.386l-0.15,-0.387l-0.146,-0.391l-0.142,-0.394l-0.136,-0.394l-0.131,-0.398l-0.127,-0.399l-0.122,-0.402l-0.118,-0.404l-0.112,-0.405l-0.108,-0.408l-0.102,-0.409l-0.098,-0.411l-0.093,-0.413l-0.087,-0.416l-0.083,-0.416l-0.077,-0.418l-0.072,-0.42l-0.067,-0.421l-0.062,-0.423l-0.057,-0.423l-0.051,-0.426l-0.046,-0.426l-0.041,-0.426l-0.035,-0.43l-0.03,-0.429l-0.025,-0.43l-0.019,-0.432l-0.013,-0.432l-0.009,-0.433l-0.002,-0.366l0,-62.687l0.002,-0.366l0.009,-0.433l0.013,-0.432l0.019,-0.431l0.025,-0.431l0.03,-0.43l0.035,-0.428l0.041,-0.426l0.046,-0.428l0.051,-0.425l0.057,-0.424l0.062,-0.422l0.067,-0.421l0.072,-0.419l0.077,-0.419l0.083,-0.416l0.087,-0.415l0.093,-0.413l0.097,-0.411l0.103,-0.41l0.108,-0.407l0.112,-0.406l0.118,-0.404l0.121,-0.401l0.127,-0.399l0.132,-0.398l0.137,-0.395l0.141,-0.393l0.146,-0.391l0.15,-0.388l0.155,-0.385l0.159,-0.384l0.164,-0.38l0.168,-0.38l0.173,-0.376l0.177,-0.372l0.181,-0.371l0.186,-0.368l0.19,-0.365l0.194,-0.363l0.198,-0.359l0.203,-0.358l0.206,-0.354l0.21,-0.351l0.215,-0.348l0.219,-0.347l0.223,-0.343l0.226,-0.338l0.23,-0.337l0.235,-0.334l0.238,-0.331l0.242,-0.327l0.245,-0.324l0.25,-0.322l0.252,-0.317l0.257,-0.316l0.261,-0.313l0.264,-0.307l0.266,-0.304l0.272,-0.303l0.276,-0.3l0.278,-0.295l0.281,-0.291l0.284,-0.288l0.289,-0.285l0.292,-0.282l0.296,-0.279l0.299,-0.275l0.302,-0.271l0.304,-0.267l0.309,-0.264l0.311,-0.26l0.315,-0.257l0.319,-0.254l0.321,-0.249l0.325,-0.246l0.328,-0.242l0.329,-0.237l0.333,-0.234l0.338,-0.232l0.34,-0.226l0.342,-0.222l0.346,-0.22l0.349,-0.214l0.351,-0.21l0.353,-0.207l0.357,-0.202l0.361,-0.199l0.363,-0.194l0.365,-0.19l0.368,-0.185l0.37,-0.182l0.374,-0.177l0.377,-0.173l0.378,-0.168l0.379,-0.163l0.384,-0.16l0.387,-0.156l0.388,-0.15l0.391,-0.146l0.391,-0.14l0.395,-0.136l0.399,-0.133l0.4,-0.127l0.4,-0.122l0.403,-0.117l0.406,-0.112l0.41,-0.109l0.409,-0.102l0.41,-0.097l0.414,-0.093l0.413,-0.087l0.418,-0.083l0.42,-0.078l0.419,-0.072l0.42,-0.067l0.422,-0.062l0.423,-0.056l0.426,-0.052l0.427,-0.046l0.427,-0.04l0.428,-0.036l0.43,-0.03l0.432,-0.024l0.43,-0.019l0.432,-0.014l0.433,-0.008l0.366,-0.002l62.689,0l0.365,0.002Zm-63.155,20.999l-0.166,0.003l-0.167,0.005l-0.165,0.007l-0.166,0.01l-0.164,0.011l-0.164,0.014l-0.164,0.015l-0.163,0.018l-0.162,0.02l-0.161,0.021l-0.161,0.024l-0.161,0.025l-0.159,0.028l-0.16,0.029l-0.158,0.031l-0.157,0.034l-0.157,0.035l-0.157,0.037l-0.155,0.039l-0.155,0.041l-0.154,0.043l-0.153,0.044l-0.152,0.046l-0.152,0.049l-0.151,0.05l-0.149,0.051l-0.15,0.054l-0.148,0.055l-0.147,0.057l-0.147,0.059l-0.145,0.061l-0.145,0.062l-0.144,0.064l-0.143,0.065l-0.142,0.068l-0.141,0.069l-0.14,0.07l-0.139,0.073l-0.138,0.074l-0.137,0.075l-0.136,0.077l-0.135,0.079l-0.134,0.08l-0.132,0.082l-0.132,0.083l-0.131,0.085l-0.13,0.087l-0.128,0.088l-0.128,0.089l-0.126,0.091l-0.125,0.093l-0.124,0.094l-0.123,0.095l-0.121,0.097l-0.121,0.098l-0.119,0.099l-0.118,0.102l-0.117,0.102l-0.115,0.104l-0.115,0.105l-0.113,0.106l-0.111,0.108l-0.111,0.109l-0.109,0.111l-0.108,0.111l-0.106,0.113l-0.105,0.115l-0.104,0.115l-0.103,0.117l-0.101,0.118l-0.099,0.119l-0.098,0.121l-0.097,0.121l-0.095,0.123l-0.094,0.124l-0.093,0.125l-0.091,0.127l-0.089,0.127l-0.088,0.129l-0.087,0.129l-0.084,0.131l-0.084,0.132l-0.082,0.133l-0.08,0.134l-0.079,0.135l-0.077,0.136l-0.075,0.137l-0.074,0.138l-0.072,0.139l-0.071,0.14l-0.069,0.141l-0.067,0.142l-0.066,0.142l-0.064,0.144l-0.062,0.145l-0.061,0.145l-0.058,0.147l-0.058,0.147l-0.055,0.149l-0.053,0.149l-0.052,0.15l-0.05,0.15l-0.048,0.152l-0.047,0.152l-0.044,0.153l-0.043,0.154l-0.041,0.155l-0.039,0.155l-0.037,0.157l-0.035,0.157l-0.033,0.157l-0.031,0.158l-0.03,0.159l-0.027,0.16l-0.026,0.16l-0.023,0.161l-0.022,0.162l-0.02,0.162l-0.017,0.163l-0.016,0.164l-0.013,0.164l-0.012,0.164l-0.009,0.165l-0.008,0.166l-0.005,0.166l-0.003,0.167l-0.001,0.167l0,62.555l0.001,0.167l0.003,0.167l0.005,0.166l0.008,0.166l0.009,0.165l0.012,0.164l0.013,0.165l0.016,0.163l0.017,0.163l0.02,0.162l0.022,0.162l0.023,0.161l0.026,0.16l0.027,0.16l0.03,0.159l0.031,0.158l0.033,0.158l0.035,0.157l0.037,0.156l0.039,0.155l0.041,0.155l0.043,0.154l0.044,0.153l0.047,0.152l0.048,0.152l0.05,0.151l0.052,0.15l0.053,0.149l0.056,0.148l0.057,0.147l0.058,0.147l0.061,0.146l0.062,0.144l0.064,0.144l0.066,0.143l0.067,0.142l0.069,0.141l0.071,0.14l0.072,0.139l0.074,0.138l0.075,0.137l0.078,0.136l0.078,0.135l0.08,0.134l0.082,0.133l0.084,0.132l0.085,0.13l0.086,0.13l0.088,0.128l0.09,0.128l0.09,0.126l0.093,0.125l0.094,0.124l0.095,0.123l0.097,0.122l0.098,0.12l0.1,0.119l0.101,0.118l0.102,0.117l0.104,0.116l0.105,0.114l0.106,0.113l0.108,0.112l0.109,0.11l0.111,0.109l0.112,0.108l0.113,0.107l0.114,0.105l0.115,0.103l0.117,0.103l0.118,0.101l0.119,0.099l0.121,0.099l0.121,0.096l0.123,0.096l0.124,0.094l0.125,0.092l0.127,0.091l0.127,0.089l0.129,0.088l0.129,0.087l0.131,0.085l0.132,0.083l0.133,0.082l0.134,0.08l0.135,0.079l0.136,0.077l0.137,0.076l0.138,0.073l0.139,0.073l0.14,0.07l0.141,0.069l0.142,0.068l0.143,0.065l0.143,0.064l0.145,0.062l0.146,0.061l0.146,0.059l0.148,0.057l0.148,0.055l0.149,0.054l0.15,0.051l0.151,0.05l0.151,0.049l0.152,0.046l0.154,0.044l0.154,0.043l0.154,0.041l0.156,0.039l0.156,0.037l0.157,0.035l0.157,0.033l0.159,0.032l0.159,0.029l0.159,0.028l0.161,0.025l0.161,0.024l0.161,0.021l0.163,0.02l0.162,0.018l0.164,0.015l0.164,0.014l0.165,0.011l0.165,0.009l0.165,0.008l0.167,0.005l0.166,0.003l0.168,0.001l62.555,0l0.167,-0.001l0.167,-0.003l0.166,-0.005l0.166,-0.008l0.165,-0.009l0.164,-0.011l0.165,-0.014l0.163,-0.015l0.163,-0.018l0.162,-0.02l0.162,-0.021l0.161,-0.024l0.16,-0.025l0.16,-0.028l0.159,-0.029l0.158,-0.032l0.158,-0.033l0.156,-0.035l0.157,-0.037l0.155,-0.039l0.155,-0.041l0.154,-0.043l0.153,-0.044l0.152,-0.046l0.152,-0.049l0.15,-0.05l0.15,-0.051l0.149,-0.054l0.149,-0.055l0.147,-0.057l0.147,-0.059l0.145,-0.061l0.145,-0.062l0.144,-0.064l0.143,-0.065l0.141,-0.068l0.141,-0.069l0.14,-0.07l0.139,-0.073l0.138,-0.073l0.137,-0.076l0.136,-0.077l0.135,-0.079l0.134,-0.08l0.133,-0.082l0.132,-0.083l0.131,-0.085l0.129,-0.087l0.129,-0.088l0.127,-0.089l0.127,-0.091l0.125,-0.092l0.124,-0.094l0.123,-0.096l0.121,-0.096l0.121,-0.099l0.119,-0.099l0.118,-0.101l0.117,-0.103l0.115,-0.103l0.115,-0.105l0.113,-0.107l0.111,-0.108l0.111,-0.109l0.109,-0.11l0.108,-0.112l0.106,-0.113l0.105,-0.114l0.104,-0.116l0.103,-0.117l0.101,-0.118l0.099,-0.119l0.098,-0.12l0.097,-0.122l0.095,-0.123l0.094,-0.124l0.093,-0.125l0.091,-0.126l0.089,-0.128l0.088,-0.128l0.087,-0.13l0.085,-0.13l0.083,-0.132l0.082,-0.133l0.08,-0.134l0.079,-0.135l0.077,-0.136l0.075,-0.137l0.074,-0.138l0.073,-0.139l0.07,-0.14l0.069,-0.141l0.068,-0.142l0.065,-0.143l0.064,-0.144l0.062,-0.144l0.061,-0.146l0.059,-0.147l0.057,-0.147l0.055,-0.148l0.054,-0.149l0.052,-0.15l0.049,-0.151l0.049,-0.152l0.046,-0.152l0.045,-0.153l0.042,-0.154l0.041,-0.155l0.039,-0.155l0.037,-0.156l0.035,-0.157l0.034,-0.158l0.031,-0.158l0.029,-0.159l0.028,-0.16l0.025,-0.16l0.024,-0.161l0.022,-0.162l0.019,-0.162l0.018,-0.163l0.015,-0.163l0.014,-0.165l0.011,-0.164l0.01,-0.165l0.007,-0.166l0.005,-0.166l0.003,-0.167l0.002,-0.167l0,-62.555l-0.002,-0.167l-0.003,-0.167l-0.005,-0.166l-0.007,-0.166l-0.01,-0.165l-0.011,-0.164l-0.014,-0.164l-0.015,-0.164l-0.018,-0.163l-0.019,-0.162l-0.022,-0.162l-0.024,-0.161l-0.025,-0.16l-0.028,-0.16l-0.029,-0.159l-0.031,-0.158l-0.034,-0.157l-0.035,-0.157l-0.037,-0.157l-0.039,-0.155l-0.041,-0.155l-0.042,-0.154l-0.045,-0.153l-0.046,-0.152l-0.049,-0.152l-0.049,-0.15l-0.052,-0.15l-0.054,-0.149l-0.055,-0.149l-0.057,-0.147l-0.059,-0.147l-0.061,-0.145l-0.062,-0.145l-0.064,-0.144l-0.065,-0.142l-0.068,-0.142l-0.069,-0.141l-0.07,-0.14l-0.073,-0.139l-0.074,-0.138l-0.075,-0.137l-0.077,-0.136l-0.079,-0.135l-0.08,-0.134l-0.082,-0.133l-0.083,-0.132l-0.085,-0.131l-0.087,-0.129l-0.088,-0.129l-0.089,-0.127l-0.091,-0.127l-0.093,-0.125l-0.094,-0.124l-0.095,-0.123l-0.097,-0.121l-0.098,-0.121l-0.099,-0.119l-0.101,-0.118l-0.103,-0.117l-0.104,-0.115l-0.105,-0.115l-0.106,-0.113l-0.108,-0.111l-0.109,-0.111l-0.111,-0.109l-0.111,-0.108l-0.113,-0.106l-0.115,-0.105l-0.115,-0.104l-0.117,-0.102l-0.118,-0.102l-0.119,-0.099l-0.121,-0.098l-0.121,-0.097l-0.123,-0.095l-0.124,-0.094l-0.125,-0.093l-0.127,-0.091l-0.127,-0.089l-0.129,-0.088l-0.129,-0.087l-0.131,-0.085l-0.132,-0.083l-0.133,-0.082l-0.134,-0.08l-0.135,-0.079l-0.136,-0.077l-0.137,-0.075l-0.138,-0.074l-0.139,-0.073l-0.14,-0.07l-0.141,-0.069l-0.141,-0.068l-0.143,-0.065l-0.144,-0.064l-0.145,-0.062l-0.145,-0.061l-0.147,-0.059l-0.147,-0.057l-0.149,-0.055l-0.149,-0.054l-0.15,-0.051l-0.15,-0.05l-0.152,-0.049l-0.152,-0.046l-0.153,-0.044l-0.154,-0.043l-0.155,-0.041l-0.155,-0.039l-0.157,-0.037l-0.156,-0.035l-0.158,-0.034l-0.158,-0.031l-0.159,-0.029l-0.16,-0.028l-0.16,-0.025l-0.161,-0.024l-0.162,-0.021l-0.162,-0.02l-0.163,-0.018l-0.163,-0.015l-0.165,-0.014l-0.164,-0.011l-0.165,-0.01l-0.166,-0.007l-0.166,-0.005l-0.167,-0.003l-0.167,-0.001l-62.555,0l-0.168,0.001Z" style="fill:#5cb85c;"/><path d="M257.995,195.539c-7.148,0 -12.942,-5.793 -12.942,-12.942l0,-62.554c0,-7.148 5.793,-12.942 12.942,-12.942l62.555,0c7.147,0 12.942,5.793 12.942,12.942l0,62.554c0,7.148 -5.795,12.942 -12.942,12.942l-62.555,0Z" style="fill:#9fd59f;"/><path d="M320.983,86.103l0.433,0.008l0.431,0.014l0.432,0.019l0.43,0.025l0.429,0.03l0.429,0.035l0.427,0.041l0.427,0.046l0.425,0.051l0.423,0.056l0.423,0.062l0.421,0.067l0.42,0.073l0.418,0.077l0.416,0.082l0.415,0.088l0.413,0.093l0.411,0.097l0.41,0.103l0.408,0.107l0.405,0.113l0.405,0.117l0.4,0.122l0.399,0.127l0.398,0.132l0.395,0.136l0.393,0.142l0.391,0.145l0.387,0.15l0.386,0.155l0.384,0.16l0.382,0.164l0.377,0.168l0.376,0.172l0.374,0.178l0.37,0.181l0.368,0.185l0.366,0.191l0.362,0.194l0.359,0.198l0.358,0.202l0.354,0.207l0.351,0.21l0.348,0.215l0.347,0.219l0.342,0.222l0.339,0.226l0.338,0.231l0.333,0.234l0.33,0.238l0.328,0.242l0.325,0.246l0.321,0.25l0.318,0.252l0.315,0.257l0.311,0.26l0.309,0.264l0.306,0.268l0.301,0.271l0.3,0.276l0.294,0.277l0.292,0.281l0.289,0.286l0.284,0.288l0.282,0.292l0.279,0.296l0.275,0.299l0.271,0.302l0.267,0.304l0.265,0.309l0.26,0.311l0.256,0.315l0.254,0.319l0.249,0.32l0.245,0.324l0.243,0.329l0.239,0.332l0.232,0.331l0.232,0.338l0.226,0.34l0.222,0.341l0.219,0.347l0.215,0.348l0.21,0.35l0.207,0.355l0.203,0.358l0.198,0.36l0.194,0.363l0.19,0.365l0.185,0.367l0.182,0.371l0.177,0.373l0.172,0.376l0.169,0.378l0.164,0.383l0.16,0.384l0.155,0.385l0.15,0.388l0.145,0.388l0.141,0.394l0.137,0.397l0.132,0.397l0.127,0.4l0.122,0.4l0.117,0.403l0.112,0.406l0.108,0.408l0.103,0.41l0.097,0.411l0.093,0.413l0.088,0.416l0.082,0.415l0.078,0.418l0.072,0.42l0.067,0.422l0.062,0.424l0.056,0.423l0.052,0.424l0.046,0.427l0.04,0.427l0.036,0.428l0.03,0.43l0.024,0.429l0.019,0.433l0.014,0.432l0.008,0.433l0.003,0.367l0,62.685l-0.003,0.367l-0.008,0.433l-0.014,0.432l-0.019,0.433l-0.024,0.429l-0.03,0.43l-0.036,0.429l-0.04,0.427l-0.046,0.427l-0.052,0.423l-0.056,0.424l-0.062,0.423l-0.067,0.422l-0.073,0.42l-0.077,0.418l-0.082,0.415l-0.088,0.416l-0.093,0.413l-0.097,0.411l-0.103,0.411l-0.108,0.408l-0.112,0.405l-0.117,0.403l-0.122,0.401l-0.127,0.399l-0.132,0.398l-0.137,0.396l-0.141,0.394l-0.145,0.388l-0.151,0.389l-0.154,0.384l-0.16,0.385l-0.165,0.382l-0.168,0.379l-0.172,0.375l-0.177,0.373l-0.182,0.371l-0.185,0.368l-0.19,0.364l-0.194,0.362l-0.198,0.361l-0.204,0.358l-0.206,0.355l-0.21,0.349l-0.215,0.349l-0.219,0.347l-0.222,0.341l-0.226,0.34l-0.232,0.338l-0.232,0.331l-0.239,0.332l-0.243,0.328l-0.245,0.324l-0.249,0.321l-0.253,0.319l-0.257,0.314l-0.26,0.312l-0.265,0.309l-0.267,0.304l-0.271,0.302l-0.275,0.299l-0.279,0.296l-0.282,0.292l-0.283,0.287l-0.289,0.286l-0.293,0.282l-0.294,0.277l-0.299,0.276l-0.302,0.27l-0.305,0.268l-0.31,0.265l-0.311,0.26l-0.314,0.256l-0.318,0.253l-0.322,0.25l-0.325,0.246l-0.328,0.242l-0.329,0.237l-0.334,0.234l-0.338,0.232l-0.338,0.225l-0.342,0.223l-0.347,0.219l-0.348,0.214l-0.351,0.211l-0.355,0.207l-0.357,0.202l-0.359,0.198l-0.363,0.194l-0.365,0.19l-0.368,0.186l-0.371,0.181l-0.373,0.177l-0.376,0.173l-0.378,0.168l-0.381,0.164l-0.385,0.16l-0.385,0.155l-0.387,0.149l-0.391,0.146l-0.394,0.142l-0.394,0.136l-0.398,0.132l-0.4,0.127l-0.4,0.122l-0.404,0.117l-0.405,0.112l-0.408,0.108l-0.411,0.103l-0.41,0.097l-0.414,0.093l-0.415,0.088l-0.416,0.082l-0.418,0.078l-0.419,0.072l-0.422,0.067l-0.422,0.062l-0.424,0.056l-0.425,0.052l-0.427,0.046l-0.427,0.04l-0.429,0.036l-0.429,0.03l-0.43,0.024l-0.432,0.019l-0.432,0.014l-0.432,0.008l-0.367,0.003l-62.687,0l-0.368,-0.003l-0.432,-0.008l-0.432,-0.014l-0.432,-0.019l-0.429,-0.024l-0.43,-0.03l-0.428,-0.036l-0.428,-0.04l-0.426,-0.046l-0.426,-0.052l-0.423,-0.056l-0.422,-0.062l-0.422,-0.067l-0.42,-0.072l-0.417,-0.078l-0.416,-0.082l-0.415,-0.088l-0.415,-0.093l-0.41,-0.097l-0.409,-0.102l-0.408,-0.108l-0.405,-0.112l-0.404,-0.118l-0.402,-0.122l-0.4,-0.127l-0.396,-0.132l-0.396,-0.136l-0.393,-0.141l-0.39,-0.146l-0.388,-0.15l-0.386,-0.155l-0.384,-0.16l-0.381,-0.163l-0.377,-0.168l-0.376,-0.173l-0.375,-0.178l-0.371,-0.181l-0.366,-0.185l-0.365,-0.19l-0.364,-0.195l-0.36,-0.198l-0.356,-0.202l-0.355,-0.206l-0.351,-0.211l-0.348,-0.215l-0.346,-0.218l-0.343,-0.223l-0.339,-0.226l-0.337,-0.231l-0.335,-0.235l-0.33,-0.237l-0.327,-0.242l-0.325,-0.246l-0.321,-0.249l-0.318,-0.253l-0.316,-0.258l-0.31,-0.259l-0.309,-0.264l-0.305,-0.268l-0.302,-0.271l-0.299,-0.275l-0.295,-0.278l-0.292,-0.281l-0.289,-0.286l-0.285,-0.289l-0.282,-0.291l-0.277,-0.295l-0.275,-0.299l-0.272,-0.303l-0.268,-0.305l-0.263,-0.308l-0.261,-0.311l-0.257,-0.316l-0.253,-0.318l-0.249,-0.32l-0.246,-0.326l-0.242,-0.327l-0.238,-0.33l-0.234,-0.334l-0.23,-0.337l-0.227,-0.34l-0.223,-0.343l-0.218,-0.344l-0.215,-0.349l-0.211,-0.353l-0.206,-0.353l-0.202,-0.357l-0.199,-0.36l-0.194,-0.362l-0.19,-0.366l-0.185,-0.367l-0.182,-0.372l-0.177,-0.374l-0.173,-0.375l-0.168,-0.378l-0.164,-0.381l-0.159,-0.383l-0.155,-0.386l-0.15,-0.389l-0.146,-0.39l-0.141,-0.394l-0.137,-0.394l-0.131,-0.397l-0.127,-0.4l-0.123,-0.402l-0.117,-0.404l-0.112,-0.404l-0.108,-0.409l-0.103,-0.409l-0.097,-0.411l-0.093,-0.413l-0.087,-0.416l-0.083,-0.416l-0.077,-0.418l-0.073,-0.42l-0.066,-0.421l-0.062,-0.422l-0.057,-0.424l-0.051,-0.425l-0.046,-0.426l-0.041,-0.427l-0.035,-0.43l-0.03,-0.429l-0.025,-0.43l-0.019,-0.432l-0.013,-0.432l-0.009,-0.433l-0.002,-0.366l0,-62.687l0.002,-0.366l0.009,-0.433l0.013,-0.432l0.019,-0.431l0.025,-0.431l0.03,-0.43l0.035,-0.427l0.041,-0.427l0.046,-0.427l0.051,-0.426l0.057,-0.423l0.062,-0.423l0.067,-0.421l0.072,-0.419l0.077,-0.419l0.083,-0.416l0.087,-0.415l0.093,-0.413l0.097,-0.411l0.103,-0.41l0.108,-0.407l0.112,-0.406l0.117,-0.404l0.122,-0.4l0.127,-0.4l0.132,-0.398l0.137,-0.395l0.141,-0.393l0.146,-0.391l0.15,-0.388l0.154,-0.385l0.16,-0.383l0.164,-0.381l0.168,-0.379l0.173,-0.376l0.177,-0.373l0.181,-0.371l0.186,-0.368l0.19,-0.366l0.194,-0.362l0.198,-0.359l0.202,-0.358l0.207,-0.354l0.211,-0.351l0.214,-0.349l0.219,-0.346l0.223,-0.343l0.226,-0.339l0.23,-0.336l0.234,-0.334l0.239,-0.331l0.242,-0.328l0.245,-0.324l0.25,-0.321l0.252,-0.318l0.257,-0.315l0.261,-0.312l0.264,-0.309l0.267,-0.305l0.272,-0.302l0.274,-0.298l0.278,-0.295l0.282,-0.293l0.285,-0.288l0.289,-0.285l0.292,-0.282l0.295,-0.278l0.299,-0.275l0.302,-0.271l0.305,-0.267l0.308,-0.264l0.312,-0.261l0.315,-0.257l0.318,-0.253l0.322,-0.249l0.324,-0.246l0.328,-0.242l0.329,-0.238l0.335,-0.234l0.337,-0.231l0.339,-0.226l0.343,-0.223l0.346,-0.219l0.348,-0.214l0.351,-0.21l0.354,-0.207l0.358,-0.203l0.359,-0.198l0.363,-0.194l0.366,-0.19l0.367,-0.186l0.371,-0.181l0.374,-0.177l0.375,-0.173l0.379,-0.168l0.381,-0.164l0.383,-0.159l0.386,-0.155l0.388,-0.15l0.391,-0.146l0.393,-0.142l0.395,-0.136l0.397,-0.132l0.399,-0.126l0.402,-0.123l0.404,-0.117l0.405,-0.112l0.408,-0.108l0.41,-0.103l0.411,-0.097l0.413,-0.093l0.415,-0.088l0.416,-0.082l0.419,-0.077l0.419,-0.073l0.422,-0.067l0.422,-0.062l0.423,-0.056l0.426,-0.051l0.426,-0.046l0.427,-0.041l0.429,-0.035l0.43,-0.03l0.43,-0.025l0.431,-0.019l0.432,-0.014l0.433,-0.008l0.367,-0.002l62.687,0l0.367,0.002Zm-62.988,20.998l-0.168,0.001l-0.166,0.003l-0.167,0.005l-0.165,0.008l-0.166,0.009l-0.164,0.011l-0.164,0.014l-0.164,0.016l-0.163,0.017l-0.162,0.02l-0.161,0.021l-0.161,0.024l-0.161,0.025l-0.159,0.028l-0.16,0.029l-0.158,0.032l-0.157,0.033l-0.157,0.035l-0.157,0.037l-0.155,0.039l-0.155,0.041l-0.154,0.043l-0.153,0.044l-0.152,0.047l-0.152,0.048l-0.151,0.05l-0.149,0.051l-0.15,0.054l-0.148,0.055l-0.147,0.057l-0.147,0.059l-0.145,0.061l-0.145,0.062l-0.144,0.064l-0.143,0.066l-0.142,0.067l-0.141,0.069l-0.14,0.07l-0.139,0.073l-0.138,0.074l-0.137,0.075l-0.136,0.077l-0.135,0.079l-0.134,0.08l-0.132,0.082l-0.132,0.084l-0.131,0.084l-0.13,0.087l-0.128,0.088l-0.128,0.089l-0.126,0.091l-0.125,0.093l-0.124,0.094l-0.123,0.095l-0.121,0.097l-0.121,0.098l-0.119,0.099l-0.118,0.101l-0.117,0.103l-0.115,0.104l-0.115,0.105l-0.113,0.106l-0.111,0.108l-0.111,0.109l-0.109,0.111l-0.108,0.111l-0.106,0.113l-0.105,0.115l-0.104,0.115l-0.103,0.117l-0.101,0.118l-0.099,0.119l-0.098,0.121l-0.097,0.121l-0.095,0.123l-0.094,0.124l-0.093,0.125l-0.091,0.126l-0.089,0.128l-0.088,0.128l-0.087,0.13l-0.084,0.131l-0.084,0.132l-0.082,0.133l-0.08,0.133l-0.079,0.135l-0.077,0.136l-0.075,0.137l-0.074,0.139l-0.072,0.139l-0.071,0.14l-0.069,0.141l-0.067,0.141l-0.066,0.143l-0.064,0.144l-0.062,0.145l-0.061,0.145l-0.058,0.147l-0.058,0.147l-0.055,0.149l-0.053,0.149l-0.052,0.15l-0.05,0.15l-0.048,0.152l-0.047,0.152l-0.044,0.153l-0.043,0.154l-0.041,0.155l-0.039,0.155l-0.037,0.157l-0.035,0.157l-0.033,0.157l-0.031,0.158l-0.03,0.159l-0.027,0.16l-0.026,0.16l-0.023,0.161l-0.022,0.162l-0.02,0.162l-0.017,0.163l-0.016,0.164l-0.013,0.164l-0.012,0.164l-0.009,0.165l-0.008,0.166l-0.005,0.166l-0.003,0.167l-0.001,0.168l0,62.554l0.001,0.167l0.003,0.167l0.005,0.166l0.008,0.166l0.009,0.165l0.012,0.165l0.013,0.164l0.016,0.163l0.017,0.163l0.02,0.162l0.022,0.162l0.023,0.161l0.026,0.16l0.027,0.16l0.03,0.159l0.031,0.158l0.033,0.158l0.035,0.157l0.037,0.156l0.039,0.156l0.041,0.154l0.043,0.154l0.044,0.153l0.047,0.153l0.048,0.151l0.05,0.151l0.052,0.15l0.053,0.149l0.056,0.148l0.057,0.148l0.058,0.146l0.061,0.146l0.062,0.145l0.064,0.143l0.066,0.143l0.067,0.142l0.069,0.141l0.071,0.14l0.072,0.139l0.074,0.138l0.075,0.137l0.078,0.136l0.078,0.135l0.08,0.134l0.082,0.133l0.084,0.132l0.085,0.131l0.086,0.129l0.088,0.129l0.09,0.127l0.09,0.126l0.093,0.126l0.094,0.124l0.095,0.122l0.097,0.122l0.098,0.12l0.1,0.12l0.101,0.118l0.102,0.116l0.104,0.116l0.105,0.114l0.106,0.113l0.108,0.112l0.109,0.11l0.111,0.11l0.112,0.107l0.113,0.107l0.114,0.105l0.115,0.104l0.117,0.102l0.118,0.101l0.119,0.1l0.121,0.098l0.121,0.097l0.123,0.095l0.124,0.094l0.125,0.092l0.127,0.091l0.127,0.09l0.129,0.088l0.129,0.086l0.131,0.085l0.132,0.083l0.133,0.082l0.134,0.08l0.135,0.079l0.136,0.077l0.137,0.076l0.138,0.074l0.139,0.072l0.14,0.071l0.141,0.069l0.142,0.067l0.143,0.066l0.143,0.063l0.145,0.063l0.146,0.06l0.146,0.059l0.148,0.057l0.148,0.055l0.149,0.054l0.15,0.052l0.151,0.05l0.151,0.048l0.152,0.046l0.154,0.045l0.154,0.042l0.154,0.041l0.156,0.039l0.156,0.037l0.157,0.035l0.157,0.034l0.159,0.031l0.159,0.029l0.159,0.028l0.161,0.025l0.161,0.024l0.161,0.022l0.163,0.019l0.162,0.018l0.164,0.015l0.164,0.014l0.165,0.011l0.165,0.01l0.165,0.007l0.167,0.005l0.166,0.003l0.168,0.002l62.555,0l0.167,-0.002l0.167,-0.003l0.166,-0.005l0.166,-0.007l0.165,-0.01l0.164,-0.011l0.165,-0.014l0.163,-0.015l0.163,-0.018l0.162,-0.019l0.162,-0.022l0.161,-0.024l0.16,-0.025l0.16,-0.028l0.159,-0.029l0.158,-0.031l0.158,-0.034l0.156,-0.035l0.157,-0.037l0.155,-0.039l0.155,-0.041l0.154,-0.042l0.153,-0.045l0.152,-0.046l0.152,-0.048l0.15,-0.05l0.15,-0.052l0.149,-0.054l0.149,-0.055l0.147,-0.057l0.147,-0.059l0.145,-0.06l0.145,-0.063l0.144,-0.064l0.143,-0.065l0.141,-0.068l0.141,-0.069l0.14,-0.07l0.139,-0.072l0.138,-0.074l0.137,-0.076l0.136,-0.077l0.135,-0.079l0.134,-0.08l0.133,-0.082l0.132,-0.083l0.131,-0.085l0.129,-0.087l0.129,-0.088l0.127,-0.089l0.127,-0.091l0.125,-0.092l0.124,-0.094l0.123,-0.096l0.121,-0.096l0.121,-0.099l0.119,-0.099l0.118,-0.101l0.117,-0.103l0.115,-0.103l0.115,-0.105l0.113,-0.107l0.111,-0.108l0.111,-0.109l0.109,-0.11l0.108,-0.112l0.106,-0.113l0.105,-0.114l0.104,-0.116l0.103,-0.117l0.101,-0.118l0.099,-0.119l0.098,-0.12l0.097,-0.122l0.095,-0.123l0.094,-0.124l0.093,-0.125l0.091,-0.126l0.089,-0.128l0.088,-0.128l0.087,-0.13l0.085,-0.131l0.083,-0.131l0.082,-0.133l0.08,-0.134l0.079,-0.135l0.077,-0.136l0.075,-0.137l0.074,-0.138l0.073,-0.139l0.07,-0.14l0.069,-0.141l0.068,-0.142l0.065,-0.143l0.064,-0.144l0.062,-0.144l0.061,-0.146l0.059,-0.147l0.057,-0.147l0.055,-0.148l0.054,-0.149l0.052,-0.15l0.049,-0.151l0.049,-0.152l0.046,-0.152l0.045,-0.153l0.042,-0.154l0.041,-0.155l0.039,-0.155l0.037,-0.156l0.035,-0.157l0.034,-0.158l0.031,-0.158l0.029,-0.159l0.028,-0.16l0.025,-0.16l0.024,-0.161l0.022,-0.162l0.019,-0.162l0.018,-0.163l0.015,-0.163l0.014,-0.164l0.011,-0.165l0.01,-0.165l0.007,-0.166l0.005,-0.166l0.003,-0.167l0.002,-0.167l0,-62.554l-0.002,-0.168l-0.003,-0.167l-0.005,-0.166l-0.007,-0.166l-0.01,-0.165l-0.011,-0.164l-0.014,-0.164l-0.015,-0.164l-0.018,-0.163l-0.019,-0.162l-0.022,-0.162l-0.024,-0.161l-0.025,-0.16l-0.028,-0.16l-0.029,-0.159l-0.031,-0.158l-0.034,-0.158l-0.035,-0.157l-0.037,-0.156l-0.039,-0.155l-0.041,-0.155l-0.042,-0.154l-0.045,-0.153l-0.046,-0.152l-0.049,-0.152l-0.049,-0.151l-0.052,-0.15l-0.054,-0.149l-0.055,-0.148l-0.057,-0.147l-0.059,-0.147l-0.061,-0.146l-0.062,-0.144l-0.064,-0.144l-0.065,-0.143l-0.068,-0.142l-0.069,-0.141l-0.07,-0.14l-0.073,-0.139l-0.074,-0.138l-0.075,-0.137l-0.077,-0.136l-0.079,-0.135l-0.08,-0.134l-0.082,-0.133l-0.083,-0.132l-0.085,-0.13l-0.087,-0.13l-0.088,-0.128l-0.089,-0.128l-0.091,-0.126l-0.093,-0.125l-0.094,-0.124l-0.095,-0.123l-0.097,-0.122l-0.098,-0.12l-0.099,-0.119l-0.101,-0.118l-0.103,-0.117l-0.104,-0.116l-0.105,-0.114l-0.106,-0.113l-0.108,-0.112l-0.109,-0.11l-0.111,-0.109l-0.111,-0.108l-0.113,-0.107l-0.115,-0.105l-0.115,-0.103l-0.117,-0.103l-0.118,-0.101l-0.119,-0.099l-0.121,-0.099l-0.121,-0.096l-0.123,-0.096l-0.124,-0.094l-0.125,-0.092l-0.127,-0.091l-0.127,-0.089l-0.129,-0.088l-0.129,-0.087l-0.131,-0.085l-0.132,-0.083l-0.133,-0.082l-0.134,-0.08l-0.135,-0.079l-0.136,-0.077l-0.137,-0.075l-0.138,-0.074l-0.139,-0.073l-0.14,-0.07l-0.141,-0.069l-0.141,-0.068l-0.143,-0.065l-0.144,-0.064l-0.145,-0.062l-0.145,-0.061l-0.147,-0.059l-0.147,-0.057l-0.149,-0.055l-0.149,-0.054l-0.15,-0.051l-0.15,-0.05l-0.152,-0.049l-0.152,-0.046l-0.153,-0.044l-0.154,-0.043l-0.155,-0.041l-0.155,-0.039l-0.157,-0.037l-0.156,-0.035l-0.158,-0.033l-0.158,-0.032l-0.159,-0.029l-0.16,-0.028l-0.16,-0.025l-0.161,-0.024l-0.162,-0.021l-0.162,-0.02l-0.163,-0.017l-0.163,-0.016l-0.165,-0.014l-0.164,-0.011l-0.165,-0.009l-0.166,-0.008l-0.166,-0.005l-0.167,-0.003l-0.167,-0.001l-62.555,0Z" style="fill:#5cb85c;"/><path d="M489.31,431.831c0,7.148 -5.793,12.941 -12.94,12.941l-62.554,0c-7.149,0 -12.942,-5.793 -12.942,-12.941l0,-62.555c0,-7.147 5.793,-12.941 12.942,-12.941l62.554,0c7.147,0 12.94,5.794 12.94,12.941l0,62.555Z" style="fill:#9fd59f;"/><path d="M476.805,335.337l0.431,0.008l0.432,0.014l0.433,0.019l0.429,0.024l0.428,0.03l0.43,0.036l0.429,0.041l0.423,0.045l0.425,0.052l0.426,0.056l0.422,0.062l0.422,0.067l0.42,0.073l0.417,0.077l0.416,0.082l0.416,0.088l0.413,0.093l0.41,0.097l0.411,0.103l0.408,0.108l0.405,0.112l0.404,0.118l0.4,0.122l0.4,0.127l0.397,0.131l0.394,0.136l0.397,0.143l0.39,0.145l0.386,0.15l0.386,0.155l0.383,0.159l0.383,0.165l0.379,0.168l0.374,0.172l0.374,0.178l0.371,0.181l0.367,0.186l0.364,0.189l0.364,0.195l0.361,0.199l0.356,0.202l0.353,0.206l0.352,0.211l0.349,0.214l0.346,0.22l0.344,0.223l0.337,0.225l0.336,0.23l0.336,0.235l0.329,0.238l0.327,0.241l0.325,0.247l0.322,0.249l0.318,0.253l0.314,0.256l0.313,0.262l0.308,0.264l0.305,0.267l0.303,0.272l0.298,0.275l0.294,0.276l0.292,0.282l0.289,0.286l0.285,0.288l0.283,0.293l0.278,0.295l0.274,0.298l0.271,0.303l0.267,0.304l0.264,0.308l0.261,0.312l0.258,0.317l0.251,0.316l0.249,0.321l0.247,0.326l0.241,0.327l0.238,0.33l0.235,0.334l0.23,0.338l0.227,0.339l0.222,0.341l0.218,0.346l0.216,0.35l0.21,0.351l0.206,0.353l0.202,0.357l0.199,0.36l0.195,0.365l0.189,0.363l0.185,0.368l0.182,0.371l0.176,0.371l0.174,0.378l0.168,0.38l0.164,0.38l0.159,0.383l0.154,0.384l0.151,0.389l0.146,0.393l0.141,0.392l0.136,0.393l0.132,0.4l0.127,0.398l0.121,0.399l0.118,0.406l0.113,0.406l0.108,0.408l0.102,0.41l0.097,0.409l0.093,0.413l0.088,0.416l0.083,0.417l0.077,0.418l0.072,0.418l0.067,0.421l0.062,0.424l0.056,0.424l0.052,0.423l0.046,0.427l0.04,0.429l0.036,0.429l0.03,0.428l0.024,0.429l0.019,0.433l0.014,0.432l0.008,0.433l0.002,0.367l0,62.685l-0.002,0.367l-0.008,0.433l-0.014,0.432l-0.019,0.433l-0.024,0.429l-0.03,0.428l-0.035,0.428l-0.041,0.429l-0.046,0.428l-0.051,0.423l-0.057,0.423l-0.062,0.424l-0.067,0.422l-0.072,0.418l-0.077,0.417l-0.083,0.418l-0.088,0.416l-0.093,0.413l-0.097,0.409l-0.102,0.41l-0.108,0.408l-0.112,0.406l-0.118,0.405l-0.122,0.401l-0.127,0.398l-0.132,0.399l-0.136,0.394l-0.141,0.392l-0.146,0.393l-0.15,0.387l-0.155,0.385l-0.159,0.382l-0.164,0.382l-0.168,0.379l-0.174,0.377l-0.176,0.372l-0.182,0.371l-0.185,0.368l-0.189,0.364l-0.196,0.365l-0.198,0.359l-0.202,0.358l-0.206,0.353l-0.21,0.351l-0.216,0.349l-0.218,0.346l-0.222,0.342l-0.227,0.339l-0.23,0.337l-0.235,0.335l-0.239,0.331l-0.241,0.326l-0.246,0.326l-0.249,0.32l-0.251,0.316l-0.258,0.317l-0.262,0.314l-0.263,0.306l-0.267,0.305l-0.272,0.304l-0.275,0.298l-0.277,0.294l-0.282,0.293l-0.285,0.288l-0.289,0.285l-0.292,0.282l-0.295,0.278l-0.298,0.274l-0.303,0.273l-0.305,0.267l-0.307,0.262l-0.314,0.263l-0.315,0.256l-0.316,0.252l-0.323,0.251l-0.324,0.245l-0.327,0.241l-0.331,0.239l-0.334,0.234l-0.337,0.231l-0.338,0.226l-0.343,0.223l-0.347,0.219l-0.347,0.214l-0.352,0.211l-0.355,0.207l-0.356,0.202l-0.361,0.199l-0.363,0.194l-0.363,0.188l-0.367,0.186l-0.373,0.182l-0.374,0.178l-0.374,0.172l-0.379,0.168l-0.381,0.164l-0.383,0.159l-0.388,0.156l-0.388,0.15l-0.388,0.145l-0.395,0.142l-0.394,0.136l-0.397,0.131l-0.4,0.127l-0.402,0.123l-0.404,0.117l-0.403,0.112l-0.41,0.108l-0.411,0.103l-0.408,0.097l-0.413,0.093l-0.416,0.088l-0.418,0.082l-0.417,0.078l-0.418,0.072l-0.422,0.067l-0.424,0.062l-0.424,0.056l-0.423,0.051l-0.427,0.046l-0.429,0.041l-0.426,0.035l-0.43,0.03l-0.431,0.025l-0.431,0.019l-0.432,0.014l-0.433,0.008l-0.368,0.002l-62.684,0l-0.367,-0.002l-0.434,-0.008l-0.432,-0.014l-0.43,-0.019l-0.432,-0.025l-0.429,-0.03l-0.427,-0.035l-0.429,-0.04l-0.427,-0.047l-0.423,-0.051l-0.424,-0.056l-0.424,-0.062l-0.422,-0.067l-0.417,-0.072l-0.418,-0.078l-0.418,-0.082l-0.415,-0.088l-0.413,-0.093l-0.409,-0.097l-0.411,-0.103l-0.41,-0.108l-0.404,-0.112l-0.403,-0.117l-0.402,-0.122l-0.4,-0.127l-0.397,-0.132l-0.394,-0.136l-0.394,-0.141l-0.389,-0.146l-0.388,-0.15l-0.387,-0.155l-0.384,-0.16l-0.381,-0.164l-0.379,-0.168l-0.374,-0.172l-0.374,-0.177l-0.373,-0.183l-0.367,-0.185l-0.362,-0.189l-0.364,-0.194l-0.361,-0.199l-0.356,-0.202l-0.356,-0.207l-0.351,-0.211l-0.347,-0.214l-0.347,-0.219l-0.342,-0.222l-0.34,-0.227l-0.337,-0.231l-0.333,-0.233l-0.331,-0.239l-0.327,-0.241l-0.325,-0.246l-0.322,-0.25l-0.317,-0.253l-0.315,-0.256l-0.312,-0.261l-0.309,-0.264l-0.305,-0.267l-0.301,-0.271l-0.299,-0.275l-0.296,-0.279l-0.291,-0.281l-0.29,-0.286l-0.285,-0.288l-0.281,-0.292l-0.279,-0.295l-0.274,-0.298l-0.271,-0.303l-0.267,-0.304l-0.264,-0.308l-0.262,-0.314l-0.257,-0.315l-0.253,-0.318l-0.248,-0.32l-0.245,-0.324l-0.243,-0.328l-0.238,-0.331l-0.234,-0.333l-0.231,-0.337l-0.227,-0.341l-0.222,-0.342l-0.219,-0.346l-0.215,-0.349l-0.21,-0.351l-0.206,-0.353l-0.203,-0.358l-0.198,-0.359l-0.194,-0.363l-0.19,-0.366l-0.186,-0.368l-0.18,-0.369l-0.178,-0.374l-0.173,-0.377l-0.169,-0.379l-0.164,-0.382l-0.159,-0.382l-0.154,-0.385l-0.15,-0.387l-0.146,-0.391l-0.141,-0.394l-0.136,-0.394l-0.132,-0.397l-0.128,-0.402l-0.122,-0.401l-0.117,-0.403l-0.112,-0.406l-0.107,-0.406l-0.103,-0.41l-0.098,-0.413l-0.092,-0.411l-0.088,-0.416l-0.083,-0.418l-0.077,-0.415l-0.072,-0.422l-0.068,-0.422l-0.061,-0.42l-0.057,-0.423l-0.051,-0.428l-0.046,-0.425l-0.041,-0.427l-0.035,-0.43l-0.03,-0.428l-0.025,-0.431l-0.019,-0.431l-0.013,-0.432l-0.008,-0.433l-0.003,-0.365l0,-62.689l0.003,-0.365l0.008,-0.433l0.013,-0.432l0.019,-0.431l0.025,-0.431l0.03,-0.428l0.035,-0.431l0.041,-0.427l0.046,-0.424l0.051,-0.428l0.057,-0.424l0.062,-0.419l0.067,-0.422l0.072,-0.422l0.077,-0.416l0.083,-0.417l0.088,-0.416l0.092,-0.411l0.098,-0.413l0.103,-0.41l0.107,-0.406l0.112,-0.406l0.118,-0.403l0.121,-0.4l0.128,-0.402l0.132,-0.398l0.136,-0.393l0.141,-0.394l0.146,-0.391l0.15,-0.389l0.155,-0.384l0.159,-0.383l0.163,-0.38l0.169,-0.38l0.174,-0.378l0.177,-0.373l0.18,-0.369l0.186,-0.368l0.19,-0.365l0.194,-0.363l0.198,-0.36l0.203,-0.357l0.206,-0.353l0.21,-0.351l0.215,-0.35l0.219,-0.346l0.222,-0.341l0.227,-0.341l0.231,-0.337l0.234,-0.333l0.237,-0.33l0.243,-0.328l0.246,-0.325l0.248,-0.321l0.253,-0.317l0.257,-0.316l0.261,-0.312l0.265,-0.309l0.267,-0.305l0.27,-0.301l0.274,-0.298l0.279,-0.296l0.282,-0.292l0.285,-0.288l0.29,-0.287l0.291,-0.281l0.295,-0.278l0.299,-0.275l0.301,-0.27l0.305,-0.267l0.31,-0.266l0.311,-0.26l0.314,-0.256l0.319,-0.254l0.321,-0.248l0.326,-0.248l0.327,-0.241l0.329,-0.237l0.335,-0.235l0.336,-0.23l0.339,-0.227l0.343,-0.222l0.346,-0.219l0.349,-0.215l0.351,-0.21l0.354,-0.207l0.356,-0.202l0.361,-0.199l0.364,-0.194l0.364,-0.19l0.367,-0.185l0.371,-0.182l0.374,-0.177l0.374,-0.172l0.379,-0.168l0.383,-0.165l0.384,-0.16l0.385,-0.154l0.386,-0.15l0.391,-0.146l0.396,-0.142l0.394,-0.136l0.397,-0.132l0.4,-0.127l0.4,-0.122l0.403,-0.117l0.406,-0.112l0.408,-0.108l0.411,-0.103l0.411,-0.097l0.413,-0.093l0.415,-0.088l0.416,-0.082l0.417,-0.077l0.42,-0.073l0.422,-0.067l0.422,-0.062l0.426,-0.057l0.425,-0.051l0.423,-0.045l0.429,-0.041l0.431,-0.036l0.427,-0.03l0.43,-0.024l0.432,-0.019l0.432,-0.014l0.431,-0.008l0.368,-0.002l62.688,0l0.368,0.002Zm-62.989,20.998l-0.167,0.001l-0.167,0.003l-0.166,0.005l-0.166,0.007l-0.165,0.01l-0.165,0.011l-0.164,0.014l-0.163,0.015l-0.163,0.018l-0.163,0.02l-0.161,0.021l-0.161,0.024l-0.161,0.025l-0.159,0.028l-0.159,0.029l-0.159,0.031l-0.157,0.034l-0.157,0.035l-0.156,0.037l-0.156,0.039l-0.155,0.041l-0.153,0.043l-0.154,0.044l-0.152,0.046l-0.152,0.049l-0.15,0.05l-0.15,0.051l-0.149,0.054l-0.149,0.055l-0.147,0.057l-0.146,0.059l-0.146,0.061l-0.145,0.062l-0.144,0.064l-0.142,0.065l-0.142,0.068l-0.141,0.069l-0.14,0.07l-0.139,0.073l-0.138,0.074l-0.137,0.075l-0.136,0.077l-0.135,0.079l-0.134,0.08l-0.133,0.082l-0.132,0.083l-0.131,0.085l-0.129,0.087l-0.129,0.088l-0.127,0.089l-0.127,0.091l-0.125,0.093l-0.124,0.094l-0.123,0.095l-0.121,0.097l-0.121,0.098l-0.119,0.099l-0.118,0.102l-0.117,0.102l-0.115,0.104l-0.115,0.105l-0.113,0.106l-0.111,0.108l-0.111,0.109l-0.109,0.111l-0.108,0.111l-0.106,0.113l-0.105,0.115l-0.104,0.115l-0.102,0.117l-0.101,0.118l-0.1,0.119l-0.098,0.121l-0.097,0.121l-0.095,0.123l-0.094,0.124l-0.093,0.125l-0.09,0.127l-0.09,0.127l-0.088,0.129l-0.086,0.129l-0.085,0.131l-0.084,0.132l-0.081,0.133l-0.081,0.134l-0.078,0.135l-0.078,0.136l-0.075,0.137l-0.074,0.138l-0.072,0.139l-0.071,0.14l-0.069,0.141l-0.067,0.142l-0.066,0.142l-0.064,0.144l-0.062,0.145l-0.06,0.145l-0.059,0.147l-0.057,0.147l-0.056,0.149l-0.053,0.149l-0.052,0.15l-0.05,0.15l-0.048,0.152l-0.046,0.152l-0.045,0.153l-0.043,0.154l-0.04,0.155l-0.039,0.155l-0.037,0.157l-0.036,0.157l-0.033,0.157l-0.031,0.158l-0.03,0.159l-0.027,0.16l-0.026,0.16l-0.023,0.161l-0.022,0.162l-0.019,0.162l-0.018,0.163l-0.016,0.164l-0.013,0.164l-0.012,0.164l-0.009,0.165l-0.007,0.166l-0.006,0.166l-0.003,0.167l-0.001,0.167l0,62.555l0.001,0.167l0.003,0.167l0.006,0.166l0.007,0.166l0.009,0.165l0.012,0.164l0.013,0.165l0.016,0.163l0.018,0.163l0.019,0.162l0.022,0.162l0.023,0.161l0.026,0.16l0.027,0.16l0.03,0.159l0.031,0.158l0.033,0.158l0.036,0.157l0.037,0.156l0.039,0.155l0.04,0.155l0.043,0.154l0.045,0.153l0.046,0.152l0.048,0.152l0.05,0.151l0.052,0.15l0.053,0.149l0.056,0.148l0.057,0.147l0.059,0.147l0.06,0.146l0.062,0.144l0.064,0.144l0.066,0.143l0.067,0.142l0.069,0.141l0.071,0.14l0.072,0.139l0.074,0.138l0.075,0.137l0.078,0.136l0.078,0.135l0.081,0.134l0.081,0.133l0.084,0.132l0.085,0.13l0.086,0.13l0.088,0.128l0.09,0.128l0.09,0.126l0.093,0.125l0.094,0.124l0.095,0.123l0.097,0.122l0.098,0.12l0.1,0.119l0.101,0.118l0.102,0.117l0.104,0.116l0.105,0.114l0.106,0.113l0.108,0.112l0.109,0.11l0.111,0.109l0.111,0.108l0.113,0.107l0.115,0.105l0.115,0.103l0.117,0.103l0.118,0.101l0.119,0.099l0.121,0.099l0.121,0.096l0.123,0.096l0.124,0.094l0.125,0.092l0.127,0.091l0.127,0.089l0.129,0.088l0.129,0.087l0.131,0.085l0.132,0.083l0.133,0.082l0.134,0.08l0.135,0.079l0.136,0.077l0.137,0.076l0.138,0.073l0.139,0.073l0.14,0.07l0.141,0.069l0.142,0.068l0.142,0.065l0.144,0.064l0.145,0.062l0.146,0.061l0.146,0.059l0.147,0.057l0.149,0.055l0.149,0.054l0.15,0.051l0.15,0.05l0.152,0.049l0.152,0.046l0.154,0.044l0.153,0.043l0.155,0.041l0.156,0.039l0.156,0.037l0.157,0.035l0.157,0.033l0.159,0.032l0.159,0.029l0.159,0.028l0.161,0.025l0.161,0.024l0.161,0.021l0.163,0.02l0.163,0.018l0.163,0.015l0.164,0.014l0.165,0.011l0.165,0.009l0.166,0.008l0.166,0.005l0.167,0.003l0.167,0.001l62.554,0l0.167,-0.001l0.167,-0.003l0.166,-0.005l0.166,-0.008l0.165,-0.009l0.165,-0.011l0.164,-0.014l0.163,-0.015l0.163,-0.018l0.162,-0.02l0.162,-0.021l0.161,-0.024l0.16,-0.025l0.16,-0.028l0.159,-0.029l0.158,-0.032l0.158,-0.033l0.157,-0.035l0.156,-0.037l0.155,-0.039l0.155,-0.041l0.154,-0.043l0.153,-0.044l0.152,-0.046l0.152,-0.049l0.151,-0.05l0.15,-0.051l0.149,-0.054l0.148,-0.055l0.147,-0.057l0.147,-0.059l0.145,-0.061l0.145,-0.062l0.144,-0.064l0.143,-0.065l0.142,-0.068l0.141,-0.069l0.14,-0.07l0.139,-0.073l0.138,-0.073l0.137,-0.076l0.136,-0.077l0.135,-0.079l0.133,-0.08l0.133,-0.082l0.132,-0.083l0.131,-0.085l0.129,-0.087l0.129,-0.088l0.127,-0.089l0.127,-0.091l0.125,-0.092l0.124,-0.094l0.123,-0.096l0.121,-0.096l0.121,-0.099l0.119,-0.099l0.118,-0.101l0.117,-0.103l0.115,-0.103l0.114,-0.105l0.113,-0.107l0.112,-0.108l0.111,-0.109l0.109,-0.11l0.107,-0.112l0.107,-0.113l0.105,-0.114l0.104,-0.116l0.102,-0.117l0.101,-0.118l0.1,-0.119l0.098,-0.12l0.097,-0.122l0.095,-0.123l0.094,-0.124l0.092,-0.125l0.091,-0.126l0.09,-0.128l0.088,-0.128l0.086,-0.13l0.085,-0.13l0.083,-0.132l0.082,-0.133l0.08,-0.134l0.079,-0.135l0.077,-0.136l0.076,-0.137l0.074,-0.138l0.072,-0.139l0.071,-0.14l0.069,-0.141l0.067,-0.142l0.065,-0.143l0.064,-0.144l0.063,-0.144l0.06,-0.146l0.059,-0.147l0.057,-0.147l0.055,-0.148l0.054,-0.149l0.052,-0.15l0.05,-0.151l0.048,-0.152l0.046,-0.152l0.045,-0.153l0.042,-0.154l0.041,-0.155l0.039,-0.155l0.037,-0.156l0.035,-0.157l0.034,-0.158l0.031,-0.158l0.029,-0.159l0.028,-0.16l0.025,-0.16l0.024,-0.161l0.022,-0.162l0.019,-0.162l0.018,-0.163l0.015,-0.163l0.014,-0.165l0.011,-0.164l0.01,-0.165l0.007,-0.166l0.005,-0.166l0.003,-0.167l0.001,-0.167l0,-62.555l-0.001,-0.167l-0.003,-0.167l-0.005,-0.166l-0.007,-0.166l-0.01,-0.165l-0.011,-0.164l-0.014,-0.164l-0.015,-0.164l-0.018,-0.163l-0.019,-0.162l-0.022,-0.162l-0.024,-0.161l-0.025,-0.16l-0.028,-0.16l-0.029,-0.159l-0.031,-0.158l-0.034,-0.157l-0.035,-0.157l-0.037,-0.157l-0.039,-0.155l-0.041,-0.155l-0.042,-0.154l-0.045,-0.153l-0.046,-0.152l-0.048,-0.152l-0.05,-0.15l-0.052,-0.15l-0.054,-0.149l-0.055,-0.149l-0.057,-0.147l-0.059,-0.147l-0.06,-0.145l-0.063,-0.145l-0.064,-0.144l-0.065,-0.142l-0.067,-0.142l-0.069,-0.141l-0.071,-0.14l-0.072,-0.139l-0.074,-0.138l-0.076,-0.137l-0.077,-0.136l-0.079,-0.135l-0.08,-0.134l-0.082,-0.133l-0.083,-0.132l-0.085,-0.131l-0.086,-0.129l-0.088,-0.129l-0.09,-0.127l-0.091,-0.127l-0.092,-0.125l-0.094,-0.124l-0.095,-0.123l-0.097,-0.121l-0.098,-0.121l-0.1,-0.119l-0.101,-0.118l-0.102,-0.117l-0.104,-0.115l-0.105,-0.115l-0.107,-0.113l-0.107,-0.111l-0.109,-0.111l-0.111,-0.109l-0.112,-0.108l-0.113,-0.106l-0.114,-0.105l-0.115,-0.104l-0.117,-0.102l-0.118,-0.102l-0.119,-0.099l-0.121,-0.098l-0.121,-0.097l-0.123,-0.095l-0.124,-0.094l-0.125,-0.093l-0.127,-0.091l-0.127,-0.089l-0.129,-0.088l-0.129,-0.087l-0.131,-0.085l-0.132,-0.083l-0.133,-0.082l-0.133,-0.08l-0.135,-0.079l-0.136,-0.077l-0.137,-0.075l-0.138,-0.074l-0.139,-0.073l-0.14,-0.07l-0.141,-0.069l-0.142,-0.068l-0.143,-0.065l-0.144,-0.064l-0.145,-0.062l-0.145,-0.061l-0.147,-0.059l-0.147,-0.057l-0.148,-0.055l-0.149,-0.054l-0.15,-0.051l-0.151,-0.05l-0.152,-0.049l-0.152,-0.046l-0.153,-0.044l-0.154,-0.043l-0.155,-0.041l-0.155,-0.039l-0.156,-0.037l-0.157,-0.035l-0.158,-0.034l-0.158,-0.031l-0.159,-0.029l-0.16,-0.028l-0.16,-0.025l-0.161,-0.024l-0.162,-0.021l-0.162,-0.02l-0.163,-0.018l-0.163,-0.015l-0.164,-0.014l-0.165,-0.011l-0.165,-0.01l-0.166,-0.007l-0.166,-0.005l-0.167,-0.003l-0.167,-0.001l-62.554,0Z" style="fill:#5cb85c;"/></g><path d="M428.87,337.884l31.021,0l0,-46.533c0,-8.399 -3.069,-15.666 -9.207,-21.814c-6.143,-6.133 -13.411,-9.207 -21.814,-9.207l-124.088,0l0,-46.534l-31.02,-0.001l0,46.534l-124.088,0c-8.403,0 -15.675,3.074 -21.814,9.208c-6.142,6.142 -9.207,13.415 -9.207,21.813l0,46.533l31.025,0.001l0,-46.533l124.089,0l0,46.533l31.015,0l0,-46.533l124.088,0l0,46.533Z" style="fill:#bbc1cb;fill-rule:nonzero;"/></g></svg>